<!-- Generator: Adobe Illustrator 21.1.0, SVG Export Plug-In  -->
<svg version="1.1"
	 xmlns="http://www.w3.org/2000/svg" xmlns:xlink="http://www.w3.org/1999/xlink" xmlns:a="http://ns.adobe.com/AdobeSVGViewerExtensions/3.0/"
	 x="0px" y="0px" width="152px" height="93.8px" viewBox="0 0 152 93.8" style="enable-background:new 0 0 152 93.8;"
	 xml:space="preserve">
<style type="text/css">
	.st0{fill-rule:evenodd;clip-rule:evenodd;fill:#FFFFFF;}
</style>
<defs>
</defs>
<g>
	<path class="st0" d="M92.4,33.4v6.1l-0.3,0.7c0,0.1-0.1,0.3-0.1,0.4c-0.5,2,0.3-1.4-0.2,0.9c-1,5.4-1.8,7.2-4.8,12.1
		c-1.4,2.2-2.6,3.6-4.4,5.4c-1.1,1.1-4.2,3.7-4.8,4.5c1.3,5.3,7.1,11.9,8.9,15.3c-8.1,0-17.3-0.8-24.2-3.9c-11-4.9-2.6-1.7-14.4-1.7
		c-9,0-15.6-1-23.5-4.2C-5.6,57-9.4,20.8,21.3,5.9c7.8-3.8,18.2-7.1,31.2-5.5c16.2,2,32.5,10.7,38,26.1c0.5,1.4,0.7,2,1,3.6
		L92.4,33.4L92.4,33.4z"/>
	<path class="st0" d="M89.9,63.3v4.1l0.2,0.5c0,0.1,0.1,0.2,0.1,0.3c0.3,1.4-0.2-1,0.1,0.6c0.7,3.6,1.2,4.8,3.2,8.1
		c0.9,1.5,1.8,2.4,3,3.6c0.8,0.7,2.9,2.5,3.3,3c-0.8,3.5-4.8,8-6,10.3c5.4,0,11.6-0.6,16.3-2.6c7.4-3.3,1.7-1.1,9.7-1.1
		c6.1,0,10.5-0.7,15.8-2.8c20.2-8,22.8-32.4,2.2-42.4c-5.3-2.5-12.3-4.8-21-3.7c-10.9,1.4-21.8,7.2-25.5,17.6
		c-0.3,0.9-0.5,1.4-0.7,2.4L89.9,63.3L89.9,63.3z"/>
</g>
</svg>
