<!-- Generator: Adobe Illustrator 21.1.0, SVG Export Plug-In  -->
<svg version="1.1"
	 xmlns="http://www.w3.org/2000/svg" xmlns:xlink="http://www.w3.org/1999/xlink" xmlns:a="http://ns.adobe.com/AdobeSVGViewerExtensions/3.0/"
	 x="0px" y="0px" width="343.1px" height="217.7px" viewBox="0 0 343.1 217.7" style="enable-background:new 0 0 343.1 217.7;"
	 xml:space="preserve">
<style type="text/css">
	.st0{fill:#003399;}
	.st1{fill:none;stroke:#FFFFFF;stroke-width:7.8947;stroke-linecap:round;stroke-linejoin:round;stroke-miterlimit:22.9256;}
	.st2{fill:#0087CA;}
	.st3{fill-rule:evenodd;clip-rule:evenodd;fill:#003399;stroke:#009BDB;stroke-width:0.1019;stroke-miterlimit:22.9256;}
	.st4{fill-rule:evenodd;clip-rule:evenodd;fill:#FFFFFF;stroke:#009BDB;stroke-width:0.2671;stroke-miterlimit:22.9256;}
	.st5{fill-rule:evenodd;clip-rule:evenodd;fill:#FFFFFF;}
	.st6{fill:#003FA2;}
	.st7{fill:#009BDB;}
	.st8{fill-rule:evenodd;clip-rule:evenodd;fill:#0087CA;}
</style>
<defs>
</defs>
<g>
	<path class="st0" d="M137.7,68.6c-0.4,1.1-1.7,1.6-2.8,1.1c-1.1-0.4-1.6-1.7-1.1-2.8c8.3-20,22.4-36.9,40.2-48.8
		C191.3,6.7,212,0,234.3,0c30.1,0,57.3,12.2,77,31.9c19.7,19.7,31.9,46.9,31.9,77c0,30.1-12.2,57.3-31.9,77
		c-19.7,19.7-46.9,31.9-77,31.9c-13.5,0-26.5-2.5-38.5-7c-12.4-4.7-23.7-11.6-33.5-20.2l0,0l0,0c-1.4-1.3-2.7-2.6-3.8-3.9
		c-1.1-1.2-2.1-2.5-3.2-3.8c-0.7-0.9-0.6-2.2,0.3-3c0.9-0.7,2.2-0.6,3,0.3c0.9,1.1,1.9,2.3,3,3.6c1.1,1.2,2.2,2.4,3.5,3.6
		c9.4,8.3,20.2,14.9,32.2,19.4c11.5,4.3,23.9,6.7,37,6.7c28.9,0,55-11.7,74-30.6c18.9-18.9,30.6-45.1,30.6-74
		c0-28.9-11.7-55-30.6-74c-18.9-18.9-45.1-30.6-74-30.6c-21.4,0-41.4,6.4-57.9,17.5C159.3,33.1,145.7,49.4,137.7,68.6L137.7,68.6z"
		/>
	<path class="st1" d="M33.1,97.6c3,0,5.4-0.8,7.3-2.3c1.8-1.6,3-3.9,3.5-7.1c0.5-3,0-5.3-1.4-7c-1.4-1.6-3.7-2.4-6.9-2.4
		c-1.1,0-2.1,0-2.8,0.1c-0.8,0-1.5,0.1-2.3,0.3l-2.9,18.5H33.1L33.1,97.6z M21.5,135.9c-0.8,0.2-2.1,0.5-3.8,0.7
		c-1.7,0.2-3.4,0.4-5,0.4c-1.6,0-3.1-0.1-4.3-0.4c-1.2-0.3-2.2-0.8-2.9-1.5c-0.7-0.7-1.2-1.7-1.5-3c-0.2-1.3-0.2-2.9,0.1-5L13,70.9
		c0.3-1.7,0.9-3,1.8-3.9c1-0.9,2.2-1.6,3.7-2.2c2.6-1,5.4-1.6,8.6-2.1c3.2-0.4,6.3-0.7,9.5-0.7c9.8,0,17,2.3,21.4,7
		c4.5,4.7,6.1,11.1,4.8,19.1c-0.6,3.9-1.7,7.4-3.3,10.6c-1.6,3.1-3.7,5.8-6.2,8.1c-2.5,2.3-5.5,4-9,5.2c-3.5,1.2-7.4,1.8-11.8,1.8
		H25L21.5,135.9L21.5,135.9z M65.7,79.3c0.7-0.2,1.9-0.5,3.5-0.7c1.6-0.2,3.2-0.4,4.8-0.4c1.6,0,3,0.1,4.2,0.4
		c1.2,0.2,2.2,0.7,2.9,1.4c0.7,0.7,1.2,1.7,1.5,2.9c0.3,1.2,0.2,2.8-0.1,4.8l-4,25.6c-0.5,3.3-0.2,5.6,1,7c1.2,1.4,3.2,2.1,5.9,2.1
		c1.6,0,3-0.2,4.1-0.5c1.1-0.3,1.9-0.6,2.6-1l6.5-41.7c0.7-0.2,1.9-0.5,3.5-0.7c1.6-0.2,3.2-0.4,4.8-0.4c1.6,0,3,0.1,4.2,0.4
		c1.2,0.2,2.2,0.7,2.9,1.4c0.7,0.7,1.2,1.7,1.5,2.9c0.3,1.2,0.2,2.8-0.1,4.8l-5.7,36.3c-0.6,4-2.6,7-5.9,8.9c-2.8,1.7-5.9,3.1-9.5,4
		c-3.6,0.9-7.4,1.4-11.5,1.4c-3.8,0-7.3-0.5-10.4-1.4c-3.1-1-5.7-2.4-7.7-4.4c-2-2-3.5-4.6-4.2-7.7c-0.8-3.1-0.8-6.9-0.1-11.4
		L65.7,79.3L65.7,79.3z M151,99.7c0.4-2.5,0-4.3-1-5.4c-1.1-1.2-2.7-1.7-4.8-1.7c-1.4,0-2.9,0.2-4.3,0.6c-1.5,0.4-2.7,1-3.9,1.8
		l-6.5,41.4c-0.7,0.2-1.9,0.5-3.5,0.7c-1.6,0.2-3.2,0.4-4.8,0.4c-1.6,0-3-0.1-4.2-0.4c-1.2-0.2-2.2-0.7-2.9-1.4
		c-0.7-0.7-1.2-1.7-1.5-2.9c-0.3-1.2-0.2-2.8,0.1-4.8l5.6-35.8c0.3-2.1,1-3.9,2.1-5.2c1-1.4,2.3-2.6,3.9-3.7c2.7-1.9,6-3.5,9.9-4.7
		c3.9-1.2,8-1.8,12.5-1.8c8,0,13.9,2,17.7,5.9c3.7,3.9,5,9.4,4,16.4l-5.8,37.3c-0.7,0.2-1.9,0.5-3.5,0.7c-1.6,0.2-3.2,0.4-4.8,0.4
		c-1.6,0-3-0.1-4.2-0.4c-1.2-0.2-2.2-0.7-2.9-1.4c-0.7-0.7-1.2-1.7-1.5-2.9c-0.3-1.2-0.2-2.8,0.1-4.8L151,99.7L151,99.7z
		 M189.3,116.5c-0.3,2.1,0,3.5,1.1,4.4c1,0.9,2.6,1.3,4.8,1.3c1.1,0,2.2-0.1,3.4-0.3c1.2-0.2,2.2-0.5,3.1-0.8
		c0.5,0.9,0.9,1.8,1.2,2.9c0.3,1.1,0.3,2.4,0.1,3.9c-0.5,3-1.9,5.5-4.2,7.4c-2.3,1.9-6.1,2.9-11.2,2.9c-6.3,0-10.8-1.6-13.7-4.8
		c-2.9-3.2-3.8-8.3-2.6-15.5l8-51c0.8-0.2,2-0.5,3.5-0.8c1.5-0.3,3.1-0.4,4.7-0.4c3.1,0,5.5,0.6,7,1.8c1.6,1.2,2,3.8,1.4,7.8
		l-1.2,7.6h14c0.3,0.9,0.5,2,0.7,3.3c0.2,1.3,0.2,2.8-0.1,4.4c-0.4,2.8-1.3,4.8-2.6,6c-1.3,1.2-2.9,1.8-4.7,1.8h-9.7L189.3,116.5
		L189.3,116.5z"/>
	<path class="st2" d="M33.1,97.6c3,0,5.4-0.8,7.3-2.3c1.8-1.6,3-3.9,3.5-7.1c0.5-3,0-5.3-1.4-7c-1.4-1.6-3.7-2.4-6.9-2.4
		c-1.1,0-2.1,0-2.8,0.1c-0.8,0-1.5,0.1-2.3,0.3l-2.9,18.5H33.1L33.1,97.6z M21.5,135.9c-0.8,0.2-2.1,0.5-3.8,0.7
		c-1.7,0.2-3.4,0.4-5,0.4c-1.6,0-3.1-0.1-4.3-0.4c-1.2-0.3-2.2-0.8-2.9-1.5c-0.7-0.7-1.2-1.7-1.5-3c-0.2-1.3-0.2-2.9,0.1-5L13,70.9
		c0.3-1.7,0.9-3,1.8-3.9c1-0.9,2.2-1.6,3.7-2.2c2.6-1,5.4-1.6,8.6-2.1c3.2-0.4,6.3-0.7,9.5-0.7c9.8,0,17,2.3,21.4,7
		c4.5,4.7,6.1,11.1,4.8,19.1c-0.6,3.9-1.7,7.4-3.3,10.6c-1.6,3.1-3.7,5.8-6.2,8.1c-2.5,2.3-5.5,4-9,5.2c-3.5,1.2-7.4,1.8-11.8,1.8
		H25L21.5,135.9L21.5,135.9z"/>
	<path class="st2" d="M65.7,79.3c0.7-0.2,1.9-0.5,3.5-0.7c1.6-0.2,3.2-0.4,4.8-0.4c1.6,0,3,0.1,4.2,0.4c1.2,0.2,2.2,0.7,2.9,1.4
		c0.7,0.7,1.2,1.7,1.5,2.9c0.3,1.2,0.2,2.8-0.1,4.8l-4,25.6c-0.5,3.3-0.2,5.6,1,7c1.2,1.4,3.2,2.1,5.9,2.1c1.6,0,3-0.2,4.1-0.5
		c1.1-0.3,1.9-0.6,2.6-1l6.5-41.7c0.7-0.2,1.9-0.5,3.5-0.7c1.6-0.2,3.2-0.4,4.8-0.4c1.6,0,3,0.1,4.2,0.4c1.2,0.2,2.2,0.7,2.9,1.4
		c0.7,0.7,1.2,1.7,1.5,2.9c0.3,1.2,0.2,2.8-0.1,4.8l-5.7,36.3c-0.6,4-2.6,7-5.9,8.9c-2.8,1.7-5.9,3.1-9.5,4
		c-3.6,0.9-7.4,1.4-11.5,1.4c-3.8,0-7.3-0.5-10.4-1.4c-3.1-1-5.7-2.4-7.7-4.4c-2-2-3.5-4.6-4.2-7.7s-0.8-6.9-0.1-11.4L65.7,79.3
		L65.7,79.3z"/>
	<path class="st2" d="M151,99.7c0.4-2.5,0-4.3-1-5.4c-1.1-1.2-2.7-1.7-4.8-1.7c-1.4,0-2.9,0.2-4.3,0.6c-1.5,0.4-2.7,1-3.9,1.8
		l-6.5,41.4c-0.7,0.2-1.9,0.5-3.5,0.7c-1.6,0.2-3.2,0.4-4.8,0.4c-1.6,0-3-0.1-4.2-0.4c-1.2-0.2-2.2-0.7-2.9-1.4
		c-0.7-0.7-1.2-1.7-1.5-2.9c-0.3-1.2-0.2-2.8,0.1-4.8l5.6-35.8c0.3-2.1,1-3.9,2.1-5.2c1-1.4,2.3-2.6,3.9-3.7c2.7-1.9,6-3.5,9.9-4.7
		c3.9-1.2,8-1.8,12.5-1.8c8,0,13.9,2,17.7,5.9c3.7,3.9,5,9.4,4,16.4l-5.8,37.3c-0.7,0.2-1.9,0.5-3.5,0.7c-1.6,0.2-3.2,0.4-4.8,0.4
		c-1.6,0-3-0.1-4.2-0.4c-1.2-0.2-2.2-0.7-2.9-1.4c-0.7-0.7-1.2-1.7-1.5-2.9c-0.3-1.2-0.2-2.8,0.1-4.8L151,99.7L151,99.7z"/>
	<path class="st2" d="M189.3,116.5c-0.3,2.1,0,3.5,1.1,4.4c1,0.9,2.6,1.3,4.8,1.3c1.1,0,2.2-0.1,3.4-0.3c1.2-0.2,2.2-0.5,3.1-0.8
		c0.5,0.9,0.9,1.8,1.2,2.9c0.3,1.1,0.3,2.4,0.1,3.9c-0.5,3-1.9,5.5-4.2,7.4c-2.3,1.9-6.1,2.9-11.2,2.9c-6.3,0-10.8-1.6-13.7-4.8
		c-2.9-3.2-3.8-8.3-2.6-15.5l8-51c0.8-0.2,2-0.5,3.5-0.8c1.5-0.3,3.1-0.4,4.7-0.4c3.1,0,5.5,0.6,7,1.8c1.6,1.2,2,3.8,1.4,7.8
		l-1.2,7.6h14c0.3,0.9,0.5,2,0.7,3.3c0.2,1.3,0.2,2.8-0.1,4.4c-0.4,2.8-1.3,4.8-2.6,6c-1.3,1.2-2.9,1.8-4.7,1.8h-9.7L189.3,116.5
		L189.3,116.5z"/>
	<path class="st1" d="M308.4,119.1c-0.9,6-3.7,10.8-8.3,14.2c-4.6,3.4-10.8,5.1-18.8,5.1c-3,0-5.7-0.2-8.2-0.7
		c-2.5-0.5-4.6-1.2-6.2-2.2c-1.7-1-2.9-2.2-3.7-3.8c-0.8-1.5-1-3.3-0.7-5.4c0.3-1.9,0.9-3.5,1.8-4.8c0.9-1.3,1.9-2.4,3.1-3.3
		c1.9,1.3,4.1,2.4,6.6,3.4c2.5,1,5.5,1.5,9,1.5c2.2,0,4-0.4,5.2-1.1c1.3-0.7,2-1.7,2.2-2.9c0.2-1.1-0.1-2-0.9-2.6
		c-0.8-0.6-2.1-1.2-4-1.6l-3.1-0.7c-6-1.4-10.3-3.5-12.8-6.4c-2.6-2.9-3.4-7.1-2.6-12.5c0.5-2.9,1.4-5.6,3-8c1.5-2.4,3.4-4.4,5.7-6
		c2.3-1.6,5-2.8,8-3.7c3-0.9,6.3-1.3,9.8-1.3c2.6,0,5.1,0.2,7.3,0.7c2.2,0.4,4.2,1.1,5.7,2c1.6,0.9,2.7,2,3.5,3.4
		c0.8,1.4,1,3,0.7,4.9c-0.3,1.8-0.8,3.4-1.6,4.7c-0.8,1.3-1.7,2.4-2.8,3.3c-0.5-0.4-1.3-0.8-2.4-1.3c-1.1-0.4-2.3-0.8-3.6-1.2
		c-1.3-0.4-2.6-0.7-4-0.9c-1.4-0.2-2.6-0.4-3.7-0.4c-2.4,0-4.2,0.3-5.6,0.9c-1.4,0.6-2.2,1.5-2.4,2.8c-0.1,0.9,0.1,1.6,0.7,2.1
		c0.6,0.6,1.9,1.1,3.8,1.6l3.2,0.8c6.6,1.7,11.1,4.2,13.5,7.2C308.4,110.3,309.2,114.2,308.4,119.1L308.4,119.1z"/>
	<path class="st2" d="M308.4,119.1c-0.9,6-3.7,10.8-8.3,14.2c-4.6,3.4-10.8,5.1-18.8,5.1c-3,0-5.7-0.2-8.2-0.7
		c-2.5-0.5-4.6-1.2-6.2-2.2c-1.7-1-2.9-2.2-3.7-3.8c-0.8-1.5-1-3.3-0.7-5.4c0.3-1.9,0.9-3.5,1.8-4.8c0.9-1.3,1.9-2.4,3.1-3.3
		c1.9,1.3,4.1,2.4,6.6,3.4c2.5,1,5.5,1.5,9,1.5c2.2,0,4-0.4,5.2-1.1c1.3-0.7,2-1.7,2.2-2.9c0.2-1.1-0.1-2-0.9-2.6
		c-0.8-0.6-2.1-1.2-4-1.6l-3.1-0.7c-6-1.4-10.3-3.5-12.8-6.4c-2.6-2.9-3.4-7.1-2.6-12.5c0.5-2.9,1.4-5.6,3-8c1.5-2.4,3.4-4.4,5.7-6
		c2.3-1.6,5-2.8,8-3.7c3-0.9,6.3-1.3,9.8-1.3c2.6,0,5.1,0.2,7.3,0.7c2.2,0.4,4.2,1.1,5.7,2s2.7,2,3.5,3.4c0.8,1.4,1,3,0.7,4.9
		c-0.3,1.8-0.8,3.4-1.6,4.7c-0.8,1.3-1.7,2.4-2.8,3.3c-0.5-0.4-1.3-0.8-2.4-1.3c-1.1-0.4-2.3-0.8-3.6-1.2c-1.3-0.4-2.6-0.7-4-0.9
		c-1.4-0.2-2.6-0.4-3.7-0.4c-2.4,0-4.2,0.3-5.6,0.9c-1.4,0.6-2.2,1.5-2.4,2.8c-0.1,0.9,0.1,1.6,0.7,2.1c0.6,0.6,1.9,1.1,3.8,1.6
		l3.2,0.8c6.6,1.7,11.1,4.2,13.5,7.2C308.4,110.3,309.2,114.2,308.4,119.1L308.4,119.1z"/>
	<path class="st3" d="M267,106c0.1,1.4,0.2,2.7,0.1,4.2c-0.3,9.4-4.8,17.8-11.7,23.3c6.8-5.7,11.3-14.1,11.6-23.8
		C267.1,108.4,267.1,107.2,267,106L267,106z M236.6,79.9c15.6,0.5,27.7,13.8,27.2,29.6c-0.6,15.8-13.7,28.2-29.2,27.7
		c-15.6-0.5-27.7-13.8-27.2-29.6C207.9,91.8,221,79.4,236.6,79.9L236.6,79.9z"/>
	<path class="st4" d="M236.7,76.5c17.4,0.6,31.1,15.4,30.4,33.2c-0.6,17.7-15.3,31.6-32.7,31c-17.4-0.6-31.1-15.4-30.4-33.2
		C204.6,89.8,219.3,75.9,236.7,76.5L236.7,76.5z M236.6,79.9c15.6,0.5,27.7,13.8,27.2,29.6c-0.6,15.8-13.7,28.2-29.2,27.7
		c-15.6-0.5-27.7-13.8-27.2-29.6C207.9,91.8,221,79.4,236.6,79.9L236.6,79.9z"/>
	<path class="st5" d="M222.6,101.3h5.5v-5.5c0-4.3,3.5-7.7,7.7-7.7l0,0c4.3,0,7.7,3.5,7.7,7.7v5.5h5.5c4.3,0,7.7,3.5,7.7,7.7l0,0
		c0,4.3-3.5,7.7-7.7,7.7h-5.5v5.5c0,4.3-3.5,7.7-7.7,7.7l0,0c-4.3,0-7.7-3.5-7.7-7.7v-5.5h-5.5c-4.3,0-7.7-3.5-7.7-7.7l0,0
		C214.8,104.8,218.3,101.3,222.6,101.3L222.6,101.3z"/>
	<path class="st6" d="M234.4,105.6c-0.1,0.5-0.1,1.5,0,2h6c0.1,0.2,0.3,0.5,0.4,0.8c0.1,0.3,0.2,0.7,0.2,1.1c0,0.7-0.2,1.2-0.5,1.5
		c-0.3,0.3-0.7,0.5-1.2,0.5h-4.8v6c-0.2,0.1-0.5,0.1-1,0.2c-0.4,0.1-0.9,0.1-1.3,0.1s-0.8,0-1.1-0.1c-0.3-0.1-0.6-0.2-0.8-0.4
		c-0.2-0.2-0.4-0.4-0.5-0.7c-0.1-0.3-0.2-0.7-0.2-1.2v-6.5C230.5,107.4,232.9,105.6,234.4,105.6L234.4,105.6z"/>
	<path class="st7" d="M241.4,100.4c0.1,0.2,0.2,0.5,0.3,0.8c0.1,0.4,0.2,0.7,0.2,1.1c0,0.7-0.2,1.3-0.5,1.6
		c-0.3,0.3-0.7,0.5-1.2,0.5c-4.2,0-8.3-0.5-10.6,4v-2.2c0-3,1.7-5.7,4.9-5.7H241.4L241.4,100.4z"/>
	<path class="st8" d="M225.3,99v-3.8c0-5.2,4.2-9.5,9.5-9.5c2.7,0,5.2,1.2,6.9,3c-1.6-1.1-3.5-1.8-5.5-1.8c-5.2,0-9.5,4.3-9.5,9.5
		v3.8h-3.8c-5.2,0-9.5,4.2-9.5,9.5c0,2.5,1,4.8,2.6,6.5c-2.4-1.7-3.9-4.5-3.9-7.7c0-5.2,4.3-9.5,9.5-9.5H225.3L225.3,99z M245.6,99
		h2.4c2.7,0,5.2,1.2,6.9,3c-1.6-1.1-3.5-1.8-5.5-1.8h-3.8V99L245.6,99z M229.2,129.3c-2.4-1.7-3.9-4.5-3.9-7.7v-2.5h1.4v3.8
		C226.7,125.3,227.6,127.6,229.2,129.3L229.2,129.3z"/>
	<path class="st0" d="M250.6,159.9c-0.6,0-1.2,0.1-1.7,0.3c-0.5,0.2-0.9,0.5-1.1,0.8c-0.3,0.3-0.5,0.7-0.7,1.2
		c-0.1,0.4-0.2,0.9-0.3,1.3l6.9-1.2c-0.1-0.6-0.4-1.1-0.9-1.7C252.3,160.2,251.6,159.9,250.6,159.9L250.6,159.9z M251.7,176.2
		c-1.6,0-3.1-0.2-4.4-0.7c-1.4-0.5-2.5-1.1-3.5-2c-1-0.9-1.8-2.1-2.4-3.4c-0.6-1.4-0.9-3-0.9-4.8c0-1.8,0.3-3.4,0.9-4.7
		c0.6-1.3,1.3-2.4,2.3-3.2c0.9-0.8,2-1.5,3.2-1.9c1.2-0.4,2.4-0.6,3.7-0.6c1.4,0,2.7,0.2,3.9,0.7c1.2,0.4,2.2,1,3,1.8
		c0.8,0.8,1.5,1.7,2,2.8c0.5,1.1,0.7,2.2,0.7,3.5c0,0.9-0.3,1.7-0.8,2.2c-0.5,0.5-1.2,0.8-2.1,1l-9.9,1.5c0.3,0.9,0.9,1.6,1.8,2
		c0.9,0.5,2,0.7,3.1,0.7c1.1,0,2.1-0.1,3.1-0.4c1-0.3,1.8-0.6,2.4-1c0.4,0.3,0.8,0.7,1.1,1.2c0.3,0.5,0.4,1,0.4,1.6
		c0,1.2-0.6,2.2-1.7,2.8c-0.9,0.5-1.8,0.8-2.9,1C253.6,176.1,252.6,176.2,251.7,176.2L251.7,176.2z M233.3,168.6
		c0,0.7,0.2,1.2,0.7,1.5c0.4,0.3,1.1,0.5,1.9,0.5c0.4,0,0.8,0,1.2-0.1c0.4-0.1,0.8-0.2,1.1-0.3c0.2,0.3,0.4,0.6,0.6,1
		c0.2,0.4,0.3,0.8,0.3,1.3c0,1-0.4,1.9-1.1,2.6c-0.8,0.7-2.1,1-4,1c-2.4,0-4.2-0.6-5.5-1.7c-1.3-1.1-1.9-2.9-1.9-5.4v-17.7
		c0.3-0.1,0.7-0.2,1.3-0.3c0.6-0.1,1.1-0.1,1.8-0.1c1.2,0,2.1,0.2,2.8,0.6c0.7,0.4,1,1.3,1,2.7v2.6h5.3c0.2,0.3,0.3,0.7,0.5,1.1
		c0.1,0.5,0.2,1,0.2,1.5c0,1-0.2,1.7-0.6,2.1c-0.4,0.4-1,0.6-1.7,0.6h-3.7V168.6L233.3,168.6z M217.7,175.5
		c-0.3,0.1-0.7,0.2-1.3,0.2c-0.6,0.1-1.2,0.1-1.8,0.1c-0.6,0-1.1,0-1.6-0.1c-0.5-0.1-0.9-0.2-1.2-0.5c-0.3-0.2-0.6-0.6-0.7-1
		c-0.2-0.4-0.3-1-0.3-1.7v-12.4c0-0.6,0.1-1.2,0.3-1.6c0.2-0.5,0.6-0.9,1-1.2c0.4-0.4,1-0.7,1.6-1c0.6-0.3,1.3-0.5,2-0.8
		c0.7-0.2,1.5-0.4,2.3-0.5c0.8-0.1,1.6-0.2,2.3-0.2c1.3,0,2.3,0.3,3.1,0.8c0.8,0.5,1.1,1.3,1.1,2.5c0,0.4-0.1,0.8-0.2,1.1
		c-0.1,0.4-0.2,0.7-0.4,1c-0.6,0-1.1,0-1.7,0.1c-0.6,0.1-1.2,0.1-1.7,0.2c-0.6,0.1-1.1,0.2-1.6,0.4c-0.5,0.1-0.9,0.3-1.3,0.4V175.5
		L217.7,175.5z M194.4,165.5c0,1.7,0.3,3,0.9,3.9c0.6,0.9,1.5,1.3,2.6,1.3c1.1,0,2-0.5,2.6-1.4c0.6-0.9,0.9-2.2,0.9-3.9
		c0-1.7-0.3-2.9-0.9-3.8c-0.6-0.9-1.5-1.3-2.6-1.3c-1.1,0-2,0.4-2.6,1.3C194.7,162.6,194.4,163.8,194.4,165.5L194.4,165.5z
		 M208.5,165.5c0,1.7-0.3,3.2-0.8,4.6c-0.5,1.3-1.2,2.5-2.2,3.4c-0.9,0.9-2,1.6-3.3,2.1c-1.3,0.5-2.7,0.7-4.3,0.7s-3-0.2-4.3-0.7
		c-1.3-0.5-2.4-1.2-3.3-2.1c-0.9-0.9-1.6-2-2.2-3.4c-0.5-1.3-0.8-2.8-0.8-4.5c0-1.6,0.3-3.1,0.8-4.4c0.5-1.3,1.2-2.4,2.2-3.4
		c0.9-0.9,2-1.6,3.3-2.1c1.3-0.5,2.7-0.7,4.3-0.7s3,0.3,4.3,0.8c1.3,0.5,2.4,1.2,3.3,2.2c0.9,0.9,1.6,2,2.2,3.4
		C208.2,162.4,208.5,163.9,208.5,165.5L208.5,165.5z M178.1,162.8c0-0.9-0.2-1.5-0.7-1.9c-0.5-0.4-1.1-0.6-1.9-0.6
		c-0.5,0-1.1,0.1-1.6,0.2c-0.5,0.1-1,0.3-1.3,0.6v14.4c-0.3,0.1-0.7,0.2-1.3,0.2c-0.6,0.1-1.2,0.1-1.8,0.1c-0.6,0-1.1,0-1.6-0.1
		c-0.5-0.1-0.9-0.2-1.2-0.5c-0.3-0.2-0.6-0.6-0.7-1c-0.2-0.4-0.3-1-0.3-1.7v-12.4c0-0.7,0.2-1.4,0.5-1.8c0.3-0.5,0.7-0.9,1.3-1.3
		c0.9-0.7,2.1-1.2,3.4-1.6c1.4-0.4,2.9-0.6,4.6-0.6c3,0,5.4,0.7,7,2c1.6,1.4,2.5,3.3,2.5,5.7v13c-0.3,0.1-0.7,0.2-1.3,0.2
		c-0.6,0.1-1.2,0.1-1.8,0.1c-0.6,0-1.1,0-1.6-0.1c-0.5-0.1-0.9-0.2-1.2-0.5c-0.3-0.2-0.6-0.6-0.7-1c-0.2-0.4-0.3-1-0.3-1.7V162.8
		L178.1,162.8z M152.8,154.8c1.4,0,2.8,0.2,4,0.5c1.2,0.3,2.2,0.8,3.1,1.4c0.8,0.6,1.5,1.4,2,2.4c0.5,1,0.7,2.1,0.7,3.4v9.3
		c0,0.7-0.2,1.3-0.6,1.8c-0.4,0.5-0.9,0.8-1.4,1.2c-1.7,1.1-4.2,1.6-7.4,1.6c-1.4,0-2.7-0.1-3.8-0.4c-1.1-0.3-2.1-0.7-2.9-1.2
		c-0.8-0.6-1.4-1.3-1.9-2.1c-0.4-0.9-0.7-1.8-0.7-3c0-1.9,0.6-3.4,1.6-4.4c1.1-1,2.8-1.7,5.1-1.9l5.3-0.6v-0.3c0-0.8-0.3-1.4-1-1.7
		c-0.7-0.3-1.7-0.5-3-0.5c-1,0-2,0.1-3,0.3c-1,0.2-1.8,0.5-2.6,0.8c-0.3-0.2-0.6-0.6-0.9-1.1c-0.2-0.5-0.4-1-0.4-1.6
		c0-0.7,0.2-1.3,0.5-1.7c0.3-0.4,0.9-0.8,1.5-1.1c0.8-0.3,1.7-0.5,2.8-0.7C150.9,154.9,151.9,154.8,152.8,154.8L152.8,154.8z
		 M153.2,171.1c0.5,0,1,0,1.5-0.1c0.5-0.1,1-0.2,1.2-0.4v-3.3l-2.9,0.2c-0.8,0.1-1.4,0.2-1.9,0.5c-0.5,0.3-0.7,0.7-0.7,1.2
		c0,0.6,0.2,1,0.6,1.3C151.5,170.9,152.2,171.1,153.2,171.1L153.2,171.1z M121.1,154.8c1.1,0,2.2,0.2,3.2,0.5c1.1,0.3,2,0.8,2.8,1.4
		c0.8-0.6,1.7-1,2.7-1.4c1-0.4,2.2-0.5,3.6-0.5c1,0,2,0.1,3,0.4c1,0.3,1.9,0.7,2.6,1.3c0.8,0.6,1.4,1.4,1.8,2.4
		c0.5,1,0.7,2.2,0.7,3.6v13c-0.3,0.1-0.7,0.2-1.3,0.2c-0.6,0.1-1.2,0.1-1.8,0.1c-0.6,0-1.1,0-1.6-0.1c-0.5-0.1-0.9-0.2-1.2-0.5
		c-0.3-0.2-0.6-0.6-0.7-1c-0.2-0.4-0.3-1-0.3-1.7v-9.9c0-0.8-0.2-1.4-0.7-1.8c-0.5-0.4-1.1-0.6-1.9-0.6c-0.4,0-0.8,0.1-1.2,0.3
		c-0.4,0.2-0.8,0.4-1,0.6c0,0.1,0,0.2,0,0.3c0,0.1,0,0.2,0,0.3v13.8c-0.3,0.1-0.7,0.2-1.3,0.2c-0.6,0.1-1.2,0.1-1.8,0.1
		c-0.6,0-1.1,0-1.6-0.1c-0.5-0.1-0.9-0.2-1.2-0.5c-0.3-0.2-0.6-0.6-0.7-1c-0.2-0.4-0.3-1-0.3-1.7v-9.9c0-0.8-0.2-1.4-0.7-1.8
		c-0.5-0.4-1.1-0.6-1.8-0.6c-0.5,0-0.9,0.1-1.2,0.2c-0.3,0.2-0.6,0.3-0.9,0.4v14.5c-0.3,0.1-0.7,0.2-1.3,0.2
		c-0.6,0.1-1.2,0.1-1.8,0.1c-0.6,0-1.1,0-1.6-0.1c-0.5-0.1-0.9-0.2-1.2-0.5c-0.3-0.2-0.6-0.6-0.7-1c-0.2-0.4-0.3-1-0.3-1.7v-12.5
		c0-0.7,0.2-1.3,0.5-1.8c0.3-0.4,0.7-0.9,1.3-1.2c0.9-0.7,2-1.2,3.4-1.6C118.2,155,119.6,154.8,121.1,154.8L121.1,154.8z
		 M103.3,175.5c-0.3,0.1-0.7,0.2-1.3,0.2c-0.6,0.1-1.2,0.1-1.8,0.1c-0.6,0-1.1,0-1.6-0.1c-0.5-0.1-0.9-0.2-1.2-0.5
		c-0.3-0.2-0.6-0.6-0.7-1c-0.2-0.4-0.3-1-0.3-1.7v-12.4c0-0.6,0.1-1.2,0.3-1.6c0.2-0.5,0.6-0.9,1-1.2c0.4-0.4,1-0.7,1.6-1
		c0.6-0.3,1.3-0.5,2-0.8c0.7-0.2,1.5-0.4,2.3-0.5c0.8-0.1,1.6-0.2,2.3-0.2c1.3,0,2.3,0.3,3.1,0.8c0.8,0.5,1.1,1.3,1.1,2.5
		c0,0.4-0.1,0.8-0.2,1.1c-0.1,0.4-0.2,0.7-0.4,1c-0.6,0-1.1,0-1.7,0.1c-0.6,0.1-1.2,0.1-1.7,0.2c-0.6,0.1-1.1,0.2-1.6,0.4
		c-0.5,0.1-0.9,0.3-1.3,0.4V175.5L103.3,175.5z M83.6,154.8c1.4,0,2.8,0.2,4,0.5c1.2,0.3,2.2,0.8,3.1,1.4c0.8,0.6,1.5,1.4,2,2.4
		c0.5,1,0.7,2.1,0.7,3.4v9.3c0,0.7-0.2,1.3-0.6,1.8c-0.4,0.5-0.9,0.8-1.4,1.2c-1.7,1.1-4.2,1.6-7.4,1.6c-1.4,0-2.7-0.1-3.8-0.4
		c-1.1-0.3-2.1-0.7-2.9-1.2c-0.8-0.6-1.4-1.3-1.9-2.1c-0.4-0.9-0.7-1.8-0.7-3c0-1.9,0.6-3.4,1.7-4.4c1.1-1,2.8-1.7,5.1-1.9l5.3-0.6
		v-0.3c0-0.8-0.3-1.4-1-1.7c-0.7-0.3-1.7-0.5-3-0.5c-1,0-2,0.1-3,0.3c-1,0.2-1.8,0.5-2.6,0.8c-0.3-0.2-0.6-0.6-0.9-1.1
		c-0.2-0.5-0.4-1-0.4-1.6c0-0.7,0.2-1.3,0.5-1.7c0.3-0.4,0.9-0.8,1.6-1.1c0.8-0.3,1.7-0.5,2.8-0.7C81.7,154.9,82.7,154.8,83.6,154.8
		L83.6,154.8z M83.9,171.1c0.5,0,1,0,1.5-0.1c0.5-0.1,1-0.2,1.2-0.4v-3.3l-2.9,0.2c-0.8,0.1-1.4,0.2-1.9,0.5
		c-0.5,0.3-0.7,0.7-0.7,1.2c0,0.6,0.2,1,0.6,1.3C82.2,170.9,82.9,171.1,83.9,171.1L83.9,171.1z"/>
	<path class="st7" d="M72.2,150.5c0.2,0.3,0.4,0.7,0.5,1.2c0.1,0.5,0.2,1.1,0.2,1.6c0,1.1-0.2,1.9-0.7,2.3c-0.4,0.5-1.1,0.7-1.8,0.7
		c-6.2,0-12.3-0.8-15.6,5.9V159c0-4.4,2.5-8.5,7.3-8.5H72.2L72.2,150.5z"/>
	<path class="st0" d="M61.9,158.3c-0.1,0.8-0.1,2.1,0,2.9h8.9c0.2,0.3,0.4,0.7,0.6,1.2c0.1,0.5,0.2,1,0.2,1.6c0,1.1-0.2,1.8-0.7,2.3
		c-0.4,0.5-1.1,0.7-1.8,0.7H62v8.9c-0.3,0.1-0.8,0.2-1.4,0.3c-0.6,0.1-1.3,0.1-1.9,0.1c-0.6,0-1.2,0-1.7-0.1
		c-0.5-0.1-0.9-0.3-1.2-0.5c-0.3-0.3-0.6-0.6-0.7-1.1c-0.2-0.4-0.2-1-0.2-1.8v-9.6C56.1,160.9,59.6,158.3,61.9,158.3L61.9,158.3z"/>
</g>
</svg>
