<!-- Generator: Adobe Illustrator 21.1.0, SVG Export Plug-In  -->
<svg version="1.1"
	 xmlns="http://www.w3.org/2000/svg" xmlns:xlink="http://www.w3.org/1999/xlink" xmlns:a="http://ns.adobe.com/AdobeSVGViewerExtensions/3.0/"
	 x="0px" y="0px" width="67.7px" height="67.7px" viewBox="0 0 67.7 67.7"
	 style="overflow:scroll;enable-background:new 0 0 67.7 67.7;" xml:space="preserve">
<style type="text/css">
	.st0{fill-rule:evenodd;clip-rule:evenodd;fill:url(#SVGID_1_);}
	.st1{clip-path:url(#SVGID_3_);}
	.st2{opacity:0.5;fill-rule:evenodd;clip-rule:evenodd;fill:#E1AB8F;}
	.st3{fill-rule:evenodd;clip-rule:evenodd;fill:#FFFFFF;}
	.st4{fill-rule:evenodd;clip-rule:evenodd;}
	.st5{fill-rule:evenodd;clip-rule:evenodd;fill:#BF0811;}
	.st6{fill-rule:evenodd;clip-rule:evenodd;fill:url(#SVGID_4_);}
	.st7{clip-path:url(#SVGID_6_);}
</style>
<defs>
</defs>
<g>
	
		<radialGradient id="SVGID_1_" cx="31.1403" cy="28.4361" r="35.2432" gradientTransform="matrix(0.4384 0.8988 -0.8987 0.4383 43.045 -12.017)" gradientUnits="userSpaceOnUse">
		<stop  offset="0" style="stop-color:#D60302"/>
		<stop  offset="1" style="stop-color:#B40216"/>
	</radialGradient>
	<path class="st0" d="M33.9,0c9.3,0,17.8,3.8,23.9,9.9c6.1,6.1,9.9,14.6,9.9,23.9s-3.8,17.8-9.9,23.9c-6.1,6.1-14.6,9.9-23.9,9.9
		c-9.4,0-17.8-3.8-24-9.9C3.8,51.7,0,43.2,0,33.8S3.8,16,9.9,9.9C16,3.8,24.5,0,33.9,0z"/>
	<g>
		<defs>
			<path id="SVGID_2_" d="M33.9,0c9.3,0,17.8,3.8,23.9,9.9c6.1,6.1,9.9,14.6,9.9,23.9s-3.8,17.8-9.9,23.9
				c-6.1,6.1-14.6,9.9-23.9,9.9c-9.4,0-17.8-3.8-24-9.9C3.8,51.7,0,43.2,0,33.8S3.8,16,9.9,9.9C16,3.8,24.5,0,33.9,0z"/>
		</defs>
		<clipPath id="SVGID_3_">
			<use xlink:href="#SVGID_2_"  style="overflow:visible;"/>
		</clipPath>
		<g class="st1">
			<path class="st2" d="M34.8,1.7c11.4,0,21.5,5.8,27.4,14.7C56.2,8.7,46.9,3.8,36.5,3.8C18.6,3.8,4.1,18.3,4.1,36.2
				c0,10.4,4.9,19.7,12.6,25.6C7.8,56,2,45.9,2,34.5C2,16.3,16.6,1.7,34.8,1.7z"/>
		</g>
	</g>
	<circle class="st3" cx="13.4" cy="12.6" r="3"/>
	<g>
		<path class="st4" d="M9.7,35.5c-0.4,0.4-0.7,0.8-0.9,1.3c-0.2,0.5-0.2,1,0,1.1C9,38,9.4,37.6,9.7,37.4c0.3-0.2,0.5-0.3,0.8-0.3
			c0.4,0,1,0.2,2,0.5c1,0.4,2.5,0.9,3.9,2c1.4,1,2.7,2.5,3.9,4.3c1.2,1.8,2.2,3.9,3.3,5.5c1.1,1.6,2.1,2.7,3.1,3.5
			c1,0.8,1.8,1.2,2.8,1.5c1,0.3,2.1,0.4,3.7,0.4c1.6,0.1,3.8,0.1,5.5-0.1c1.7-0.3,2.9-0.9,3.9-2c1-1.1,1.7-2.7,2.9-4.5
			c1.2-1.8,2.7-3.9,4-5.3c1.2-1.4,2.1-2,3.3-2.6c1.1-0.5,2.5-1,3.3-1.1c0.8-0.2,1.1-0.1,1.3,0c0.2,0.2,0.3,0.4,0.5,0.7
			c0.1,0.3,0.3,0.7,0.5,0.9c0.2,0.2,0.4,0.2,0.4-0.2c0-0.4-0.1-1.2-0.6-1.9c-0.4-0.8-1.1-1.5-1.7-2c-0.6-0.5-1-0.7-1.1-0.6
			c-0.1,0.1,0,0.5,0.3,0.9c0.2,0.4,0.5,0.8,0.6,1c0,0.2-0.2,0.2-1,0.4c-0.7,0.2-1.9,0.5-4,1c-2.1,0.4-5.2,1-8.2,1.3
			c-3,0.3-5.8,0.3-8.7,0.2c-2.9-0.1-5.8-0.4-8.4-0.7c-2.6-0.3-4.8-0.8-6.7-1.3c-1.9-0.5-3.6-1.2-4.8-1.7c-1.3-0.6-2.1-1-2.6-1.3
			c-0.5-0.3-0.6-0.4-0.5-0.5c0.1-0.1,0.3-0.3,0.5-0.6c0.2-0.3,0.4-0.7,0.4-0.9c0-0.2-0.2-0.3-0.4-0.3c-0.2,0.1-0.5,0.2-0.9,0.6
			C10.6,34.5,10.1,35.1,9.7,35.5z"/>
		<path class="st5" d="M27.3,53.2c0.8,0.5,1.5,0.9,2.3,1.1c1,0.3,2.1,0.4,3.7,0.4c1.2,0.1,2.7,0.1,4.1,0c0.2-0.1,0.4-0.2,0.5-0.2
			c1.7-0.8,2.4-1.6,3.3-2.4c0.9-0.8,1.8-1.6,2.3-2c0.4-0.5,0.4-0.7-0.1-0.8c-0.5-0.2-1.3-0.3-2.2-0.2c-0.9,0.1-1.7,0.3-2.9,0.8
			c-1.1,0.4-2.6,1-3.3,1.3c-0.7,0.2-0.8,0.1-0.7-0.1c0.1-0.2,0.4-0.4,1-0.6c0.6-0.3,1.5-0.6,2-0.9c0.4-0.3,0.4-0.4,0.2-0.5
			c-0.2-0.1-0.7,0-1.7,0.2c-1,0.2-2.6,0.5-4.2,1.1c-1.6,0.6-3.1,1.5-3.9,2.4C27.5,53,27.4,53.1,27.3,53.2z"/>
		<path class="st3" d="M20.5,41.4c0.7,1.2,2.2,3.4,3.6,4.7c1.4,1.4,2.6,1.9,4.9,2.2c2.3,0.3,5.7,0.3,8.6,0.1
			c2.9-0.2,5.3-0.6,6.8-1.5c1.5-0.9,2.2-2.1,2.9-3.2c0.6-1,1.2-1.8,1.3-2.1c0-0.3-0.5-0.2-2.4-0.1c-1.8,0.2-4.9,0.4-8.4,0.4
			c-3.5,0-7.5-0.2-10.4-0.5c-2.8-0.3-4.5-0.7-5.6-1c-1.1-0.3-1.5-0.4-1.7-0.4C19.7,40,19.7,40.2,20.5,41.4z"/>
		<path class="st4" d="M28.2,57.9c0.5,0.2,1.6,0.7,2.8,1c1.2,0.3,2.4,0.6,3.9,0.5c1.5-0.1,3.3-0.4,4.4-0.7s1.4-0.6,1.2-0.7
			c-0.2-0.1-1-0.1-2.4,0c-1.4,0.1-3.3,0.2-4.8,0.2c-1.5,0-2.7-0.2-3.4-0.3c-0.8-0.1-1.2-0.2-1.5-0.2C27.9,57.7,27.7,57.7,28.2,57.9z
			"/>
	</g>
</g>
</svg>
