<!-- Generator: Adobe Illustrator 21.1.0, SVG Export Plug-In  -->
<svg version="1.1"
	 xmlns="http://www.w3.org/2000/svg" xmlns:xlink="http://www.w3.org/1999/xlink" xmlns:a="http://ns.adobe.com/AdobeSVGViewerExtensions/3.0/"
	 x="0px" y="0px" width="642.5px" height="162px" viewBox="0 0 642.5 162" style="enable-background:new 0 0 642.5 162;"
	 xml:space="preserve">
<style type="text/css">
	.st0{fill-rule:evenodd;clip-rule:evenodd;fill:#FFFFFF;}
	.st1{fill-rule:evenodd;clip-rule:evenodd;fill:#70AADC;}
	.st2{fill-rule:evenodd;clip-rule:evenodd;fill:#FFFFFF;stroke:#009BDB;stroke-width:0.5669;stroke-miterlimit:22.9256;}
	.st3{fill-rule:evenodd;clip-rule:evenodd;fill:#00377C;stroke:#009BDB;stroke-width:0.216;stroke-miterlimit:22.9256;}
	.st4{fill-rule:evenodd;clip-rule:evenodd;fill:#009BDB;}
	.st5{fill-rule:evenodd;clip-rule:evenodd;fill:#0087CA;}
</style>
<defs>
</defs>
<g>
	<path class="st0" d="M619.7,126v-12.6c1.4,0.4,3,0.6,4.6,0.6c2.5,0,4.9-0.3,7.2-1c2.3-0.7,4.1-1.5,5.5-2.3c1,0.6,1.8,1.5,2.5,2.7
		c0.7,1.1,1,2.4,1,3.6c0,2.9-1.3,5-3.9,6.4c-2,1.1-4.2,1.8-6.7,2.2c-2.5,0.4-4.8,0.6-7,0.6C621.9,126.2,620.8,126.1,619.7,126
		L619.7,126z M619.7,106.6v-11l8-1.3c-0.2-1.3-0.9-2.6-2-3.8c-1.2-1.3-2.9-1.9-5.2-1.9c-0.2,0-0.5,0-0.7,0V76.7c0.2,0,0.5,0,0.7,0
		c3.3,0,6.3,0.5,9,1.5c2.7,1,5,2.4,7,4.2c2,1.8,3.5,3.9,4.6,6.4c1.1,2.5,1.6,5.2,1.6,8.1c0,2.2-0.6,3.8-1.8,5
		c-1.2,1.1-2.8,1.9-4.9,2.2L619.7,106.6z M619.7,76.7v11.9c-1.2,0.1-2.3,0.3-3.2,0.7c-1.1,0.5-2,1.2-2.7,2c-0.7,0.8-1.2,1.7-1.5,2.7
		c-0.3,1-0.5,2-0.6,3l8-1.3v11l-6.8,1.1c0.7,2.1,2.1,3.7,4.2,4.7c0.8,0.4,1.7,0.8,2.7,1V126c-2.4-0.2-4.7-0.7-6.9-1.4
		c-3.1-1.1-5.9-2.6-8.2-4.7c-2.3-2.1-4.2-4.8-5.5-7.9c-1.3-3.2-2-6.9-2-11.2c0-4.2,0.7-7.8,2-10.9s3.1-5.5,5.3-7.5
		c2.2-1.9,4.7-3.4,7.4-4.3C614.4,77.2,617,76.7,619.7,76.7L619.7,76.7z M498.7,126.2v-12.7l0.1,0c2.6,0,4.6-1.1,6-3.2
		c1.4-2.1,2.1-5.1,2.1-8.9c0-3.8-0.7-6.8-2.1-8.9c-1.4-2.1-3.4-3.1-6-3.1V76.7c3.7,0,7,0.6,10,1.8c3,1.2,5.5,2.8,7.7,5
		c2.1,2.1,3.8,4.7,5,7.8c1.2,3.1,1.8,6.4,1.8,10.1c0,4-0.6,7.5-1.8,10.6c-1.2,3.1-2.8,5.7-5,7.8c-2.1,2.1-4.7,3.7-7.7,4.8
		C505.7,125.6,502.3,126.2,498.7,126.2L498.7,126.2z M544.4,124.5c-0.6,0.2-1.6,0.4-2.9,0.6c-1.3,0.2-2.7,0.3-4.1,0.3
		c-1.4,0-2.6-0.1-3.7-0.3c-1.1-0.2-2-0.6-2.7-1.1c-0.7-0.6-1.3-1.4-1.7-2.3c-0.4-1-0.6-2.3-0.6-3.9V89c0-1.5,0.3-2.7,0.8-3.8
		c0.5-1.1,1.3-2,2.3-2.8c1-0.8,2.2-1.6,3.7-2.3c1.5-0.7,3-1.3,4.7-1.8c1.7-0.5,3.4-0.9,5.2-1.2c1.8-0.3,3.6-0.4,5.4-0.4
		c3,0,5.3,0.6,7.1,1.8c1.7,1.2,2.6,3.1,2.6,5.8c0,0.9-0.1,1.8-0.4,2.6c-0.2,0.9-0.6,1.6-0.9,2.3c-1.3,0-2.6,0.1-4,0.2
		c-1.4,0.1-2.7,0.3-4,0.6c-1.3,0.3-2.5,0.5-3.7,0.8c-1.1,0.3-2.1,0.6-2.9,1V124.5L544.4,124.5z M580.4,108.6c0,1.7,0.5,2.8,1.5,3.5
		c1,0.7,2.5,1.1,4.3,1.1c0.9,0,1.9-0.1,2.9-0.2c1-0.2,1.9-0.4,2.6-0.6c0.6,0.7,1,1.5,1.4,2.3c0.4,0.9,0.6,1.9,0.6,3.1
		c0,2.4-0.9,4.4-2.7,5.9c-1.8,1.5-4.9,2.3-9.4,2.3c-5.5,0-9.7-1.3-12.6-3.8c-2.9-2.6-4.4-6.7-4.4-12.4v-41c0.7-0.2,1.7-0.4,2.9-0.6
		c1.3-0.2,2.6-0.3,4-0.3c2.7,0,4.9,0.5,6.4,1.5c1.5,1,2.3,3.1,2.3,6.3v6.1h12.2c0.4,0.7,0.7,1.6,1.1,2.6c0.3,1.1,0.5,2.2,0.5,3.5
		c0,2.2-0.5,3.8-1.4,4.8c-1,1-2.2,1.5-3.9,1.5h-8.5V108.6z M498.7,76.7v12.7c-2.6,0-4.6,1-6,3.1c-1.4,2.1-2.1,5-2.1,8.9
		c0,3.9,0.7,6.9,2.2,9c1.4,2,3.4,3.1,6,3.1v12.7c-3.7,0-7-0.6-10-1.7c-3-1.1-5.5-2.8-7.7-4.9c-2.1-2.1-3.8-4.7-5-7.8
		c-1.2-3.1-1.8-6.5-1.8-10.3c0-3.8,0.6-7.2,1.8-10.2c1.2-3.1,2.8-5.7,5-7.8c2.1-2.1,4.7-3.8,7.7-4.9C491.7,77.2,495,76.7,498.7,76.7
		L498.7,76.7z M395.1,126.2v-11.9h0c1.1,0,2.2-0.1,3.5-0.3c1.3-0.2,2.2-0.5,2.8-0.9v-7.7l-6.3,0.5V95.3l6.2-0.7V94
		c0-1.9-0.8-3.2-2.4-4c-1-0.5-2.3-0.9-3.9-1V76.7c3.1,0,5.9,0.4,8.4,1c2.8,0.7,5.1,1.8,7.1,3.2c2,1.4,3.5,3.3,4.5,5.5
		c1.1,2.2,1.6,4.8,1.6,7.8v21.4c0,1.7-0.4,3-1.3,4.1c-0.9,1.1-2,2-3.2,2.7C408.1,124.9,402.5,126.2,395.1,126.2L395.1,126.2
		L395.1,126.2z M452.9,95.1c0-2-0.5-3.4-1.6-4.4c-1.1-0.9-2.6-1.4-4.4-1.4c-1.2,0-2.5,0.2-3.7,0.5c-1.2,0.3-2.2,0.8-3.1,1.4v33.2
		c-0.6,0.2-1.6,0.4-2.9,0.6c-1.3,0.2-2.7,0.3-4.1,0.3c-1.4,0-2.6-0.1-3.7-0.3c-1.1-0.2-2-0.6-2.7-1.1c-0.7-0.6-1.3-1.4-1.7-2.3
		c-0.4-1-0.6-2.3-0.6-3.9V89c0-1.7,0.4-3.1,1.1-4.2c0.7-1.1,1.7-2.1,2.9-3c2.1-1.5,4.8-2.8,8-3.7c3.2-1,6.7-1.4,10.7-1.4
		c7,0,12.4,1.6,16.2,4.7c3.8,3.2,5.7,7.5,5.7,13.2v30c-0.6,0.2-1.6,0.4-2.9,0.6c-1.3,0.2-2.7,0.3-4.1,0.3c-1.4,0-2.6-0.1-3.7-0.3
		c-1.1-0.2-2-0.6-2.7-1.1c-0.7-0.6-1.3-1.4-1.7-2.3c-0.4-1-0.6-2.3-0.6-3.9V95.1z M235.1,114.3c1.1,0,2.2-0.1,3.5-0.3
		c1.3-0.2,2.2-0.5,2.8-0.9v-7.7l-6.3,0.5V95.3l6.2-0.7V94c0-1.9-0.8-3.2-2.4-4c-1-0.5-2.3-0.9-3.9-1V76.7c3.1,0,5.9,0.4,8.4,1
		c2.8,0.7,5.1,1.8,7.1,3.2c2,1.4,3.5,3.3,4.5,5.5c1.1,2.2,1.6,4.8,1.6,7.8v21.4c0,1.7-0.4,3-1.3,4.1c-0.9,1.1-2,2-3.2,2.7
		c-4,2.5-9.7,3.7-17,3.7V114.3L235.1,114.3z M395.1,76.7V89c-0.9-0.1-1.9-0.2-3-0.2c-2.4,0-4.7,0.3-6.9,0.8c-2.2,0.5-4.2,1.1-6,1.9
		c-0.8-0.6-1.5-1.5-2-2.6c-0.6-1.2-0.8-2.4-0.8-3.7c0-1.7,0.4-3,1.2-4c0.8-1,2-1.8,3.6-2.5c1.8-0.7,3.9-1.2,6.4-1.5
		c2.4-0.3,4.8-0.5,6.9-0.5C394.6,76.7,394.9,76.7,395.1,76.7L395.1,76.7z M395.1,95.3v10.6l-0.4,0c-1.7,0.1-3.2,0.5-4.3,1.1
		c-1.1,0.6-1.7,1.6-1.7,2.9s0.5,2.3,1.4,3.1c1,0.8,2.6,1.2,4.9,1.2v11.9c-3.3,0-6.2-0.3-8.9-1c-2.6-0.6-4.9-1.6-6.8-2.9
		c-1.9-1.3-3.4-2.9-4.4-4.9c-1-2-1.5-4.3-1.5-6.9c0-4.4,1.3-7.8,3.8-10.1c2.5-2.4,6.5-3.8,11.8-4.4L395.1,95.3L395.1,95.3z
		 M280,124.5c-0.6,0.2-1.6,0.4-2.9,0.6c-1.3,0.2-2.7,0.3-4.1,0.3c-1.4,0-2.6-0.1-3.7-0.3c-1.1-0.2-2-0.6-2.7-1.1
		c-0.7-0.6-1.3-1.4-1.7-2.3c-0.4-1-0.6-2.3-0.6-3.9V89c0-1.5,0.3-2.7,0.8-3.8c0.5-1.1,1.3-2,2.3-2.8c1-0.8,2.2-1.6,3.7-2.3
		c1.5-0.7,3-1.3,4.7-1.8c1.7-0.5,3.4-0.9,5.2-1.2c1.8-0.3,3.6-0.4,5.4-0.4c3,0,5.3,0.6,7.1,1.8c1.7,1.2,2.6,3.1,2.6,5.8
		c0,0.9-0.1,1.8-0.4,2.6c-0.2,0.9-0.6,1.6-0.9,2.3c-1.3,0-2.6,0.1-4,0.2c-1.4,0.1-2.7,0.3-4,0.6c-1.3,0.3-2.5,0.5-3.7,0.8
		c-1.1,0.3-2.1,0.6-2.9,1V124.5L280,124.5z M320.9,76.7c2.5,0,5,0.4,7.5,1.1c2.5,0.7,4.6,1.8,6.4,3.3c1.9-1.3,4-2.3,6.3-3.2
		c2.3-0.8,5.1-1.2,8.4-1.2c2.4,0,4.7,0.3,6.9,1c2.3,0.6,4.3,1.6,6,3c1.8,1.4,3.2,3.2,4.2,5.5c1.1,2.3,1.6,5,1.6,8.3v30.2
		c-0.6,0.2-1.6,0.4-2.9,0.6c-1.3,0.2-2.7,0.3-4.1,0.3c-1.4,0-2.6-0.1-3.7-0.3c-1.1-0.2-2-0.6-2.7-1.1c-0.7-0.6-1.3-1.4-1.7-2.3
		c-0.4-1-0.6-2.3-0.6-3.9V94.8c0-1.9-0.5-3.3-1.6-4.2c-1.1-0.9-2.5-1.3-4.3-1.3c-0.9,0-1.8,0.2-2.8,0.6c-1,0.4-1.7,0.8-2.2,1.3
		c0.1,0.3,0.1,0.5,0.1,0.7c0,0.2,0,0.4,0,0.6v31.9c-0.7,0.2-1.7,0.4-3,0.6c-1.3,0.2-2.7,0.3-4,0.3c-1.4,0-2.6-0.1-3.7-0.3
		c-1.1-0.2-2-0.6-2.7-1.1c-0.7-0.6-1.3-1.4-1.7-2.3c-0.4-1-0.6-2.3-0.6-3.9V94.8c0-1.9-0.6-3.3-1.7-4.2c-1.1-0.9-2.5-1.3-4.1-1.3
		c-1.1,0-2.1,0.2-2.9,0.5c-0.8,0.4-1.5,0.7-2,1v33.6c-0.6,0.2-1.6,0.4-2.9,0.6c-1.3,0.2-2.7,0.3-4.1,0.3c-1.4,0-2.6-0.1-3.7-0.3
		c-1.1-0.2-2-0.6-2.7-1.1c-0.7-0.6-1.3-1.4-1.7-2.3c-0.4-1-0.6-2.3-0.6-3.9V88.8c0-1.7,0.4-3.1,1.1-4.1c0.7-1,1.7-2,2.9-2.9
		c2.1-1.5,4.7-2.8,7.9-3.7C314.3,77.1,317.5,76.7,320.9,76.7z M235.1,105.9l-0.4,0c-1.7,0.1-3.2,0.5-4.3,1.1
		c-1.1,0.6-1.7,1.6-1.7,2.9s0.5,2.3,1.4,3.1c1,0.8,2.6,1.2,4.9,1.2v11.9c-3.3,0-6.2-0.3-8.9-1c-2.6-0.6-4.9-1.6-6.8-2.9
		c-1.9-1.3-3.4-2.9-4.4-4.9c-1-2-1.5-4.3-1.5-6.9c0-4.4,1.3-7.8,3.8-10.1c2.5-2.4,6.5-3.8,11.8-4.4l6-0.7V105.9L235.1,105.9z
		 M235.1,76.7V89c-0.9-0.1-1.9-0.2-3-0.2c-2.4,0-4.7,0.3-6.9,0.8c-2.2,0.5-4.2,1.1-6,1.9c-0.8-0.6-1.5-1.5-2-2.6
		c-0.6-1.2-0.8-2.4-0.8-3.7c0-1.7,0.4-3,1.2-4c0.8-1,2-1.8,3.6-2.5c1.8-0.7,3.9-1.2,6.4-1.5c2.5-0.3,4.8-0.5,6.9-0.5
		C234.6,76.7,234.8,76.7,235.1,76.7z"/>
	<g>
		<path class="st0" d="M184.9,79.3c-0.3,2-0.2,5.6-0.1,7.6h23.4c0.6,0.8,1,1.9,1.4,3.2c0.4,1.3,0.6,2.7,0.6,4.2c0,2.8-0.6,4.8-1.8,6
			c-1.2,1.2-2.8,1.8-4.7,1.8h-18.7v23.1c-0.8,0.2-2,0.4-3.7,0.7c-1.7,0.2-3.3,0.3-5,0.3c-1.6,0-3.1-0.1-4.3-0.4
			c-1.2-0.3-2.3-0.7-3.1-1.4c-0.9-0.7-1.5-1.6-1.9-2.7c-0.4-1.2-0.6-2.7-0.6-4.6V91.9C169.8,86.1,179,79.3,184.9,79.3z"/>
		<path class="st1" d="M211.8,59.1c0.5,0.8,0.9,1.9,1.3,3.2c0.4,1.4,0.6,2.8,0.6,4.2c0,2.9-0.6,4.9-1.8,6.1
			c-1.2,1.2-2.8,1.8-4.7,1.8c-16.2,0-32.2-2.1-40.8,15.3v-8.6c0-11.4,6.5-22.1,19-22.1H211.8z"/>
	</g>
	<path class="st0" d="M542.9,19.7c2.3,0,4.5,0.3,6.5,0.8c2.1,0.5,3.9,1.4,5.4,2.5c1.5,1.1,2.7,2.5,3.5,4.2c0.8,1.7,1.2,3.7,1.2,6
		v16.5c0,1.3-0.3,2.3-1,3.1c-0.7,0.8-1.5,1.5-2.5,2.1c-3.1,1.9-7.5,2.9-13.1,2.9v-9.1c0.8,0,1.7-0.1,2.7-0.3c1-0.2,1.7-0.4,2.2-0.7
		v-5.9l-4.9,0.4v-8.1l4.8-0.5V33c0-1.4-0.6-2.4-1.8-3.1c-0.8-0.4-1.8-0.7-3-0.8V19.7z M542.4,19.7c0.2,0,0.4,0,0.6,0v9.5
		c-0.7-0.1-1.5-0.1-2.3-0.1c-1.8,0-3.6,0.2-5.3,0.6c-1.7,0.4-3.3,0.9-4.6,1.5c-0.6-0.4-1.1-1.1-1.6-2c-0.4-0.9-0.6-1.8-0.6-2.8
		c0-1.3,0.3-2.3,0.9-3.1c0.6-0.8,1.5-1.4,2.8-1.9c1.4-0.5,3-0.9,4.9-1.2C538.9,19.8,540.7,19.7,542.4,19.7L542.4,19.7z M542.9,57.7
		c-2.5,0-4.8-0.2-6.8-0.7c-2-0.5-3.8-1.2-5.2-2.2c-1.5-1-2.6-2.2-3.4-3.7c-0.8-1.5-1.2-3.3-1.2-5.3c0-3.4,1-6,2.9-7.8
		c2-1.8,5-2.9,9.1-3.4l4.6-0.5v8.1l-0.3,0c-1.3,0.1-2.4,0.4-3.3,0.9c-0.9,0.5-1.3,1.2-1.3,2.2c0,1,0.4,1.8,1.1,2.4
		c0.7,0.6,2,0.9,3.8,0.9V57.7z"/>
	<path class="st0" d="M522.1,56.5c-0.5,0.1-1.3,0.2-2.3,0.4c-1,0.2-2.1,0.3-3.1,0.3c-1,0-2-0.1-2.8-0.2c-0.8-0.1-1.5-0.4-2.1-0.9
		c-0.6-0.4-1-1-1.3-1.8c-0.3-0.8-0.5-1.8-0.5-3V21.3c0.5-0.1,1.3-0.2,2.3-0.4c1-0.2,2.1-0.3,3.1-0.3c1,0,2,0.1,2.8,0.2
		c0.8,0.1,1.5,0.4,2.1,0.9c0.6,0.4,1,1,1.3,1.8c0.3,0.8,0.5,1.8,0.5,3V56.5z"/>
	<path class="st0" d="M520.3,1.9c2.5,0,4.3,0.5,5.4,1.5c1.1,1,1.7,2.2,1.7,3.5c0,1.3-0.3,2.3-1,3.2c-0.7,0.9-1.8,1.7-3.3,2.5l-9.2,5
		c-1.4-0.1-2.6-0.7-3.6-1.8c-1-1-1.5-2.1-1.5-3.3c0-0.6,0.1-1.2,0.4-1.8c0.3-0.6,0.8-1.1,1.4-1.6L520.3,1.9z"/>
	<path class="st0" d="M494.1,56.5c-0.5,0.1-1.2,0.3-2.3,0.4c-1,0.1-2.1,0.2-3.2,0.2c-1,0-2-0.1-2.8-0.2c-0.8-0.1-1.5-0.4-2.1-0.9
		c-0.6-0.4-1-1-1.3-1.8c-0.3-0.8-0.5-1.8-0.5-3v-22c0-1.1,0.2-2.1,0.6-2.9c0.4-0.8,1-1.5,1.8-2.2c0.8-0.6,1.7-1.2,2.8-1.7
		c1.1-0.5,2.3-1,3.6-1.4c1.3-0.4,2.6-0.7,4-0.9c1.4-0.2,2.8-0.3,4.1-0.3c2.3,0,4.1,0.5,5.4,1.4c1.3,0.9,2,2.4,2,4.4
		c0,0.7-0.1,1.4-0.3,2c-0.2,0.7-0.4,1.3-0.7,1.8c-1,0-2,0-3.1,0.1c-1,0.1-2.1,0.2-3.1,0.4c-1,0.2-1.9,0.4-2.8,0.6
		c-0.9,0.2-1.6,0.5-2.3,0.8V56.5z"/>
	<path class="st0" d="M460.8,28.8c-0.2,0-0.4,0-0.5,0v-9.1c0.2,0,0.4,0,0.5,0c2.5,0,4.8,0.4,6.9,1.2c2.1,0.8,3.9,1.9,5.4,3.2
		c1.5,1.4,2.7,3,3.5,4.9c0.8,1.9,1.3,4,1.3,6.2c0,1.7-0.5,2.9-1.4,3.8c-0.9,0.9-2.2,1.4-3.8,1.7l-12.4,1.9v-8.5l6.1-1
		c-0.1-1-0.7-2-1.6-2.9C463.9,29.3,462.5,28.8,460.8,28.8L460.8,28.8z M460.2,57.6v-9.7c1.1,0.3,2.3,0.4,3.5,0.4
		c2,0,3.8-0.3,5.5-0.8c1.7-0.5,3.2-1.1,4.3-1.8c0.8,0.5,1.4,1.2,1.9,2.1c0.5,0.9,0.8,1.8,0.8,2.8c0,2.2-1,3.8-3,4.9
		c-1.5,0.8-3.2,1.4-5.1,1.7c-1.9,0.3-3.7,0.4-5.4,0.4C461.9,57.7,461.1,57.7,460.2,57.6z M460.2,28.9c-0.9,0.1-1.7,0.2-2.4,0.6
		c-0.8,0.4-1.5,0.9-2,1.5c-0.5,0.6-0.9,1.3-1.2,2.1c-0.3,0.8-0.4,1.5-0.5,2.3l6.1-1v8.5l-5.3,0.8c0.5,1.6,1.6,2.8,3.2,3.6
		c0.6,0.3,1.3,0.6,2,0.8v9.7c-1.9-0.2-3.6-0.5-5.3-1.1c-2.4-0.8-4.5-2-6.3-3.6c-1.8-1.6-3.2-3.7-4.2-6.1c-1-2.4-1.5-5.3-1.5-8.6
		c0-3.2,0.5-6,1.5-8.3c1-2.3,2.4-4.2,4-5.7c1.7-1.5,3.6-2.6,5.7-3.3c2-0.7,4-1,6-1.1V28.9z"/>
	<path class="st0" d="M404.5,21.3c0.5-0.1,1.2-0.3,2.3-0.4c1-0.1,2.1-0.2,3.2-0.2c1,0,2,0.1,2.8,0.2c0.8,0.1,1.5,0.4,2.1,0.9
		c0.6,0.4,1,1,1.3,1.8c0.3,0.8,0.5,1.8,0.5,3v15.8c0,2,0.5,3.4,1.4,4.3c1,0.9,2.3,1.3,4.1,1.3c1.1,0,2-0.1,2.7-0.3
		c0.7-0.2,1.2-0.4,1.6-0.6V21.3c0.5-0.1,1.2-0.3,2.3-0.4c1-0.1,2.1-0.2,3.2-0.2c1,0,2,0.1,2.8,0.2c0.8,0.1,1.5,0.4,2.1,0.9
		c0.6,0.4,1,1,1.3,1.8c0.3,0.8,0.5,1.8,0.5,3v22.3c0,2.4-1,4.3-3,5.5c-1.7,1.1-3.7,1.9-6,2.5c-2.3,0.6-4.8,0.8-7.5,0.8
		c-2.6,0-4.9-0.3-7.1-0.9c-2.2-0.6-4-1.5-5.6-2.7c-1.6-1.2-2.8-2.8-3.6-4.7c-0.9-1.9-1.3-4.3-1.3-7V21.3z"/>
	<path class="st0" d="M387.1,30.4c-0.3-0.2-0.8-0.4-1.5-0.6c-0.6-0.2-1.4-0.3-2.4-0.3c-0.6,0-1.1,0-1.6,0.1v-9.9c0.3,0,0.7,0,1,0
		c2.7,0,5.2,0.4,7.4,1.1c2.2,0.7,4.1,1.6,5.6,2.8c1,0.7,1.7,1.4,2.3,2.3c0.5,0.8,0.8,1.9,0.8,3.2v25.7c0,2.6-0.5,4.8-1.4,6.7
		c-1,1.9-2.3,3.5-3.9,4.7c-1.6,1.2-3.6,2.2-5.8,2.8c-1.9,0.5-3.9,0.8-6,0.9v-10c1.3-0.2,2.4-0.6,3.4-1.1c1.5-0.9,2.3-2.3,2.3-4.3
		v-1.2c-1.6,0.7-3.5,1.1-5.6,1.3v-9.3c0.3,0,0.5,0,0.8,0c2,0,3.5-0.5,4.6-1.4V30.4z M381.6,29.6c-1.6,0.2-2.8,0.9-3.7,1.9
		c-1.2,1.3-1.8,3.3-1.8,5.8c0,2.8,0.6,4.9,1.8,6.1c1,1.1,2.2,1.7,3.7,1.8v9.3c-0.5,0-1,0-1.5,0c-2.1,0-4.2-0.3-6.1-1
		c-1.9-0.7-3.6-1.7-5.1-3.1c-1.5-1.4-2.6-3.2-3.5-5.4c-0.9-2.2-1.3-4.8-1.3-7.9c0-3,0.5-5.6,1.4-7.8c0.9-2.2,2.2-4,3.9-5.5
		c1.6-1.4,3.6-2.5,5.9-3.2c2-0.6,4.1-1,6.4-1V29.6L381.6,29.6z M381.6,59.9v10c-0.4,0-0.8,0-1.1,0c-4.3,0-7.7-0.6-10.2-1.8
		c-2.5-1.2-3.7-3.1-3.7-5.8c0-1.1,0.2-2.1,0.7-3c0.5-0.9,1-1.5,1.5-1.9c1.4,0.8,2.9,1.4,4.7,2c1.7,0.5,3.5,0.8,5.4,0.8
		C379.9,60.1,380.8,60,381.6,59.9z"/>
	<path class="st0" d="M342.7,47.9L342.7,47.9c2.1,0,3.6-0.8,4.7-2.4c1.1-1.6,1.6-3.9,1.6-6.8c0-2.9-0.5-5.2-1.6-6.8
		c-1.1-1.6-2.6-2.4-4.6-2.4v-9.8c2.8,0,5.4,0.5,7.6,1.4c2.3,0.9,4.3,2.2,5.9,3.8c1.6,1.6,2.9,3.6,3.8,6c0.9,2.4,1.4,4.9,1.4,7.8
		c0,3-0.5,5.7-1.4,8.1c-0.9,2.4-2.2,4.4-3.8,6c-1.6,1.6-3.6,2.8-5.9,3.7c-2.3,0.8-4.8,1.2-7.6,1.2V47.9z M336.5,38.7
		c0,3,0.6,5.3,1.7,6.9c1.1,1.6,2.6,2.4,4.6,2.4v9.8h0c-2.8,0-5.4-0.4-7.6-1.3c-2.3-0.9-4.3-2.1-5.9-3.8c-1.6-1.6-2.9-3.6-3.8-6
		c-0.9-2.4-1.4-5-1.4-7.9c0-2.9,0.5-5.5,1.4-7.9c0.9-2.4,2.2-4.3,3.8-6c1.6-1.6,3.6-2.9,5.9-3.8c2.3-0.9,4.8-1.3,7.6-1.3h0v9.8h0
		c-2,0-3.5,0.8-4.6,2.4C337,33.5,336.5,35.7,336.5,38.7z"/>
	<path class="st0" d="M311.3,56.5c-0.5,0.1-1.2,0.3-2.3,0.4c-1,0.1-2.1,0.2-3.2,0.2c-1,0-2-0.1-2.8-0.2c-0.8-0.1-1.5-0.4-2.1-0.9
		c-0.6-0.4-1-1-1.3-1.8c-0.3-0.8-0.5-1.8-0.5-3v-22c0-1.1,0.2-2.1,0.6-2.9c0.4-0.8,1-1.5,1.8-2.2c0.8-0.6,1.7-1.2,2.8-1.7
		c1.1-0.5,2.3-1,3.6-1.4c1.3-0.4,2.6-0.7,4-0.9c1.4-0.2,2.8-0.3,4.1-0.3c2.3,0,4.1,0.5,5.4,1.4c1.3,0.9,2,2.4,2,4.4
		c0,0.7-0.1,1.4-0.3,2c-0.2,0.7-0.4,1.3-0.7,1.8c-1,0-2,0-3.1,0.1c-1,0.1-2.1,0.2-3.1,0.4c-1,0.2-1.9,0.4-2.8,0.6
		c-0.9,0.2-1.6,0.5-2.3,0.8V56.5z"/>
	<path class="st0" d="M278.2,34.1c0.1-0.8,0.1-1.7,0.1-2.6c0-4.6-1-8.1-3.1-10.4c-4.1-4.6-17.9-5-24.1-5.2c-0.5,0-1.1,0-1.6-0.1l0,0
		v-3.3c0-1.1,0.3-1.9,0.9-2.5c0.6-0.6,1.4-1.1,2.4-1.4c2.1-0.7,4.4-1.2,6.8-1.4c2.4-0.2,4.5-0.3,6.4-0.3c3.9,0,7.4,0.5,10.6,1.5
		c3.2,1,5.9,2.5,8.2,4.5c2.3,2,4,4.6,5.3,7.7c1.2,3.1,1.9,6.7,1.9,10.9c0,4.1-0.6,7.7-1.8,10.7c-1.2,3.1-2.9,5.6-5.1,7.7
		c-2.2,2.1-4.9,3.6-8,4.7c-3,1-6.2,1.5-9.8,1.5c2.4-1.4,4.6-3.2,6.2-5.4C276.8,45.8,278.2,39.9,278.2,34.1z"/>
	<path class="st1" d="M262.4,44.7c0.5,0.1,1.2,0.2,2,0.3c0.8,0.1,1.5,0.1,2.2,0.1c1.7,0,3.3-0.3,4.7-0.8c1.4-0.5,2.6-1.3,3.7-2.4
		c0.9-1,1.7-2.2,2.2-3.7c-0.1,0.5-0.3,1.1-0.4,1.6c-2.3,8.5-11,16.9-20.1,15.1c-1.2-0.2-2.3-0.6-3.3-1c-2.7-1.1-4.1-3-4.1-5.6V16.7
		c0.5,0,1.1,0,1.6,0.1c1.2,0.1,10.2,0.7,11.4,1.1V44.7z"/>
	<path class="st0" d="M223.3,147.2c0.5-0.1,1.1-0.1,1.6-0.1c0.5,0,1.1,0,1.6,0.1l0.2,12c-0.6,0.1-1.2,0.1-1.8,0.1
		c-0.6,0-1.2,0-1.9-0.1L223.3,147.2L223.3,147.2z M223.2,145.2c-0.1-0.6-0.1-1.2-0.1-1.8c0-0.6,0-1.2,0.1-1.8
		c0.6-0.1,1.2-0.1,1.7-0.1c0.6,0,1.2,0,1.8,0.1c0.1,0.6,0.1,1.2,0.1,1.8c0,0.6,0,1.2-0.1,1.8c-0.6,0.1-1.2,0.1-1.7,0.1
		C224.3,145.3,223.7,145.3,223.2,145.2L223.2,145.2z M233.2,146.1c-0.5-0.2-1-0.4-1.4-0.7c-0.4-0.3-0.8-0.6-1.1-0.9
		c-0.3-0.3-0.5-0.8-0.7-1.3c-0.2-0.5-0.2-1.1-0.2-1.8c0-0.8,0.1-1.6,0.4-2.2c0.3-0.6,0.7-1.2,1.2-1.6c0.5-0.4,1.1-0.8,1.8-1
		c0.7-0.2,1.5-0.3,2.4-0.3c0.8,0,1.6,0.1,2.3,0.2c0.7,0.1,1.4,0.4,2.2,0.6c-0.1,0.9-0.3,1.9-0.8,2.8c-0.2-0.1-0.5-0.2-0.7-0.3
		c-0.2-0.1-0.5-0.2-0.8-0.2c-0.3-0.1-0.6-0.1-0.9-0.2c-0.3,0-0.7-0.1-1.2-0.1c-0.3,0-0.5,0-0.8,0.1c-0.3,0-0.5,0.1-0.7,0.3
		c-0.2,0.1-0.4,0.3-0.5,0.6c-0.1,0.3-0.2,0.6-0.2,1c0,0.3,0.1,0.6,0.2,0.8c0.1,0.2,0.3,0.4,0.5,0.6c0.2,0.2,0.4,0.3,0.6,0.4
		c0.2,0.1,0.5,0.2,0.7,0.3l1.4,0.6c0.6,0.2,1.1,0.5,1.6,0.8c0.5,0.3,0.9,0.6,1.2,1c0.3,0.4,0.6,0.8,0.8,1.4c0.2,0.5,0.3,1.2,0.3,2
		c0,0.8-0.1,1.6-0.4,2.3c-0.3,0.7-0.7,1.3-1.3,1.8c-0.6,0.5-1.2,0.9-2.1,1.1c-0.8,0.3-1.8,0.4-2.8,0.4c-0.5,0-1,0-1.4,0
		c-0.4,0-0.8-0.1-1.2-0.2c-0.4-0.1-0.7-0.2-1.1-0.3c-0.4-0.1-0.7-0.3-1.1-0.4c0-0.5,0.1-1,0.3-1.5c0.1-0.5,0.3-1,0.5-1.6
		c0.7,0.3,1.3,0.5,1.9,0.6c0.6,0.1,1.2,0.2,1.9,0.2c1,0,1.8-0.2,2.4-0.6c0.6-0.4,0.9-1,0.9-1.7c0-0.4-0.1-0.7-0.2-1
		c-0.1-0.3-0.3-0.5-0.5-0.7c-0.2-0.2-0.5-0.3-0.7-0.5c-0.3-0.1-0.5-0.2-0.8-0.4L233.2,146.1L233.2,146.1z M243,141.6
		c0.6-0.1,1.1-0.1,1.7-0.1c0.6,0,1.1,0,1.7,0.1v6.7c0,0.7,0.1,1.2,0.2,1.6c0.1,0.4,0.3,0.8,0.5,1c0.2,0.3,0.5,0.4,0.8,0.5
		c0.3,0.1,0.7,0.2,1.1,0.2c0.6,0,1.1-0.1,1.5-0.2v-9.9c0.6-0.1,1.1-0.1,1.7-0.1c0.6,0,1.1,0,1.7,0.1v12.1c-0.5,0.2-1.2,0.4-2,0.5
		c-0.8,0.2-1.7,0.3-2.6,0.3c-0.8,0-1.6-0.1-2.3-0.2c-0.7-0.1-1.4-0.4-2-0.8c-0.6-0.4-1-1-1.3-1.9c-0.3-0.8-0.5-1.9-0.5-3.3V141.6
		L243,141.6z M265.1,146.1c-0.5-0.2-1-0.4-1.4-0.7c-0.4-0.3-0.8-0.6-1.1-0.9c-0.3-0.3-0.5-0.8-0.7-1.3c-0.2-0.5-0.2-1.1-0.2-1.8
		c0-0.8,0.1-1.6,0.4-2.2c0.3-0.6,0.7-1.2,1.2-1.6c0.5-0.4,1.1-0.8,1.8-1c0.7-0.2,1.5-0.3,2.4-0.3c0.8,0,1.6,0.1,2.3,0.2
		c0.7,0.1,1.4,0.4,2.2,0.6c-0.1,0.9-0.3,1.9-0.8,2.8c-0.2-0.1-0.5-0.2-0.7-0.3c-0.2-0.1-0.5-0.2-0.8-0.2c-0.3-0.1-0.6-0.1-0.9-0.2
		c-0.3,0-0.7-0.1-1.2-0.1c-0.3,0-0.5,0-0.8,0.1c-0.3,0-0.5,0.1-0.7,0.3c-0.2,0.1-0.4,0.3-0.5,0.6c-0.1,0.3-0.2,0.6-0.2,1
		c0,0.3,0.1,0.6,0.2,0.8c0.1,0.2,0.3,0.4,0.5,0.6c0.2,0.2,0.4,0.3,0.6,0.4c0.2,0.1,0.5,0.2,0.7,0.3l1.4,0.6c0.6,0.2,1.1,0.5,1.6,0.8
		c0.5,0.3,0.9,0.6,1.2,1c0.3,0.4,0.6,0.8,0.8,1.4c0.2,0.5,0.3,1.2,0.3,2c0,0.8-0.1,1.6-0.4,2.3c-0.3,0.7-0.7,1.3-1.3,1.8
		c-0.6,0.5-1.2,0.9-2.1,1.1c-0.8,0.3-1.8,0.4-2.8,0.4c-0.5,0-1,0-1.4,0c-0.4,0-0.8-0.1-1.2-0.2c-0.4-0.1-0.7-0.2-1.1-0.3
		c-0.4-0.1-0.7-0.3-1.1-0.4c0-0.5,0.1-1,0.3-1.5c0.1-0.5,0.3-1,0.5-1.6c0.7,0.3,1.3,0.5,1.9,0.6c0.6,0.1,1.2,0.2,1.9,0.2
		c1,0,1.8-0.2,2.4-0.6c0.6-0.4,0.9-1,0.9-1.7c0-0.4-0.1-0.7-0.2-1c-0.1-0.3-0.3-0.5-0.5-0.7c-0.2-0.2-0.5-0.3-0.7-0.5
		c-0.3-0.1-0.5-0.2-0.8-0.4L265.1,146.1L265.1,146.1z M281.2,148.4c-0.2,0-0.4-0.1-0.6-0.1c-0.2,0-0.4,0-0.6,0
		c-0.8,0-1.4,0.1-1.8,0.4c-0.5,0.3-0.7,0.7-0.7,1.4c0,0.4,0.1,0.7,0.3,1c0.2,0.2,0.4,0.4,0.6,0.5c0.2,0.1,0.5,0.2,0.8,0.2
		c0.3,0,0.5,0,0.7,0c0.2,0,0.5,0,0.7-0.1c0.2,0,0.4-0.1,0.6-0.1V148.4L281.2,148.4z M281.2,145.9c0-0.4-0.1-0.7-0.2-1
		c-0.1-0.2-0.3-0.4-0.5-0.6c-0.2-0.1-0.5-0.2-0.8-0.3c-0.3,0-0.7-0.1-1.1-0.1c-0.9,0-1.8,0.2-2.7,0.5c-0.2-0.4-0.4-0.8-0.5-1.2
		c-0.1-0.4-0.2-0.8-0.2-1.3c0.7-0.2,1.4-0.4,2.1-0.5c0.7-0.1,1.3-0.2,1.9-0.2c1.6,0,2.9,0.4,3.9,1.2c0.9,0.8,1.4,2.1,1.4,3.9v7.3
		c-0.6,0.2-1.2,0.4-2,0.5c-0.8,0.2-1.7,0.2-2.7,0.2c-0.8,0-1.5-0.1-2.2-0.2c-0.7-0.1-1.3-0.4-1.7-0.7c-0.5-0.3-0.9-0.8-1.1-1.3
		c-0.3-0.5-0.4-1.2-0.4-2s0.2-1.4,0.5-2c0.3-0.5,0.7-1,1.3-1.3c0.5-0.3,1.1-0.5,1.7-0.7c0.6-0.1,1.3-0.2,1.9-0.2c0.5,0,1,0,1.5,0.1
		V145.9L281.2,145.9z M287.4,136.4c0.6-0.1,1.1-0.1,1.7-0.1c0.5,0,1.1,0,1.7,0.1v12.8c0,0.5,0,0.9,0.1,1.2c0.1,0.3,0.1,0.6,0.3,0.7
		c0.1,0.2,0.3,0.3,0.5,0.4c0.2,0.1,0.4,0.1,0.7,0.1c0.1,0,0.3,0,0.4,0c0.2,0,0.3,0,0.4-0.1c0.2,0.7,0.3,1.3,0.3,2c0,0.1,0,0.2,0,0.4
		c0,0.1,0,0.2,0,0.4c-0.3,0.1-0.6,0.1-0.9,0.2c-0.4,0-0.7,0-1,0c-1.2,0-2.2-0.3-2.9-1c-0.7-0.7-1.1-1.8-1.1-3.4V136.4L287.4,136.4z
		 M295,141.6c0.6-0.1,1.1-0.1,1.7-0.1c0.6,0,1.1,0,1.7,0.1v6.7c0,0.7,0.1,1.2,0.2,1.6c0.1,0.4,0.3,0.8,0.5,1
		c0.2,0.3,0.5,0.4,0.8,0.5c0.3,0.1,0.7,0.2,1.1,0.2c0.6,0,1.1-0.1,1.5-0.2v-9.9c0.6-0.1,1.1-0.1,1.7-0.1c0.6,0,1.1,0,1.7,0.1v12.1
		c-0.5,0.2-1.2,0.4-2,0.5c-0.8,0.2-1.7,0.3-2.6,0.3c-0.8,0-1.6-0.1-2.3-0.2c-0.7-0.1-1.4-0.4-2-0.8c-0.6-0.4-1-1-1.3-1.9
		c-0.3-0.8-0.5-1.9-0.5-3.3V141.6L295,141.6z M316.1,136.4c0.3,0,0.6-0.1,0.8-0.1c0.3,0,0.6,0,0.8,0c0.3,0,0.5,0,0.8,0
		c0.3,0,0.6,0,0.9,0.1v17.5c-0.7,0.2-1.5,0.4-2.3,0.5c-0.8,0.1-1.7,0.2-2.8,0.2c-0.8,0-1.6-0.1-2.4-0.4c-0.8-0.2-1.4-0.6-2-1.1
		c-0.6-0.5-1-1.2-1.4-2c-0.3-0.8-0.5-1.8-0.5-3c0-0.9,0.1-1.8,0.4-2.6c0.3-0.8,0.7-1.5,1.3-2.1c0.5-0.6,1.2-1.1,2-1.4
		c0.8-0.4,1.6-0.5,2.6-0.5c0.3,0,0.6,0,0.9,0c0.3,0,0.6,0.1,0.9,0.2V136.4L316.1,136.4z M316.1,144.2c-0.3-0.1-0.6-0.1-0.8-0.2
		c-0.2,0-0.4,0-0.7,0c-0.5,0-1,0.1-1.4,0.3c-0.4,0.2-0.7,0.5-1,0.9c-0.3,0.4-0.4,0.8-0.6,1.3c-0.1,0.5-0.2,1-0.2,1.6
		c0,0.7,0.1,1.2,0.2,1.7c0.2,0.5,0.4,0.8,0.7,1.1c0.3,0.3,0.6,0.5,1,0.6c0.4,0.1,0.8,0.2,1.2,0.2c0.3,0,0.5,0,0.7,0
		c0.2,0,0.5-0.1,0.7-0.2V144.2L316.1,144.2z M330.7,149c0.1,1,0.4,1.7,1,2.1c0.6,0.4,1.4,0.7,2.4,0.7c0.5,0,1.1-0.1,1.7-0.2
		c0.6-0.1,1.1-0.3,1.6-0.5c0.2,0.3,0.3,0.7,0.5,1.2c0.1,0.5,0.2,0.9,0.2,1.5c-1.2,0.5-2.6,0.7-4.2,0.7c-1.1,0-2.1-0.2-2.9-0.5
		c-0.8-0.3-1.5-0.8-2-1.4c-0.5-0.6-0.9-1.3-1.1-2.1c-0.2-0.8-0.4-1.7-0.4-2.6c0-0.9,0.1-1.8,0.4-2.6c0.3-0.8,0.6-1.5,1.1-2.1
		c0.5-0.6,1.1-1.1,1.9-1.4c0.7-0.4,1.6-0.5,2.6-0.5c0.9,0,1.6,0.2,2.3,0.5c0.7,0.3,1.2,0.7,1.7,1.3c0.5,0.5,0.8,1.2,1.1,1.9
		c0.2,0.7,0.4,1.5,0.4,2.4c0,0.3,0,0.6,0,0.9c0,0.3-0.1,0.5-0.1,0.7H330.7L330.7,149z M335.5,146.6c0-0.8-0.2-1.4-0.6-1.9
		c-0.4-0.5-0.9-0.7-1.6-0.7c-0.8,0-1.4,0.2-1.8,0.7c-0.4,0.5-0.7,1.1-0.7,1.9H335.5L335.5,146.6z M343.7,148.7
		c-0.9-0.3-1.6-0.6-2.1-1.2c-0.5-0.5-0.7-1.3-0.7-2.3c0-1.2,0.4-2.2,1.3-2.9c0.9-0.7,2-1.1,3.5-1.1c0.6,0,1.2,0.1,1.8,0.2
		c0.6,0.1,1.2,0.3,1.8,0.5c0,0.4-0.1,0.9-0.2,1.3c-0.1,0.5-0.3,0.9-0.5,1.2c-0.4-0.2-0.8-0.3-1.3-0.4c-0.5-0.1-0.9-0.2-1.4-0.2
		c-0.5,0-1,0.1-1.3,0.3c-0.3,0.2-0.5,0.4-0.5,0.8c0,0.4,0.1,0.6,0.3,0.8c0.2,0.1,0.5,0.3,0.9,0.4l1.4,0.4c0.4,0.1,0.8,0.3,1.2,0.5
		c0.4,0.2,0.7,0.4,0.9,0.7c0.3,0.3,0.5,0.6,0.6,1c0.1,0.4,0.2,0.9,0.2,1.5c0,0.6-0.1,1.2-0.4,1.7c-0.2,0.5-0.6,1-1.1,1.4
		c-0.5,0.4-1,0.7-1.7,0.9c-0.7,0.2-1.4,0.3-2.3,0.3c-0.4,0-0.7,0-1,0c-0.3,0-0.6-0.1-0.9-0.1c-0.3-0.1-0.6-0.1-0.9-0.2
		c-0.3-0.1-0.6-0.2-0.9-0.3c0-0.4,0.1-0.9,0.2-1.3c0.1-0.4,0.3-0.9,0.5-1.3c0.5,0.2,1,0.4,1.5,0.5c0.5,0.1,1,0.2,1.5,0.2
		c0.2,0,0.5,0,0.7-0.1c0.3,0,0.5-0.1,0.7-0.2c0.2-0.1,0.4-0.2,0.6-0.4c0.1-0.2,0.2-0.4,0.2-0.7c0-0.4-0.1-0.7-0.3-0.8
		c-0.2-0.2-0.6-0.3-1-0.5L343.7,148.7L343.7,148.7z M357.5,141.6c0.2,0,0.4-0.1,0.7-0.1c0.2,0,0.5,0,0.7,0c0.3,0,0.5,0,0.7,0
		c0.2,0,0.4,0.1,0.6,0.1c0,0.1,0.1,0.2,0.1,0.4c0,0.2,0.1,0.3,0.1,0.5c0,0.2,0.1,0.3,0.1,0.5c0,0.2,0,0.3,0.1,0.4
		c0.2-0.2,0.3-0.5,0.6-0.7c0.2-0.2,0.5-0.5,0.8-0.7c0.3-0.2,0.6-0.4,1-0.5c0.4-0.1,0.8-0.2,1.2-0.2c1.4,0,2.4,0.4,3.1,1.2
		c0.7,0.8,1.1,2,1.1,3.7v8.1c-0.6,0.1-1.1,0.1-1.7,0.1c-0.6,0-1.1,0-1.7-0.1v-7.1c0-0.9-0.1-1.6-0.4-2c-0.3-0.5-0.7-0.7-1.4-0.7
		c-0.3,0-0.5,0-0.8,0.1c-0.3,0.1-0.5,0.2-0.8,0.5c-0.2,0.2-0.4,0.6-0.6,1c-0.1,0.4-0.2,1-0.2,1.7v6.6c-0.6,0.1-1.1,0.1-1.7,0.1
		c-0.6,0-1.1,0-1.7-0.1V141.6L357.5,141.6z M371.2,141.6c0.6-0.1,1.1-0.1,1.7-0.1c0.6,0,1.1,0,1.7,0.1v6.7c0,0.7,0.1,1.2,0.2,1.6
		c0.1,0.4,0.3,0.8,0.5,1c0.2,0.3,0.5,0.4,0.8,0.5c0.3,0.1,0.7,0.2,1.1,0.2c0.6,0,1.1-0.1,1.5-0.2v-9.9c0.6-0.1,1.1-0.1,1.7-0.1
		c0.6,0,1.1,0,1.7,0.1v12.1c-0.5,0.2-1.2,0.4-2,0.5c-0.8,0.2-1.7,0.3-2.6,0.3c-0.8,0-1.6-0.1-2.3-0.2c-0.7-0.1-1.4-0.4-2-0.8
		c-0.6-0.4-1-1-1.3-1.9c-0.3-0.8-0.5-1.9-0.5-3.3V141.6L371.2,141.6z M387.7,149c0.1,1,0.4,1.7,1,2.1c0.6,0.4,1.4,0.7,2.4,0.7
		c0.5,0,1.1-0.1,1.7-0.2c0.6-0.1,1.1-0.3,1.6-0.5c0.2,0.3,0.3,0.7,0.5,1.2c0.1,0.5,0.2,0.9,0.2,1.5c-1.2,0.5-2.6,0.7-4.2,0.7
		c-1.1,0-2.1-0.2-2.9-0.5c-0.8-0.3-1.5-0.8-2-1.4c-0.5-0.6-0.9-1.3-1.1-2.1c-0.2-0.8-0.4-1.7-0.4-2.6c0-0.9,0.1-1.8,0.4-2.6
		c0.3-0.8,0.6-1.5,1.1-2.1c0.5-0.6,1.1-1.1,1.9-1.4c0.7-0.4,1.6-0.5,2.6-0.5c0.9,0,1.6,0.2,2.3,0.5c0.7,0.3,1.2,0.7,1.7,1.3
		c0.5,0.5,0.8,1.2,1.1,1.9c0.2,0.7,0.4,1.5,0.4,2.4c0,0.3,0,0.6,0,0.9c0,0.3-0.1,0.5-0.1,0.7H387.7L387.7,149z M392.5,146.6
		c0-0.8-0.2-1.4-0.6-1.9c-0.4-0.5-0.9-0.7-1.6-0.7c-0.8,0-1.4,0.2-1.8,0.7c-0.4,0.5-0.7,1.1-0.7,1.9H392.5L392.5,146.6z
		 M400.8,148.7c-0.9-0.3-1.6-0.6-2.1-1.2c-0.5-0.5-0.7-1.3-0.7-2.3c0-1.2,0.4-2.2,1.3-2.9c0.9-0.7,2-1.1,3.5-1.1
		c0.6,0,1.2,0.1,1.8,0.2c0.6,0.1,1.2,0.3,1.8,0.5c0,0.4-0.1,0.9-0.2,1.3c-0.1,0.5-0.3,0.9-0.5,1.2c-0.4-0.2-0.8-0.3-1.3-0.4
		c-0.5-0.1-0.9-0.2-1.4-0.2c-0.5,0-1,0.1-1.3,0.3c-0.3,0.2-0.5,0.4-0.5,0.8c0,0.4,0.1,0.6,0.3,0.8c0.2,0.1,0.5,0.3,0.9,0.4l1.4,0.4
		c0.4,0.1,0.8,0.3,1.2,0.5c0.4,0.2,0.7,0.4,0.9,0.7c0.3,0.3,0.5,0.6,0.6,1c0.1,0.4,0.2,0.9,0.2,1.5c0,0.6-0.1,1.2-0.4,1.7
		c-0.2,0.5-0.6,1-1.1,1.4c-0.5,0.4-1,0.7-1.7,0.9c-0.7,0.2-1.4,0.3-2.3,0.3c-0.4,0-0.7,0-1,0c-0.3,0-0.6-0.1-0.9-0.1
		c-0.3-0.1-0.6-0.1-0.9-0.2c-0.3-0.1-0.6-0.2-0.9-0.3c0-0.4,0.1-0.9,0.2-1.3c0.1-0.4,0.3-0.9,0.5-1.3c0.5,0.2,1,0.4,1.5,0.5
		c0.5,0.1,1,0.2,1.5,0.2c0.2,0,0.5,0,0.7-0.1c0.3,0,0.5-0.1,0.7-0.2c0.2-0.1,0.4-0.2,0.6-0.4c0.1-0.2,0.2-0.4,0.2-0.7
		c0-0.4-0.1-0.7-0.3-0.8c-0.2-0.2-0.6-0.3-1-0.5L400.8,148.7L400.8,148.7z M409.6,144.2h-1.5l-0.1-0.5l4.4-5.8h0.5v3.7h2.9
		c0,0.2,0.1,0.5,0.1,0.7c0,0.2,0,0.4,0,0.6c0,0.2,0,0.4,0,0.7c0,0.2,0,0.4-0.1,0.7H413v5c0,0.5,0,0.9,0.1,1.2
		c0.1,0.3,0.2,0.6,0.3,0.7c0.2,0.2,0.3,0.3,0.6,0.4c0.2,0.1,0.5,0.1,0.8,0.1c0.2,0,0.5,0,0.7-0.1c0.2,0,0.4-0.1,0.6-0.1
		c0.1,0.3,0.2,0.6,0.2,1c0,0.3,0.1,0.6,0.1,0.9c0,0.2,0,0.3,0,0.5c0,0.1,0,0.2,0,0.4c-0.7,0.2-1.5,0.3-2.3,0.3c-1.4,0-2.5-0.3-3.3-1
		c-0.8-0.7-1.1-1.8-1.1-3.4V144.2L409.6,144.2z M418.4,141.6c0.2,0,0.5-0.1,0.7-0.1c0.2,0,0.4,0,0.7,0c0.2,0,0.5,0,0.7,0
		c0.2,0,0.5,0.1,0.7,0.1c0,0.1,0.1,0.2,0.1,0.4c0,0.2,0.1,0.3,0.1,0.5c0,0.2,0.1,0.3,0.1,0.5c0,0.2,0,0.3,0.1,0.4
		c0.3-0.5,0.8-1,1.3-1.4c0.5-0.4,1.1-0.6,1.9-0.6c0.2,0,0.3,0,0.5,0c0.2,0,0.4,0,0.5,0.1c0,0.2,0.1,0.4,0.1,0.6c0,0.2,0,0.4,0,0.7
		c0,0.3,0,0.6,0,0.9c0,0.3-0.1,0.6-0.1,0.9c-0.2,0-0.4,0-0.6,0c-0.2,0-0.3,0-0.4,0c-0.3,0-0.6,0-0.9,0.1c-0.3,0.1-0.6,0.2-1,0.5
		c-0.3,0.2-0.6,0.6-0.7,1.1c-0.2,0.5-0.3,1.2-0.3,2.1v6c-0.3,0-0.6,0.1-0.9,0.1c-0.3,0-0.6,0-0.8,0c-0.3,0-0.5,0-0.8,0
		c-0.3,0-0.6,0-0.9-0.1V141.6L418.4,141.6z M432.8,154.5c-1,0-1.9-0.2-2.6-0.5c-0.7-0.3-1.3-0.8-1.8-1.4c-0.5-0.6-0.8-1.3-1.1-2.1
		c-0.2-0.8-0.4-1.7-0.4-2.6c0-0.9,0.1-1.8,0.4-2.6c0.2-0.8,0.6-1.5,1.1-2.1c0.5-0.6,1.1-1.1,1.8-1.4c0.7-0.3,1.6-0.5,2.6-0.5
		c1,0,1.9,0.2,2.6,0.5c0.7,0.3,1.4,0.8,1.9,1.4c0.5,0.6,0.9,1.3,1.1,2.1c0.2,0.8,0.4,1.7,0.4,2.6c0,0.9-0.1,1.8-0.4,2.6
		c-0.2,0.8-0.6,1.5-1.1,2.1c-0.5,0.6-1.1,1.1-1.9,1.4C434.7,154.4,433.8,154.5,432.8,154.5L432.8,154.5z M432.8,151.9
		c0.9,0,1.5-0.3,1.9-1c0.4-0.7,0.6-1.6,0.6-2.9c0-1.3-0.2-2.2-0.6-2.9c-0.4-0.7-1-1-1.9-1c-0.9,0-1.5,0.3-1.9,1
		c-0.4,0.7-0.6,1.7-0.6,2.9c0,1.3,0.2,2.2,0.6,2.9C431.3,151.5,431.9,151.9,432.8,151.9L432.8,151.9z M454.9,151.2
		c0.2,0.3,0.3,0.7,0.5,1.1c0.1,0.4,0.2,0.9,0.2,1.5c-0.6,0.3-1.2,0.4-1.8,0.5c-0.6,0.1-1.1,0.1-1.7,0.1c-1,0-1.9-0.2-2.7-0.5
		c-0.8-0.3-1.4-0.8-1.9-1.4c-0.5-0.6-0.9-1.3-1.1-2.1c-0.3-0.8-0.4-1.7-0.4-2.6c0-0.9,0.1-1.8,0.4-2.6c0.2-0.8,0.6-1.5,1.1-2.1
		c0.5-0.6,1.1-1.1,1.9-1.4c0.7-0.3,1.6-0.5,2.6-0.5c0.3,0,0.7,0,1,0c0.3,0,0.6,0,0.8,0.1c0.3,0,0.5,0.1,0.8,0.2
		c0.3,0.1,0.6,0.2,0.9,0.3c0,0.4,0,0.8-0.1,1.3c-0.1,0.5-0.2,0.9-0.5,1.3c-0.5-0.2-0.9-0.3-1.2-0.3c-0.4-0.1-0.8-0.1-1.2-0.1
		c-1,0-1.7,0.3-2.2,1c-0.5,0.7-0.7,1.6-0.7,2.8c0,1.3,0.3,2.3,0.8,2.9c0.5,0.6,1.3,0.9,2.2,0.9c0.2,0,0.5,0,0.7,0
		c0.2,0,0.4,0,0.6-0.1c0.2,0,0.4-0.1,0.6-0.1C454.4,151.4,454.6,151.3,454.9,151.2L454.9,151.2z M462.8,154.5c-1,0-1.9-0.2-2.6-0.5
		c-0.7-0.3-1.3-0.8-1.8-1.4c-0.5-0.6-0.8-1.3-1.1-2.1c-0.2-0.8-0.4-1.7-0.4-2.6c0-0.9,0.1-1.8,0.4-2.6c0.2-0.8,0.6-1.5,1.1-2.1
		c0.5-0.6,1.1-1.1,1.8-1.4c0.7-0.3,1.6-0.5,2.6-0.5c1,0,1.9,0.2,2.6,0.5c0.7,0.3,1.4,0.8,1.9,1.4c0.5,0.6,0.9,1.3,1.1,2.1
		c0.2,0.8,0.4,1.7,0.4,2.6c0,0.9-0.1,1.8-0.4,2.6c-0.2,0.8-0.6,1.5-1.1,2.1c-0.5,0.6-1.1,1.1-1.9,1.4
		C464.6,154.4,463.8,154.5,462.8,154.5L462.8,154.5z M462.8,151.9c0.9,0,1.5-0.3,1.9-1c0.4-0.7,0.6-1.6,0.6-2.9
		c0-1.3-0.2-2.2-0.6-2.9c-0.4-0.7-1-1-1.9-1c-0.9,0-1.5,0.3-1.9,1c-0.4,0.7-0.6,1.7-0.6,2.9c0,1.3,0.2,2.2,0.6,2.9
		C461.3,151.5,461.9,151.9,462.8,151.9z"/>
	<path class="st0" d="M471.3,141.6c0.2,0,0.4-0.1,0.7-0.1c0.2,0,0.5,0,0.7,0c0.3,0,0.5,0,0.7,0c0.2,0,0.4,0.1,0.6,0.1
		c0,0.1,0.1,0.2,0.1,0.4c0,0.2,0.1,0.3,0.1,0.5c0,0.2,0.1,0.3,0.1,0.5c0,0.2,0,0.3,0.1,0.4c0.1-0.2,0.3-0.5,0.5-0.7
		c0.2-0.2,0.5-0.5,0.7-0.7c0.3-0.2,0.6-0.4,1-0.5c0.4-0.1,0.8-0.2,1.2-0.2c1.9,0,3.1,0.7,3.7,2.2c0.3-0.6,0.8-1.1,1.3-1.6
		c0.6-0.4,1.3-0.7,2.2-0.7c1.4,0,2.4,0.4,3.1,1.2c0.7,0.8,1,2,1,3.7v8c-0.6,0.1-1.1,0.1-1.7,0.1c-0.6,0-1.1,0-1.7-0.1v-7.1
		c0-0.9-0.1-1.6-0.3-2c-0.2-0.5-0.6-0.7-1.3-0.7c-0.3,0-0.5,0-0.8,0.1c-0.3,0.1-0.5,0.2-0.7,0.5c-0.2,0.2-0.4,0.5-0.5,0.9
		c-0.1,0.4-0.2,0.9-0.2,1.6v6.8c-0.6,0.1-1.1,0.1-1.7,0.1c-0.6,0-1.1,0-1.7-0.1v-7.1c0-0.9-0.1-1.6-0.3-2c-0.2-0.5-0.6-0.7-1.3-0.7
		c-0.3,0-0.5,0-0.8,0.1c-0.3,0.1-0.5,0.2-0.7,0.5c-0.2,0.2-0.4,0.6-0.5,1c-0.1,0.4-0.2,1-0.2,1.7v6.6c-0.6,0.1-1.1,0.1-1.7,0.1
		c-0.6,0-1.1,0-1.7-0.1V141.6L471.3,141.6z M492.2,141.6c0.2,0,0.4-0.1,0.7-0.1c0.2,0,0.5,0,0.7,0c0.4,0,0.9,0,1.4,0.1
		c0,0.1,0.1,0.2,0.1,0.4c0,0.2,0.1,0.3,0.1,0.5c0,0.2,0.1,0.4,0.1,0.5c0,0.2,0,0.3,0.1,0.4c0.1-0.3,0.3-0.5,0.5-0.8
		c0.2-0.3,0.5-0.5,0.7-0.7c0.3-0.2,0.6-0.4,1-0.5c0.4-0.1,0.8-0.2,1.2-0.2c0.7,0,1.3,0.1,1.9,0.4c0.6,0.3,1.1,0.7,1.6,1.2
		c0.4,0.5,0.8,1.2,1,2c0.2,0.8,0.4,1.7,0.4,2.8c0,1.1-0.2,2-0.5,2.8c-0.3,0.8-0.7,1.6-1.3,2.1c-0.6,0.6-1.3,1-2.1,1.4
		c-0.8,0.3-1.8,0.5-2.8,0.5c-0.3,0-0.5,0-0.8,0c-0.3,0-0.5-0.1-0.7-0.1v5.6c-0.3,0-0.6,0.1-0.9,0.1c-0.3,0-0.6,0-0.8,0
		c-0.3,0-0.5,0-0.8,0c-0.3,0-0.6,0-0.9-0.1V141.6L492.2,141.6z M495.5,151.5c0.4,0.1,0.9,0.2,1.5,0.2c1,0,1.7-0.3,2.3-1
		c0.5-0.7,0.8-1.6,0.8-3c0-0.5,0-1-0.1-1.4c-0.1-0.4-0.2-0.8-0.4-1.1c-0.2-0.3-0.4-0.6-0.7-0.7c-0.3-0.2-0.7-0.3-1.1-0.3
		c-0.4,0-0.7,0.1-1,0.2c-0.3,0.2-0.5,0.4-0.7,0.6c-0.2,0.3-0.3,0.6-0.4,0.9c-0.1,0.4-0.1,0.7-0.1,1.1V151.5L495.5,151.5z
		 M506.3,141.6c0.2,0,0.5-0.1,0.7-0.1c0.2,0,0.4,0,0.7,0c0.2,0,0.5,0,0.7,0c0.2,0,0.5,0.1,0.7,0.1c0,0.1,0.1,0.2,0.1,0.4
		c0,0.2,0.1,0.3,0.1,0.5c0,0.2,0.1,0.3,0.1,0.5c0,0.2,0,0.3,0.1,0.4c0.3-0.5,0.8-1,1.3-1.4c0.5-0.4,1.1-0.6,1.9-0.6
		c0.2,0,0.3,0,0.5,0c0.2,0,0.4,0,0.5,0.1c0,0.2,0.1,0.4,0.1,0.6c0,0.2,0,0.4,0,0.7c0,0.3,0,0.6,0,0.9c0,0.3-0.1,0.6-0.1,0.9
		c-0.2,0-0.4,0-0.6,0c-0.2,0-0.3,0-0.4,0c-0.3,0-0.6,0-0.9,0.1c-0.3,0.1-0.6,0.2-1,0.5c-0.3,0.2-0.6,0.6-0.7,1.1
		c-0.2,0.5-0.3,1.2-0.3,2.1v6c-0.3,0-0.6,0.1-0.9,0.1c-0.3,0-0.6,0-0.8,0c-0.3,0-0.5,0-0.8,0c-0.3,0-0.6,0-0.9-0.1V141.6
		L506.3,141.6z M520.7,154.5c-1,0-1.9-0.2-2.6-0.5c-0.7-0.3-1.3-0.8-1.8-1.4c-0.5-0.6-0.8-1.3-1.1-2.1c-0.2-0.8-0.4-1.7-0.4-2.6
		c0-0.9,0.1-1.8,0.4-2.6c0.2-0.8,0.6-1.5,1.1-2.1c0.5-0.6,1.1-1.1,1.8-1.4c0.7-0.3,1.6-0.5,2.6-0.5c1,0,1.9,0.2,2.6,0.5
		c0.7,0.3,1.4,0.8,1.9,1.4c0.5,0.6,0.9,1.3,1.1,2.1c0.2,0.8,0.4,1.7,0.4,2.6c0,0.9-0.1,1.8-0.4,2.6c-0.2,0.8-0.6,1.5-1.1,2.1
		c-0.5,0.6-1.1,1.1-1.9,1.4C522.5,154.4,521.7,154.5,520.7,154.5L520.7,154.5z M520.7,151.9c0.9,0,1.5-0.3,1.9-1
		c0.4-0.7,0.6-1.6,0.6-2.9c0-1.3-0.2-2.2-0.6-2.9c-0.4-0.7-1-1-1.9-1c-0.9,0-1.5,0.3-1.9,1c-0.4,0.7-0.6,1.7-0.6,2.9
		c0,1.3,0.2,2.2,0.6,2.9C519.2,151.5,519.8,151.9,520.7,151.9L520.7,151.9z M529.2,141.6c0.2,0,0.4-0.1,0.7-0.1c0.2,0,0.5,0,0.7,0
		c0.3,0,0.5,0,0.7,0c0.2,0,0.4,0.1,0.6,0.1c0,0.1,0.1,0.2,0.1,0.4c0,0.2,0.1,0.3,0.1,0.5c0,0.2,0.1,0.3,0.1,0.5c0,0.2,0,0.3,0.1,0.4
		c0.1-0.2,0.3-0.5,0.5-0.7c0.2-0.2,0.5-0.5,0.7-0.7c0.3-0.2,0.6-0.4,1-0.5c0.4-0.1,0.8-0.2,1.2-0.2c1.9,0,3.1,0.7,3.7,2.2
		c0.3-0.6,0.8-1.1,1.3-1.6c0.6-0.4,1.3-0.7,2.2-0.7c1.4,0,2.4,0.4,3.1,1.2c0.7,0.8,1,2,1,3.7v8c-0.6,0.1-1.1,0.1-1.7,0.1
		c-0.6,0-1.1,0-1.7-0.1v-7.1c0-0.9-0.1-1.6-0.3-2c-0.2-0.5-0.6-0.7-1.3-0.7c-0.3,0-0.5,0-0.8,0.1c-0.3,0.1-0.5,0.2-0.7,0.5
		c-0.2,0.2-0.4,0.5-0.5,0.9c-0.1,0.4-0.2,0.9-0.2,1.6v6.8c-0.6,0.1-1.1,0.1-1.7,0.1c-0.6,0-1.1,0-1.7-0.1v-7.1c0-0.9-0.1-1.6-0.3-2
		c-0.2-0.5-0.6-0.7-1.3-0.7c-0.3,0-0.5,0-0.8,0.1c-0.3,0.1-0.5,0.2-0.7,0.5c-0.2,0.2-0.4,0.6-0.5,1c-0.1,0.4-0.2,1-0.2,1.7v6.6
		c-0.6,0.1-1.1,0.1-1.7,0.1c-0.6,0-1.1,0-1.7-0.1V141.6L529.2,141.6z M550.8,144.2h-1.6c0-0.2-0.1-0.4-0.1-0.7c0-0.2,0-0.5,0-0.7
		c0-0.4,0-0.9,0.1-1.3h4.9v12.6c-0.6,0.1-1.1,0.1-1.7,0.1c-0.5,0-1.1,0-1.6-0.1V144.2L550.8,144.2z M550.3,139.5
		c-0.1-0.6-0.1-1.1-0.1-1.6c0-0.5,0-1.1,0.1-1.6c0.3,0,0.6-0.1,0.9-0.1c0.3,0,0.6,0,0.8,0c0.3,0,0.6,0,0.9,0c0.3,0,0.6,0.1,0.9,0.1
		c0,0.3,0.1,0.5,0.1,0.8c0,0.3,0,0.5,0,0.8c0,0.3,0,0.5,0,0.8c0,0.3,0,0.6-0.1,0.8c-0.3,0-0.6,0.1-0.9,0.1c-0.3,0-0.6,0-0.9,0
		c-0.3,0-0.5,0-0.9,0C550.9,139.5,550.6,139.5,550.3,139.5L550.3,139.5z M559.8,148.7c-0.9-0.3-1.6-0.6-2.1-1.2
		c-0.5-0.5-0.7-1.3-0.7-2.3c0-1.2,0.4-2.2,1.3-2.9c0.9-0.7,2-1.1,3.5-1.1c0.6,0,1.2,0.1,1.8,0.2c0.6,0.1,1.2,0.3,1.8,0.5
		c0,0.4-0.1,0.9-0.2,1.3c-0.1,0.5-0.3,0.9-0.5,1.2c-0.4-0.2-0.8-0.3-1.3-0.4c-0.5-0.1-0.9-0.2-1.4-0.2c-0.5,0-1,0.1-1.3,0.3
		c-0.3,0.2-0.5,0.4-0.5,0.8c0,0.4,0.1,0.6,0.3,0.8c0.2,0.1,0.5,0.3,0.9,0.4l1.4,0.4c0.4,0.1,0.8,0.3,1.2,0.5
		c0.4,0.2,0.7,0.4,0.9,0.7c0.3,0.3,0.5,0.6,0.6,1c0.1,0.4,0.2,0.9,0.2,1.5c0,0.6-0.1,1.2-0.4,1.7c-0.2,0.5-0.6,1-1.1,1.4
		c-0.5,0.4-1,0.7-1.7,0.9c-0.7,0.2-1.4,0.3-2.3,0.3c-0.4,0-0.7,0-1,0c-0.3,0-0.6-0.1-0.9-0.1c-0.3-0.1-0.6-0.1-0.9-0.2
		c-0.3-0.1-0.6-0.2-0.9-0.3c0-0.4,0.1-0.9,0.2-1.3c0.1-0.4,0.3-0.9,0.5-1.3c0.5,0.2,1,0.4,1.5,0.5c0.5,0.1,1,0.2,1.5,0.2
		c0.2,0,0.5,0,0.7-0.1c0.3,0,0.5-0.1,0.7-0.2c0.2-0.1,0.4-0.2,0.6-0.4c0.2-0.2,0.2-0.4,0.2-0.7c0-0.4-0.1-0.7-0.3-0.8
		c-0.2-0.2-0.6-0.3-1-0.5L559.8,148.7L559.8,148.7z M573.6,154.5c-1,0-1.9-0.2-2.6-0.5c-0.7-0.3-1.3-0.8-1.8-1.4
		c-0.5-0.6-0.8-1.3-1.1-2.1c-0.2-0.8-0.4-1.7-0.4-2.6c0-0.9,0.1-1.8,0.4-2.6c0.2-0.8,0.6-1.5,1.1-2.1c0.5-0.6,1.1-1.1,1.8-1.4
		c0.7-0.3,1.6-0.5,2.6-0.5c1,0,1.9,0.2,2.6,0.5c0.7,0.3,1.4,0.8,1.9,1.4c0.5,0.6,0.9,1.3,1.1,2.1c0.2,0.8,0.4,1.7,0.4,2.6
		c0,0.9-0.1,1.8-0.4,2.6c-0.2,0.8-0.6,1.5-1.1,2.1c-0.5,0.6-1.1,1.1-1.9,1.4C575.4,154.4,574.6,154.5,573.6,154.5L573.6,154.5z
		 M573.6,151.9c0.9,0,1.5-0.3,1.9-1c0.4-0.7,0.6-1.6,0.6-2.9c0-1.3-0.2-2.2-0.6-2.9c-0.4-0.7-1-1-1.9-1c-0.9,0-1.5,0.3-1.9,1
		c-0.4,0.7-0.6,1.7-0.6,2.9c0,1.3,0.2,2.2,0.6,2.9C572.1,151.5,572.7,151.9,573.6,151.9L573.6,151.9z M582.2,136.7
		c0.6-0.1,1.2-0.1,1.8-0.1c0.6,0,1.2,0,1.9,0.1l-0.2,12c-0.6,0.1-1.1,0.1-1.6,0.1c-0.5,0-1.1,0-1.6-0.1L582.2,136.7L582.2,136.7z
		 M582.3,154.2c-0.1-0.6-0.1-1.2-0.1-1.8c0-0.6,0-1.2,0.1-1.8c0.6-0.1,1.2-0.1,1.7-0.1c0.6,0,1.2,0,1.8,0.1c0.1,0.6,0.1,1.2,0.1,1.8
		c0,0.6,0,1.2-0.1,1.8c-0.6,0.1-1.2,0.1-1.7,0.1C583.5,154.4,582.9,154.3,582.3,154.2z"/>
</g>
<g>
	<path class="st2" d="M82.7,0.3c43.9,1.5,78.1,38.9,76.5,83.4c-1.6,44.5-38.5,79.5-82.3,77.9C33,160.2-1.3,122.8,0.3,78.3
		C1.9,33.7,38.8-1.2,82.7,0.3L82.7,0.3z M82.3,9C43.2,7.6,10.3,38.8,8.8,78.6C7.4,118.4,38,151.7,77.1,153
		c39.2,1.3,72.1-29.8,73.5-69.6C152.1,43.7,121.5,10.3,82.3,9z"/>
	<path class="st0" d="M47.1,62.8h13.8V49c0-10.7,8.8-19.5,19.5-19.5l0,0c10.7,0,19.5,8.8,19.5,19.5v13.8h13.8
		c10.7,0,19.5,8.8,19.5,19.5l0,0c0,10.7-8.8,19.5-19.5,19.5H99.8v13.8c0,10.7-8.8,19.5-19.5,19.5l0,0c-10.7,0-19.5-8.8-19.5-19.5
		v-13.8H47.1c-10.7,0-19.5-8.8-19.5-19.5l0,0C27.6,71.5,36.4,62.8,47.1,62.8z"/>
	<path class="st3" d="M77,73.4c-0.2,1.3-0.1,3.7-0.1,5h15.2c0.4,0.5,0.7,1.2,0.9,2.1c0.3,0.9,0.4,1.8,0.4,2.7c0,1.8-0.4,3.1-1.1,3.9
		s-1.8,1.2-3.1,1.2H77v15.1c-0.5,0.1-1.3,0.3-2.4,0.4c-1.1,0.1-2.2,0.2-3.2,0.2c-1.1,0-2-0.1-2.8-0.2c-0.8-0.2-1.5-0.5-2-0.9
		c-0.6-0.4-1-1-1.2-1.8c-0.3-0.8-0.4-1.8-0.4-3V81.8C67.1,78,73.1,73.5,77,73.4z"/>
	<path class="st4" d="M94.5,60.4c0.3,0.5,0.6,1.2,0.9,2.1c0.3,0.9,0.4,1.8,0.4,2.7c0,1.9-0.4,3.2-1.1,4c-0.8,0.8-1.8,1.2-3.1,1.2
		c-10.5,0-21-1.4-26.6,9.9v-5.6c0-7.4,4.3-14.4,12.4-14.4H94.5z"/>
	<path class="st5" d="M53.9,56.9v-9.4c0-13.1,10.7-23.8,23.8-23.8c6.8,0,13,2.9,17.3,7.5c-3.9-2.8-8.7-4.5-13.9-4.5
		c-13.1,0-23.8,10.7-23.8,23.8v9.4H48c-13.1,0-23.8,10.7-23.8,23.8c0,6.3,2.4,12,6.4,16.2c-6-4.3-9.9-11.4-9.9-19.3
		c0-13.1,10.7-23.8,23.8-23.8H53.9L53.9,56.9z M105,56.9h6c6.8,0,13,2.9,17.3,7.5c-3.9-2.8-8.7-4.5-13.9-4.5H105V56.9L105,56.9z
		 M63.8,133.1c-6-4.3-9.9-11.4-9.9-19.3v-6.4h3.5v9.4C57.4,123.2,59.9,128.9,63.8,133.1z"/>
</g>
</svg>
