<!-- Generator: Adobe Illustrator 21.1.0, SVG Export Plug-In  -->
<svg version="1.1"
	 xmlns="http://www.w3.org/2000/svg" xmlns:xlink="http://www.w3.org/1999/xlink" xmlns:a="http://ns.adobe.com/AdobeSVGViewerExtensions/3.0/"
	 x="0px" y="0px" width="172.9px" height="85.1px" viewBox="0 0 172.9 85.1" style="enable-background:new 0 0 172.9 85.1;"
	 xml:space="preserve">
<style type="text/css">
	.st0{fill:#1F367E;}
	.st1{fill-rule:evenodd;clip-rule:evenodd;fill:#1F367E;}
	.st2{fill-rule:evenodd;clip-rule:evenodd;fill:#587FBB;}
	.st3{fill-rule:evenodd;clip-rule:evenodd;fill:#FFFFFF;}
</style>
<defs>
</defs>
<g>
	<path class="st0" d="M67.4,59.5h1.7c0.4,0,0.6,0.1,0.6,0.2c0,0.1-0.2,0.3-0.7,0.8c-0.5,0.5-0.9,0.9-1.4,1.3c-0.5,0.4-0.8,0.7-1,0.8
		c-0.5,0.2-1,0.4-1.5,0.4c-0.4,0-0.5-0.1-0.5-0.3c0-0.1,0.1-0.4,0.3-0.7l0.6-1c0.3-0.6,0.6-1,0.8-1.1C66.6,59.6,67,59.5,67.4,59.5
		L67.4,59.5z"/>
	<path class="st1" d="M73.3,70.1c-0.3,0.1-0.6,0.2-0.9,0.3c-0.4,0.1-0.8,0.2-1.2,0.3c-0.2,0.1-0.4,0.2-0.5,0.3
		c-0.1,0.2-0.2,0.4-0.2,0.6c0,0.3,0.1,0.5,0.3,0.7c0.2,0.2,0.4,0.3,0.7,0.3c0.4,0,0.7-0.1,1-0.3c0.3-0.2,0.5-0.4,0.6-0.7
		C73.3,71.2,73.3,70.6,73.3,70.1L73.3,70.1z M73.7,73.9c-0.4,0.3-0.8,0.7-1.3,0.9c-0.6,0.3-1.1,0.4-1.7,0.4c-0.6,0-1.1-0.1-1.6-0.4
		c-0.5-0.3-0.8-0.7-1.1-1.2c-0.3-0.5-0.4-1.1-0.4-1.7c0-0.8,0.2-1.5,0.6-2.1c0.4-0.6,1-1,1.7-1.1c0.3-0.1,0.7-0.2,1-0.3
		c0.5-0.1,0.9-0.2,1.4-0.4c0.3-0.1,0.6-0.2,1-0.3c0-0.3-0.1-0.7-0.2-1c-0.2-0.3-0.7-0.3-1-0.3c-0.3,0-0.8,0-1,0.2
		c-0.2,0.2-0.4,0.4-0.6,0.7c-0.1,0.3-0.3,0.5-0.4,0.8c-0.2,0.3-0.5,0.3-0.8,0.3c-0.3,0-0.6-0.1-0.8-0.4c-0.2-0.3-0.4-0.6-0.4-1
		c0-0.6,0.2-1.1,0.5-1.6c0.3-0.6,0.9-0.9,1.4-1.2c0.7-0.3,1.5-0.5,2.2-0.5c0.8,0,1.6,0.1,2.3,0.4c0.6,0.3,1,0.8,1.3,1.5
		c0.3,0.8,0.4,1.7,0.4,2.5c0,0.5,0,1,0,1.6c0,0.5,0,1,0,1.4c0,0.5,0.1,1,0.2,1.4c0.1,0.3,0.2,0.8,0.2,1.1c0,0.4-0.2,0.8-0.4,1
		c-0.3,0.3-0.6,0.4-0.9,0.4c-0.3,0-0.6-0.2-0.9-0.5C74.1,74.4,73.9,74.2,73.7,73.9L73.7,73.9z"/>
	<path class="st1" d="M49.8,68.2h3.1c-0.1-0.5-0.2-1-0.5-1.3c-0.3-0.4-0.7-0.5-1.1-0.5c-0.4,0-0.8,0.2-1,0.5
		C50,67.2,49.9,67.7,49.8,68.2L49.8,68.2z M49.8,70.5c0,0.3,0.1,0.7,0.2,1c0.1,0.4,0.3,0.6,0.6,0.9c0.3,0.2,0.5,0.3,0.9,0.3
		c0.2,0,0.4,0,0.6-0.1c0.2-0.1,0.4-0.2,0.5-0.3c0.2-0.1,0.3-0.3,0.5-0.5c0.2-0.2,0.4-0.5,0.6-0.7c0.2-0.2,0.4-0.3,0.7-0.3
		c0.3,0,0.5,0.1,0.8,0.3c0.2,0.2,0.3,0.6,0.3,0.9c0,0.4-0.1,0.7-0.3,1c-0.2,0.4-0.5,0.7-0.8,1c-0.4,0.4-0.8,0.6-1.2,0.8
		c-0.5,0.2-1.1,0.3-1.7,0.3c-1.3,0-2.5-0.4-3.4-1.6c-0.9-1.1-1.2-2.6-1.2-4.2c0-0.8,0.1-1.6,0.3-2.3c0.2-0.7,0.5-1.3,0.9-1.9
		c0.4-0.5,0.9-0.9,1.4-1.2c0.6-0.3,1.2-0.4,1.9-0.4c0.8,0,1.6,0.2,2.3,0.7c0.6,0.5,1.1,1.1,1.5,1.8c0.3,0.7,0.5,1.5,0.5,2.3
		c0,0.6-0.1,1.3-0.6,1.7c-0.4,0.3-1,0.3-1.4,0.3H49.8L49.8,70.5z"/>
	<path class="st1" d="M29.4,69.3c0,0.7,0.1,1.6,0.5,2.1c0.3,0.5,0.7,0.7,1.2,0.7c0.3,0,0.6-0.1,0.8-0.3c0.3-0.2,0.5-0.5,0.6-0.9
		c0.2-0.5,0.3-1,0.3-1.5c0-0.8-0.1-1.6-0.5-2.2c-0.3-0.5-0.7-0.7-1.2-0.7c-0.5,0-0.9,0.2-1.2,0.7C29.5,67.8,29.4,68.6,29.4,69.3
		L29.4,69.3z M32.8,73.9c-0.2,0.2-0.4,0.4-0.6,0.5c-0.5,0.4-1.1,0.5-1.7,0.5c-0.7,0-1.4-0.2-2.1-0.7c-0.6-0.5-1-1.2-1.3-2.1
		c-0.3-0.9-0.5-1.9-0.5-3c0-0.8,0.1-1.5,0.3-2.3c0.2-0.6,0.4-1.2,0.8-1.7c0.3-0.5,0.8-0.8,1.2-1.1c0.5-0.3,1-0.4,1.5-0.4
		c0.6,0,1.2,0.1,1.7,0.5c0.3,0.2,0.5,0.4,0.8,0.7c0.1-0.2,0.1-0.5,0.3-0.7c0.2-0.3,0.6-0.5,1-0.5c0.5,0,0.9,0.2,1.1,0.7
		c0.2,0.5,0.2,1.1,0.2,1.6v7.6c0,0.8-0.1,1.6-0.2,2.4c-0.2,0.7-0.4,1.2-0.8,1.7c-0.4,0.5-0.9,0.8-1.4,1C32.4,79,31.7,79,31,79
		c-0.7,0-1.4-0.1-2.1-0.4c-0.5-0.2-1.1-0.6-1.5-1.1c-0.3-0.4-0.6-0.9-0.6-1.5c0-0.4,0.1-0.8,0.4-1.1c0.2-0.3,0.5-0.4,0.9-0.4
		c0.4,0,0.8,0.3,1.1,0.7c0.1,0.2,0.2,0.3,0.3,0.5c0.1,0.1,0.2,0.3,0.3,0.4c0.1,0.1,0.3,0.2,0.4,0.2c0.2,0.1,0.4,0.1,0.6,0.1
		c0.3,0,0.8,0,1.1-0.2c0.2-0.1,0.4-0.3,0.5-0.6c0.1-0.3,0.2-0.6,0.2-0.9C32.7,74.4,32.8,74.1,32.8,73.9L32.8,73.9z"/>
	<path class="st1" d="M23.5,69.4c0-0.8-0.1-1.6-0.5-2.2c-0.3-0.5-0.7-0.7-1.3-0.7c-0.3,0-0.6,0.1-0.9,0.3c-0.3,0.2-0.5,0.6-0.6,1
		c-0.2,0.5-0.2,1.1-0.2,1.7c0,0.6,0.1,1.1,0.2,1.6c0.1,0.4,0.3,0.7,0.6,1c0.3,0.2,0.6,0.3,0.9,0.3c0.5,0,0.9-0.2,1.3-0.7
		C23.4,71,23.5,70.2,23.5,69.4L23.5,69.4z M26.3,69.4c0,0.8-0.1,1.6-0.3,2.3c-0.2,0.7-0.5,1.3-0.9,1.8c-0.4,0.5-0.9,0.9-1.5,1.2
		c-0.6,0.3-1.2,0.4-1.9,0.4c-0.6,0-1.3-0.1-1.9-0.4c-0.5-0.3-1-0.7-1.4-1.2c-0.4-0.5-0.7-1.1-0.9-1.8c-0.2-0.7-0.3-1.5-0.3-2.3
		c0-0.8,0.1-1.6,0.3-2.3c0.2-0.7,0.5-1.3,0.9-1.8c0.4-0.5,0.9-0.9,1.5-1.2c0.6-0.3,1.2-0.4,1.9-0.4c0.6,0,1.3,0.1,1.9,0.4
		c0.6,0.3,1,0.7,1.5,1.2c0.4,0.5,0.7,1.1,0.9,1.8C26.2,67.9,26.3,68.6,26.3,69.4L26.3,69.4z"/>
	<path class="st1" d="M6.8,70.5c0.4-0.9,0.5-2.1,0.5-3.1c0-0.9-0.1-2.1-0.5-2.9c-0.2-0.5-0.6-1-1.1-1.1c-0.5-0.2-1.1-0.3-1.7-0.3h-1
		v0l-0.2,0c-0.1,0-0.1,0-0.2,0c-0.1,0-0.1,0-0.2,0.1c-0.5,0.2-1,0.5-1.5,0.9c-0.4,0.3-0.8,0.8-1.2,1.3v-1.9C0,61.1,1.8,60,3.4,60
		h1.4c0.7,0,1.4,0.1,2.1,0.3c0.6,0.2,1.2,0.6,1.7,1.1c1.4,1.5,1.9,3.8,1.9,6c0,0.8-0.1,1.6-0.2,2.4c-0.1,0.7-0.3,1.4-0.6,2
		c-0.3,0.6-0.6,1.1-1,1.6c-0.3,0.4-0.7,0.7-1.1,0.9c-0.4,0.2-0.8,0.4-1.3,0.5c-0.5,0.1-1,0.1-1.5,0.1H2.4c0.6-0.2,1.3-0.6,2-1.1
		c0.8-0.7,1.6-1.6,2.1-2.5L6.8,70.5L6.8,70.5L6.8,70.5z M2.9,71.8v-8.4l-0.1,0c-0.5,0.2-1,0.5-1.4,0.9c-0.4,0.4-0.8,0.8-1.2,1.3v6.8
		c0,0.2,0,0.4,0,0.6c0,0.2,0,0.4,0.1,0.6c0,0.2,0.1,0.3,0.2,0.5c0.1,0.1,0.2,0.3,0.3,0.3c0.1,0.1,0.3,0.2,0.5,0.2
		c0.2,0,0.4,0.1,0.5,0.1c0.6,0,1.5-0.5,2.4-1.2c0.6-0.5,1.3-1.2,1.7-1.9l-0.1,0c-0.1,0-0.2,0.1-0.3,0.1c-0.1,0-0.2,0.1-0.3,0.1
		c-0.1,0-0.3,0-0.4,0l-0.4,0H2.9V71.8L2.9,71.8z"/>
	<path class="st2" d="M3,63.2v8.6h1.4c0.3,0,0.6,0,0.9,0c0.2,0,0.4-0.1,0.6-0.2c0.2-0.1,0.3-0.2,0.5-0.4l0,0c-1,2-3.4,3.7-4.6,3.7
		c-0.4,0-0.8-0.1-1.1-0.3c-0.3-0.2-0.5-0.5-0.6-0.9C0,73.3,0,72.9,0,72.5v-6.9c0.7-1.2,1.7-1.8,2.7-2.3C2.8,63.3,2.9,63.2,3,63.2
		L3,63.2z"/>
	<path class="st1" d="M66.6,65.6v7.6c0,0.5-0.1,1.1-0.4,1.5c-0.3,0.4-0.6,0.5-1,0.5c-0.4,0-0.8-0.2-1-0.6c-0.3-0.4-0.4-0.9-0.4-1.5
		v-7.5c0-0.5,0.1-1.1,0.4-1.5c0.3-0.4,0.6-0.5,1-0.5c0.4,0,0.7,0.2,1,0.5C66.5,64.6,66.6,65.1,66.6,65.6L66.6,65.6z"/>
	<path class="st1" d="M59.3,64.6c0.1-0.2,0.2-0.3,0.4-0.5c0.4-0.4,0.8-0.5,1.3-0.5c0.5,0,1,0.2,1.5,0.5c0.5,0.3,0.8,0.8,0.8,1.5
		c0,0.4-0.1,0.8-0.4,1.1c-0.2,0.3-0.5,0.4-0.8,0.4c-0.2,0-0.5-0.1-0.7-0.2c-0.2-0.1-0.5-0.2-0.7-0.2c-0.2,0-0.4,0-0.5,0.2
		c-0.2,0.2-0.3,0.5-0.4,0.7c-0.1,0.4-0.2,0.9-0.2,1.3c0,0.6-0.1,1.3-0.1,2v2.2c0,0.5-0.1,1.1-0.4,1.5c-0.3,0.4-0.6,0.5-1,0.5
		c-0.4,0-0.7-0.2-1-0.5c-0.3-0.4-0.4-0.9-0.4-1.5v-7.3c0-1.1,0.3-2.2,1.4-2.2c0.4,0,0.8,0.2,1,0.6C59.2,64.4,59.3,64.5,59.3,64.6
		L59.3,64.6z"/>
	<path class="st1" d="M42.9,73.9c-0.1,0.1-0.2,0.2-0.3,0.3c-0.3,0.3-0.6,0.5-1,0.7c-0.4,0.2-0.8,0.2-1.2,0.2c-0.5,0-1.1-0.1-1.5-0.4
		c-0.5-0.3-0.8-0.7-1.1-1.2c-0.4-0.8-0.4-1.8-0.4-2.6v-5.2c0-0.5,0.1-1.1,0.4-1.5c0.3-0.4,0.6-0.5,1-0.5c0.4,0,0.8,0.2,1,0.5
		c0.3,0.4,0.4,0.9,0.4,1.5v4.2c0,0.5,0,1,0.1,1.4c0.1,0.3,0.2,0.6,0.3,0.8c0.2,0.2,0.4,0.2,0.6,0.2c0.3,0,0.6-0.1,0.8-0.3
		c0.3-0.2,0.4-0.5,0.6-0.8c0.2-0.5,0.2-1.8,0.2-2.3v-3.2c0-0.5,0.1-1.1,0.4-1.5c0.3-0.4,0.6-0.5,1-0.5c0.4,0,0.7,0.2,1,0.5
		c0.3,0.4,0.4,0.9,0.4,1.5v7.6c0,0.5-0.1,1-0.4,1.4c-0.3,0.3-0.6,0.5-1,0.5c-0.4,0-0.7-0.2-1-0.5C43,74.4,42.9,74.2,42.9,73.9
		L42.9,73.9z"/>
	<path class="st1" d="M13.6,64.6c0.1-0.2,0.2-0.3,0.4-0.5c0.4-0.4,0.8-0.5,1.3-0.5c0.5,0,1,0.2,1.5,0.5c0.5,0.3,0.8,0.8,0.8,1.5
		c0,0.4-0.1,0.8-0.4,1.1c-0.2,0.3-0.5,0.4-0.8,0.4c-0.2,0-0.5-0.1-0.7-0.2c-0.2-0.1-0.5-0.2-0.7-0.2c-0.2,0-0.4,0-0.5,0.2
		c-0.2,0.2-0.3,0.5-0.4,0.7c-0.1,0.4-0.2,0.9-0.2,1.3c0,0.6-0.1,1.3-0.1,2v2.2c0,0.5-0.1,1.1-0.4,1.5c-0.3,0.4-0.6,0.5-1,0.5
		c-0.4,0-0.7-0.2-1-0.5c-0.3-0.4-0.4-0.9-0.4-1.5v-7.3c0-1.1,0.3-2.2,1.4-2.2c0.4,0,0.8,0.2,1,0.6C13.5,64.4,13.5,64.5,13.6,64.6
		L13.6,64.6z"/>
	<path class="st1" d="M166.9,68.1h3.1c-0.1-0.5-0.2-1-0.5-1.3c-0.3-0.4-0.7-0.5-1.1-0.5c-0.4,0-0.8,0.2-1,0.5
		C167.1,67.2,166.9,67.7,166.9,68.1L166.9,68.1z M166.8,70.5c0,0.3,0.1,0.7,0.2,1c0.1,0.4,0.3,0.6,0.6,0.9c0.3,0.2,0.5,0.3,0.9,0.3
		c0.2,0,0.4,0,0.6-0.1c0.2-0.1,0.4-0.2,0.5-0.3c0.2-0.1,0.3-0.3,0.5-0.5c0.2-0.2,0.4-0.5,0.6-0.7c0.2-0.2,0.4-0.3,0.7-0.3
		c0.3,0,0.5,0.1,0.8,0.3c0.2,0.2,0.3,0.6,0.3,0.9c0,0.4-0.1,0.7-0.3,1c-0.2,0.4-0.5,0.7-0.8,1c-0.4,0.4-0.8,0.6-1.2,0.8
		c-0.5,0.2-1.1,0.3-1.7,0.3c-1.3,0-2.5-0.4-3.4-1.6c-0.9-1.1-1.2-2.6-1.2-4.2c0-0.8,0.1-1.6,0.3-2.3c0.2-0.7,0.5-1.3,0.9-1.9
		c0.4-0.5,0.9-0.9,1.4-1.2c0.6-0.3,1.2-0.4,1.9-0.4c0.8,0,1.6,0.2,2.3,0.7c0.6,0.5,1.1,1.1,1.5,1.8c0.3,0.7,0.5,1.5,0.5,2.3
		c0,0.6-0.1,1.3-0.6,1.7c-0.4,0.3-1,0.3-1.4,0.3H166.8L166.8,70.5z"/>
	<path class="st1" d="M146.8,69.4c0-0.8-0.1-1.6-0.5-2.2c-0.3-0.5-0.7-0.7-1.3-0.7c-0.3,0-0.6,0.1-0.9,0.3c-0.3,0.2-0.5,0.6-0.6,1
		c-0.2,0.5-0.2,1.1-0.2,1.7c0,0.6,0.1,1.1,0.2,1.6c0.1,0.4,0.3,0.7,0.6,1c0.3,0.2,0.6,0.3,0.9,0.3c0.5,0,0.9-0.2,1.3-0.7
		C146.7,71,146.8,70.2,146.8,69.4L146.8,69.4z M149.6,69.4c0,0.8-0.1,1.6-0.3,2.3c-0.2,0.7-0.5,1.3-0.9,1.8
		c-0.4,0.5-0.9,0.9-1.5,1.2c-0.6,0.3-1.2,0.4-1.9,0.4c-0.6,0-1.3-0.1-1.9-0.4c-0.5-0.3-1-0.7-1.4-1.2c-0.4-0.5-0.7-1.1-0.9-1.8
		c-0.2-0.7-0.3-1.5-0.3-2.3c0-0.8,0.1-1.6,0.3-2.3c0.2-0.7,0.5-1.3,0.9-1.8c0.4-0.5,0.9-0.9,1.5-1.2c0.6-0.3,1.2-0.4,1.9-0.4
		c0.6,0,1.3,0.1,1.9,0.4c0.6,0.3,1,0.7,1.5,1.2c0.4,0.5,0.7,1.1,0.9,1.8C149.5,67.8,149.6,68.6,149.6,69.4L149.6,69.4z"/>
	<path class="st1" d="M126.5,70c-0.3,0.1-0.6,0.2-0.9,0.3c-0.4,0.1-0.8,0.2-1.2,0.3c-0.2,0.1-0.4,0.2-0.5,0.3
		c-0.1,0.2-0.2,0.4-0.2,0.6c0,0.3,0.1,0.5,0.3,0.7c0.2,0.2,0.4,0.3,0.7,0.3c0.4,0,0.7-0.1,1-0.3c0.3-0.2,0.5-0.4,0.6-0.7
		C126.5,71.2,126.5,70.5,126.5,70L126.5,70z M126.9,73.9c-0.4,0.3-0.8,0.7-1.3,0.9c-0.6,0.3-1.1,0.4-1.7,0.4c-0.6,0-1.1-0.1-1.6-0.4
		c-0.5-0.3-0.8-0.7-1.1-1.2c-0.3-0.5-0.4-1.1-0.4-1.7c0-0.8,0.2-1.5,0.6-2.1c0.4-0.6,1-1,1.7-1.1c0.3-0.1,0.7-0.2,1-0.3
		c0.5-0.1,0.9-0.2,1.4-0.4c0.3-0.1,0.6-0.2,1-0.3c0-0.3-0.1-0.7-0.2-1c-0.2-0.3-0.7-0.3-1-0.3c-0.3,0-0.8,0-1,0.2
		c-0.2,0.2-0.4,0.4-0.6,0.7c-0.1,0.3-0.3,0.5-0.4,0.8c-0.2,0.3-0.5,0.3-0.8,0.3c-0.3,0-0.6-0.1-0.8-0.4c-0.2-0.3-0.4-0.6-0.4-1
		c0-0.6,0.2-1.1,0.5-1.6c0.3-0.6,0.9-0.9,1.4-1.2c0.7-0.3,1.5-0.5,2.2-0.5c0.8,0,1.6,0.1,2.3,0.4c0.6,0.3,1,0.8,1.3,1.5
		c0.3,0.8,0.4,1.7,0.4,2.5c0,0.5,0,1,0,1.6c0,0.5,0,1,0,1.4c0,0.5,0.1,1,0.2,1.4c0.1,0.3,0.2,0.8,0.2,1.1c0,0.4-0.2,0.8-0.4,1
		c-0.3,0.3-0.6,0.4-0.9,0.4c-0.3,0-0.6-0.2-0.9-0.5C127.3,74.4,127.1,74.1,126.9,73.9L126.9,73.9z"/>
	<path class="st1" d="M95.1,70c-0.3,0.1-0.6,0.2-0.9,0.3c-0.4,0.1-0.8,0.2-1.2,0.3c-0.2,0.1-0.4,0.2-0.5,0.3
		c-0.1,0.2-0.2,0.4-0.2,0.6c0,0.3,0.1,0.5,0.3,0.7c0.2,0.2,0.4,0.3,0.7,0.3c0.4,0,0.7-0.1,1-0.3c0.3-0.2,0.5-0.4,0.6-0.7
		C95.1,71.2,95.1,70.5,95.1,70L95.1,70z M95.5,73.9c-0.4,0.3-0.8,0.7-1.3,0.9c-0.6,0.3-1.1,0.4-1.7,0.4c-0.6,0-1.1-0.1-1.6-0.4
		c-0.5-0.3-0.8-0.7-1.1-1.2c-0.3-0.5-0.4-1.1-0.4-1.7c0-0.8,0.2-1.5,0.6-2.1c0.4-0.6,1-1,1.7-1.1c0.3-0.1,0.7-0.2,1-0.3
		c0.5-0.1,0.9-0.2,1.4-0.4c0.3-0.1,0.6-0.2,1-0.3c0-0.3-0.1-0.7-0.2-1c-0.2-0.3-0.7-0.3-1-0.3c-0.3,0-0.8,0-1,0.2
		c-0.2,0.2-0.4,0.4-0.6,0.7c-0.1,0.3-0.3,0.5-0.4,0.8c-0.2,0.3-0.5,0.3-0.8,0.3c-0.3,0-0.6-0.1-0.8-0.4c-0.2-0.3-0.4-0.6-0.4-1
		c0-0.6,0.2-1.1,0.5-1.6c0.3-0.6,0.9-0.9,1.4-1.2c0.7-0.3,1.5-0.5,2.2-0.5c0.8,0,1.6,0.1,2.3,0.4c0.6,0.3,1,0.8,1.3,1.5
		c0.3,0.8,0.4,1.7,0.4,2.5c0,0.5,0,1,0,1.6c0,0.5,0,1,0,1.4c0,0.5,0.1,1,0.2,1.4c0.1,0.3,0.2,0.8,0.2,1.1c0,0.4-0.2,0.8-0.4,1
		c-0.3,0.3-0.6,0.4-0.9,0.4c-0.3,0-0.6-0.2-0.9-0.5C95.8,74.4,95.7,74.1,95.5,73.9L95.5,73.9z"/>
	<path class="st1" d="M161.6,66.6V71c0,0.3,0,0.6,0,0.9c0,0.1,0,0.2,0.1,0.3c0,0.1,0.2,0.1,0.2,0.1c0.1,0,0.3,0,0.4-0.1
		c0.2,0,0.4-0.1,0.6-0.1c0.3,0,0.5,0.1,0.7,0.4c0.2,0.3,0.3,0.6,0.3,0.9c0,0.6-0.3,1.1-0.7,1.3c-0.5,0.3-1.2,0.4-1.8,0.4
		c-0.6,0-1.2-0.1-1.7-0.5c-0.4-0.3-0.7-0.8-0.8-1.4c-0.1-0.6-0.2-1.4-0.2-2.1v-4.6c-0.3,0-0.6-0.1-0.9-0.4c-0.2-0.3-0.4-0.6-0.4-1
		c0-0.4,0.1-0.7,0.4-1c0.2-0.2,0.5-0.3,0.8-0.4v-1.2c0-0.3,0-0.7,0-1c0-0.3,0.1-0.5,0.2-0.8c0.1-0.3,0.3-0.5,0.5-0.6
		c0.2-0.2,0.4-0.2,0.7-0.2c0.4,0,0.7,0.2,1,0.5c0.2,0.2,0.3,0.5,0.4,0.8c0.1,0.4,0.1,0.7,0.1,1.1v1.4h0.4c0.3,0,0.7,0.1,0.9,0.4
		c0.2,0.3,0.4,0.6,0.4,1c0,0.5-0.2,0.9-0.5,1.1C162.4,66.6,162,66.6,161.6,66.6L161.6,66.6L161.6,66.6z"/>
	<path class="st1" d="M153.5,64.6c0.1-0.2,0.2-0.3,0.4-0.5c0.4-0.4,0.8-0.5,1.3-0.5c0.5,0,1,0.2,1.5,0.5c0.5,0.3,0.8,0.8,0.8,1.5
		c0,0.4-0.1,0.8-0.4,1.1c-0.2,0.3-0.5,0.4-0.8,0.4c-0.2,0-0.5-0.1-0.7-0.2c-0.2-0.1-0.5-0.2-0.7-0.2c-0.2,0-0.4,0-0.5,0.2
		c-0.2,0.2-0.3,0.5-0.4,0.7c-0.1,0.4-0.2,0.9-0.2,1.3c0,0.6-0.1,1.3-0.1,2v2.2c0,0.5-0.1,1.1-0.4,1.5c-0.3,0.4-0.6,0.5-1,0.5
		c-0.4,0-0.7-0.2-1-0.5c-0.3-0.4-0.4-0.9-0.4-1.5v-7.3c0-1.1,0.3-2.2,1.4-2.2c0.4,0,0.8,0.2,1,0.6C153.4,64.4,153.4,64.5,153.5,64.6
		L153.5,64.6z"/>
	<path class="st1" d="M133.6,64.8c0.2-0.3,0.5-0.5,0.8-0.7c0.5-0.3,1.1-0.5,1.7-0.5c0.6,0,1.2,0.2,1.7,0.5c0.5,0.3,0.9,0.8,1.1,1.4
		c0.2,0.4,0.3,0.8,0.3,1.2c0.1,0.5,0.1,1,0.1,1.5v4.9c0,0.5-0.1,1.1-0.4,1.5c-0.3,0.4-0.6,0.5-1,0.5c-0.4,0-0.8-0.2-1-0.6
		c-0.3-0.4-0.4-0.9-0.4-1.5v-4.4c0-0.6,0-1.3-0.3-1.8c-0.2-0.4-0.5-0.5-0.9-0.5c-0.3,0-0.6,0.1-0.8,0.3c-0.3,0.2-0.4,0.6-0.6,0.9
		c-0.1,0.5-0.1,1.5-0.1,2.1v3.3c0,0.5-0.1,1.1-0.4,1.5c-0.3,0.4-0.6,0.5-1,0.5c-0.4,0-0.7-0.2-1-0.6c-0.3-0.4-0.4-0.9-0.4-1.5v-7.6
		c0-0.5,0.1-1,0.3-1.4c0.3-0.4,0.6-0.5,1-0.5c0.2,0,0.5,0.1,0.7,0.2c0.2,0.2,0.4,0.4,0.5,0.7C133.6,64.6,133.6,64.7,133.6,64.8
		L133.6,64.8z"/>
	<path class="st1" d="M109.4,64.7c0.2-0.2,0.5-0.5,0.8-0.6c0.5-0.3,1-0.4,1.5-0.4c0.5,0,1.1,0.1,1.5,0.4c0.3,0.2,0.6,0.5,0.8,0.9
		c0.3-0.3,0.6-0.7,0.9-0.9c0.5-0.3,1-0.4,1.5-0.4c0.6,0,1.2,0.1,1.7,0.5c0.5,0.3,0.8,0.8,1.1,1.4c0.3,0.7,0.3,1.7,0.3,2.4v5.1
		c0,0.5-0.1,1.1-0.4,1.5c-0.3,0.4-0.6,0.6-1.1,0.6c-0.4,0-0.8-0.2-1-0.6c-0.3-0.4-0.4-1-0.4-1.5v-4.4c0-0.4,0-0.9-0.1-1.3
		c0-0.2-0.1-0.5-0.2-0.6c-0.1-0.2-0.3-0.2-0.5-0.2c-0.2,0-0.4,0.1-0.6,0.2c-0.2,0.2-0.4,0.4-0.5,0.6c-0.2,0.5-0.2,1.6-0.2,2.2v3.5
		c0,0.5-0.1,1.1-0.4,1.5c-0.3,0.4-0.6,0.6-1.1,0.6c-0.4,0-0.8-0.2-1-0.6c-0.3-0.4-0.4-1-0.4-1.5v-4.2c0-0.5,0-1-0.1-1.5
		c0-0.2-0.1-0.5-0.2-0.7c-0.1-0.2-0.3-0.2-0.5-0.2c-0.4,0-0.9,0.1-1.1,0.6c-0.3,0.7-0.3,1.6-0.3,2.4v3.5c0,0.5-0.1,1.1-0.4,1.5
		c-0.3,0.4-0.6,0.6-1,0.6s-0.8-0.2-1-0.6c-0.3-0.4-0.4-1-0.4-1.5v-7.5c0-0.5,0.1-1,0.4-1.4c0.3-0.4,0.6-0.5,1-0.5
		c0.4,0,0.7,0.2,1,0.5C109.3,64.3,109.4,64.5,109.4,64.7L109.4,64.7z"/>
	<path class="st1" d="M102.2,64.6c0.1-0.2,0.2-0.3,0.4-0.5c0.4-0.4,0.8-0.5,1.3-0.5c0.5,0,1,0.2,1.5,0.5c0.5,0.3,0.8,0.8,0.8,1.5
		c0,0.4-0.1,0.8-0.4,1.1c-0.2,0.3-0.5,0.4-0.8,0.4c-0.2,0-0.5-0.1-0.7-0.2c-0.2-0.1-0.5-0.2-0.7-0.2c-0.2,0-0.4,0-0.5,0.2
		c-0.2,0.2-0.3,0.5-0.4,0.7c-0.1,0.4-0.2,0.9-0.2,1.3c0,0.6-0.1,1.3-0.1,2v2.2c0,0.5-0.1,1.1-0.4,1.5c-0.3,0.4-0.6,0.5-1,0.5
		c-0.4,0-0.7-0.2-1-0.5c-0.3-0.4-0.4-0.9-0.4-1.5v-7.3c0-1.1,0.3-2.2,1.4-2.2c0.4,0,0.8,0.2,1,0.6C102.1,64.4,102.2,64.5,102.2,64.6
		L102.2,64.6z"/>
	<path class="st1" d="M83.5,64.5v1.3h3.4c0.4,0,0.7,0.1,1,0.4c0.3,0.3,0.4,0.7,0.4,1.1c0,0.4-0.1,0.8-0.4,1.1
		c-0.3,0.3-0.7,0.4-1,0.4h-3.4V73c0,0.6-0.1,1.2-0.4,1.6c-0.3,0.4-0.7,0.6-1.1,0.6c-0.4,0-0.8-0.2-1.1-0.6c-0.3-0.4-0.4-1-0.4-1.6
		v-7.5l0.1-0.2c0.5-0.9,1.1-1.5,1.9-1.7c0.6-0.2,1.2-0.3,2-0.4C83.9,63.4,83.5,63.9,83.5,64.5L83.5,64.5z M80.6,64.7L80.6,64.7
		c0.5-0.7,1.1-1.2,1.8-1.4c0.8-0.3,1.8-0.4,3-0.4l0.4,0l0.4,0h1.5c0.2,0,0.4,0,0.5-0.1c0.2-0.1,0.3-0.1,0.4-0.3
		c0.1-0.1,0.2-0.3,0.3-0.4c0.1-0.2,0.1-0.4,0.1-0.6c0-0.2,0-0.4-0.1-0.6c-0.1-0.2-0.1-0.3-0.3-0.4c-0.1-0.1-0.3-0.2-0.4-0.3
		c-0.2-0.1-0.3-0.1-0.5-0.1h-3.1c-1.3,0-2.3,0.4-3,1.2C81,62.1,80.6,63.2,80.6,64.7L80.6,64.7z"/>
	<path class="st2" d="M80.5,65.3v-0.5c0.1-3.1,1.4-4.7,4.1-4.7h3.1c0.4,0,0.8,0.1,1.1,0.4c0.3,0.3,0.4,0.7,0.4,1.1
		c0,0.4-0.1,0.8-0.4,1.1C88.4,62.9,88,63,87.7,63h-1.5c-0.2,0-0.5,0-0.7,0h0l0,0C83,63.1,81.5,63.3,80.5,65.3L80.5,65.3z"/>
	<path class="st0" d="M62.2,81.1c0.2,0,0.3,0,0.5,0c0.2,0,0.3,0,0.5,0l0.1,3.6c-0.2,0-0.4,0-0.6,0c-0.2,0-0.4,0-0.6,0L62.2,81.1
		L62.2,81.1z M62.2,80.5c0-0.2,0-0.4,0-0.5c0-0.2,0-0.4,0-0.6c0.2,0,0.4,0,0.5,0c0.2,0,0.4,0,0.5,0c0,0.2,0,0.4,0,0.5
		c0,0.2,0,0.4,0,0.6c-0.2,0-0.4,0-0.5,0C62.6,80.5,62.4,80.5,62.2,80.5L62.2,80.5z M65.3,80.8c-0.2-0.1-0.3-0.1-0.4-0.2
		c-0.1-0.1-0.2-0.2-0.3-0.3c-0.1-0.1-0.2-0.2-0.2-0.4c-0.1-0.1-0.1-0.3-0.1-0.5c0-0.3,0-0.5,0.1-0.7c0.1-0.2,0.2-0.4,0.4-0.5
		c0.2-0.1,0.3-0.2,0.6-0.3c0.2-0.1,0.5-0.1,0.7-0.1c0.2,0,0.5,0,0.7,0.1c0.2,0,0.4,0.1,0.7,0.2c0,0.3-0.1,0.6-0.2,0.9
		c-0.1,0-0.1-0.1-0.2-0.1c-0.1,0-0.2-0.1-0.2-0.1c-0.1,0-0.2,0-0.3,0c-0.1,0-0.2,0-0.4,0c-0.1,0-0.2,0-0.3,0c-0.1,0-0.2,0-0.2,0.1
		c-0.1,0-0.1,0.1-0.2,0.2c0,0.1-0.1,0.2-0.1,0.3c0,0.1,0,0.2,0.1,0.3c0,0.1,0.1,0.1,0.1,0.2c0.1,0,0.1,0.1,0.2,0.1
		c0.1,0,0.1,0.1,0.2,0.1l0.4,0.2c0.2,0.1,0.4,0.2,0.5,0.2c0.1,0.1,0.3,0.2,0.4,0.3c0.1,0.1,0.2,0.3,0.2,0.4c0.1,0.2,0.1,0.4,0.1,0.6
		c0,0.3,0,0.5-0.1,0.7c-0.1,0.2-0.2,0.4-0.4,0.5c-0.2,0.1-0.4,0.3-0.6,0.4c-0.2,0.1-0.5,0.1-0.9,0.1c-0.2,0-0.3,0-0.4,0
		c-0.1,0-0.2,0-0.4,0c-0.1,0-0.2-0.1-0.3-0.1c-0.1,0-0.2-0.1-0.3-0.1c0-0.1,0-0.3,0.1-0.5c0-0.2,0.1-0.3,0.1-0.5
		c0.2,0.1,0.4,0.1,0.6,0.2c0.2,0,0.4,0.1,0.6,0.1c0.3,0,0.5-0.1,0.7-0.2c0.2-0.1,0.3-0.3,0.3-0.5c0-0.1,0-0.2-0.1-0.3
		c0-0.1-0.1-0.1-0.2-0.2c-0.1-0.1-0.1-0.1-0.2-0.1c-0.1,0-0.2-0.1-0.3-0.1L65.3,80.8L65.3,80.8z M68.2,79.4c0.2,0,0.3,0,0.5,0
		c0.2,0,0.3,0,0.5,0v2c0,0.2,0,0.4,0,0.5c0,0.1,0.1,0.2,0.1,0.3c0.1,0.1,0.1,0.1,0.2,0.2c0.1,0,0.2,0,0.3,0c0.2,0,0.3,0,0.4-0.1v-3
		c0.2,0,0.3,0,0.5,0c0.2,0,0.3,0,0.5,0v3.7c-0.2,0.1-0.4,0.1-0.6,0.2c-0.3,0.1-0.5,0.1-0.8,0.1c-0.2,0-0.5,0-0.7-0.1
		c-0.2,0-0.4-0.1-0.6-0.3c-0.2-0.1-0.3-0.3-0.4-0.6c-0.1-0.2-0.2-0.6-0.2-1V79.4L68.2,79.4z M75,80.8c-0.2-0.1-0.3-0.1-0.4-0.2
		c-0.1-0.1-0.2-0.2-0.3-0.3c-0.1-0.1-0.2-0.2-0.2-0.4c-0.1-0.1-0.1-0.3-0.1-0.5c0-0.3,0-0.5,0.1-0.7c0.1-0.2,0.2-0.4,0.4-0.5
		c0.2-0.1,0.3-0.2,0.6-0.3c0.2-0.1,0.5-0.1,0.7-0.1c0.2,0,0.5,0,0.7,0.1c0.2,0,0.4,0.1,0.7,0.2c0,0.3-0.1,0.6-0.2,0.9
		c-0.1,0-0.1-0.1-0.2-0.1c-0.1,0-0.2-0.1-0.2-0.1c-0.1,0-0.2,0-0.3,0c-0.1,0-0.2,0-0.4,0c-0.1,0-0.2,0-0.3,0c-0.1,0-0.2,0-0.2,0.1
		c-0.1,0-0.1,0.1-0.2,0.2c0,0.1-0.1,0.2-0.1,0.3c0,0.1,0,0.2,0.1,0.3c0,0.1,0.1,0.1,0.1,0.2c0.1,0,0.1,0.1,0.2,0.1
		c0.1,0,0.1,0.1,0.2,0.1l0.4,0.2c0.2,0.1,0.4,0.2,0.5,0.2c0.1,0.1,0.3,0.2,0.4,0.3c0.1,0.1,0.2,0.3,0.2,0.4c0.1,0.2,0.1,0.4,0.1,0.6
		c0,0.3,0,0.5-0.1,0.7c-0.1,0.2-0.2,0.4-0.4,0.5c-0.2,0.1-0.4,0.3-0.6,0.4c-0.2,0.1-0.5,0.1-0.9,0.1c-0.2,0-0.3,0-0.4,0
		c-0.1,0-0.2,0-0.4,0c-0.1,0-0.2-0.1-0.3-0.1c-0.1,0-0.2-0.1-0.3-0.1c0-0.1,0-0.3,0.1-0.5c0-0.2,0.1-0.3,0.1-0.5
		c0.2,0.1,0.4,0.1,0.6,0.2c0.2,0,0.4,0.1,0.6,0.1c0.3,0,0.5-0.1,0.7-0.2c0.2-0.1,0.3-0.3,0.3-0.5c0-0.1,0-0.2-0.1-0.3
		c0-0.1-0.1-0.1-0.2-0.2c-0.1-0.1-0.1-0.1-0.2-0.1c-0.1,0-0.2-0.1-0.3-0.1L75,80.8L75,80.8z M79.9,81.5c-0.1,0-0.1,0-0.2,0
		c-0.1,0-0.1,0-0.2,0c-0.2,0-0.4,0-0.6,0.1c-0.1,0.1-0.2,0.2-0.2,0.4c0,0.1,0,0.2,0.1,0.3c0.1,0.1,0.1,0.1,0.2,0.2
		c0.1,0,0.2,0.1,0.2,0.1c0.1,0,0.2,0,0.2,0c0.1,0,0.1,0,0.2,0c0.1,0,0.1,0,0.2,0V81.5L79.9,81.5z M79.9,80.7c0-0.1,0-0.2-0.1-0.3
		c0-0.1-0.1-0.1-0.2-0.2c-0.1,0-0.2-0.1-0.3-0.1c-0.1,0-0.2,0-0.3,0c-0.3,0-0.5,0.1-0.8,0.2c-0.1-0.1-0.1-0.3-0.2-0.4
		c0-0.1-0.1-0.3-0.1-0.4c0.2-0.1,0.4-0.1,0.6-0.2c0.2,0,0.4-0.1,0.6-0.1c0.5,0,0.9,0.1,1.2,0.4c0.3,0.2,0.4,0.6,0.4,1.2v2.2
		c-0.2,0.1-0.4,0.1-0.6,0.2c-0.2,0-0.5,0.1-0.8,0.1c-0.2,0-0.5,0-0.7-0.1c-0.2,0-0.4-0.1-0.5-0.2c-0.1-0.1-0.3-0.2-0.3-0.4
		c-0.1-0.2-0.1-0.4-0.1-0.6c0-0.2,0-0.4,0.1-0.6c0.1-0.2,0.2-0.3,0.4-0.4c0.2-0.1,0.3-0.2,0.5-0.2c0.2,0,0.4-0.1,0.6-0.1
		C79.6,80.8,79.7,80.8,79.9,80.7L79.9,80.7L79.9,80.7z M81.8,77.8c0.2,0,0.3,0,0.5,0c0.2,0,0.3,0,0.5,0v3.9c0,0.2,0,0.3,0,0.4
		c0,0.1,0,0.2,0.1,0.2c0,0.1,0.1,0.1,0.1,0.1c0.1,0,0.1,0,0.2,0c0,0,0.1,0,0.1,0c0,0,0.1,0,0.1,0c0.1,0.2,0.1,0.4,0.1,0.6
		c0,0,0,0.1,0,0.1c0,0,0,0.1,0,0.1c-0.1,0-0.2,0-0.3,0.1c-0.1,0-0.2,0-0.3,0c-0.4,0-0.7-0.1-0.9-0.3c-0.2-0.2-0.3-0.6-0.3-1V77.8
		L81.8,77.8z M84.1,79.4c0.2,0,0.3,0,0.5,0c0.2,0,0.3,0,0.5,0v2c0,0.2,0,0.4,0,0.5c0,0.1,0.1,0.2,0.1,0.3c0.1,0.1,0.1,0.1,0.2,0.2
		c0.1,0,0.2,0,0.3,0c0.2,0,0.3,0,0.4-0.1v-3c0.2,0,0.3,0,0.5,0c0.2,0,0.3,0,0.5,0v3.7c-0.2,0.1-0.4,0.1-0.6,0.2
		c-0.3,0.1-0.5,0.1-0.8,0.1c-0.2,0-0.5,0-0.7-0.1c-0.2,0-0.4-0.1-0.6-0.3c-0.2-0.1-0.3-0.3-0.4-0.6c-0.1-0.2-0.2-0.6-0.2-1V79.4
		L84.1,79.4z M90.6,77.8c0.1,0,0.2,0,0.3,0c0.1,0,0.2,0,0.3,0c0.1,0,0.2,0,0.3,0c0.1,0,0.2,0,0.3,0v5.3c-0.2,0.1-0.5,0.1-0.7,0.2
		c-0.2,0-0.5,0.1-0.9,0.1c-0.3,0-0.5,0-0.7-0.1c-0.2-0.1-0.4-0.2-0.6-0.3c-0.2-0.2-0.3-0.4-0.4-0.6c-0.1-0.2-0.2-0.6-0.2-0.9
		c0-0.3,0-0.6,0.1-0.8c0.1-0.3,0.2-0.5,0.4-0.7c0.2-0.2,0.4-0.3,0.6-0.4c0.2-0.1,0.5-0.2,0.8-0.2c0.1,0,0.2,0,0.3,0
		c0.1,0,0.2,0,0.3,0V77.8L90.6,77.8z M90.6,80.2c-0.1,0-0.2,0-0.2,0c-0.1,0-0.1,0-0.2,0c-0.2,0-0.3,0-0.4,0.1
		c-0.1,0.1-0.2,0.2-0.3,0.3c-0.1,0.1-0.1,0.2-0.2,0.4c0,0.2-0.1,0.3-0.1,0.5c0,0.2,0,0.4,0.1,0.5c0,0.1,0.1,0.3,0.2,0.3
		c0.1,0.1,0.2,0.1,0.3,0.2c0.1,0,0.2,0.1,0.4,0.1c0.1,0,0.2,0,0.2,0c0.1,0,0.1,0,0.2,0V80.2L90.6,80.2z M95,81.7
		c0,0.3,0.1,0.5,0.3,0.6c0.2,0.1,0.4,0.2,0.7,0.2c0.2,0,0.3,0,0.5,0c0.2,0,0.3-0.1,0.5-0.1c0.1,0.1,0.1,0.2,0.1,0.4
		c0,0.1,0.1,0.3,0.1,0.4c-0.4,0.1-0.8,0.2-1.3,0.2c-0.3,0-0.6,0-0.9-0.1c-0.2-0.1-0.5-0.2-0.6-0.4c-0.2-0.2-0.3-0.4-0.3-0.6
		C94,81.9,94,81.6,94,81.4c0-0.3,0-0.5,0.1-0.8c0.1-0.2,0.2-0.5,0.3-0.6c0.2-0.2,0.3-0.3,0.6-0.4c0.2-0.1,0.5-0.2,0.8-0.2
		c0.3,0,0.5,0,0.7,0.1c0.2,0.1,0.4,0.2,0.5,0.4c0.1,0.2,0.2,0.4,0.3,0.6c0.1,0.2,0.1,0.5,0.1,0.7c0,0.1,0,0.2,0,0.3
		c0,0.1,0,0.2,0,0.2H95L95,81.7z M96.5,80.9c0-0.2-0.1-0.4-0.2-0.6c-0.1-0.1-0.3-0.2-0.5-0.2c-0.2,0-0.4,0.1-0.6,0.2
		c-0.1,0.1-0.2,0.3-0.2,0.6H96.5L96.5,80.9z M99,81.6c-0.3-0.1-0.5-0.2-0.6-0.4c-0.2-0.2-0.2-0.4-0.2-0.7c0-0.4,0.1-0.7,0.4-0.9
		c0.3-0.2,0.6-0.3,1.1-0.3c0.2,0,0.4,0,0.6,0.1c0.2,0,0.4,0.1,0.6,0.2c0,0.1,0,0.3-0.1,0.4c0,0.1-0.1,0.3-0.1,0.4
		c-0.1-0.1-0.2-0.1-0.4-0.1c-0.1,0-0.3-0.1-0.4-0.1c-0.2,0-0.3,0-0.4,0.1c-0.1,0.1-0.1,0.1-0.1,0.3c0,0.1,0,0.2,0.1,0.2
		c0.1,0,0.2,0.1,0.3,0.1l0.4,0.1c0.1,0,0.3,0.1,0.4,0.1c0.1,0.1,0.2,0.1,0.3,0.2c0.1,0.1,0.1,0.2,0.2,0.3c0,0.1,0.1,0.3,0.1,0.5
		c0,0.2,0,0.4-0.1,0.5c-0.1,0.2-0.2,0.3-0.3,0.4c-0.1,0.1-0.3,0.2-0.5,0.3c-0.2,0.1-0.4,0.1-0.7,0.1c-0.1,0-0.2,0-0.3,0
		c-0.1,0-0.2,0-0.3,0c-0.1,0-0.2,0-0.3-0.1c-0.1,0-0.2-0.1-0.3-0.1c0-0.1,0-0.3,0.1-0.4c0-0.1,0.1-0.3,0.1-0.4
		c0.2,0.1,0.3,0.1,0.5,0.1c0.1,0,0.3,0,0.4,0c0.1,0,0.1,0,0.2,0c0.1,0,0.2,0,0.2-0.1c0.1,0,0.1-0.1,0.2-0.1c0-0.1,0.1-0.1,0.1-0.2
		c0-0.1,0-0.2-0.1-0.3c-0.1-0.1-0.2-0.1-0.3-0.1L99,81.6L99,81.6z M103.2,79.4c0.1,0,0.1,0,0.2,0c0.1,0,0.1,0,0.2,0
		c0.1,0,0.2,0,0.2,0c0.1,0,0.1,0,0.2,0c0,0,0,0.1,0,0.1c0,0,0,0.1,0,0.1c0,0.1,0,0.1,0,0.2c0,0,0,0.1,0,0.1c0-0.1,0.1-0.1,0.2-0.2
		c0.1-0.1,0.1-0.1,0.2-0.2c0.1-0.1,0.2-0.1,0.3-0.1c0.1,0,0.2-0.1,0.4-0.1c0.4,0,0.7,0.1,1,0.4c0.2,0.2,0.3,0.6,0.3,1.1v2.5
		c-0.2,0-0.3,0-0.5,0c-0.2,0-0.3,0-0.5,0v-2.2c0-0.3,0-0.5-0.1-0.6c-0.1-0.1-0.2-0.2-0.4-0.2c-0.1,0-0.2,0-0.3,0
		c-0.1,0-0.2,0.1-0.2,0.1c-0.1,0.1-0.1,0.2-0.2,0.3c0,0.1-0.1,0.3-0.1,0.5v2c-0.2,0-0.3,0-0.5,0c-0.2,0-0.3,0-0.5,0V79.4L103.2,79.4
		z M107.4,79.4c0.2,0,0.3,0,0.5,0c0.2,0,0.3,0,0.5,0v2c0,0.2,0,0.4,0,0.5c0,0.1,0.1,0.2,0.1,0.3c0.1,0.1,0.1,0.1,0.2,0.2
		c0.1,0,0.2,0,0.3,0c0.2,0,0.3,0,0.4-0.1v-3c0.2,0,0.3,0,0.5,0c0.2,0,0.3,0,0.5,0v3.7c-0.2,0.1-0.4,0.1-0.6,0.2
		c-0.3,0.1-0.5,0.1-0.8,0.1c-0.2,0-0.5,0-0.7-0.1c-0.2,0-0.4-0.1-0.6-0.3c-0.2-0.1-0.3-0.3-0.4-0.6c-0.1-0.2-0.2-0.6-0.2-1V79.4
		L107.4,79.4z M112.4,81.7c0,0.3,0.1,0.5,0.3,0.6c0.2,0.1,0.4,0.2,0.7,0.2c0.2,0,0.3,0,0.5,0c0.2,0,0.3-0.1,0.5-0.1
		c0.1,0.1,0.1,0.2,0.1,0.4c0,0.1,0.1,0.3,0.1,0.4c-0.4,0.1-0.8,0.2-1.3,0.2c-0.3,0-0.6,0-0.9-0.1c-0.2-0.1-0.5-0.2-0.6-0.4
		c-0.2-0.2-0.3-0.4-0.3-0.6c-0.1-0.2-0.1-0.5-0.1-0.8c0-0.3,0-0.5,0.1-0.8c0.1-0.2,0.2-0.5,0.3-0.6c0.2-0.2,0.3-0.3,0.6-0.4
		c0.2-0.1,0.5-0.2,0.8-0.2c0.3,0,0.5,0,0.7,0.1c0.2,0.1,0.4,0.2,0.5,0.4c0.1,0.2,0.3,0.4,0.3,0.6c0.1,0.2,0.1,0.5,0.1,0.7
		c0,0.1,0,0.2,0,0.3c0,0.1,0,0.2,0,0.2H112.4L112.4,81.7z M113.9,80.9c0-0.2-0.1-0.4-0.2-0.6c-0.1-0.1-0.3-0.2-0.5-0.2
		c-0.2,0-0.4,0.1-0.6,0.2c-0.1,0.1-0.2,0.3-0.2,0.6H113.9L113.9,80.9z M116.4,81.6c-0.3-0.1-0.5-0.2-0.6-0.4
		c-0.2-0.2-0.2-0.4-0.2-0.7c0-0.4,0.1-0.7,0.4-0.9c0.3-0.2,0.6-0.3,1.1-0.3c0.2,0,0.4,0,0.6,0.1c0.2,0,0.4,0.1,0.6,0.2
		c0,0.1,0,0.3-0.1,0.4c0,0.1-0.1,0.3-0.1,0.4c-0.1-0.1-0.2-0.1-0.4-0.1c-0.1,0-0.3-0.1-0.4-0.1c-0.2,0-0.3,0-0.4,0.1
		c-0.1,0.1-0.1,0.1-0.1,0.3c0,0.1,0,0.2,0.1,0.2c0.1,0,0.2,0.1,0.3,0.1l0.4,0.1c0.1,0,0.3,0.1,0.4,0.1c0.1,0.1,0.2,0.1,0.3,0.2
		c0.1,0.1,0.1,0.2,0.2,0.3c0,0.1,0.1,0.3,0.1,0.5c0,0.2,0,0.4-0.1,0.5c-0.1,0.2-0.2,0.3-0.3,0.4c-0.1,0.1-0.3,0.2-0.5,0.3
		c-0.2,0.1-0.4,0.1-0.7,0.1c-0.1,0-0.2,0-0.3,0c-0.1,0-0.2,0-0.3,0c-0.1,0-0.2,0-0.3-0.1c-0.1,0-0.2-0.1-0.3-0.1
		c0-0.1,0-0.3,0.1-0.4c0-0.1,0.1-0.3,0.1-0.4c0.2,0.1,0.3,0.1,0.5,0.1c0.1,0,0.3,0,0.4,0c0.1,0,0.1,0,0.2,0c0.1,0,0.2,0,0.2-0.1
		c0.1,0,0.1-0.1,0.2-0.1c0-0.1,0.1-0.1,0.1-0.2c0-0.1,0-0.2-0.1-0.3c-0.1-0.1-0.2-0.1-0.3-0.1L116.4,81.6L116.4,81.6z M119.1,80.2
		h-0.5l0-0.1l1.4-1.8h0.2v1.1h0.9c0,0.1,0,0.1,0,0.2c0,0.1,0,0.1,0,0.2c0,0.1,0,0.1,0,0.2c0,0.1,0,0.1,0,0.2h-0.9v1.5
		c0,0.2,0,0.3,0,0.4c0,0.1,0.1,0.2,0.1,0.2c0,0.1,0.1,0.1,0.2,0.1c0.1,0,0.1,0,0.2,0c0.1,0,0.1,0,0.2,0c0.1,0,0.1,0,0.2,0
		c0,0.1,0.1,0.2,0.1,0.3c0,0.1,0,0.2,0,0.3c0,0.1,0,0.1,0,0.1c0,0,0,0.1,0,0.1c-0.2,0.1-0.5,0.1-0.7,0.1c-0.4,0-0.8-0.1-1-0.3
		c-0.2-0.2-0.3-0.6-0.3-1V80.2L119.1,80.2z M121.8,79.4c0.1,0,0.1,0,0.2,0c0.1,0,0.1,0,0.2,0c0.1,0,0.1,0,0.2,0c0.1,0,0.1,0,0.2,0
		c0,0,0,0.1,0,0.1c0,0,0,0.1,0,0.1c0,0.1,0,0.1,0,0.2c0,0.1,0,0.1,0,0.1c0.1-0.2,0.2-0.3,0.4-0.4c0.2-0.1,0.3-0.2,0.6-0.2
		c0,0,0.1,0,0.2,0c0.1,0,0.1,0,0.1,0c0,0,0,0.1,0,0.2c0,0.1,0,0.1,0,0.2c0,0.1,0,0.2,0,0.3c0,0.1,0,0.2,0,0.3c-0.1,0-0.1,0-0.2,0
		c-0.1,0-0.1,0-0.1,0c-0.1,0-0.2,0-0.3,0c-0.1,0-0.2,0.1-0.3,0.1c-0.1,0.1-0.2,0.2-0.2,0.3c-0.1,0.1-0.1,0.4-0.1,0.6v1.8
		c-0.1,0-0.2,0-0.3,0c-0.1,0-0.2,0-0.3,0c-0.1,0-0.2,0-0.2,0c-0.1,0-0.2,0-0.3,0V79.4L121.8,79.4z M126.2,83.3
		c-0.3,0-0.6-0.1-0.8-0.2c-0.2-0.1-0.4-0.2-0.6-0.4c-0.1-0.2-0.3-0.4-0.3-0.6c-0.1-0.2-0.1-0.5-0.1-0.8c0-0.3,0-0.5,0.1-0.8
		c0.1-0.2,0.2-0.5,0.3-0.6c0.1-0.2,0.3-0.3,0.6-0.4c0.2-0.1,0.5-0.2,0.8-0.2c0.3,0,0.6,0.1,0.8,0.2c0.2,0.1,0.4,0.2,0.6,0.4
		c0.1,0.2,0.3,0.4,0.3,0.6c0.1,0.2,0.1,0.5,0.1,0.8c0,0.3,0,0.5-0.1,0.8c-0.1,0.2-0.2,0.5-0.3,0.6c-0.1,0.2-0.3,0.3-0.6,0.4
		C126.7,83.3,126.5,83.3,126.2,83.3L126.2,83.3z M126.2,82.5c0.3,0,0.5-0.1,0.6-0.3c0.1-0.2,0.2-0.5,0.2-0.9c0-0.4-0.1-0.7-0.2-0.9
		c-0.1-0.2-0.3-0.3-0.6-0.3c-0.3,0-0.5,0.1-0.6,0.3c-0.1,0.2-0.2,0.5-0.2,0.9c0,0.4,0.1,0.7,0.2,0.9
		C125.7,82.4,125.9,82.5,126.2,82.5L126.2,82.5z M132.9,82.3c0.1,0.1,0.1,0.2,0.1,0.3c0,0.1,0.1,0.3,0.1,0.5
		c-0.2,0.1-0.4,0.1-0.5,0.2c-0.2,0-0.3,0-0.5,0c-0.3,0-0.6-0.1-0.8-0.2c-0.2-0.1-0.4-0.2-0.6-0.4c-0.2-0.2-0.3-0.4-0.3-0.6
		c-0.1-0.2-0.1-0.5-0.1-0.8c0-0.3,0-0.5,0.1-0.8c0.1-0.2,0.2-0.5,0.3-0.6c0.2-0.2,0.3-0.3,0.6-0.4c0.2-0.1,0.5-0.2,0.8-0.2
		c0.1,0,0.2,0,0.3,0c0.1,0,0.2,0,0.3,0c0.1,0,0.2,0,0.2,0.1c0.1,0,0.2,0.1,0.3,0.1c0,0.1,0,0.2,0,0.4c0,0.1-0.1,0.3-0.1,0.4
		c-0.1,0-0.3-0.1-0.4-0.1c-0.1,0-0.2,0-0.4,0c-0.3,0-0.5,0.1-0.7,0.3c-0.2,0.2-0.2,0.5-0.2,0.9c0,0.4,0.1,0.7,0.2,0.9
		c0.2,0.2,0.4,0.3,0.7,0.3c0.1,0,0.1,0,0.2,0c0.1,0,0.1,0,0.2,0c0.1,0,0.1,0,0.2,0C132.8,82.4,132.8,82.4,132.9,82.3L132.9,82.3z
		 M135.3,83.3c-0.3,0-0.6-0.1-0.8-0.2c-0.2-0.1-0.4-0.2-0.6-0.4c-0.1-0.2-0.3-0.4-0.3-0.6c-0.1-0.2-0.1-0.5-0.1-0.8
		c0-0.3,0-0.5,0.1-0.8c0.1-0.2,0.2-0.5,0.3-0.6c0.1-0.2,0.3-0.3,0.6-0.4c0.2-0.1,0.5-0.2,0.8-0.2c0.3,0,0.6,0.1,0.8,0.2
		c0.2,0.1,0.4,0.2,0.6,0.4c0.1,0.2,0.3,0.4,0.3,0.6c0.1,0.2,0.1,0.5,0.1,0.8c0,0.3,0,0.5-0.1,0.8c-0.1,0.2-0.2,0.5-0.3,0.6
		c-0.1,0.2-0.3,0.3-0.6,0.4C135.9,83.3,135.6,83.3,135.3,83.3L135.3,83.3z M135.3,82.5c0.3,0,0.5-0.1,0.6-0.3
		c0.1-0.2,0.2-0.5,0.2-0.9c0-0.4-0.1-0.7-0.2-0.9c-0.1-0.2-0.3-0.3-0.6-0.3c-0.3,0-0.5,0.1-0.6,0.3c-0.1,0.2-0.2,0.5-0.2,0.9
		c0,0.4,0.1,0.7,0.2,0.9C134.9,82.4,135.1,82.5,135.3,82.5L135.3,82.5z"/>
	<path class="st0" d="M137.9,79.4c0.1,0,0.1,0,0.2,0c0.1,0,0.1,0,0.2,0c0.1,0,0.2,0,0.2,0c0.1,0,0.1,0,0.2,0c0,0,0,0.1,0,0.1
		c0,0,0,0.1,0,0.1c0,0.1,0,0.1,0,0.2c0,0,0,0.1,0,0.1c0-0.1,0.1-0.1,0.2-0.2c0.1-0.1,0.1-0.1,0.2-0.2c0.1-0.1,0.2-0.1,0.3-0.1
		c0.1,0,0.2-0.1,0.4-0.1c0.6,0,1,0.2,1.1,0.7c0.1-0.2,0.2-0.3,0.4-0.5c0.2-0.1,0.4-0.2,0.7-0.2c0.4,0,0.7,0.1,0.9,0.4
		c0.2,0.2,0.3,0.6,0.3,1.1v2.5c-0.2,0-0.3,0-0.5,0c-0.2,0-0.3,0-0.5,0v-2.2c0-0.3,0-0.5-0.1-0.6c-0.1-0.1-0.2-0.2-0.4-0.2
		c-0.1,0-0.2,0-0.2,0c-0.1,0-0.2,0.1-0.2,0.1c-0.1,0.1-0.1,0.2-0.2,0.3c0,0.1-0.1,0.3-0.1,0.5v2.1c-0.2,0-0.3,0-0.5,0
		c-0.2,0-0.3,0-0.5,0v-2.2c0-0.3,0-0.5-0.1-0.6c-0.1-0.1-0.2-0.2-0.4-0.2c-0.1,0-0.2,0-0.2,0c-0.1,0-0.2,0.1-0.2,0.1
		c-0.1,0.1-0.1,0.2-0.2,0.3c0,0.1-0.1,0.3-0.1,0.5v2c-0.2,0-0.3,0-0.5,0c-0.2,0-0.3,0-0.5,0V79.4L137.9,79.4z M144.3,79.4
		c0.1,0,0.1,0,0.2,0c0.1,0,0.1,0,0.2,0c0.1,0,0.3,0,0.4,0c0,0,0,0.1,0,0.1c0,0,0,0.1,0,0.2c0,0.1,0,0.1,0,0.2c0,0.1,0,0.1,0,0.1
		c0-0.1,0.1-0.2,0.2-0.2c0.1-0.1,0.1-0.1,0.2-0.2c0.1-0.1,0.2-0.1,0.3-0.1c0.1,0,0.2-0.1,0.4-0.1c0.2,0,0.4,0,0.6,0.1
		c0.2,0.1,0.3,0.2,0.5,0.4c0.1,0.2,0.2,0.4,0.3,0.6c0.1,0.2,0.1,0.5,0.1,0.9c0,0.3,0,0.6-0.1,0.9c-0.1,0.3-0.2,0.5-0.4,0.7
		c-0.2,0.2-0.4,0.3-0.6,0.4c-0.3,0.1-0.5,0.1-0.9,0.1c-0.1,0-0.2,0-0.2,0c-0.1,0-0.1,0-0.2,0V85c-0.1,0-0.2,0-0.3,0
		c-0.1,0-0.2,0-0.3,0c-0.1,0-0.2,0-0.2,0c-0.1,0-0.2,0-0.3,0V79.4L144.3,79.4z M145.3,82.4c0.1,0,0.3,0.1,0.4,0.1
		c0.3,0,0.5-0.1,0.7-0.3c0.2-0.2,0.2-0.5,0.2-0.9c0-0.2,0-0.3,0-0.4c0-0.1-0.1-0.2-0.1-0.3c-0.1-0.1-0.1-0.2-0.2-0.2
		c-0.1-0.1-0.2-0.1-0.3-0.1c-0.1,0-0.2,0-0.3,0.1c-0.1,0-0.2,0.1-0.2,0.2c-0.1,0.1-0.1,0.2-0.1,0.3c0,0.1,0,0.2,0,0.4V82.4
		L145.3,82.4z M148.6,79.4c0.1,0,0.1,0,0.2,0c0.1,0,0.1,0,0.2,0c0.1,0,0.1,0,0.2,0c0.1,0,0.1,0,0.2,0c0,0,0,0.1,0,0.1
		c0,0,0,0.1,0,0.1c0,0.1,0,0.1,0,0.2c0,0.1,0,0.1,0,0.1c0.1-0.2,0.2-0.3,0.4-0.4c0.2-0.1,0.3-0.2,0.6-0.2c0,0,0.1,0,0.2,0
		c0.1,0,0.1,0,0.1,0c0,0,0,0.1,0,0.2c0,0.1,0,0.1,0,0.2c0,0.1,0,0.2,0,0.3c0,0.1,0,0.2,0,0.3c-0.1,0-0.1,0-0.2,0c-0.1,0-0.1,0-0.1,0
		c-0.1,0-0.2,0-0.3,0c-0.1,0-0.2,0.1-0.3,0.1c-0.1,0.1-0.2,0.2-0.2,0.3c-0.1,0.1-0.1,0.4-0.1,0.6v1.8c-0.1,0-0.2,0-0.3,0
		c-0.1,0-0.2,0-0.3,0c-0.1,0-0.2,0-0.3,0c-0.1,0-0.2,0-0.3,0V79.4L148.6,79.4z M153,83.3c-0.3,0-0.6-0.1-0.8-0.2
		c-0.2-0.1-0.4-0.2-0.6-0.4c-0.1-0.2-0.3-0.4-0.3-0.6c-0.1-0.2-0.1-0.5-0.1-0.8c0-0.3,0-0.5,0.1-0.8c0.1-0.2,0.2-0.5,0.3-0.6
		c0.1-0.2,0.3-0.3,0.6-0.4c0.2-0.1,0.5-0.2,0.8-0.2c0.3,0,0.6,0.1,0.8,0.2c0.2,0.1,0.4,0.2,0.6,0.4c0.1,0.2,0.3,0.4,0.3,0.6
		c0.1,0.2,0.1,0.5,0.1,0.8c0,0.3,0,0.5-0.1,0.8c-0.1,0.2-0.2,0.5-0.3,0.6c-0.2,0.2-0.3,0.3-0.6,0.4C153.6,83.3,153.3,83.3,153,83.3
		L153,83.3z M153,82.5c0.3,0,0.5-0.1,0.6-0.3c0.1-0.2,0.2-0.5,0.2-0.9c0-0.4-0.1-0.7-0.2-0.9c-0.1-0.2-0.3-0.3-0.6-0.3
		c-0.3,0-0.5,0.1-0.6,0.3c-0.1,0.2-0.2,0.5-0.2,0.9c0,0.4,0.1,0.7,0.2,0.9C152.5,82.4,152.7,82.5,153,82.5L153,82.5z M155.6,79.4
		c0.1,0,0.1,0,0.2,0c0.1,0,0.1,0,0.2,0s0.2,0,0.2,0c0.1,0,0.1,0,0.2,0c0,0,0,0.1,0,0.1c0,0,0,0.1,0,0.1c0,0.1,0,0.1,0,0.2
		c0,0,0,0.1,0,0.1c0-0.1,0.1-0.1,0.2-0.2c0.1-0.1,0.1-0.1,0.2-0.2c0.1-0.1,0.2-0.1,0.3-0.1c0.1,0,0.2-0.1,0.4-0.1
		c0.6,0,1,0.2,1.1,0.7c0.1-0.2,0.2-0.3,0.4-0.5c0.2-0.1,0.4-0.2,0.7-0.2c0.4,0,0.7,0.1,0.9,0.4c0.2,0.2,0.3,0.6,0.3,1.1v2.5
		c-0.2,0-0.3,0-0.5,0c-0.2,0-0.3,0-0.5,0v-2.2c0-0.3,0-0.5-0.1-0.6c-0.1-0.1-0.2-0.2-0.4-0.2c-0.1,0-0.2,0-0.2,0
		c-0.1,0-0.2,0.1-0.2,0.1c-0.1,0.1-0.1,0.2-0.2,0.3c0,0.1-0.1,0.3-0.1,0.5v2.1c-0.2,0-0.3,0-0.5,0c-0.2,0-0.3,0-0.5,0v-2.2
		c0-0.3,0-0.5-0.1-0.6c-0.1-0.1-0.2-0.2-0.4-0.2c-0.1,0-0.2,0-0.2,0c-0.1,0-0.2,0.1-0.2,0.1c-0.1,0.1-0.1,0.2-0.2,0.3
		c0,0.1-0.1,0.3-0.1,0.5v2c-0.2,0-0.3,0-0.5,0c-0.2,0-0.3,0-0.5,0V79.4L155.6,79.4z M162.2,80.2h-0.5c0-0.1,0-0.1,0-0.2
		c0-0.1,0-0.1,0-0.2c0-0.1,0-0.3,0-0.4h1.5v3.9c-0.2,0-0.3,0-0.5,0c-0.2,0-0.3,0-0.5,0V80.2L162.2,80.2z M162,78.7
		c0-0.2,0-0.3,0-0.5c0-0.2,0-0.3,0-0.5c0.1,0,0.2,0,0.3,0c0.1,0,0.2,0,0.3,0c0.1,0,0.2,0,0.3,0c0.1,0,0.2,0,0.3,0c0,0.1,0,0.2,0,0.2
		c0,0.1,0,0.2,0,0.2c0,0.1,0,0.2,0,0.2c0,0.1,0,0.2,0,0.3c-0.1,0-0.2,0-0.3,0c-0.1,0-0.2,0-0.3,0c-0.1,0-0.2,0-0.3,0
		C162.2,78.8,162.1,78.8,162,78.7L162,78.7z M164.9,81.6c-0.3-0.1-0.5-0.2-0.6-0.4c-0.2-0.2-0.2-0.4-0.2-0.7c0-0.4,0.1-0.7,0.4-0.9
		c0.3-0.2,0.6-0.3,1.1-0.3c0.2,0,0.4,0,0.6,0.1c0.2,0,0.4,0.1,0.6,0.2c0,0.1,0,0.3-0.1,0.4c0,0.1-0.1,0.3-0.1,0.4
		c-0.1-0.1-0.2-0.1-0.4-0.1c-0.1,0-0.3-0.1-0.4-0.1c-0.2,0-0.3,0-0.4,0.1c-0.1,0.1-0.1,0.1-0.1,0.3c0,0.1,0,0.2,0.1,0.2
		c0.1,0,0.2,0.1,0.3,0.1l0.4,0.1c0.1,0,0.3,0.1,0.4,0.1c0.1,0.1,0.2,0.1,0.3,0.2c0.1,0.1,0.1,0.2,0.2,0.3c0,0.1,0.1,0.3,0.1,0.5
		c0,0.2,0,0.4-0.1,0.5c-0.1,0.2-0.2,0.3-0.3,0.4c-0.1,0.1-0.3,0.2-0.5,0.3s-0.4,0.1-0.7,0.1c-0.1,0-0.2,0-0.3,0c-0.1,0-0.2,0-0.3,0
		c-0.1,0-0.2,0-0.3-0.1c-0.1,0-0.2-0.1-0.3-0.1c0-0.1,0-0.3,0.1-0.4c0-0.1,0.1-0.3,0.1-0.4c0.2,0.1,0.3,0.1,0.5,0.1
		c0.1,0,0.3,0,0.4,0c0.1,0,0.1,0,0.2,0c0.1,0,0.2,0,0.2-0.1c0.1,0,0.1-0.1,0.2-0.1c0-0.1,0.1-0.1,0.1-0.2c0-0.1,0-0.2-0.1-0.3
		c-0.1-0.1-0.2-0.1-0.3-0.1L164.9,81.6L164.9,81.6z M169.1,83.3c-0.3,0-0.6-0.1-0.8-0.2c-0.2-0.1-0.4-0.2-0.6-0.4
		c-0.1-0.2-0.3-0.4-0.3-0.6c-0.1-0.2-0.1-0.5-0.1-0.8c0-0.3,0-0.5,0.1-0.8c0.1-0.2,0.2-0.5,0.3-0.6c0.1-0.2,0.3-0.3,0.6-0.4
		c0.2-0.1,0.5-0.2,0.8-0.2c0.3,0,0.6,0.1,0.8,0.2c0.2,0.1,0.4,0.2,0.6,0.4c0.1,0.2,0.3,0.4,0.3,0.6c0.1,0.2,0.1,0.5,0.1,0.8
		c0,0.3,0,0.5-0.1,0.8c-0.1,0.2-0.2,0.5-0.3,0.6c-0.1,0.2-0.3,0.3-0.6,0.4C169.7,83.3,169.4,83.3,169.1,83.3L169.1,83.3z
		 M169.1,82.5c0.3,0,0.5-0.1,0.6-0.3c0.1-0.2,0.2-0.5,0.2-0.9c0-0.4-0.1-0.7-0.2-0.9c-0.1-0.2-0.3-0.3-0.6-0.3
		c-0.3,0-0.5,0.1-0.6,0.3c-0.1,0.2-0.2,0.5-0.2,0.9c0,0.4,0.1,0.7,0.2,0.9C168.7,82.4,168.9,82.5,169.1,82.5L169.1,82.5z
		 M171.8,77.9c0.2,0,0.4,0,0.6,0c0.2,0,0.4,0,0.6,0l-0.1,3.6c-0.2,0-0.3,0-0.5,0c-0.2,0-0.3,0-0.5,0L171.8,77.9L171.8,77.9z
		 M171.8,83.3c0-0.2,0-0.4,0-0.5c0-0.2,0-0.4,0-0.6c0.2,0,0.4,0,0.5,0c0.2,0,0.4,0,0.5,0c0,0.2,0,0.4,0,0.5c0,0.2,0,0.4,0,0.6
		c-0.2,0-0.4,0-0.5,0C172.2,83.3,172,83.3,171.8,83.3L171.8,83.3z"/>
	<path class="st1" d="M87.4,1.1c14.9,0.5,26.6,13,26,27.8c-0.5,14.9-13.1,26.5-28,26c-14.9-0.5-26.6-13-26-27.8
		C60,12.2,72.5,0.6,87.4,1.1L87.4,1.1z"/>
	<path class="st2" d="M87.3,0c15,0.5,26.7,13.3,26.1,28.5c-0.5,15.2-13.2,27.2-28.1,26.6c-15-0.5-26.7-13.3-26.1-28.5
		C59.7,11.4,72.3-0.5,87.3,0L87.3,0z M87.2,3c13.4,0.5,23.8,11.9,23.3,25.5C110,42,98.8,52.7,85.4,52.2C72,51.8,61.6,40.4,62,26.8
		C62.5,13.2,73.8,2.5,87.2,3L87.2,3z"/>
	<path class="st3" d="M88.4,1.2c14.6,0.5,25.9,13,25.4,27.9C113.2,44,101,55.7,86.4,55.2c-14.6-0.5-25.9-13-25.4-27.9
		C61.6,12.4,73.8,0.7,88.4,1.2L88.4,1.2z M88.3,3c13.9,0.5,24.7,12.1,24.2,25.9c-0.5,13.8-12.1,24.6-26,24.2
		C72.6,52.6,61.8,41,62.3,27.2C62.8,13.3,74.4,2.5,88.3,3L88.3,3z"/>
	<path class="st2" d="M96.8,19.6l0.5,0c2.6,0.1,5.4,1.1,7.2,3c-1.8-1.3-4.1-2.1-6.2-2.1l-1.5-0.1L96.8,19.6L96.8,19.6z M81.6,43.3
		c-1.9-1.5-3.1-4-3-6.6l0.1-1.5l1,0l-0.1,2.4C79.5,39.7,80.3,41.8,81.6,43.3L81.6,43.3z M70.7,31.8c-1.7-1.4-2.8-3.2-2.7-5.6
		c0.2-4.9,5.4-7.4,9.8-7.3l1.5,0.1l0.1-2.3c0.1-4.1,3.4-7.7,7.6-7.6l1.8,0.1c1.9,0.1,3.5,0.9,4.7,2.1c-1.1-0.8-2.4-1.2-3.8-1.3
		L87.9,10c-4.2-0.1-7.5,3.5-7.6,7.6l-0.1,2.3l-1.5-0.1c-4.4-0.1-9.6,2.4-9.8,7.3C68.9,29,69.6,30.6,70.7,31.8L70.7,31.8z"/>
	<path class="st3" d="M87.7,10.7l1.9,0.1c3.3,0.1,5.9,3.2,5.8,6.8l-0.1,3.8l3,0.1c4.5,0.2,8.2,3.1,8,6.6l0,0c-0.1,3.5-3.9,6.2-8.5,6
		l-3-0.1L94.6,38c-0.1,3.6-2.9,6.5-6.2,6.4l-1.9-0.1c-3.3-0.1-5.9-3.2-5.8-6.8l0.1-3.9l-3-0.1c-4.5-0.2-8.2-3.1-8-6.6l0,0
		c0.1-3.5,3.9-6.2,8.5-6l3,0.1l0.1-3.8C81.6,13.5,84.4,10.6,87.7,10.7L87.7,10.7z"/>
	<path class="st1" d="M87.2,25.1v1.4h3.9c0.4,0,0.8,0.1,1.2,0.5c0.3,0.3,0.4,0.8,0.4,1.2c0,0.5-0.1,0.9-0.4,1.2
		c-0.3,0.3-0.7,0.5-1.2,0.5h-3.9v4.8c0,0.6-0.1,1.3-0.5,1.8c-0.3,0.4-0.7,0.6-1.2,0.6c-0.5,0-0.9-0.2-1.2-0.6
		c-0.4-0.5-0.5-1.2-0.5-1.8v-8.5l0.1-0.3c0.6-1.1,1.3-1.7,2.1-2c0.7-0.2,1.4-0.3,2.3-0.4C87.6,23.9,87.2,24.4,87.2,25.1L87.2,25.1z
		 M83.9,25.4L83.9,25.4c0.5-0.8,1.2-1.3,2-1.6c0.9-0.3,2.1-0.4,3.4-0.5l0.4,0l0.4,0h1.7c0.2,0,0.4,0,0.6-0.1
		c0.2-0.1,0.4-0.2,0.5-0.3c0.1-0.1,0.2-0.3,0.3-0.5c0.1-0.2,0.1-0.4,0.1-0.7c0-0.2,0-0.4-0.1-0.6c-0.1-0.2-0.2-0.4-0.3-0.5
		c-0.1-0.2-0.3-0.3-0.5-0.3c-0.2-0.1-0.4-0.1-0.6-0.1h-3.5c-1.5,0-2.6,0.4-3.4,1.3C84.3,22.3,83.9,23.6,83.9,25.4L83.9,25.4z"/>
	<path class="st2" d="M83.8,25.9v-0.6c0.1-3.6,1.5-5.4,4.7-5.4h3.5c0.4,0,0.9,0.1,1.2,0.5c0.3,0.3,0.4,0.8,0.4,1.2
		c0,0.5-0.1,0.9-0.4,1.3c-0.3,0.4-0.8,0.5-1.2,0.5h-1.7c-0.3,0-0.5,0-0.8,0h0l0,0C86.7,23.5,84.9,23.7,83.8,25.9L83.8,25.9z"/>
</g>
</svg>