<!-- Generator: Adobe Illustrator 21.1.0, SVG Export Plug-In  -->
<svg version="1.1"
	 xmlns="http://www.w3.org/2000/svg" xmlns:xlink="http://www.w3.org/1999/xlink" xmlns:a="http://ns.adobe.com/AdobeSVGViewerExtensions/3.0/"
	 x="0px" y="0px" width="692.4px" height="183.3px" viewBox="0 0 692.4 183.3" style="enable-background:new 0 0 692.4 183.3;"
	 xml:space="preserve">
<style type="text/css">
	.st0{fill-rule:evenodd;clip-rule:evenodd;fill:#00377C;}
	.st1{fill-rule:evenodd;clip-rule:evenodd;fill:#70AADC;}
	.st2{fill-rule:evenodd;clip-rule:evenodd;fill:#00377C;stroke:#009BDB;stroke-width:0.216;stroke-miterlimit:22.9256;}
	.st3{fill-rule:evenodd;clip-rule:evenodd;fill:#FFFFFF;stroke:#009BDB;stroke-width:0.5669;stroke-miterlimit:22.9256;}
	.st4{fill-rule:evenodd;clip-rule:evenodd;fill:#FFFFFF;}
	.st5{fill-rule:evenodd;clip-rule:evenodd;fill:#003E86;}
	.st6{fill-rule:evenodd;clip-rule:evenodd;fill:#009BDB;}
	.st7{fill-rule:evenodd;clip-rule:evenodd;fill:#0087CA;}
</style>
<defs>
</defs>
<g>
	<g>
		<path class="st0" d="M668.7,147.9v-13c1.5,0.4,3.1,0.6,4.8,0.6c2.6,0,5.1-0.3,7.5-1c2.3-0.7,4.3-1.5,5.7-2.4
			c1,0.7,1.9,1.6,2.6,2.8c0.7,1.2,1.1,2.4,1.1,3.8c0,3-1.3,5.2-4.1,6.6c-2.1,1.1-4.4,1.9-6.9,2.3c-2.6,0.4-5,0.6-7.2,0.6
			C671,148,669.8,148,668.7,147.9L668.7,147.9z M668.7,127.8v-11.4l8.2-1.4c-0.2-1.3-0.9-2.6-2.1-4c-1.2-1.3-3-2-5.4-2
			c-0.2,0-0.5,0-0.7,0V96.7c0.2,0,0.5,0,0.7,0c3.4,0,6.5,0.5,9.3,1.6c2.8,1.1,5.2,2.5,7.2,4.4c2,1.9,3.6,4.1,4.7,6.6
			c1.1,2.6,1.7,5.4,1.7,8.4c0,2.2-0.6,4-1.8,5.2c-1.2,1.2-2.9,2-5.1,2.3L668.7,127.8z M668.7,96.7V109c-1.2,0.1-2.3,0.3-3.3,0.8
			c-1.1,0.5-2,1.2-2.7,2c-0.7,0.8-1.2,1.8-1.6,2.8c-0.4,1-0.6,2.1-0.6,3.1l8.2-1.4v11.4l-7.1,1.1c0.7,2.2,2.2,3.8,4.3,4.9
			c0.9,0.4,1.8,0.8,2.7,1v13c-2.5-0.2-4.9-0.7-7.1-1.5c-3.2-1.1-6.1-2.7-8.5-4.9c-2.4-2.2-4.3-4.9-5.7-8.2
			c-1.4-3.3-2.1-7.2-2.1-11.6c0-4.4,0.7-8.1,2.1-11.3s3.2-5.7,5.4-7.7c2.3-2,4.8-3.5,7.7-4.5C663.2,97.3,665.9,96.8,668.7,96.7
			L668.7,96.7z M543.3,148v-13.2l0.1,0c2.7,0,4.8-1.1,6.2-3.3c1.4-2.2,2.2-5.3,2.2-9.2c0-4-0.7-7-2.2-9.2c-1.5-2.1-3.6-3.2-6.3-3.2
			V96.7c3.8,0,7.2,0.6,10.3,1.8c3.1,1.2,5.7,2.9,8,5.2c2.2,2.2,3.9,4.9,5.2,8.1c1.2,3.2,1.8,6.7,1.8,10.5c0,4.1-0.6,7.8-1.8,11
			c-1.2,3.2-2.9,5.9-5.2,8.1c-2.2,2.2-4.9,3.8-8,5C550.5,147.5,547,148,543.3,148L543.3,148z M590.6,146.3c-0.6,0.2-1.7,0.4-3,0.6
			c-1.4,0.2-2.8,0.3-4.3,0.3c-1.4,0-2.7-0.1-3.8-0.3c-1.1-0.2-2.1-0.6-2.8-1.2c-0.8-0.6-1.4-1.4-1.8-2.4c-0.4-1-0.6-2.4-0.6-4v-29.8
			c0-1.5,0.3-2.8,0.8-3.9c0.5-1.1,1.3-2.1,2.4-2.9c1-0.9,2.3-1.6,3.8-2.3c1.5-0.7,3.1-1.3,4.9-1.8c1.7-0.5,3.5-0.9,5.4-1.2
			c1.9-0.3,3.7-0.4,5.6-0.4c3.1,0,5.5,0.6,7.3,1.8c1.8,1.2,2.7,3.2,2.7,6c0,0.9-0.1,1.8-0.4,2.7c-0.3,0.9-0.6,1.7-1,2.4
			c-1.4,0-2.7,0.1-4.1,0.2c-1.4,0.1-2.8,0.3-4.1,0.6c-1.4,0.3-2.6,0.5-3.8,0.8c-1.2,0.3-2.2,0.6-3,1V146.3L590.6,146.3z M628,129.9
			c0,1.7,0.5,2.9,1.6,3.7c1.1,0.7,2.6,1.1,4.5,1.1c1,0,2-0.1,3-0.2c1-0.2,1.9-0.4,2.7-0.6c0.6,0.7,1.1,1.5,1.5,2.4
			c0.4,0.9,0.6,2,0.6,3.2c0,2.5-0.9,4.6-2.7,6.2c-1.8,1.6-5.1,2.4-9.7,2.4c-5.7,0-10-1.3-13.1-4c-3.1-2.6-4.6-6.9-4.6-12.9V88.6
			c0.7-0.2,1.7-0.4,3-0.6c1.3-0.2,2.7-0.3,4.2-0.3c2.8,0,5,0.5,6.6,1.5c1.6,1,2.4,3.2,2.4,6.5v6.3h12.6c0.4,0.7,0.8,1.6,1.1,2.7
			c0.4,1.1,0.5,2.3,0.5,3.6c0,2.3-0.5,4-1.5,5s-2.3,1.5-4,1.5H628V129.9z M543.3,96.7v13.2c-2.7,0-4.8,1.1-6.3,3.2
			c-1.5,2.1-2.2,5.2-2.2,9.2c0,4,0.8,7.1,2.3,9.3c1.5,2.1,3.6,3.2,6.2,3.2V148c-3.8,0-7.2-0.6-10.3-1.8c-3.1-1.2-5.7-2.9-8-5.1
			c-2.2-2.2-3.9-4.9-5.2-8.1c-1.2-3.2-1.8-6.7-1.8-10.7c0-3.9,0.6-7.4,1.8-10.6c1.2-3.2,2.9-5.9,5.2-8.1c2.2-2.2,4.9-3.9,8-5.1
			C536,97.3,539.5,96.7,543.3,96.7L543.3,96.7z M435.9,148v-12.3h0c1.1,0,2.3-0.1,3.6-0.3c1.3-0.2,2.3-0.5,2.9-0.9v-7.9l-6.6,0.6
			v-11l6.5-0.7v-0.7c0-1.9-0.8-3.3-2.5-4.1c-1-0.5-2.4-0.9-4-1.1V96.7c3.2,0.1,6.1,0.4,8.7,1.1c2.9,0.7,5.3,1.8,7.3,3.3
			c2,1.5,3.6,3.4,4.7,5.7c1.1,2.3,1.6,5,1.6,8.1v22.2c0,1.7-0.5,3.1-1.4,4.2c-0.9,1.1-2,2-3.3,2.8C449.4,146.7,443.5,148,435.9,148
			L435.9,148L435.9,148z M495.8,115.9c0-2.1-0.6-3.6-1.7-4.5c-1.1-1-2.7-1.4-4.6-1.4c-1.3,0-2.6,0.2-3.8,0.5
			c-1.3,0.3-2.3,0.8-3.2,1.5v34.4c-0.6,0.2-1.7,0.4-3,0.6c-1.4,0.2-2.8,0.3-4.3,0.3c-1.4,0-2.7-0.1-3.8-0.3
			c-1.1-0.2-2.1-0.6-2.8-1.2c-0.8-0.6-1.4-1.4-1.8-2.4c-0.4-1-0.6-2.4-0.6-4v-29.8c0-1.8,0.4-3.2,1.1-4.4c0.7-1.1,1.8-2.1,3-3.1
			c2.2-1.6,4.9-2.9,8.2-3.9c3.3-1,7-1.5,11-1.5c7.3,0,12.9,1.6,16.8,4.9c3.9,3.3,5.9,7.8,5.9,13.6v31.1c-0.6,0.2-1.7,0.4-3,0.6
			c-1.4,0.2-2.8,0.3-4.3,0.3c-1.4,0-2.7-0.1-3.8-0.3c-1.1-0.2-2.1-0.6-2.8-1.2c-0.8-0.6-1.4-1.4-1.8-2.4c-0.4-1-0.6-2.4-0.6-4V115.9
			z M270,135.7c1.1,0,2.3-0.1,3.6-0.3c1.3-0.2,2.3-0.5,2.9-0.9v-7.9L270,127v-11l6.5-0.7v-0.7c0-1.9-0.8-3.3-2.5-4.1
			c-1-0.5-2.4-0.9-4-1.1V96.7c3.2,0.1,6.1,0.4,8.7,1.1c2.9,0.7,5.3,1.8,7.3,3.3c2,1.5,3.6,3.4,4.7,5.7c1.1,2.3,1.6,5,1.6,8.1v22.2
			c0,1.7-0.5,3.1-1.4,4.2c-0.9,1.1-2,2-3.3,2.8c-4.2,2.6-10.1,3.9-17.7,3.9V135.7L270,135.7z M435.9,96.7v12.8
			c-0.9-0.1-2-0.2-3.1-0.2c-2.4,0-4.8,0.3-7.1,0.8c-2.3,0.5-4.4,1.2-6.3,2c-0.8-0.6-1.5-1.5-2.1-2.7c-0.6-1.2-0.9-2.5-0.9-3.8
			c0-1.7,0.4-3.1,1.2-4.1c0.8-1,2-1.9,3.7-2.6c1.9-0.7,4.1-1.3,6.6-1.6c2.5-0.3,4.9-0.5,7.2-0.5C435.4,96.7,435.7,96.7,435.9,96.7
			L435.9,96.7z M435.9,116.1v11l-0.4,0c-1.8,0.1-3.3,0.5-4.4,1.2c-1.2,0.7-1.7,1.7-1.7,3c0,1.3,0.5,2.4,1.5,3.2
			c1,0.8,2.7,1.2,5.1,1.2V148c-3.4,0-6.5-0.3-9.2-1c-2.7-0.7-5.1-1.7-7-3c-2-1.3-3.5-3-4.5-5.1c-1.1-2.1-1.6-4.4-1.6-7.1
			c0-4.6,1.3-8.1,4-10.5c2.6-2.4,6.7-4,12.2-4.6L435.9,116.1L435.9,116.1z M316.6,146.3c-0.6,0.2-1.7,0.4-3,0.6
			c-1.4,0.2-2.8,0.3-4.3,0.3c-1.4,0-2.7-0.1-3.8-0.3c-1.1-0.2-2.1-0.6-2.8-1.2c-0.8-0.6-1.4-1.4-1.8-2.4c-0.4-1-0.6-2.4-0.6-4v-29.8
			c0-1.5,0.3-2.8,0.8-3.9c0.5-1.1,1.3-2.1,2.4-2.9c1-0.9,2.3-1.6,3.8-2.3c1.5-0.7,3.1-1.3,4.9-1.8c1.7-0.5,3.5-0.9,5.4-1.2
			c1.9-0.3,3.7-0.4,5.6-0.4c3.1,0,5.5,0.6,7.3,1.8c1.8,1.2,2.7,3.2,2.7,6c0,0.9-0.1,1.8-0.4,2.7c-0.3,0.9-0.6,1.7-1,2.4
			c-1.4,0-2.7,0.1-4.1,0.2c-1.4,0.1-2.8,0.3-4.1,0.6c-1.3,0.3-2.6,0.5-3.8,0.8c-1.2,0.3-2.2,0.6-3,1V146.3L316.6,146.3z M359,96.7
			c2.6,0,5.2,0.4,7.8,1.1c2.5,0.8,4.7,1.9,6.6,3.4c1.9-1.3,4.1-2.4,6.5-3.3c2.4-0.9,5.3-1.3,8.7-1.3c2.4,0,4.8,0.3,7.2,1
			c2.3,0.7,4.4,1.7,6.3,3.1c1.8,1.4,3.3,3.3,4.4,5.7c1.1,2.3,1.6,5.2,1.6,8.6v31.3c-0.6,0.2-1.7,0.4-3,0.6c-1.4,0.2-2.8,0.3-4.3,0.3
			c-1.4,0-2.7-0.1-3.8-0.3c-1.1-0.2-2.1-0.6-2.8-1.2c-0.8-0.6-1.4-1.4-1.8-2.4c-0.4-1-0.6-2.4-0.6-4v-23.7c0-2-0.5-3.4-1.6-4.3
			c-1.1-0.9-2.6-1.3-4.4-1.3c-0.9,0-1.9,0.2-2.9,0.6c-1,0.4-1.8,0.9-2.3,1.3c0.1,0.3,0.1,0.5,0.1,0.7c0,0.2,0,0.4,0,0.6v33
			c-0.7,0.2-1.8,0.4-3.1,0.6c-1.4,0.2-2.8,0.3-4.2,0.3s-2.7-0.1-3.8-0.3c-1.1-0.2-2.1-0.6-2.8-1.2c-0.8-0.6-1.4-1.4-1.8-2.4
			c-0.4-1-0.6-2.4-0.6-4v-23.7c0-2-0.6-3.4-1.8-4.3c-1.2-0.9-2.6-1.3-4.3-1.3c-1.2,0-2.2,0.2-3,0.5c-0.8,0.4-1.5,0.7-2.1,1v34.8
			c-0.6,0.2-1.7,0.4-3,0.6c-1.4,0.2-2.8,0.3-4.3,0.3c-1.4,0-2.7-0.1-3.8-0.3c-1.1-0.2-2.1-0.6-2.8-1.2c-0.8-0.6-1.4-1.4-1.8-2.4
			c-0.4-1-0.6-2.4-0.6-4v-30c0-1.8,0.4-3.2,1.1-4.3c0.7-1.1,1.8-2.1,3-3c2.2-1.6,4.9-2.9,8.2-3.9C352.1,97.2,355.5,96.7,359,96.7z
			 M270,127l-0.4,0c-1.8,0.1-3.3,0.5-4.4,1.2c-1.2,0.7-1.7,1.7-1.7,3c0,1.3,0.5,2.4,1.5,3.2c1,0.8,2.7,1.2,5.1,1.2V148
			c-3.4,0-6.5-0.3-9.2-1c-2.7-0.7-5.1-1.7-7-3c-2-1.3-3.5-3-4.5-5.1c-1.1-2.1-1.6-4.4-1.6-7.1c0-4.6,1.3-8.1,4-10.5
			c2.6-2.4,6.7-4,12.3-4.6l6.2-0.7V127L270,127z M270,96.7v12.8c-0.9-0.1-2-0.2-3.1-0.2c-2.4,0-4.8,0.3-7.1,0.8
			c-2.3,0.5-4.4,1.2-6.3,2c-0.8-0.6-1.5-1.5-2.1-2.7c-0.6-1.2-0.9-2.5-0.9-3.8c0-1.7,0.4-3.1,1.2-4.1c0.8-1,2-1.9,3.7-2.6
			c1.9-0.7,4.1-1.3,6.6-1.6c2.5-0.3,4.9-0.5,7.2-0.5C269.5,96.7,269.8,96.7,270,96.7z"/>
		<g>
			<path class="st0" d="M218,99.4c-0.3,2.1-0.2,5.8-0.1,7.9h24.2c0.6,0.8,1.1,1.9,1.5,3.3c0.4,1.4,0.6,2.8,0.6,4.3
				c0,2.9-0.6,4.9-1.8,6.2c-1.2,1.3-2.9,1.9-4.9,1.9h-19.3v24c-0.8,0.2-2.1,0.5-3.8,0.7c-1.7,0.2-3.4,0.3-5.1,0.3
				c-1.7,0-3.2-0.1-4.5-0.4c-1.3-0.3-2.4-0.7-3.3-1.4c-0.9-0.7-1.5-1.6-2-2.8c-0.4-1.2-0.7-2.8-0.7-4.8v-26
				C202.3,106.5,211.9,99.5,218,99.4z"/>
			<path class="st1" d="M245.9,78.5c0.5,0.8,1,2,1.4,3.4c0.4,1.4,0.6,2.9,0.6,4.4c0,3-0.6,5.1-1.8,6.3c-1.2,1.3-2.9,1.9-4.9,1.9
				c-16.7,0-33.4-2.2-42.3,15.8v-8.9c0-11.8,6.8-22.9,19.7-22.9H245.9z"/>
		</g>
	</g>
	<g>
		<path class="st0" d="M589.1,37.7c2.4,0,4.7,0.3,6.7,0.8c2.2,0.6,4.1,1.4,5.6,2.6c1.6,1.1,2.8,2.6,3.6,4.3c0.8,1.8,1.3,3.8,1.3,6.2
			v17.1c0,1.3-0.4,2.4-1.1,3.2c-0.7,0.8-1.6,1.6-2.6,2.2c-3.2,2-7.7,3-13.6,3v-9.4c0.8,0,1.8-0.1,2.8-0.3c1-0.2,1.8-0.4,2.3-0.7
			v-6.1l-5,0.4v-8.4l5-0.5v-0.5c0-1.5-0.6-2.5-1.9-3.2c-0.8-0.4-1.8-0.7-3.1-0.8V37.7z M588.5,37.7c0.2,0,0.4,0,0.6,0v9.8
			c-0.7-0.1-1.5-0.1-2.4-0.1c-1.9,0-3.7,0.2-5.5,0.6c-1.8,0.4-3.4,0.9-4.8,1.5c-0.6-0.5-1.2-1.2-1.6-2.1c-0.4-0.9-0.7-1.9-0.7-2.9
			c0-1.3,0.3-2.4,0.9-3.2c0.6-0.8,1.6-1.5,2.9-2c1.4-0.6,3.1-1,5.1-1.2C585,37.8,586.8,37.7,588.5,37.7L588.5,37.7z M589.1,77.1
			c-2.6,0-5-0.3-7.1-0.8c-2.1-0.5-3.9-1.3-5.4-2.3c-1.5-1-2.7-2.3-3.5-3.9c-0.8-1.6-1.2-3.4-1.2-5.5c0-3.5,1-6.2,3-8.1
			c2-1.9,5.2-3,9.4-3.5l4.7-0.5V61l-0.3,0c-1.4,0.1-2.5,0.4-3.4,0.9c-0.9,0.5-1.3,1.3-1.3,2.3c0,1,0.4,1.8,1.1,2.5
			c0.8,0.6,2.1,1,3.9,1V77.1z"/>
		<path class="st0" d="M567.5,75.8c-0.5,0.1-1.3,0.2-2.4,0.4c-1.1,0.2-2.1,0.3-3.2,0.3c-1.1,0-2.1-0.1-2.9-0.2
			c-0.9-0.2-1.6-0.5-2.2-0.9c-0.6-0.5-1-1.1-1.4-1.9c-0.3-0.8-0.5-1.8-0.5-3.1v-31c0.5-0.1,1.3-0.2,2.4-0.4c1.1-0.2,2.1-0.3,3.2-0.3
			c1.1,0,2.1,0.1,2.9,0.2c0.9,0.2,1.6,0.5,2.2,0.9c0.6,0.5,1,1.1,1.4,1.9c0.3,0.8,0.5,1.8,0.5,3.1V75.8z"/>
		<path class="st0" d="M565.7,19.2c2.6,0,4.4,0.5,5.6,1.5c1.2,1,1.7,2.2,1.7,3.7c0,1.3-0.3,2.4-1,3.3c-0.7,0.9-1.8,1.8-3.4,2.6
			l-9.6,5.2c-1.5-0.2-2.7-0.8-3.8-1.8c-1-1.1-1.6-2.2-1.6-3.4c0-0.6,0.1-1.2,0.4-1.8c0.3-0.6,0.8-1.2,1.5-1.7L565.7,19.2z"/>
		<path class="st0" d="M538.5,75.8c-0.5,0.2-1.3,0.3-2.3,0.5c-1.1,0.2-2.2,0.2-3.3,0.2c-1.1,0-2.1-0.1-2.9-0.2
			c-0.9-0.2-1.6-0.5-2.2-0.9c-0.6-0.5-1-1.1-1.4-1.9c-0.3-0.8-0.5-1.8-0.5-3.1V47.5c0-1.2,0.2-2.2,0.6-3c0.4-0.8,1-1.6,1.8-2.2
			c0.8-0.7,1.8-1.3,2.9-1.8c1.2-0.5,2.4-1,3.7-1.4c1.3-0.4,2.7-0.7,4.1-1c1.4-0.2,2.9-0.3,4.3-0.3c2.4,0,4.2,0.5,5.6,1.4
			c1.4,0.9,2.1,2.5,2.1,4.6c0,0.7-0.1,1.4-0.3,2.1c-0.2,0.7-0.4,1.3-0.7,1.9c-1,0-2.1,0.1-3.2,0.2c-1.1,0.1-2.1,0.3-3.2,0.5
			c-1,0.2-2,0.4-2.9,0.6c-0.9,0.2-1.7,0.5-2.3,0.8V75.8z"/>
		<path class="st0" d="M504,47.2c-0.2,0-0.4,0-0.6,0v-9.5c0.2,0,0.4,0,0.6,0c2.6,0,5,0.4,7.1,1.2c2.1,0.8,4,1.9,5.6,3.4
			c1.6,1.4,2.8,3.1,3.6,5.1c0.9,2,1.3,4.1,1.3,6.5c0,1.7-0.5,3-1.4,4c-0.9,0.9-2.2,1.5-3.9,1.8l-12.8,2v-8.8l6.3-1.1
			c-0.1-1-0.7-2-1.6-3C507.2,47.7,505.8,47.2,504,47.2L504,47.2z M503.4,77V67c1.1,0.3,2.4,0.5,3.7,0.5c2,0,3.9-0.3,5.7-0.8
			c1.8-0.5,3.3-1.2,4.4-1.9c0.8,0.5,1.5,1.2,2,2.1c0.5,0.9,0.8,1.9,0.8,2.9c0,2.3-1,4-3.1,5.1c-1.6,0.9-3.4,1.4-5.3,1.8
			c-2,0.3-3.8,0.5-5.6,0.5C505.1,77.1,504.3,77.1,503.4,77z M503.4,47.2c-1,0.1-1.8,0.3-2.5,0.6c-0.9,0.4-1.6,0.9-2.1,1.6
			c-0.5,0.6-1,1.3-1.2,2.1c-0.3,0.8-0.4,1.6-0.5,2.4l6.3-1.1v8.8l-5.4,0.8c0.5,1.7,1.7,2.9,3.3,3.8c0.7,0.3,1.4,0.6,2.1,0.8v10
			c-1.9-0.2-3.8-0.6-5.5-1.1c-2.5-0.8-4.7-2.1-6.5-3.8c-1.9-1.7-3.3-3.8-4.4-6.3c-1.1-2.5-1.6-5.5-1.6-8.9c0-3.4,0.5-6.2,1.6-8.6
			c1.1-2.4,2.5-4.4,4.2-5.9c1.7-1.5,3.7-2.7,5.9-3.4c2-0.7,4.1-1,6.3-1.1V47.2z"/>
		<path class="st0" d="M445.7,39.4c0.5-0.2,1.3-0.3,2.3-0.5c1.1-0.2,2.2-0.2,3.3-0.2c1.1,0,2.1,0.1,2.9,0.2c0.9,0.2,1.6,0.5,2.2,0.9
			c0.6,0.5,1,1.1,1.4,1.9c0.3,0.8,0.5,1.8,0.5,3.1v16.4c0,2.1,0.5,3.6,1.5,4.5c1,0.9,2.4,1.3,4.3,1.3c1.1,0,2.1-0.1,2.8-0.3
			c0.7-0.2,1.3-0.4,1.7-0.6V39.4c0.5-0.2,1.3-0.3,2.3-0.5c1.1-0.2,2.2-0.2,3.3-0.2c1.1,0,2.1,0.1,2.9,0.2c0.9,0.2,1.6,0.5,2.2,0.9
			c0.6,0.5,1,1.1,1.4,1.9c0.3,0.8,0.5,1.8,0.5,3.1V68c0,2.5-1,4.4-3.1,5.7c-1.7,1.1-3.8,2-6.2,2.6c-2.4,0.6-5,0.9-7.8,0.9
			c-2.7,0-5.1-0.3-7.4-0.9c-2.2-0.6-4.2-1.5-5.8-2.8c-1.6-1.3-2.9-2.9-3.8-4.9c-0.9-2-1.3-4.4-1.3-7.3V39.4z"/>
		<path class="st0" d="M427.6,48.8c-0.3-0.2-0.9-0.4-1.5-0.6c-0.7-0.2-1.5-0.3-2.5-0.3c-0.6,0-1.1,0-1.6,0.1V37.7c0.3,0,0.7,0,1,0
			c2.8,0,5.4,0.4,7.7,1.1c2.3,0.7,4.2,1.7,5.8,2.9c1,0.7,1.8,1.5,2.3,2.4c0.6,0.9,0.9,2,0.9,3.4V74c0,2.7-0.5,5-1.5,7
			c-1,2-2.3,3.6-4,4.9c-1.7,1.3-3.7,2.2-6,2.9c-1.9,0.5-4,0.8-6.2,0.9V79.3c1.4-0.2,2.5-0.6,3.5-1.2c1.6-0.9,2.4-2.4,2.4-4.4v-1.2
			c-1.7,0.7-3.6,1.2-5.9,1.3v-9.7c0.3,0,0.5,0,0.8,0c2,0,3.6-0.5,4.8-1.4V48.8z M421.9,48c-1.6,0.3-2.9,0.9-3.8,2
			c-1.2,1.4-1.8,3.4-1.8,6c0,2.9,0.6,5.1,1.8,6.4c1,1.1,2.3,1.7,3.8,1.9v9.7c-0.5,0-1,0-1.6,0c-2.2,0-4.3-0.3-6.3-1
			c-2-0.7-3.8-1.8-5.3-3.2c-1.5-1.4-2.7-3.3-3.6-5.6c-0.9-2.3-1.4-5-1.4-8.2c0-3.1,0.5-5.8,1.4-8.1c1-2.3,2.3-4.2,4-5.7
			c1.7-1.5,3.7-2.6,6.1-3.4c2-0.6,4.3-1,6.6-1.1V48L421.9,48z M421.9,79.3v10.3c-0.4,0-0.8,0-1.2,0c-4.5,0-8-0.6-10.6-1.9
			c-2.6-1.2-3.9-3.3-3.9-6.1c0-1.2,0.2-2.2,0.7-3.1c0.5-0.9,1-1.6,1.6-2c1.4,0.8,3,1.5,4.9,2.1c1.8,0.6,3.7,0.8,5.6,0.8
			C420.1,79.5,421.1,79.5,421.9,79.3z"/>
		<path class="st0" d="M381.6,67L381.6,67c2.1,0,3.7-0.8,4.9-2.5c1.1-1.7,1.7-4,1.7-7.1c0-3-0.6-5.4-1.7-7c-1.1-1.7-2.7-2.5-4.8-2.5
			V37.7c2.9,0,5.6,0.5,7.9,1.4c2.4,0.9,4.4,2.3,6.1,4c1.7,1.7,3,3.8,4,6.2c0.9,2.4,1.4,5.1,1.4,8.1c0,3.1-0.5,6-1.4,8.4
			c-0.9,2.5-2.3,4.5-4,6.2c-1.7,1.7-3.7,2.9-6.1,3.8c-2.4,0.9-5,1.3-7.9,1.3V67z M375.1,57.4c0,3.1,0.6,5.5,1.7,7.1
			c1.1,1.6,2.7,2.5,4.8,2.5v10.1h0c-2.9,0-5.6-0.5-7.9-1.4c-2.4-0.9-4.4-2.2-6.1-3.9c-1.7-1.7-3-3.8-4-6.2c-0.9-2.4-1.4-5.2-1.4-8.2
			c0-3,0.5-5.7,1.4-8.2c0.9-2.4,2.3-4.5,4-6.2c1.7-1.7,3.7-3,6.1-3.9c2.4-0.9,5-1.4,7.9-1.4h0v10.1h0c-2.1,0-3.7,0.8-4.8,2.5
			C375.7,52,375.1,54.3,375.1,57.4z"/>
		<path class="st0" d="M349.1,75.8c-0.5,0.2-1.3,0.3-2.3,0.5c-1.1,0.2-2.2,0.2-3.3,0.2c-1.1,0-2.1-0.1-2.9-0.2
			c-0.9-0.2-1.6-0.5-2.2-0.9c-0.6-0.5-1-1.1-1.4-1.9c-0.3-0.8-0.5-1.8-0.5-3.1V47.5c0-1.2,0.2-2.2,0.6-3c0.4-0.8,1-1.6,1.8-2.2
			c0.8-0.7,1.8-1.3,2.9-1.8c1.2-0.5,2.4-1,3.7-1.4c1.3-0.4,2.7-0.7,4.1-1c1.4-0.2,2.9-0.3,4.3-0.3c2.4,0,4.2,0.5,5.6,1.4
			c1.4,0.9,2.1,2.5,2.1,4.6c0,0.7-0.1,1.4-0.3,2.1c-0.2,0.7-0.4,1.3-0.7,1.9c-1,0-2.1,0.1-3.2,0.2c-1.1,0.1-2.1,0.3-3.2,0.5
			c-1,0.2-2,0.4-2.9,0.6c-0.9,0.2-1.7,0.5-2.3,0.8V75.8z"/>
		<path class="st0" d="M314.7,52.6c0.1-0.8,0.1-1.7,0.1-2.7c0-4.8-1.1-8.4-3.3-10.8c-4.3-4.7-18.5-5.1-24.9-5.4
			c-0.6,0-1.1,0-1.7-0.1l0,0v-3.5c0-1.1,0.3-2,0.9-2.6c0.6-0.6,1.4-1.1,2.4-1.5c2.2-0.7,4.6-1.2,7.1-1.5c2.5-0.2,4.7-0.4,6.7-0.4
			c4,0,7.7,0.5,11,1.5c3.3,1,6.1,2.6,8.5,4.7c2.4,2.1,4.2,4.7,5.5,7.9c1.3,3.2,1.9,7,1.9,11.3c0,4.3-0.6,8-1.9,11.1
			c-1.2,3.2-3,5.8-5.3,8c-2.3,2.2-5.1,3.8-8.3,4.8c-3.1,1-6.5,1.6-10.2,1.6c2.5-1.5,4.8-3.3,6.5-5.6
			C313.3,64.7,314.7,58.6,314.7,52.6z"/>
		<path class="st1" d="M298.4,63.6c0.6,0.1,1.3,0.2,2.1,0.3c0.8,0.1,1.6,0.1,2.3,0.1c1.8,0,3.4-0.3,4.8-0.8c1.5-0.5,2.7-1.4,3.8-2.5
			c1-1,1.7-2.3,2.3-3.8c-0.1,0.5-0.3,1.1-0.4,1.7c-2.4,8.8-11.4,17.5-20.8,15.7c-1.2-0.2-2.3-0.6-3.4-1c-2.8-1.1-4.3-3.1-4.3-5.8
			V34.6c0.5,0,1.1,0,1.7,0.1c1.2,0.1,10.6,0.7,11.8,1.2V63.6z"/>
	</g>
	<g>
		<path class="st0" d="M257.8,169.8c0.6-0.1,1.1-0.2,1.7-0.2c0.5,0,1.1,0.1,1.7,0.2l0.2,12.4c-0.6,0.1-1.3,0.2-1.9,0.2
			c-0.6,0-1.3-0.1-1.9-0.2L257.8,169.8L257.8,169.8z M257.7,167.7c-0.1-0.6-0.1-1.2-0.1-1.8c0-0.6,0-1.2,0.1-1.9
			c0.6-0.1,1.2-0.2,1.8-0.2c0.6,0,1.2,0.1,1.8,0.2c0.1,0.6,0.1,1.3,0.1,1.8c0,0.6,0,1.3-0.1,1.9c-0.6,0.1-1.2,0.2-1.8,0.2
			C258.9,167.9,258.3,167.8,257.7,167.7L257.7,167.7z M268.1,168.7c-0.6-0.2-1.1-0.5-1.5-0.7c-0.4-0.3-0.8-0.6-1.1-0.9
			c-0.3-0.4-0.6-0.8-0.7-1.3c-0.2-0.5-0.3-1.1-0.3-1.8c0-0.9,0.1-1.6,0.4-2.3c0.3-0.7,0.7-1.2,1.2-1.7c0.5-0.4,1.2-0.8,1.9-1
			c0.7-0.2,1.6-0.3,2.5-0.3c0.8,0,1.6,0.1,2.4,0.2c0.7,0.2,1.5,0.4,2.3,0.7c-0.1,1-0.4,1.9-0.8,2.9c-0.2-0.1-0.5-0.2-0.8-0.3
			c-0.3-0.1-0.5-0.2-0.8-0.3c-0.3-0.1-0.6-0.1-1-0.2c-0.4,0-0.8-0.1-1.2-0.1c-0.3,0-0.6,0-0.9,0.1c-0.3,0.1-0.5,0.1-0.8,0.3
			c-0.2,0.1-0.4,0.3-0.6,0.6c-0.1,0.3-0.2,0.6-0.2,1c0,0.3,0.1,0.6,0.2,0.8c0.1,0.2,0.3,0.4,0.5,0.6c0.2,0.2,0.4,0.3,0.7,0.4
			c0.2,0.1,0.5,0.2,0.7,0.3l1.5,0.6c0.6,0.3,1.2,0.5,1.7,0.8c0.5,0.3,0.9,0.6,1.3,1c0.4,0.4,0.6,0.9,0.8,1.4
			c0.2,0.6,0.3,1.3,0.3,2.1c0,0.9-0.2,1.6-0.5,2.4c-0.3,0.7-0.7,1.3-1.3,1.8c-0.6,0.5-1.3,0.9-2.1,1.2c-0.8,0.3-1.8,0.4-2.9,0.4
			c-0.5,0-1,0-1.5-0.1c-0.4,0-0.8-0.1-1.2-0.2c-0.4-0.1-0.8-0.2-1.1-0.3c-0.4-0.1-0.8-0.3-1.2-0.4c0-0.5,0.1-1,0.3-1.5
			c0.1-0.5,0.3-1.1,0.5-1.6c0.7,0.3,1.3,0.5,1.9,0.6c0.6,0.1,1.3,0.2,1.9,0.2c1,0,1.8-0.2,2.4-0.6c0.6-0.4,0.9-1,0.9-1.8
			c0-0.4-0.1-0.7-0.2-1c-0.1-0.3-0.3-0.5-0.5-0.7c-0.2-0.2-0.5-0.3-0.8-0.5c-0.3-0.1-0.6-0.2-0.9-0.4L268.1,168.7L268.1,168.7z
			 M278.2,164c0.6-0.1,1.2-0.2,1.7-0.2c0.6,0,1.2,0.1,1.7,0.2v6.9c0,0.7,0.1,1.3,0.2,1.7c0.1,0.4,0.3,0.8,0.5,1.1
			c0.2,0.3,0.5,0.4,0.8,0.6c0.3,0.1,0.7,0.2,1.2,0.2c0.6,0,1.1-0.1,1.5-0.2V164c0.6-0.1,1.2-0.2,1.7-0.2c0.6,0,1.2,0.1,1.7,0.2v12.6
			c-0.5,0.2-1.2,0.4-2.1,0.5c-0.9,0.2-1.8,0.3-2.7,0.3c-0.8,0-1.6-0.1-2.4-0.2c-0.8-0.1-1.4-0.4-2-0.9c-0.6-0.4-1-1.1-1.4-1.9
			c-0.3-0.8-0.5-2-0.5-3.4V164L278.2,164z M301.2,168.7c-0.6-0.2-1.1-0.5-1.5-0.7c-0.4-0.3-0.8-0.6-1.1-0.9
			c-0.3-0.4-0.6-0.8-0.7-1.3c-0.2-0.5-0.3-1.1-0.3-1.8c0-0.9,0.1-1.6,0.4-2.3c0.3-0.7,0.7-1.2,1.2-1.7c0.5-0.4,1.2-0.8,1.9-1
			c0.7-0.2,1.6-0.3,2.5-0.3c0.8,0,1.6,0.1,2.4,0.2c0.7,0.2,1.5,0.4,2.3,0.7c-0.1,1-0.4,1.9-0.8,2.9c-0.2-0.1-0.5-0.2-0.8-0.3
			c-0.3-0.1-0.5-0.2-0.8-0.3c-0.3-0.1-0.6-0.1-1-0.2c-0.4,0-0.8-0.1-1.2-0.1c-0.3,0-0.6,0-0.8,0.1c-0.3,0.1-0.5,0.1-0.8,0.3
			c-0.2,0.1-0.4,0.3-0.6,0.6c-0.1,0.3-0.2,0.6-0.2,1c0,0.3,0.1,0.6,0.2,0.8c0.1,0.2,0.3,0.4,0.5,0.6c0.2,0.2,0.4,0.3,0.7,0.4
			c0.2,0.1,0.5,0.2,0.7,0.3l1.5,0.6c0.6,0.3,1.2,0.5,1.7,0.8c0.5,0.3,0.9,0.6,1.3,1c0.4,0.4,0.6,0.9,0.8,1.4
			c0.2,0.6,0.3,1.3,0.3,2.1c0,0.9-0.2,1.6-0.5,2.4c-0.3,0.7-0.7,1.3-1.3,1.8c-0.6,0.5-1.3,0.9-2.1,1.2c-0.8,0.3-1.8,0.4-2.9,0.4
			c-0.5,0-1,0-1.5-0.1c-0.4,0-0.8-0.1-1.2-0.2c-0.4-0.1-0.8-0.2-1.1-0.3c-0.4-0.1-0.8-0.3-1.2-0.4c0-0.5,0.1-1,0.3-1.5
			c0.1-0.5,0.3-1.1,0.5-1.6c0.7,0.3,1.3,0.5,1.9,0.6c0.6,0.1,1.3,0.2,1.9,0.2c1,0,1.8-0.2,2.4-0.6c0.6-0.4,0.9-1,0.9-1.8
			c0-0.4-0.1-0.7-0.2-1c-0.1-0.3-0.3-0.5-0.5-0.7c-0.2-0.2-0.5-0.3-0.8-0.5c-0.3-0.1-0.6-0.2-0.9-0.4L301.2,168.7L301.2,168.7z
			 M317.8,171.1c-0.2,0-0.4-0.1-0.6-0.1c-0.2,0-0.4,0-0.6,0c-0.8,0-1.4,0.1-1.9,0.4c-0.5,0.3-0.7,0.8-0.7,1.4c0,0.4,0.1,0.8,0.3,1
			c0.2,0.2,0.4,0.4,0.7,0.5c0.3,0.1,0.5,0.2,0.8,0.2c0.3,0,0.5,0,0.8,0c0.2,0,0.5,0,0.7-0.1c0.2,0,0.5-0.1,0.6-0.1V171.1
			L317.8,171.1z M317.8,168.5c0-0.4-0.1-0.7-0.2-1c-0.1-0.3-0.3-0.5-0.5-0.6c-0.2-0.1-0.5-0.2-0.9-0.3c-0.3-0.1-0.7-0.1-1.1-0.1
			c-0.9,0-1.8,0.2-2.8,0.5c-0.2-0.4-0.4-0.9-0.5-1.2c-0.1-0.4-0.2-0.9-0.2-1.4c0.7-0.3,1.4-0.4,2.2-0.6c0.7-0.1,1.4-0.2,2-0.2
			c1.7,0,3,0.4,4,1.3c1,0.8,1.4,2.2,1.4,4.1v7.6c-0.6,0.2-1.3,0.4-2.1,0.5c-0.8,0.2-1.7,0.3-2.8,0.3c-0.8,0-1.6-0.1-2.3-0.2
			c-0.7-0.2-1.3-0.4-1.8-0.8c-0.5-0.4-0.9-0.8-1.2-1.4c-0.3-0.6-0.4-1.2-0.4-2.1c0-0.8,0.2-1.5,0.5-2c0.3-0.5,0.8-1,1.3-1.3
			c0.5-0.3,1.1-0.6,1.8-0.7c0.7-0.1,1.3-0.2,2-0.2c0.5,0,1,0,1.6,0.1V168.5L317.8,168.5z M324.2,158.6c0.6-0.1,1.2-0.2,1.7-0.2
			c0.6,0,1.1,0.1,1.7,0.2v13.3c0,0.5,0,0.9,0.1,1.3c0.1,0.3,0.1,0.6,0.3,0.7c0.1,0.2,0.3,0.3,0.5,0.4c0.2,0.1,0.4,0.1,0.7,0.1
			c0.1,0,0.3,0,0.4,0c0.2,0,0.3,0,0.5-0.1c0.2,0.7,0.3,1.4,0.3,2c0,0.1,0,0.3,0,0.4c0,0.1,0,0.2,0,0.4c-0.3,0.1-0.6,0.1-0.9,0.2
			c-0.4,0-0.7,0.1-1,0.1c-1.3,0-2.3-0.4-3-1.1c-0.8-0.7-1.1-1.9-1.1-3.5V158.6L324.2,158.6z M332.1,164c0.6-0.1,1.2-0.2,1.7-0.2
			c0.6,0,1.2,0.1,1.7,0.2v6.9c0,0.7,0.1,1.3,0.2,1.7c0.1,0.4,0.3,0.8,0.5,1.1c0.2,0.3,0.5,0.4,0.8,0.6c0.3,0.1,0.7,0.2,1.2,0.2
			c0.6,0,1.1-0.1,1.5-0.2V164c0.6-0.1,1.2-0.2,1.7-0.2c0.6,0,1.2,0.1,1.7,0.2v12.6c-0.5,0.2-1.2,0.4-2.1,0.5
			c-0.9,0.2-1.8,0.3-2.7,0.3c-0.8,0-1.6-0.1-2.4-0.2c-0.8-0.1-1.4-0.4-2-0.9c-0.6-0.4-1-1.1-1.4-1.9c-0.3-0.8-0.5-2-0.5-3.4V164
			L332.1,164z M354,158.6c0.3-0.1,0.6-0.1,0.9-0.1c0.3,0,0.6,0,0.9,0c0.3,0,0.6,0,0.9,0c0.3,0,0.6,0.1,0.9,0.1v18.1
			c-0.8,0.2-1.6,0.4-2.4,0.5c-0.8,0.1-1.8,0.2-2.9,0.2c-0.9,0-1.7-0.1-2.5-0.4c-0.8-0.2-1.5-0.6-2.1-1.2c-0.6-0.5-1.1-1.2-1.4-2.1
			c-0.4-0.8-0.5-1.9-0.5-3.1c0-1,0.2-1.9,0.5-2.7c0.3-0.9,0.7-1.6,1.3-2.2c0.6-0.6,1.3-1.1,2.1-1.5c0.8-0.4,1.7-0.5,2.7-0.5
			c0.3,0,0.6,0,0.9,0c0.3,0,0.6,0.1,0.9,0.2V158.6L354,158.6z M354,166.7c-0.3-0.1-0.6-0.1-0.8-0.2c-0.2,0-0.5,0-0.8,0
			c-0.5,0-1,0.1-1.4,0.3c-0.4,0.2-0.7,0.5-1,0.9c-0.3,0.4-0.5,0.8-0.6,1.3c-0.1,0.5-0.2,1.1-0.2,1.6c0,0.7,0.1,1.3,0.2,1.8
			c0.2,0.5,0.4,0.9,0.7,1.2c0.3,0.3,0.6,0.5,1,0.6c0.4,0.1,0.8,0.2,1.3,0.2c0.3,0,0.5,0,0.8,0c0.2,0,0.5-0.1,0.8-0.2V166.7
			L354,166.7z M369.1,171.7c0.1,1,0.4,1.7,1,2.2c0.6,0.5,1.4,0.7,2.5,0.7c0.6,0,1.1-0.1,1.7-0.2c0.6-0.1,1.1-0.3,1.7-0.5
			c0.2,0.3,0.3,0.7,0.5,1.2c0.1,0.5,0.2,1,0.2,1.5c-1.3,0.5-2.7,0.8-4.3,0.8c-1.2,0-2.2-0.2-3-0.5c-0.8-0.3-1.5-0.8-2.1-1.4
			c-0.5-0.6-0.9-1.3-1.2-2.1c-0.3-0.8-0.4-1.7-0.4-2.7c0-1,0.1-1.9,0.4-2.7c0.3-0.8,0.7-1.6,1.2-2.2c0.5-0.6,1.2-1.1,1.9-1.5
			c0.8-0.4,1.7-0.5,2.7-0.5c0.9,0,1.7,0.2,2.4,0.5c0.7,0.3,1.3,0.8,1.8,1.3c0.5,0.6,0.8,1.2,1.1,2c0.2,0.8,0.4,1.6,0.4,2.5
			c0,0.3,0,0.6,0,1c0,0.3-0.1,0.6-0.1,0.7H369.1L369.1,171.7z M374.1,169.2c0-0.8-0.3-1.5-0.7-2c-0.4-0.5-1-0.7-1.7-0.7
			c-0.8,0-1.4,0.2-1.9,0.7c-0.4,0.5-0.7,1.1-0.8,2H374.1L374.1,169.2z M382.6,171.4c-0.9-0.3-1.6-0.7-2.2-1.2
			c-0.5-0.5-0.8-1.3-0.8-2.4c0-1.3,0.4-2.3,1.3-3c0.9-0.7,2.1-1.1,3.7-1.1c0.6,0,1.3,0.1,1.9,0.2c0.6,0.1,1.3,0.3,1.9,0.5
			c0,0.4-0.1,0.9-0.2,1.4c-0.1,0.5-0.3,0.9-0.5,1.2c-0.4-0.2-0.8-0.3-1.3-0.4c-0.5-0.1-1-0.2-1.5-0.2c-0.6,0-1,0.1-1.3,0.3
			c-0.3,0.2-0.5,0.5-0.5,0.8c0,0.4,0.1,0.6,0.3,0.8c0.2,0.2,0.5,0.3,0.9,0.4l1.4,0.4c0.5,0.1,0.9,0.3,1.2,0.5
			c0.4,0.2,0.7,0.4,0.9,0.7c0.3,0.3,0.5,0.6,0.6,1.1c0.1,0.4,0.2,0.9,0.2,1.5c0,0.6-0.1,1.2-0.4,1.7c-0.3,0.5-0.6,1-1.1,1.4
			c-0.5,0.4-1.1,0.7-1.8,0.9c-0.7,0.2-1.5,0.3-2.3,0.3c-0.4,0-0.8,0-1.1,0c-0.3,0-0.6-0.1-0.9-0.1c-0.3-0.1-0.6-0.1-0.9-0.2
			c-0.3-0.1-0.6-0.2-1-0.3c0-0.5,0.1-0.9,0.2-1.4c0.1-0.5,0.3-0.9,0.5-1.4c0.5,0.2,1.1,0.4,1.5,0.5c0.5,0.1,1,0.2,1.5,0.2
			c0.2,0,0.5,0,0.8-0.1c0.3,0,0.5-0.1,0.8-0.2c0.2-0.1,0.4-0.3,0.6-0.4c0.2-0.2,0.2-0.4,0.2-0.7c0-0.4-0.1-0.7-0.4-0.9
			c-0.2-0.2-0.6-0.3-1-0.5L382.6,171.4L382.6,171.4z M396.9,164c0.2-0.1,0.5-0.1,0.7-0.1c0.2,0,0.5,0,0.8,0c0.3,0,0.5,0,0.7,0
			c0.2,0,0.4,0.1,0.7,0.1c0,0.1,0.1,0.2,0.1,0.4c0,0.2,0.1,0.3,0.1,0.5c0,0.2,0.1,0.4,0.1,0.5c0,0.2,0,0.3,0.1,0.4
			c0.2-0.3,0.4-0.5,0.6-0.8c0.2-0.3,0.5-0.5,0.8-0.7c0.3-0.2,0.6-0.4,1-0.5c0.4-0.1,0.8-0.2,1.3-0.2c1.4,0,2.5,0.4,3.3,1.2
			c0.7,0.8,1.1,2.1,1.1,3.8v8.4c-0.6,0.1-1.2,0.2-1.7,0.2c-0.6,0-1.2-0.1-1.7-0.2v-7.4c0-0.9-0.1-1.6-0.4-2.1
			c-0.3-0.5-0.7-0.7-1.4-0.7c-0.3,0-0.6,0-0.9,0.1c-0.3,0.1-0.6,0.2-0.8,0.5c-0.2,0.2-0.4,0.6-0.6,1c-0.1,0.4-0.2,1-0.2,1.7v6.9
			c-0.6,0.1-1.2,0.2-1.7,0.2c-0.6,0-1.2-0.1-1.7-0.2V164L396.9,164z M411.1,164c0.6-0.1,1.2-0.2,1.7-0.2c0.6,0,1.2,0.1,1.7,0.2v6.9
			c0,0.7,0.1,1.3,0.2,1.7c0.1,0.4,0.3,0.8,0.5,1.1c0.2,0.3,0.5,0.4,0.8,0.6c0.3,0.1,0.7,0.2,1.2,0.2c0.6,0,1.1-0.1,1.5-0.2V164
			c0.6-0.1,1.2-0.2,1.7-0.2c0.6,0,1.2,0.1,1.7,0.2v12.6c-0.5,0.2-1.2,0.4-2.1,0.5c-0.9,0.2-1.8,0.3-2.7,0.3c-0.8,0-1.6-0.1-2.4-0.2
			c-0.8-0.1-1.4-0.4-2-0.9c-0.6-0.4-1-1.1-1.4-1.9c-0.3-0.8-0.5-2-0.5-3.4V164L411.1,164z M428.2,171.7c0.1,1,0.4,1.7,1,2.2
			c0.6,0.5,1.4,0.7,2.5,0.7c0.6,0,1.1-0.1,1.7-0.2c0.6-0.1,1.1-0.3,1.7-0.5c0.2,0.3,0.3,0.7,0.5,1.2c0.1,0.5,0.2,1,0.2,1.5
			c-1.3,0.5-2.7,0.8-4.3,0.8c-1.2,0-2.2-0.2-3-0.5c-0.8-0.3-1.5-0.8-2.1-1.4c-0.5-0.6-0.9-1.3-1.2-2.1c-0.3-0.8-0.4-1.7-0.4-2.7
			c0-1,0.1-1.9,0.4-2.7c0.3-0.8,0.7-1.6,1.2-2.2c0.5-0.6,1.2-1.1,1.9-1.5c0.8-0.4,1.7-0.5,2.7-0.5c0.9,0,1.7,0.2,2.4,0.5
			c0.7,0.3,1.3,0.8,1.8,1.3c0.5,0.6,0.9,1.2,1.1,2c0.2,0.8,0.4,1.6,0.4,2.5c0,0.3,0,0.6,0,1c0,0.3-0.1,0.6-0.1,0.7H428.2
			L428.2,171.7z M433.2,169.2c0-0.8-0.3-1.5-0.7-2c-0.4-0.5-1-0.7-1.7-0.7c-0.8,0-1.4,0.2-1.9,0.7c-0.4,0.5-0.7,1.1-0.8,2H433.2
			L433.2,169.2z M441.8,171.4c-0.9-0.3-1.6-0.7-2.2-1.2c-0.5-0.5-0.8-1.3-0.8-2.4c0-1.3,0.4-2.3,1.3-3c0.9-0.7,2.1-1.1,3.7-1.1
			c0.6,0,1.3,0.1,1.9,0.2c0.6,0.1,1.3,0.3,1.9,0.5c0,0.4-0.1,0.9-0.2,1.4c-0.1,0.5-0.3,0.9-0.5,1.2c-0.4-0.2-0.8-0.3-1.3-0.4
			c-0.5-0.1-1-0.2-1.5-0.2c-0.6,0-1,0.1-1.3,0.3c-0.3,0.2-0.5,0.5-0.5,0.8c0,0.4,0.1,0.6,0.3,0.8c0.2,0.2,0.5,0.3,0.9,0.4l1.4,0.4
			c0.5,0.1,0.9,0.3,1.2,0.5c0.4,0.2,0.7,0.4,0.9,0.7c0.3,0.3,0.5,0.6,0.6,1.1c0.1,0.4,0.2,0.9,0.2,1.5c0,0.6-0.1,1.2-0.4,1.7
			c-0.3,0.5-0.6,1-1.1,1.4c-0.5,0.4-1.1,0.7-1.8,0.9c-0.7,0.2-1.5,0.3-2.3,0.3c-0.4,0-0.8,0-1.1,0c-0.3,0-0.6-0.1-0.9-0.1
			c-0.3-0.1-0.6-0.1-0.9-0.2c-0.3-0.1-0.6-0.2-1-0.3c0-0.5,0.1-0.9,0.2-1.4c0.1-0.5,0.3-0.9,0.5-1.4c0.5,0.2,1.1,0.4,1.5,0.5
			c0.5,0.1,1,0.2,1.5,0.2c0.2,0,0.5,0,0.8-0.1c0.3,0,0.5-0.1,0.8-0.2c0.2-0.1,0.4-0.3,0.6-0.4c0.2-0.2,0.2-0.4,0.2-0.7
			c0-0.4-0.1-0.7-0.4-0.9c-0.2-0.2-0.6-0.3-1-0.5L441.8,171.4L441.8,171.4z M451,166.8h-1.6l-0.1-0.5l4.6-6.1h0.6v3.8h3
			c0,0.3,0.1,0.5,0.1,0.7c0,0.2,0,0.4,0,0.6c0,0.2,0,0.5,0,0.7c0,0.2,0,0.5-0.1,0.7h-3v5.1c0,0.5,0,0.9,0.1,1.3
			c0.1,0.3,0.2,0.6,0.4,0.8c0.2,0.2,0.3,0.3,0.6,0.4c0.2,0.1,0.5,0.1,0.8,0.1c0.2,0,0.5,0,0.7-0.1c0.2,0,0.4-0.1,0.6-0.1
			c0.1,0.3,0.2,0.7,0.2,1c0,0.3,0.1,0.7,0.1,0.9c0,0.2,0,0.3,0,0.5c0,0.1,0,0.2,0,0.4c-0.8,0.2-1.5,0.3-2.3,0.3
			c-1.5,0-2.6-0.4-3.4-1.1c-0.8-0.7-1.2-1.9-1.2-3.5V166.8L451,166.8z M460.1,164c0.2-0.1,0.5-0.1,0.7-0.1c0.2,0,0.5,0,0.7,0
			c0.2,0,0.5,0,0.7,0.1c0.2,0,0.5,0.1,0.7,0.1c0,0.1,0.1,0.2,0.1,0.4c0,0.2,0.1,0.3,0.1,0.5c0,0.2,0.1,0.4,0.1,0.5
			c0,0.2,0,0.3,0.1,0.4c0.4-0.5,0.8-1,1.3-1.4c0.5-0.4,1.2-0.6,2-0.6c0.2,0,0.4,0,0.6,0c0.2,0,0.4,0,0.5,0.1c0,0.2,0.1,0.4,0.1,0.6
			c0,0.2,0,0.4,0,0.7c0,0.3,0,0.6,0,0.9c0,0.3-0.1,0.7-0.1,1c-0.2,0-0.4-0.1-0.6-0.1c-0.2,0-0.4,0-0.4,0c-0.3,0-0.6,0-0.9,0.1
			c-0.3,0.1-0.7,0.2-1,0.5c-0.3,0.3-0.6,0.6-0.8,1.1c-0.2,0.5-0.3,1.2-0.3,2.1v6.2c-0.3,0.1-0.6,0.1-0.9,0.1c-0.3,0-0.6,0-0.9,0
			c-0.3,0-0.6,0-0.9,0c-0.3,0-0.6-0.1-0.9-0.1V164L460.1,164z M475,177.4c-1,0-1.9-0.2-2.7-0.5c-0.8-0.3-1.4-0.8-1.9-1.4
			c-0.5-0.6-0.9-1.3-1.1-2.2c-0.3-0.8-0.4-1.7-0.4-2.7c0-1,0.1-1.9,0.4-2.7c0.3-0.8,0.6-1.6,1.1-2.2c0.5-0.6,1.1-1.1,1.9-1.5
			c0.8-0.4,1.7-0.5,2.7-0.5c1,0,1.9,0.2,2.7,0.5c0.8,0.4,1.4,0.8,1.9,1.5c0.5,0.6,0.9,1.3,1.1,2.2c0.2,0.8,0.4,1.7,0.4,2.7
			c0,1-0.1,1.9-0.4,2.7c-0.2,0.8-0.6,1.6-1.1,2.2c-0.5,0.6-1.1,1.1-1.9,1.4C476.9,177.3,476,177.4,475,177.4L475,177.4z M475,174.7
			c0.9,0,1.6-0.4,2-1.1c0.4-0.7,0.6-1.7,0.6-3c0-1.3-0.2-2.3-0.6-3c-0.4-0.7-1.1-1.1-2-1.1c-0.9,0-1.6,0.4-2,1.1
			c-0.4,0.7-0.6,1.7-0.6,3c0,1.3,0.2,2.3,0.6,3S474.1,174.7,475,174.7L475,174.7z M497.8,174c0.2,0.3,0.4,0.7,0.5,1.2
			c0.1,0.4,0.2,1,0.2,1.6c-0.7,0.3-1.3,0.4-1.8,0.5c-0.6,0.1-1.2,0.1-1.8,0.1c-1.1,0-2-0.2-2.8-0.5c-0.8-0.3-1.4-0.8-2-1.4
			c-0.5-0.6-0.9-1.3-1.2-2.2c-0.3-0.8-0.4-1.7-0.4-2.7c0-1,0.1-1.9,0.4-2.7c0.3-0.8,0.6-1.6,1.2-2.2c0.5-0.6,1.2-1.1,1.9-1.5
			c0.8-0.4,1.7-0.5,2.7-0.5c0.4,0,0.7,0,1,0c0.3,0,0.6,0.1,0.9,0.1c0.3,0.1,0.6,0.1,0.8,0.2c0.3,0.1,0.6,0.2,0.9,0.3
			c0,0.4-0.1,0.8-0.1,1.3c-0.1,0.5-0.3,0.9-0.5,1.4c-0.5-0.2-0.9-0.3-1.3-0.3c-0.4-0.1-0.8-0.1-1.3-0.1c-1,0-1.8,0.3-2.3,1
			c-0.5,0.7-0.8,1.7-0.8,2.9c0,1.4,0.3,2.4,0.8,3c0.6,0.6,1.3,0.9,2.3,0.9c0.2,0,0.5,0,0.7,0c0.2,0,0.4,0,0.6-0.1
			c0.2,0,0.4-0.1,0.6-0.2C497.3,174.2,497.6,174.1,497.8,174L497.8,174z M506,177.4c-1,0-1.9-0.2-2.7-0.5c-0.8-0.3-1.4-0.8-1.9-1.4
			c-0.5-0.6-0.9-1.3-1.1-2.2c-0.3-0.8-0.4-1.7-0.4-2.7c0-1,0.1-1.9,0.4-2.7c0.3-0.8,0.6-1.6,1.1-2.2c0.5-0.6,1.1-1.1,1.9-1.5
			c0.8-0.4,1.7-0.5,2.7-0.5c1,0,1.9,0.2,2.7,0.5c0.8,0.4,1.4,0.8,1.9,1.5c0.5,0.6,0.9,1.3,1.1,2.2c0.2,0.8,0.4,1.7,0.4,2.7
			c0,1-0.1,1.9-0.4,2.7c-0.2,0.8-0.6,1.6-1.1,2.2c-0.5,0.6-1.1,1.1-1.9,1.4C508,177.3,507.1,177.4,506,177.4L506,177.4z M506,174.7
			c0.9,0,1.6-0.4,2-1.1c0.4-0.7,0.6-1.7,0.6-3c0-1.3-0.2-2.3-0.6-3c-0.4-0.7-1.1-1.1-2-1.1c-0.9,0-1.6,0.4-2,1.1
			c-0.4,0.7-0.6,1.7-0.6,3c0,1.3,0.2,2.3,0.6,3C504.5,174.3,505.1,174.7,506,174.7z"/>
		<path class="st0" d="M514.9,164c0.2-0.1,0.5-0.1,0.7-0.1c0.2,0,0.5,0,0.8,0c0.3,0,0.5,0,0.7,0c0.2,0,0.4,0.1,0.7,0.1
			c0,0.1,0.1,0.2,0.1,0.4c0,0.2,0.1,0.3,0.1,0.5c0,0.2,0.1,0.4,0.1,0.5c0,0.2,0,0.3,0.1,0.4c0.1-0.3,0.3-0.5,0.5-0.8
			c0.2-0.3,0.5-0.5,0.8-0.7c0.3-0.2,0.6-0.4,1-0.5c0.4-0.1,0.8-0.2,1.2-0.2c2,0,3.3,0.8,3.8,2.3c0.3-0.6,0.8-1.2,1.4-1.6
			c0.6-0.5,1.4-0.7,2.3-0.7c1.4,0,2.5,0.4,3.2,1.2c0.7,0.8,1,2.1,1,3.8v8.3c-0.6,0.1-1.2,0.2-1.7,0.2c-0.6,0-1.2-0.1-1.7-0.2v-7.4
			c0-0.9-0.1-1.6-0.3-2.1c-0.2-0.5-0.7-0.7-1.3-0.7c-0.3,0-0.6,0-0.8,0.1c-0.3,0.1-0.5,0.2-0.7,0.5c-0.2,0.2-0.4,0.5-0.5,1
			c-0.1,0.4-0.2,1-0.2,1.6v7.1c-0.6,0.1-1.2,0.2-1.7,0.2c-0.6,0-1.2-0.1-1.7-0.2v-7.4c0-0.9-0.1-1.6-0.3-2.1
			c-0.2-0.5-0.7-0.7-1.3-0.7c-0.3,0-0.6,0-0.8,0.1c-0.3,0.1-0.5,0.2-0.8,0.5c-0.2,0.2-0.4,0.6-0.5,1c-0.1,0.4-0.2,1-0.2,1.7v6.9
			c-0.6,0.1-1.2,0.2-1.7,0.2c-0.6,0-1.2-0.1-1.7-0.2V164L514.9,164z M536.5,164c0.2-0.1,0.5-0.1,0.7-0.1c0.2,0,0.5,0,0.8,0
			c0.5,0,0.9,0.1,1.4,0.2c0,0.1,0.1,0.2,0.1,0.4c0,0.2,0.1,0.3,0.1,0.5c0,0.2,0.1,0.4,0.1,0.5c0,0.2,0,0.3,0.1,0.4
			c0.1-0.3,0.3-0.5,0.5-0.8c0.2-0.3,0.5-0.5,0.8-0.7c0.3-0.2,0.6-0.4,1-0.5c0.4-0.1,0.8-0.2,1.3-0.2c0.7,0,1.4,0.1,2,0.4
			s1.2,0.7,1.6,1.2c0.5,0.5,0.8,1.2,1.1,2.1c0.3,0.8,0.4,1.8,0.4,2.9c0,1.1-0.2,2.1-0.5,3c-0.3,0.9-0.8,1.6-1.4,2.2
			c-0.6,0.6-1.3,1.1-2.2,1.4c-0.9,0.3-1.8,0.5-2.9,0.5c-0.3,0-0.6,0-0.8,0c-0.3,0-0.5-0.1-0.7-0.1v5.8c-0.3,0.1-0.6,0.1-0.9,0.1
			c-0.3,0-0.6,0-0.9,0c-0.3,0-0.6,0-0.8,0c-0.3,0-0.6-0.1-0.9-0.1V164L536.5,164z M540,174.3c0.4,0.1,1,0.2,1.5,0.2
			c1,0,1.8-0.3,2.3-1c0.5-0.7,0.8-1.7,0.8-3.1c0-0.5,0-1-0.1-1.5c-0.1-0.4-0.2-0.8-0.4-1.2c-0.2-0.3-0.4-0.6-0.8-0.8
			c-0.3-0.2-0.7-0.3-1.1-0.3c-0.4,0-0.8,0.1-1,0.2c-0.3,0.2-0.5,0.4-0.7,0.7c-0.2,0.3-0.3,0.6-0.4,1c-0.1,0.4-0.1,0.8-0.1,1.2V174.3
			L540,174.3z M551.1,164c0.2-0.1,0.5-0.1,0.7-0.1c0.2,0,0.5,0,0.7,0c0.2,0,0.5,0,0.7,0.1c0.2,0,0.5,0.1,0.7,0.1
			c0,0.1,0.1,0.2,0.1,0.4c0,0.2,0.1,0.3,0.1,0.5c0,0.2,0.1,0.4,0.1,0.5c0,0.2,0,0.3,0.1,0.4c0.4-0.5,0.8-1,1.3-1.4
			c0.5-0.4,1.2-0.6,2-0.6c0.2,0,0.4,0,0.6,0c0.2,0,0.4,0,0.5,0.1c0,0.2,0.1,0.4,0.1,0.6c0,0.2,0,0.4,0,0.7c0,0.3,0,0.6,0,0.9
			c0,0.3-0.1,0.7-0.1,1c-0.2,0-0.4-0.1-0.6-0.1c-0.2,0-0.4,0-0.4,0c-0.3,0-0.6,0-0.9,0.1c-0.3,0.1-0.7,0.2-1,0.5
			c-0.3,0.3-0.6,0.6-0.8,1.1c-0.2,0.5-0.3,1.2-0.3,2.1v6.2c-0.3,0.1-0.6,0.1-0.9,0.1c-0.3,0-0.6,0-0.9,0c-0.3,0-0.6,0-0.9,0
			c-0.3,0-0.6-0.1-0.9-0.1V164L551.1,164z M566,177.4c-1,0-1.9-0.2-2.7-0.5c-0.8-0.3-1.4-0.8-1.9-1.4c-0.5-0.6-0.9-1.3-1.1-2.2
			c-0.3-0.8-0.4-1.7-0.4-2.7c0-1,0.1-1.9,0.4-2.7c0.3-0.8,0.6-1.6,1.1-2.2c0.5-0.6,1.1-1.1,1.9-1.5c0.8-0.4,1.7-0.5,2.7-0.5
			c1,0,1.9,0.2,2.7,0.5c0.8,0.4,1.4,0.8,1.9,1.5c0.5,0.6,0.9,1.3,1.1,2.2c0.2,0.8,0.4,1.7,0.4,2.7c0,1-0.1,1.9-0.4,2.7
			c-0.2,0.8-0.6,1.6-1.1,2.2c-0.5,0.6-1.1,1.1-1.9,1.4C568,177.3,567.1,177.4,566,177.4L566,177.4z M566,174.7c0.9,0,1.6-0.4,2-1.1
			c0.4-0.7,0.6-1.7,0.6-3c0-1.3-0.2-2.3-0.6-3c-0.4-0.7-1.1-1.1-2-1.1c-0.9,0-1.6,0.4-2,1.1c-0.4,0.7-0.6,1.7-0.6,3
			c0,1.3,0.2,2.3,0.6,3C564.5,174.3,565.1,174.7,566,174.7L566,174.7z M574.9,164c0.2-0.1,0.5-0.1,0.7-0.1c0.2,0,0.5,0,0.8,0
			c0.3,0,0.5,0,0.7,0c0.2,0,0.4,0.1,0.7,0.1c0,0.1,0.1,0.2,0.1,0.4c0,0.2,0.1,0.3,0.1,0.5c0,0.2,0.1,0.4,0.1,0.5
			c0,0.2,0,0.3,0.1,0.4c0.1-0.3,0.3-0.5,0.5-0.8c0.2-0.3,0.5-0.5,0.8-0.7c0.3-0.2,0.6-0.4,1-0.5c0.4-0.1,0.8-0.2,1.2-0.2
			c2,0,3.3,0.8,3.8,2.3c0.3-0.6,0.8-1.2,1.4-1.6c0.6-0.5,1.4-0.7,2.3-0.7c1.4,0,2.5,0.4,3.2,1.2c0.7,0.8,1,2.1,1,3.8v8.3
			c-0.6,0.1-1.2,0.2-1.7,0.2c-0.6,0-1.2-0.1-1.7-0.2v-7.4c0-0.9-0.1-1.6-0.3-2.1c-0.2-0.5-0.7-0.7-1.3-0.7c-0.3,0-0.6,0-0.8,0.1
			c-0.3,0.1-0.5,0.2-0.7,0.5c-0.2,0.2-0.4,0.5-0.5,1c-0.1,0.4-0.2,1-0.2,1.6v7.1c-0.6,0.1-1.2,0.2-1.7,0.2c-0.6,0-1.2-0.1-1.7-0.2
			v-7.4c0-0.9-0.1-1.6-0.3-2.1c-0.2-0.5-0.7-0.7-1.3-0.7c-0.3,0-0.6,0-0.8,0.1c-0.3,0.1-0.5,0.2-0.8,0.5c-0.2,0.2-0.4,0.6-0.5,1
			c-0.1,0.4-0.2,1-0.2,1.7v6.9c-0.6,0.1-1.2,0.2-1.7,0.2c-0.6,0-1.2-0.1-1.7-0.2V164L574.9,164z M597.3,166.8h-1.7
			c0-0.2-0.1-0.5-0.1-0.7c0-0.2,0-0.5,0-0.7c0-0.5,0-0.9,0.1-1.3h5.1v13.1c-0.6,0.1-1.2,0.2-1.7,0.2c-0.5,0-1.1-0.1-1.7-0.2V166.8
			L597.3,166.8z M596.8,161.8c-0.1-0.6-0.1-1.1-0.1-1.7c0-0.5,0-1.1,0.1-1.7c0.3-0.1,0.6-0.1,0.9-0.1c0.3,0,0.6,0,0.9,0
			c0.3,0,0.6,0,0.9,0c0.3,0,0.6,0.1,0.9,0.1c0,0.3,0.1,0.6,0.1,0.8c0,0.3,0,0.6,0,0.8c0,0.3,0,0.5,0,0.8c0,0.3,0,0.6-0.1,0.9
			c-0.3,0.1-0.6,0.1-0.9,0.1c-0.3,0-0.6,0-0.9,0c-0.3,0-0.6,0-0.9,0C597.3,161.9,597,161.9,596.8,161.8L596.8,161.8z M606.6,171.4
			c-0.9-0.3-1.6-0.7-2.2-1.2c-0.5-0.5-0.8-1.3-0.8-2.4c0-1.3,0.4-2.3,1.3-3c0.9-0.7,2.1-1.1,3.7-1.1c0.6,0,1.3,0.1,1.9,0.2
			c0.6,0.1,1.3,0.3,1.9,0.5c0,0.4-0.1,0.9-0.2,1.4c-0.1,0.5-0.3,0.9-0.5,1.2c-0.4-0.2-0.8-0.3-1.3-0.4c-0.5-0.1-1-0.2-1.5-0.2
			c-0.6,0-1,0.1-1.3,0.3c-0.3,0.2-0.5,0.5-0.5,0.8c0,0.4,0.1,0.6,0.3,0.8c0.2,0.2,0.5,0.3,0.9,0.4l1.4,0.4c0.5,0.1,0.9,0.3,1.2,0.5
			c0.4,0.2,0.7,0.4,0.9,0.7c0.3,0.3,0.5,0.6,0.6,1.1c0.1,0.4,0.2,0.9,0.2,1.5c0,0.6-0.1,1.2-0.4,1.7c-0.3,0.5-0.6,1-1.1,1.4
			c-0.5,0.4-1.1,0.7-1.8,0.9c-0.7,0.2-1.5,0.3-2.3,0.3c-0.4,0-0.8,0-1.1,0c-0.3,0-0.6-0.1-0.9-0.1c-0.3-0.1-0.6-0.1-0.9-0.2
			c-0.3-0.1-0.6-0.2-1-0.3c0-0.5,0.1-0.9,0.2-1.4c0.1-0.5,0.3-0.9,0.5-1.4c0.5,0.2,1.1,0.4,1.5,0.5c0.5,0.1,1,0.2,1.5,0.2
			c0.2,0,0.5,0,0.8-0.1c0.3,0,0.5-0.1,0.8-0.2c0.2-0.1,0.4-0.3,0.6-0.4c0.2-0.2,0.2-0.4,0.2-0.7c0-0.4-0.1-0.7-0.4-0.9
			c-0.2-0.2-0.6-0.3-1-0.5L606.6,171.4L606.6,171.4z M620.9,177.4c-1,0-1.9-0.2-2.7-0.5c-0.8-0.3-1.4-0.8-1.9-1.4
			c-0.5-0.6-0.9-1.3-1.1-2.2c-0.3-0.8-0.4-1.7-0.4-2.7c0-1,0.1-1.9,0.4-2.7c0.3-0.8,0.6-1.6,1.1-2.2c0.5-0.6,1.1-1.1,1.9-1.5
			c0.8-0.4,1.7-0.5,2.7-0.5c1,0,1.9,0.2,2.7,0.5c0.8,0.4,1.4,0.8,1.9,1.5c0.5,0.6,0.9,1.3,1.1,2.2c0.2,0.8,0.4,1.7,0.4,2.7
			c0,1-0.1,1.9-0.4,2.7c-0.2,0.8-0.6,1.6-1.1,2.2c-0.5,0.6-1.1,1.1-1.9,1.4C622.8,177.3,621.9,177.4,620.9,177.4L620.9,177.4z
			 M620.9,174.7c0.9,0,1.6-0.4,2-1.1c0.4-0.7,0.6-1.7,0.6-3c0-1.3-0.2-2.3-0.6-3c-0.4-0.7-1.1-1.1-2-1.1c-0.9,0-1.6,0.4-2,1.1
			c-0.4,0.7-0.6,1.7-0.6,3c0,1.3,0.2,2.3,0.6,3S620,174.7,620.9,174.7L620.9,174.7z M629.8,158.9c0.6-0.1,1.3-0.2,1.9-0.2
			c0.6,0,1.3,0.1,1.9,0.2l-0.2,12.4c-0.6,0.1-1.1,0.2-1.7,0.2c-0.6,0-1.1-0.1-1.7-0.2L629.8,158.9L629.8,158.9z M629.9,177.1
			c-0.1-0.6-0.1-1.2-0.1-1.8c0-0.6,0-1.2,0.1-1.9c0.6-0.1,1.2-0.2,1.8-0.2c0.6,0,1.2,0.1,1.8,0.2c0.1,0.6,0.1,1.3,0.1,1.8
			c0,0.6,0,1.3-0.1,1.9c-0.6,0.1-1.2,0.2-1.8,0.2C631.1,177.3,630.5,177.2,629.9,177.1z"/>
	</g>
</g>
<g>
	<path class="st2" d="M179.1,83.9c0.4,3.9,0.5,7.8,0.4,11.8c-1,26.8-13.7,50.4-33.1,66c19.3-16,32-40.1,33-67.3
		C179.4,90.8,179.4,87.3,179.1,83.9L179.1,83.9z M92.8,10.1C48.6,8.6,11.5,43.7,9.9,88.5c-1.6,44.8,32.9,82.4,77,83.9
		c44.1,1.5,81.2-33.6,82.8-78.4C171.4,49.2,136.9,11.6,92.8,10.1z"/>
	<path class="st3" d="M93.1,0.3c49.4,1.7,88,43.8,86.2,94c-1.8,50.2-43.4,89.5-92.8,87.8c-49.4-1.7-88-43.8-86.2-94
		C2.2,38,43.7-1.4,93.1,0.3L93.1,0.3z M92.8,10.1C48.6,8.6,11.5,43.7,9.9,88.5c-1.6,44.8,32.9,82.4,77,83.9
		c44.1,1.5,81.2-33.6,82.8-78.4C171.4,49.2,136.9,11.6,92.8,10.1z"/>
	<path class="st4" d="M53,70.7h15.5V55.2c0-12.1,9.9-21.9,21.9-21.9l0,0c12.1,0,21.9,9.9,21.9,21.9v15.5h15.5
		c12.1,0,21.9,9.9,21.9,21.9l0,0c0,12.1-9.9,21.9-21.9,21.9h-15.5V130c0,12.1-9.9,21.9-21.9,21.9l0,0c-12.1,0-21.9-9.9-21.9-21.9
		v-15.5H53c-12.1,0-21.9-9.9-21.9-21.9l0,0C31.1,80.6,41,70.7,53,70.7z"/>
	<path class="st5" d="M86.7,82.7c-0.2,1.5-0.2,4.2-0.1,5.7h17.1c0.4,0.6,0.8,1.4,1.1,2.3c0.3,1,0.4,2,0.4,3.1c0,2-0.4,3.5-1.3,4.4
		c-0.9,0.9-2,1.3-3.5,1.3H86.8v17c-0.6,0.2-1.5,0.3-2.7,0.5c-1.2,0.2-2.4,0.2-3.6,0.2c-1.2,0-2.3-0.1-3.2-0.3
		c-0.9-0.2-1.7-0.5-2.3-1c-0.6-0.5-1.1-1.2-1.4-2c-0.3-0.9-0.5-2-0.5-3.4V92.1C75.6,87.8,82.3,82.8,86.7,82.7z"/>
	<path class="st6" d="M106.4,68c0.4,0.6,0.7,1.4,1,2.4c0.3,1,0.4,2,0.4,3.1c0,2.1-0.4,3.6-1.3,4.5c-0.9,0.9-2,1.3-3.5,1.3
		c-11.9,0-23.7-1.6-30,11.2v-6.3C73.1,75.8,77.9,68,87,68H106.4z"/>
	<path class="st7" d="M60.7,64V53.4c0-14.7,12-26.8,26.8-26.8c7.7,0,14.6,3.3,19.5,8.5c-4.4-3.2-9.8-5.1-15.6-5.1
		c-14.7,0-26.8,12-26.8,26.8v10.6H54c-14.7,0-26.8,12-26.8,26.8c0,7.1,2.8,13.5,7.3,18.3c-6.8-4.9-11.2-12.8-11.2-21.7
		c0-14.7,12-26.8,26.8-26.8H60.7L60.7,64z M118.2,64h6.7c7.7,0,14.6,3.3,19.5,8.5c-4.4-3.2-9.8-5.1-15.6-5.1h-10.6V64L118.2,64z
		 M71.9,150c-6.8-4.9-11.2-12.8-11.2-21.7v-7.2h3.9v10.6C64.7,138.8,67.4,145.2,71.9,150z"/>
</g>
</svg>
