<!-- Generator: Adobe Illustrator 21.1.0, SVG Export Plug-In  -->
<svg version="1.1"
	 xmlns="http://www.w3.org/2000/svg" xmlns:xlink="http://www.w3.org/1999/xlink" xmlns:a="http://ns.adobe.com/AdobeSVGViewerExtensions/3.0/"
	 x="0px" y="0px" width="602.8px" height="225.7px" viewBox="0 0 602.8 225.7" style="enable-background:new 0 0 602.8 225.7;"
	 xml:space="preserve">
<style type="text/css">
	.st0{fill-rule:evenodd;clip-rule:evenodd;fill:#00377C;}
	.st1{fill-rule:evenodd;clip-rule:evenodd;fill:#70AADC;}
	.st2{fill-rule:evenodd;clip-rule:evenodd;fill:#00377C;stroke:#009BDB;stroke-width:0.216;stroke-miterlimit:22.9256;}
	.st3{fill-rule:evenodd;clip-rule:evenodd;fill:#FFFFFF;stroke:#009BDB;stroke-width:0.5669;stroke-miterlimit:22.9256;}
	.st4{fill-rule:evenodd;clip-rule:evenodd;fill:#FFFFFF;}
	.st5{fill-rule:evenodd;clip-rule:evenodd;fill:#003E86;}
	.st6{fill-rule:evenodd;clip-rule:evenodd;fill:#009BDB;}
	.st7{fill-rule:evenodd;clip-rule:evenodd;fill:#0087CA;}
</style>
<defs>
</defs>
<g>
	<path class="st0" d="M587.8,193.9v-8.3c0.9,0.3,1.9,0.4,3,0.4c1.7,0,3.2-0.2,4.7-0.7c1.5-0.4,2.7-1,3.6-1.5c0.7,0.4,1.2,1,1.6,1.8
		c0.4,0.8,0.7,1.6,0.7,2.4c0,1.9-0.9,3.3-2.6,4.2c-1.3,0.7-2.8,1.2-4.4,1.4c-1.6,0.3-3.2,0.4-4.6,0.4
		C589.2,194,588.5,194,587.8,193.9L587.8,193.9z M587.8,181.2V174l5.2-0.9c-0.1-0.8-0.6-1.7-1.3-2.5c-0.8-0.8-1.9-1.3-3.4-1.3
		c-0.2,0-0.3,0-0.5,0v-7.8c0.2,0,0.3,0,0.5,0c2.2,0,4.1,0.3,5.9,1c1.8,0.7,3.3,1.6,4.6,2.8c1.3,1.2,2.3,2.6,3,4.2
		c0.7,1.6,1.1,3.4,1.1,5.3c0,1.4-0.4,2.5-1.2,3.3c-0.8,0.8-1.9,1.2-3.2,1.4L587.8,181.2z M587.8,161.5v7.8c-0.8,0-1.5,0.2-2.1,0.5
		c-0.7,0.3-1.3,0.8-1.7,1.3c-0.4,0.5-0.8,1.1-1,1.8c-0.2,0.6-0.4,1.3-0.4,2l5.2-0.9v7.2l-4.5,0.7c0.4,1.4,1.4,2.4,2.7,3.1
		c0.5,0.3,1.1,0.5,1.7,0.7v8.3c-1.6-0.1-3.1-0.5-4.5-0.9c-2.1-0.7-3.8-1.7-5.4-3.1c-1.5-1.4-2.7-3.1-3.6-5.2
		c-0.9-2.1-1.3-4.5-1.3-7.4c0-2.8,0.4-5.1,1.3-7.1c0.9-2,2-3.6,3.5-4.9c1.4-1.3,3.1-2.2,4.9-2.8
		C584.3,161.9,586.1,161.6,587.8,161.5L587.8,161.5z M508.4,194v-8.4l0.1,0c1.7,0,3-0.7,3.9-2.1c0.9-1.4,1.4-3.3,1.4-5.8
		c0-2.5-0.5-4.5-1.4-5.8c-0.9-1.4-2.3-2-4-2v-8.4c2.4,0,4.6,0.4,6.5,1.2c2,0.8,3.6,1.9,5,3.3c1.4,1.4,2.5,3.1,3.3,5.1
		c0.8,2,1.2,4.2,1.2,6.7c0,2.6-0.4,4.9-1.2,6.9c-0.8,2-1.9,3.7-3.3,5.1c-1.4,1.4-3.1,2.4-5,3.1C513,193.7,510.8,194,508.4,194
		L508.4,194z M538.4,192.9c-0.4,0.1-1,0.3-1.9,0.4c-0.9,0.1-1.8,0.2-2.7,0.2c-0.9,0-1.7-0.1-2.4-0.2c-0.7-0.1-1.3-0.4-1.8-0.8
		c-0.5-0.4-0.9-0.9-1.1-1.5c-0.3-0.6-0.4-1.5-0.4-2.5v-18.9c0-1,0.2-1.8,0.5-2.5c0.3-0.7,0.8-1.3,1.5-1.9c0.7-0.5,1.5-1,2.4-1.5
		c1-0.4,2-0.8,3.1-1.2c1.1-0.3,2.2-0.6,3.4-0.8c1.2-0.2,2.4-0.3,3.5-0.3c2,0,3.5,0.4,4.6,1.2c1.1,0.8,1.7,2,1.7,3.8
		c0,0.6-0.1,1.2-0.2,1.7c-0.2,0.6-0.4,1.1-0.6,1.5c-0.9,0-1.7,0-2.6,0.1c-0.9,0.1-1.8,0.2-2.6,0.4c-0.9,0.2-1.7,0.3-2.4,0.5
		c-0.8,0.2-1.4,0.4-1.9,0.7V192.9L538.4,192.9z M562,182.5c0,1.1,0.3,1.9,1,2.3c0.7,0.5,1.6,0.7,2.8,0.7c0.6,0,1.2-0.1,1.9-0.2
		c0.7-0.1,1.2-0.2,1.7-0.4c0.4,0.5,0.7,1,0.9,1.5c0.3,0.6,0.4,1.2,0.4,2c0,1.6-0.6,2.9-1.7,3.9c-1.2,1-3.2,1.5-6.1,1.5
		c-3.6,0-6.3-0.8-8.3-2.5c-1.9-1.7-2.9-4.4-2.9-8.2v-26.9c0.4-0.1,1.1-0.3,1.9-0.4c0.8-0.1,1.7-0.2,2.7-0.2c1.8,0,3.2,0.3,4.2,1
		c1,0.6,1.5,2,1.5,4.1v4h8c0.2,0.5,0.5,1,0.7,1.7c0.2,0.7,0.3,1.5,0.3,2.3c0,1.5-0.3,2.5-0.9,3.2c-0.6,0.6-1.5,1-2.5,1H562V182.5z
		 M508.4,161.5v8.4c-1.7,0-3,0.7-4,2c-0.9,1.4-1.4,3.3-1.4,5.8c0,2.6,0.5,4.5,1.4,5.9c0.9,1.3,2.3,2,3.9,2v8.4
		c-2.4,0-4.6-0.4-6.5-1.1c-2-0.8-3.6-1.8-5-3.2c-1.4-1.4-2.5-3.1-3.3-5.1c-0.8-2-1.2-4.3-1.2-6.8c0-2.5,0.4-4.7,1.2-6.7
		c0.8-2,1.9-3.7,3.3-5.1c1.4-1.4,3.1-2.5,5-3.2C503.8,161.9,506,161.5,508.4,161.5L508.4,161.5z M440.4,194v-7.8h0
		c0.7,0,1.5-0.1,2.3-0.2c0.8-0.1,1.5-0.3,1.9-0.6v-5l-4.2,0.4v-6.9l4.1-0.4v-0.4c0-1.2-0.5-2.1-1.6-2.6c-0.7-0.3-1.5-0.6-2.5-0.7
		v-8.1c2,0,3.9,0.3,5.5,0.7c1.8,0.5,3.4,1.2,4.6,2.1c1.3,0.9,2.3,2.1,3,3.6c0.7,1.4,1,3.2,1,5.1v14.1c0,1.1-0.3,2-0.9,2.7
		c-0.6,0.7-1.3,1.3-2.1,1.8C448.9,193.2,445.2,194,440.4,194L440.4,194L440.4,194z M478.3,173.7c0-1.3-0.4-2.3-1.1-2.9
		c-0.7-0.6-1.7-0.9-2.9-0.9c-0.8,0-1.6,0.1-2.4,0.3c-0.8,0.2-1.5,0.5-2,0.9v21.8c-0.4,0.1-1,0.3-1.9,0.4c-0.9,0.1-1.8,0.2-2.7,0.2
		c-0.9,0-1.7-0.1-2.4-0.2c-0.7-0.1-1.3-0.4-1.8-0.8c-0.5-0.4-0.9-0.9-1.1-1.5c-0.3-0.6-0.4-1.5-0.4-2.5v-18.9c0-1.1,0.2-2.1,0.7-2.8
		c0.5-0.7,1.1-1.4,1.9-1.9c1.4-1,3.1-1.8,5.2-2.5c2.1-0.6,4.4-0.9,7-0.9c4.6,0,8.1,1,10.6,3.1c2.5,2.1,3.7,5,3.7,8.6v19.7
		c-0.4,0.1-1,0.3-1.9,0.4c-0.9,0.1-1.8,0.2-2.7,0.2c-0.9,0-1.7-0.1-2.4-0.2c-0.7-0.1-1.3-0.4-1.8-0.8c-0.5-0.4-0.9-0.9-1.1-1.5
		c-0.3-0.6-0.4-1.5-0.4-2.5V173.7z M335.4,186.2c0.7,0,1.5-0.1,2.3-0.2c0.8-0.1,1.5-0.3,1.9-0.6v-5l-4.2,0.4v-6.9l4.1-0.4v-0.4
		c0-1.2-0.5-2.1-1.6-2.6c-0.7-0.3-1.5-0.6-2.5-0.7v-8.1c2,0,3.9,0.3,5.5,0.7c1.8,0.5,3.4,1.2,4.6,2.1c1.3,0.9,2.3,2.1,3,3.6
		c0.7,1.4,1,3.2,1,5.1v14.1c0,1.1-0.3,2-0.9,2.7c-0.6,0.7-1.3,1.3-2.1,1.8c-2.6,1.6-6.4,2.5-11.2,2.5V186.2L335.4,186.2z
		 M440.4,161.5v8.1c-0.6-0.1-1.2-0.1-2-0.1c-1.5,0-3.1,0.2-4.5,0.5c-1.5,0.3-2.8,0.8-4,1.3c-0.5-0.4-1-1-1.3-1.7
		c-0.4-0.8-0.5-1.6-0.5-2.4c0-1.1,0.3-2,0.8-2.6c0.5-0.6,1.3-1.2,2.4-1.7c1.2-0.5,2.6-0.8,4.2-1c1.6-0.2,3.1-0.3,4.6-0.3
		C440.1,161.5,440.3,161.5,440.4,161.5L440.4,161.5z M440.4,173.8v6.9l-0.2,0c-1.1,0.1-2.1,0.3-2.8,0.8c-0.7,0.4-1.1,1-1.1,1.9
		s0.3,1.5,0.9,2c0.6,0.5,1.7,0.8,3.2,0.8v7.8c-2.2,0-4.1-0.2-5.8-0.6c-1.7-0.4-3.2-1-4.5-1.9c-1.2-0.8-2.2-1.9-2.9-3.2
		c-0.7-1.3-1-2.8-1-4.5c0-2.9,0.8-5.1,2.5-6.7c1.7-1.5,4.3-2.5,7.8-2.9L440.4,173.8L440.4,173.8z M364.8,192.9
		c-0.4,0.1-1,0.3-1.9,0.4c-0.9,0.1-1.8,0.2-2.7,0.2c-0.9,0-1.7-0.1-2.4-0.2c-0.7-0.1-1.3-0.4-1.8-0.8c-0.5-0.4-0.9-0.9-1.1-1.5
		c-0.3-0.6-0.4-1.5-0.4-2.5v-18.9c0-1,0.2-1.8,0.5-2.5c0.3-0.7,0.8-1.3,1.5-1.9c0.7-0.5,1.5-1,2.4-1.5c1-0.4,2-0.8,3.1-1.2
		c1.1-0.3,2.2-0.6,3.4-0.8c1.2-0.2,2.4-0.3,3.5-0.3c2,0,3.5,0.4,4.6,1.2c1.1,0.8,1.7,2,1.7,3.8c0,0.6-0.1,1.2-0.2,1.7
		c-0.2,0.6-0.4,1.1-0.6,1.5c-0.9,0-1.7,0-2.6,0.1c-0.9,0.1-1.8,0.2-2.6,0.4c-0.9,0.2-1.7,0.3-2.4,0.5c-0.8,0.2-1.4,0.4-1.9,0.7
		V192.9L364.8,192.9z M391.7,161.5c1.7,0,3.3,0.2,4.9,0.7c1.6,0.5,3,1.2,4.2,2.2c1.2-0.8,2.6-1.5,4.1-2.1c1.5-0.5,3.4-0.8,5.5-0.8
		c1.5,0,3.1,0.2,4.6,0.6c1.5,0.4,2.8,1.1,4,2c1.2,0.9,2.1,2.1,2.8,3.6c0.7,1.5,1,3.3,1,5.4v19.8c-0.4,0.1-1,0.3-1.9,0.4
		c-0.9,0.1-1.8,0.2-2.7,0.2c-0.9,0-1.7-0.1-2.4-0.2c-0.7-0.1-1.3-0.4-1.8-0.8c-0.5-0.4-0.9-0.9-1.1-1.5c-0.3-0.6-0.4-1.5-0.4-2.5
		v-15c0-1.3-0.3-2.2-1-2.7c-0.7-0.6-1.6-0.8-2.8-0.8c-0.6,0-1.2,0.1-1.8,0.4c-0.7,0.3-1.1,0.6-1.5,0.8c0,0.2,0.1,0.3,0.1,0.5
		c0,0.1,0,0.3,0,0.4v20.9c-0.4,0.1-1.1,0.3-2,0.4c-0.9,0.1-1.8,0.2-2.7,0.2c-0.9,0-1.7-0.1-2.4-0.2c-0.7-0.1-1.3-0.4-1.8-0.8
		c-0.5-0.4-0.9-0.9-1.1-1.5c-0.3-0.6-0.4-1.5-0.4-2.5v-15c0-1.3-0.4-2.2-1.1-2.7c-0.8-0.6-1.7-0.8-2.7-0.8c-0.7,0-1.4,0.1-1.9,0.3
		c-0.5,0.2-1,0.5-1.3,0.7v22.1c-0.4,0.1-1,0.3-1.9,0.4c-0.9,0.1-1.8,0.2-2.7,0.2c-0.9,0-1.7-0.1-2.4-0.2c-0.7-0.1-1.3-0.4-1.8-0.8
		c-0.5-0.4-0.9-0.9-1.1-1.5c-0.3-0.6-0.4-1.5-0.4-2.5v-19c0-1.1,0.2-2,0.7-2.7c0.5-0.7,1.1-1.3,1.9-1.9c1.4-1,3.1-1.8,5.2-2.5
		C387.3,161.8,389.5,161.5,391.7,161.5z M335.4,180.7l-0.2,0c-1.1,0.1-2.1,0.3-2.8,0.8c-0.7,0.4-1.1,1-1.1,1.9s0.3,1.5,0.9,2
		c0.6,0.5,1.7,0.8,3.2,0.8v7.8c-2.2,0-4.1-0.2-5.8-0.6c-1.7-0.4-3.2-1-4.5-1.9c-1.2-0.8-2.2-1.9-2.9-3.2c-0.7-1.3-1-2.8-1-4.5
		c0-2.9,0.8-5.1,2.5-6.7c1.7-1.5,4.3-2.5,7.8-2.9l3.9-0.4V180.7L335.4,180.7z M335.4,161.5v8.1c-0.6-0.1-1.2-0.1-2-0.1
		c-1.5,0-3.1,0.2-4.5,0.5c-1.5,0.3-2.8,0.8-4,1.3c-0.5-0.4-1-1-1.3-1.7c-0.4-0.8-0.5-1.6-0.5-2.4c0-1.1,0.3-2,0.8-2.6
		c0.5-0.6,1.3-1.2,2.4-1.7c1.2-0.5,2.6-0.8,4.2-1c1.6-0.2,3.1-0.3,4.6-0.3C335,161.5,335.2,161.5,335.4,161.5z"/>
	<g>
		<path class="st0" d="M302.4,163.3c-0.2,1.3-0.1,3.7-0.1,5h15.3c0.4,0.5,0.7,1.2,0.9,2.1c0.3,0.9,0.4,1.8,0.4,2.7
			c0,1.8-0.4,3.1-1.2,3.9c-0.8,0.8-1.8,1.2-3.1,1.2h-12.2v15.2c-0.5,0.1-1.3,0.3-2.4,0.4c-1.1,0.1-2.2,0.2-3.3,0.2
			c-1.1,0-2-0.1-2.8-0.3c-0.8-0.2-1.5-0.5-2.1-0.9c-0.6-0.4-1-1-1.3-1.8c-0.3-0.8-0.4-1.8-0.4-3v-16.5
			C292.5,167.7,298.5,163.3,302.4,163.3z"/>
		<path class="st1" d="M320.1,150c0.3,0.5,0.6,1.2,0.9,2.1c0.3,0.9,0.4,1.8,0.4,2.8c0,1.9-0.4,3.2-1.2,4c-0.8,0.8-1.8,1.2-3.1,1.2
			c-10.6,0-21.2-1.4-26.8,10v-5.6c0-7.5,4.3-14.5,12.5-14.5H320.1z"/>
	</g>
	<path class="st0" d="M251.1,161.1c2,0,3.9,0.3,5.5,0.7c1.8,0.5,3.4,1.2,4.6,2.1c1.3,0.9,2.3,2.1,3,3.6c0.7,1.4,1,3.2,1,5.1v14.1
		c0,1.1-0.3,2-0.9,2.7c-0.6,0.7-1.3,1.3-2.1,1.8c-2.6,1.6-6.4,2.5-11.2,2.5v-7.8c0.7,0,1.5-0.1,2.3-0.2c0.8-0.1,1.5-0.3,1.9-0.6v-5
		l-4.2,0.4v-6.9l4.1-0.5v-0.4c0-1.2-0.5-2.1-1.6-2.6c-0.7-0.3-1.5-0.6-2.5-0.7V161.1z M250.6,161.1c0.2,0,0.3,0,0.5,0v8.1
		c-0.6-0.1-1.2-0.1-2-0.1c-1.5,0-3.1,0.2-4.5,0.5c-1.5,0.3-2.8,0.8-4,1.3c-0.5-0.4-1-1-1.3-1.7c-0.4-0.8-0.6-1.6-0.6-2.4
		c0-1.1,0.3-2,0.8-2.6c0.5-0.6,1.3-1.2,2.4-1.7c1.2-0.5,2.6-0.8,4.2-1C247.7,161.2,249.2,161.1,250.6,161.1L250.6,161.1z
		 M251.1,193.6c-2.2,0-4.1-0.2-5.8-0.6c-1.7-0.4-3.2-1-4.5-1.9s-2.2-1.9-2.9-3.2c-0.7-1.3-1-2.8-1-4.5c0-2.9,0.8-5.1,2.5-6.7
		c1.7-1.6,4.3-2.5,7.8-2.9l3.9-0.4v6.9l-0.2,0c-1.1,0.1-2.1,0.3-2.8,0.8c-0.7,0.4-1.1,1-1.1,1.9c0,0.8,0.3,1.5,0.9,2
		c0.6,0.5,1.7,0.8,3.2,0.8V193.6z"/>
	<path class="st0" d="M233.3,192.5c-0.4,0.1-1.1,0.2-2,0.3c-0.9,0.1-1.8,0.2-2.7,0.2c-0.9,0-1.7-0.1-2.4-0.2
		c-0.7-0.1-1.3-0.4-1.8-0.8c-0.5-0.4-0.9-0.9-1.1-1.5c-0.3-0.6-0.4-1.5-0.4-2.5v-25.6c0.4-0.1,1.1-0.2,2-0.3
		c0.9-0.1,1.8-0.2,2.7-0.2c0.9,0,1.7,0.1,2.4,0.2c0.7,0.1,1.3,0.4,1.8,0.8c0.5,0.4,0.9,0.9,1.1,1.5c0.3,0.7,0.4,1.5,0.4,2.5V192.5z"
		/>
	<path class="st0" d="M231.8,145.8c2.1,0,3.7,0.4,4.6,1.3c1,0.8,1.4,1.8,1.4,3c0,1.1-0.3,2-0.9,2.7c-0.6,0.7-1.5,1.5-2.8,2.2
		l-7.9,4.3c-1.2-0.1-2.3-0.6-3.1-1.5c-0.9-0.9-1.3-1.8-1.3-2.8c0-0.5,0.1-1,0.4-1.5c0.2-0.5,0.7-1,1.2-1.4L231.8,145.8z"/>
	<path class="st0" d="M209.3,192.5c-0.4,0.1-1,0.3-1.9,0.4c-0.9,0.1-1.8,0.2-2.7,0.2c-0.9,0-1.7-0.1-2.4-0.2
		c-0.7-0.1-1.3-0.4-1.8-0.8c-0.5-0.4-0.9-0.9-1.1-1.5c-0.3-0.6-0.4-1.5-0.4-2.5v-18.9c0-1,0.2-1.8,0.5-2.5c0.3-0.7,0.8-1.3,1.5-1.9
		c0.7-0.5,1.5-1,2.4-1.5c1-0.4,2-0.8,3.1-1.2c1.1-0.3,2.2-0.6,3.4-0.8c1.2-0.2,2.4-0.3,3.5-0.3c2,0,3.5,0.4,4.6,1.2
		c1.1,0.8,1.7,2,1.7,3.8c0,0.6-0.1,1.2-0.2,1.7c-0.2,0.6-0.4,1.1-0.6,1.5c-0.9,0-1.7,0-2.6,0.1c-0.9,0.1-1.8,0.2-2.6,0.4
		c-0.9,0.2-1.7,0.3-2.4,0.5c-0.8,0.2-1.4,0.4-1.9,0.7V192.5z"/>
	<path class="st0" d="M180.8,168.9c-0.2,0-0.3,0-0.5,0v-7.8c0.2,0,0.3,0,0.5,0c2.2,0,4.1,0.3,5.9,1c1.8,0.7,3.3,1.6,4.6,2.8
		c1.3,1.2,2.3,2.6,3,4.2c0.7,1.6,1.1,3.4,1.1,5.3c0,1.4-0.4,2.5-1.2,3.3c-0.8,0.8-1.9,1.2-3.2,1.4l-10.6,1.6v-7.2l5.2-0.9
		c-0.1-0.8-0.6-1.7-1.3-2.5C183.5,169.3,182.3,168.9,180.8,168.9L180.8,168.9z M180.4,193.5v-8.3c0.9,0.3,1.9,0.4,3,0.4
		c1.7,0,3.2-0.2,4.7-0.7c1.5-0.4,2.7-1,3.6-1.5c0.7,0.4,1.2,1,1.7,1.8c0.4,0.8,0.7,1.6,0.7,2.4c0,1.9-0.9,3.3-2.6,4.2
		c-1.3,0.7-2.8,1.2-4.4,1.4c-1.6,0.3-3.2,0.4-4.6,0.4C181.8,193.6,181.1,193.6,180.4,193.5z M180.4,168.9c-0.8,0-1.5,0.2-2.1,0.5
		c-0.7,0.3-1.3,0.8-1.7,1.3c-0.4,0.5-0.8,1.1-1,1.8c-0.2,0.7-0.4,1.3-0.4,2l5.2-0.9v7.2l-4.5,0.7c0.4,1.4,1.4,2.4,2.8,3.1
		c0.5,0.3,1.1,0.5,1.7,0.7v8.3c-1.6-0.1-3.1-0.5-4.5-0.9c-2.1-0.7-3.9-1.7-5.4-3.1c-1.5-1.4-2.7-3.1-3.6-5.2
		c-0.9-2.1-1.3-4.5-1.3-7.4c0-2.8,0.4-5.1,1.3-7.1c0.9-2,2-3.6,3.5-4.9c1.4-1.3,3.1-2.2,4.9-2.8c1.7-0.6,3.4-0.9,5.2-0.9V168.9z"/>
	<path class="st0" d="M132.7,162.5c0.4-0.1,1-0.3,1.9-0.4c0.9-0.1,1.8-0.2,2.7-0.2c0.9,0,1.7,0.1,2.4,0.2c0.7,0.1,1.3,0.4,1.8,0.8
		c0.5,0.4,0.9,0.9,1.1,1.5c0.3,0.7,0.4,1.5,0.4,2.5v13.5c0,1.7,0.4,2.9,1.2,3.7c0.8,0.7,2,1.1,3.5,1.1c0.9,0,1.7-0.1,2.3-0.3
		c0.6-0.2,1-0.3,1.4-0.5v-22c0.4-0.1,1-0.3,1.9-0.4c0.9-0.1,1.8-0.2,2.7-0.2c0.9,0,1.7,0.1,2.4,0.2c0.7,0.1,1.3,0.4,1.8,0.8
		c0.5,0.4,0.9,0.9,1.1,1.5c0.3,0.7,0.4,1.5,0.4,2.5v19.1c0,2.1-0.9,3.7-2.6,4.7c-1.4,0.9-3.1,1.6-5.1,2.1c-2,0.5-4.1,0.7-6.4,0.7
		c-2.2,0-4.2-0.3-6.1-0.8c-1.9-0.5-3.5-1.3-4.8-2.3c-1.3-1-2.4-2.4-3.1-4.1c-0.7-1.7-1.1-3.7-1.1-6V162.5z"/>
	<path class="st0" d="M117.8,170.2c-0.3-0.2-0.7-0.3-1.3-0.5c-0.6-0.2-1.2-0.3-2-0.3c-0.5,0-0.9,0-1.3,0.1v-8.4c0.3,0,0.6,0,0.9,0
		c2.3,0,4.4,0.3,6.3,0.9c1.9,0.6,3.5,1.4,4.8,2.4c0.8,0.6,1.5,1.2,1.9,1.9c0.5,0.7,0.7,1.6,0.7,2.8v22c0,2.2-0.4,4.1-1.2,5.8
		c-0.8,1.6-1.9,3-3.3,4c-1.4,1.1-3.1,1.9-5,2.4c-1.6,0.4-3.3,0.7-5.1,0.7v-8.5c1.1-0.2,2.1-0.5,2.9-1c1.3-0.8,2-2,2-3.6v-1
		c-1.4,0.6-3,1-4.8,1.1v-8c0.2,0,0.4,0,0.7,0c1.7,0,3-0.4,4-1.2V170.2z M113.1,169.6c-1.3,0.2-2.4,0.8-3.1,1.6
		c-1,1.2-1.5,2.8-1.5,4.9c0,2.4,0.5,4.2,1.5,5.3c0.9,0.9,1.9,1.4,3.1,1.6v8c-0.4,0-0.8,0-1.3,0c-1.8,0-3.6-0.3-5.2-0.8
		c-1.7-0.6-3.1-1.4-4.3-2.6s-2.2-2.7-3-4.6c-0.8-1.9-1.1-4.1-1.1-6.7c0-2.6,0.4-4.8,1.2-6.7c0.8-1.9,1.9-3.4,3.3-4.7
		c1.4-1.2,3.1-2.2,5-2.8c1.7-0.5,3.5-0.8,5.5-0.9V169.6L113.1,169.6z M113.1,195.4v8.5c-0.3,0-0.6,0-1,0c-3.7,0-6.6-0.5-8.7-1.5
		c-2.1-1-3.2-2.7-3.2-5c0-1,0.2-1.8,0.6-2.5c0.4-0.7,0.8-1.3,1.3-1.7c1.2,0.7,2.5,1.2,4,1.7c1.5,0.5,3,0.7,4.6,0.7
		C111.6,195.6,112.4,195.6,113.1,195.4z"/>
	<path class="st0" d="M79.8,185.2L79.8,185.2c1.8,0,3.1-0.7,4-2.1c0.9-1.4,1.4-3.3,1.4-5.8c0-2.5-0.5-4.5-1.4-5.8
		c-0.9-1.4-2.3-2-4-2v-8.4c2.4,0,4.6,0.4,6.5,1.2c2,0.8,3.6,1.9,5,3.3c1.4,1.4,2.5,3.1,3.3,5.1c0.8,2,1.2,4.2,1.2,6.7
		c0,2.6-0.4,4.9-1.2,6.9c-0.8,2-1.9,3.7-3.3,5.1c-1.4,1.4-3.1,2.4-5,3.1c-2,0.7-4.1,1.1-6.5,1.1V185.2z M74.5,177.3
		c0,2.6,0.5,4.5,1.4,5.9c0.9,1.3,2.3,2,3.9,2v8.4h0c-2.4,0-4.6-0.4-6.5-1.1c-2-0.8-3.6-1.8-5-3.2c-1.4-1.4-2.5-3.1-3.3-5.1
		c-0.8-2-1.2-4.3-1.2-6.8c0-2.5,0.4-4.7,1.2-6.7c0.8-2,1.9-3.7,3.3-5.1c1.4-1.4,3.1-2.5,5-3.2c2-0.8,4.1-1.1,6.5-1.1h0v8.4h0
		c-1.7,0-3,0.7-4,2C74.9,172.9,74.5,174.8,74.5,177.3z"/>
	<path class="st0" d="M53,192.5c-0.4,0.1-1,0.3-1.9,0.4c-0.9,0.1-1.8,0.2-2.7,0.2c-0.9,0-1.7-0.1-2.4-0.2c-0.7-0.1-1.3-0.4-1.8-0.8
		c-0.5-0.4-0.9-0.9-1.1-1.5c-0.3-0.6-0.4-1.5-0.4-2.5v-18.9c0-1,0.2-1.8,0.5-2.5c0.3-0.7,0.8-1.3,1.5-1.9c0.7-0.5,1.5-1,2.4-1.5
		c1-0.4,2-0.8,3.1-1.2c1.1-0.3,2.2-0.6,3.4-0.8c1.2-0.2,2.4-0.3,3.5-0.3c2,0,3.5,0.4,4.6,1.2c1.1,0.8,1.7,2,1.7,3.8
		c0,0.6-0.1,1.2-0.2,1.7c-0.2,0.6-0.4,1.1-0.6,1.5c-0.9,0-1.7,0-2.6,0.1c-0.9,0.1-1.8,0.2-2.6,0.4c-0.9,0.2-1.7,0.3-2.4,0.5
		c-0.8,0.2-1.4,0.4-1.9,0.7V192.5z"/>
	<path class="st0" d="M24.6,173.4c0.1-0.7,0.1-1.4,0.1-2.2c0-4-0.9-6.9-2.7-8.9c-3.5-3.9-15.3-4.2-20.6-4.5c-0.5,0-0.9,0-1.4-0.1
		l0,0v-2.9c0-0.9,0.2-1.6,0.7-2.1c0.5-0.5,1.2-0.9,2-1.2c1.8-0.6,3.8-1,5.8-1.2c2-0.2,3.9-0.3,5.5-0.3c3.3,0,6.3,0.4,9.1,1.3
		c2.7,0.8,5,2.1,7,3.9c1.9,1.7,3.4,3.9,4.5,6.6c1.1,2.6,1.6,5.8,1.6,9.4c0,3.5-0.5,6.6-1.5,9.2c-1,2.6-2.5,4.8-4.4,6.6
		c-1.9,1.8-4.2,3.1-6.8,4c-2.5,0.8-5.3,1.3-8.4,1.3c2-1.2,3.9-2.7,5.3-4.6C23.5,183.4,24.6,178.4,24.6,173.4z"/>
	<path class="st1" d="M11.1,182.5c0.5,0.1,1,0.2,1.7,0.2c0.7,0.1,1.3,0.1,1.9,0.1c1.5,0,2.8-0.2,4-0.7c1.2-0.4,2.3-1.1,3.1-2
		c0.8-0.8,1.4-1.9,1.9-3.2c-0.1,0.4-0.2,0.9-0.4,1.4c-2,7.3-9.4,14.5-17.2,12.9c-1-0.2-1.9-0.5-2.8-0.8c-2.3-0.9-3.5-2.5-3.5-4.8
		v-27.1c0.4,0,0.9,0,1.4,0.1c1,0,8.7,0.6,9.7,1V182.5z"/>
</g>
<g>
	<path class="st0" d="M127.5,213.3c0.5-0.1,1-0.1,1.5-0.1c0.5,0,1,0,1.6,0.1l0.2,11.5c-0.6,0.1-1.2,0.1-1.8,0.1
		c-0.6,0-1.2,0-1.8-0.1L127.5,213.3L127.5,213.3z M127.4,211.4c-0.1-0.6-0.1-1.1-0.1-1.7c0-0.6,0-1.1,0.1-1.7
		c0.6-0.1,1.1-0.1,1.7-0.1c0.5,0,1.1,0,1.7,0.1c0.1,0.6,0.1,1.2,0.1,1.7c0,0.6,0,1.2-0.1,1.7c-0.6,0.1-1.1,0.1-1.7,0.1
		C128.5,211.5,128,211.4,127.4,211.4L127.4,211.4z M137.1,212.2c-0.5-0.2-1-0.4-1.4-0.7c-0.4-0.2-0.8-0.5-1-0.9
		c-0.3-0.3-0.5-0.7-0.7-1.2c-0.2-0.5-0.2-1-0.2-1.7c0-0.8,0.1-1.5,0.4-2.1c0.3-0.6,0.6-1.1,1.1-1.5c0.5-0.4,1.1-0.7,1.8-0.9
		c0.7-0.2,1.5-0.3,2.3-0.3c0.8,0,1.5,0.1,2.2,0.2c0.7,0.1,1.4,0.3,2.1,0.6c-0.1,0.9-0.3,1.8-0.7,2.7c-0.2-0.1-0.5-0.2-0.7-0.3
		c-0.2-0.1-0.5-0.2-0.8-0.2c-0.3-0.1-0.6-0.1-0.9-0.2c-0.3,0-0.7-0.1-1.1-0.1c-0.3,0-0.5,0-0.8,0.1c-0.3,0-0.5,0.1-0.7,0.3
		c-0.2,0.1-0.4,0.3-0.5,0.6c-0.1,0.2-0.2,0.6-0.2,1c0,0.3,0.1,0.6,0.2,0.8c0.1,0.2,0.3,0.4,0.4,0.5c0.2,0.1,0.4,0.3,0.6,0.4
		c0.2,0.1,0.5,0.2,0.7,0.3l1.4,0.5c0.6,0.2,1.1,0.5,1.6,0.7c0.5,0.3,0.9,0.6,1.2,0.9c0.3,0.4,0.6,0.8,0.8,1.3
		c0.2,0.5,0.3,1.2,0.3,1.9c0,0.8-0.1,1.5-0.4,2.2c-0.3,0.7-0.7,1.2-1.2,1.7c-0.5,0.5-1.2,0.8-2,1.1s-1.7,0.4-2.7,0.4
		c-0.5,0-1,0-1.3,0c-0.4,0-0.8-0.1-1.1-0.2c-0.4-0.1-0.7-0.2-1.1-0.3c-0.4-0.1-0.7-0.2-1.1-0.4c0-0.5,0.1-0.9,0.3-1.4
		c0.1-0.5,0.3-1,0.4-1.5c0.6,0.3,1.2,0.5,1.8,0.6c0.6,0.1,1.2,0.2,1.8,0.2c1,0,1.7-0.2,2.3-0.6c0.5-0.4,0.8-0.9,0.8-1.7
		c0-0.4-0.1-0.7-0.2-0.9c-0.1-0.3-0.3-0.5-0.5-0.6c-0.2-0.2-0.4-0.3-0.7-0.4c-0.3-0.1-0.5-0.2-0.8-0.3L137.1,212.2L137.1,212.2z
		 M146.4,207.9c0.5-0.1,1.1-0.1,1.6-0.1c0.5,0,1.1,0,1.6,0.1v6.4c0,0.6,0,1.2,0.1,1.6c0.1,0.4,0.3,0.7,0.5,1
		c0.2,0.2,0.5,0.4,0.8,0.5c0.3,0.1,0.7,0.2,1.1,0.2c0.6,0,1-0.1,1.4-0.2v-9.5c0.5-0.1,1.1-0.1,1.6-0.1c0.5,0,1.1,0,1.6,0.1v11.7
		c-0.5,0.2-1.1,0.3-1.9,0.5c-0.8,0.2-1.6,0.2-2.5,0.2c-0.8,0-1.5-0.1-2.2-0.2c-0.7-0.1-1.3-0.4-1.9-0.8c-0.5-0.4-1-1-1.3-1.8
		c-0.3-0.8-0.5-1.8-0.5-3.1V207.9L146.4,207.9z M167.7,212.2c-0.5-0.2-1-0.4-1.4-0.7c-0.4-0.2-0.8-0.5-1-0.9
		c-0.3-0.3-0.5-0.7-0.7-1.2c-0.2-0.5-0.2-1-0.2-1.7c0-0.8,0.1-1.5,0.4-2.1c0.3-0.6,0.6-1.1,1.1-1.5c0.5-0.4,1.1-0.7,1.8-0.9
		c0.7-0.2,1.5-0.3,2.3-0.3c0.8,0,1.5,0.1,2.2,0.2c0.7,0.1,1.4,0.3,2.1,0.6c-0.1,0.9-0.3,1.8-0.7,2.7c-0.2-0.1-0.5-0.2-0.7-0.3
		c-0.2-0.1-0.5-0.2-0.8-0.2c-0.3-0.1-0.6-0.1-0.9-0.2c-0.3,0-0.7-0.1-1.1-0.1c-0.3,0-0.5,0-0.8,0.1c-0.3,0-0.5,0.1-0.7,0.3
		c-0.2,0.1-0.4,0.3-0.5,0.6c-0.1,0.2-0.2,0.6-0.2,1c0,0.3,0.1,0.6,0.2,0.8c0.1,0.2,0.3,0.4,0.4,0.5c0.2,0.1,0.4,0.3,0.6,0.4
		c0.2,0.1,0.5,0.2,0.7,0.3l1.4,0.5c0.6,0.2,1.1,0.5,1.6,0.7c0.5,0.3,0.9,0.6,1.2,0.9c0.3,0.4,0.6,0.8,0.8,1.3
		c0.2,0.5,0.3,1.2,0.3,1.9c0,0.8-0.1,1.5-0.4,2.2c-0.3,0.7-0.7,1.2-1.2,1.7c-0.5,0.5-1.2,0.8-2,1.1c-0.8,0.3-1.7,0.4-2.7,0.4
		c-0.5,0-1,0-1.3,0c-0.4,0-0.8-0.1-1.1-0.2c-0.4-0.1-0.7-0.2-1.1-0.3c-0.4-0.1-0.7-0.2-1.1-0.4c0-0.5,0.1-0.9,0.3-1.4
		c0.1-0.5,0.3-1,0.4-1.5c0.6,0.3,1.2,0.5,1.8,0.6c0.6,0.1,1.2,0.2,1.8,0.2c1,0,1.7-0.2,2.3-0.6c0.5-0.4,0.8-0.9,0.8-1.7
		c0-0.4-0.1-0.7-0.2-0.9c-0.1-0.3-0.3-0.5-0.5-0.6c-0.2-0.2-0.4-0.3-0.7-0.4c-0.3-0.1-0.5-0.2-0.8-0.3L167.7,212.2L167.7,212.2z
		 M183.1,214.5c-0.2,0-0.4-0.1-0.6-0.1c-0.2,0-0.4,0-0.6,0c-0.7,0-1.3,0.1-1.8,0.4c-0.4,0.3-0.6,0.7-0.6,1.3c0,0.4,0.1,0.7,0.3,0.9
		c0.2,0.2,0.4,0.4,0.6,0.5c0.2,0.1,0.5,0.2,0.8,0.2c0.3,0,0.5,0,0.7,0c0.2,0,0.5,0,0.7-0.1c0.2,0,0.4-0.1,0.6-0.1V214.5L183.1,214.5
		z M183.1,212.1c0-0.4-0.1-0.7-0.2-0.9c-0.1-0.2-0.3-0.4-0.5-0.6c-0.2-0.1-0.5-0.2-0.8-0.3c-0.3,0-0.7-0.1-1-0.1
		c-0.8,0-1.7,0.2-2.6,0.5c-0.2-0.4-0.4-0.8-0.5-1.1c-0.1-0.4-0.2-0.8-0.2-1.3c0.7-0.2,1.3-0.4,2-0.5c0.7-0.1,1.3-0.2,1.9-0.2
		c1.6,0,2.8,0.4,3.7,1.2c0.9,0.8,1.3,2,1.3,3.8v7c-0.5,0.2-1.2,0.3-1.9,0.5c-0.8,0.2-1.6,0.2-2.6,0.2c-0.8,0-1.5-0.1-2.1-0.2
		c-0.6-0.1-1.2-0.4-1.7-0.7c-0.5-0.3-0.8-0.8-1.1-1.3c-0.3-0.5-0.4-1.2-0.4-1.9s0.2-1.4,0.5-1.9c0.3-0.5,0.7-0.9,1.2-1.2
		c0.5-0.3,1-0.5,1.7-0.7c0.6-0.1,1.2-0.2,1.8-0.2c0.4,0,0.9,0,1.5,0.1V212.1L183.1,212.1z M189,202.9c0.5-0.1,1.1-0.1,1.6-0.1
		c0.5,0,1,0,1.6,0.1v12.3c0,0.5,0,0.9,0.1,1.2c0.1,0.3,0.1,0.5,0.3,0.7c0.1,0.2,0.3,0.3,0.4,0.3c0.2,0.1,0.4,0.1,0.7,0.1
		c0.1,0,0.3,0,0.4,0c0.1,0,0.3,0,0.4-0.1c0.2,0.6,0.3,1.3,0.3,1.9c0,0.1,0,0.2,0,0.3c0,0.1,0,0.2,0,0.3c-0.2,0.1-0.5,0.1-0.9,0.2
		c-0.3,0-0.7,0-0.9,0c-1.2,0-2.1-0.3-2.8-1c-0.7-0.7-1.1-1.7-1.1-3.2V202.9L189,202.9z M196.3,207.9c0.5-0.1,1.1-0.1,1.6-0.1
		c0.5,0,1.1,0,1.6,0.1v6.4c0,0.6,0,1.2,0.1,1.6c0.1,0.4,0.3,0.7,0.5,1c0.2,0.2,0.5,0.4,0.8,0.5c0.3,0.1,0.7,0.2,1.1,0.2
		c0.6,0,1-0.1,1.4-0.2v-9.5c0.5-0.1,1.1-0.1,1.6-0.1c0.5,0,1.1,0,1.6,0.1v11.7c-0.5,0.2-1.1,0.3-1.9,0.5c-0.8,0.2-1.6,0.2-2.5,0.2
		c-0.8,0-1.5-0.1-2.2-0.2c-0.7-0.1-1.3-0.4-1.9-0.8c-0.5-0.4-1-1-1.3-1.8c-0.3-0.8-0.5-1.8-0.5-3.1V207.9L196.3,207.9z M216.6,202.9
		c0.3,0,0.5-0.1,0.8-0.1c0.3,0,0.5,0,0.8,0c0.3,0,0.5,0,0.8,0c0.3,0,0.5,0,0.8,0.1v16.8c-0.7,0.2-1.4,0.4-2.2,0.5
		c-0.7,0.1-1.6,0.2-2.7,0.2c-0.8,0-1.6-0.1-2.3-0.3c-0.7-0.2-1.4-0.6-1.9-1.1c-0.6-0.5-1-1.1-1.3-1.9c-0.3-0.8-0.5-1.7-0.5-2.9
		c0-0.9,0.1-1.7,0.4-2.5c0.3-0.8,0.7-1.5,1.2-2.1c0.5-0.6,1.2-1,1.9-1.4c0.7-0.3,1.6-0.5,2.5-0.5c0.3,0,0.6,0,0.9,0
		c0.3,0,0.6,0.1,0.9,0.2V202.9L216.6,202.9z M216.6,210.4c-0.3-0.1-0.6-0.1-0.7-0.2c-0.2,0-0.4,0-0.7,0c-0.5,0-0.9,0.1-1.3,0.3
		c-0.4,0.2-0.7,0.5-0.9,0.8c-0.2,0.4-0.4,0.8-0.5,1.2c-0.1,0.5-0.2,1-0.2,1.5c0,0.6,0.1,1.2,0.2,1.6c0.2,0.4,0.4,0.8,0.6,1.1
		c0.3,0.3,0.6,0.5,0.9,0.6c0.4,0.1,0.8,0.2,1.2,0.2c0.3,0,0.5,0,0.7,0c0.2,0,0.4-0.1,0.7-0.2V210.4L216.6,210.4z M230.6,215
		c0.1,0.9,0.4,1.6,1,2c0.6,0.4,1.3,0.6,2.3,0.6c0.5,0,1-0.1,1.6-0.2c0.5-0.1,1.1-0.2,1.5-0.4c0.2,0.3,0.3,0.7,0.4,1.1
		c0.1,0.4,0.2,0.9,0.2,1.4c-1.2,0.5-2.5,0.7-4,0.7c-1.1,0-2-0.2-2.8-0.5c-0.8-0.3-1.4-0.7-1.9-1.3c-0.5-0.6-0.9-1.2-1.1-2
		c-0.2-0.8-0.4-1.6-0.4-2.5c0-0.9,0.1-1.7,0.4-2.5c0.2-0.8,0.6-1.5,1.1-2c0.5-0.6,1.1-1,1.8-1.4c0.7-0.3,1.5-0.5,2.5-0.5
		c0.8,0,1.6,0.1,2.2,0.4c0.6,0.3,1.2,0.7,1.6,1.2c0.4,0.5,0.8,1.1,1,1.8c0.2,0.7,0.3,1.5,0.3,2.3c0,0.3,0,0.6,0,0.9
		c0,0.3,0,0.5-0.1,0.7H230.6L230.6,215z M235.2,212.7c0-0.8-0.2-1.4-0.6-1.8c-0.4-0.5-0.9-0.7-1.6-0.7c-0.8,0-1.3,0.2-1.7,0.7
		c-0.4,0.4-0.6,1.1-0.7,1.9H235.2L235.2,212.7z M243.1,214.8c-0.9-0.3-1.5-0.6-2-1.1c-0.5-0.5-0.7-1.2-0.7-2.2
		c0-1.2,0.4-2.1,1.2-2.8c0.8-0.7,2-1,3.4-1c0.6,0,1.2,0.1,1.8,0.2c0.6,0.1,1.2,0.3,1.8,0.5c0,0.4-0.1,0.8-0.2,1.3
		c-0.1,0.4-0.3,0.8-0.4,1.1c-0.4-0.2-0.8-0.3-1.2-0.4c-0.4-0.1-0.9-0.2-1.4-0.2c-0.5,0-0.9,0.1-1.2,0.2c-0.3,0.2-0.4,0.4-0.4,0.8
		c0,0.3,0.1,0.6,0.3,0.7c0.2,0.1,0.5,0.3,0.9,0.4l1.3,0.4c0.4,0.1,0.8,0.3,1.2,0.5c0.3,0.2,0.6,0.4,0.9,0.7c0.2,0.3,0.4,0.6,0.6,1
		c0.1,0.4,0.2,0.9,0.2,1.4c0,0.6-0.1,1.1-0.4,1.6c-0.2,0.5-0.6,0.9-1,1.3c-0.4,0.4-1,0.7-1.6,0.9c-0.6,0.2-1.4,0.3-2.2,0.3
		c-0.4,0-0.7,0-1,0c-0.3,0-0.6-0.1-0.9-0.1c-0.3-0.1-0.6-0.1-0.8-0.2c-0.3-0.1-0.6-0.2-0.9-0.3c0-0.4,0.1-0.8,0.2-1.3
		c0.1-0.4,0.3-0.8,0.4-1.3c0.5,0.2,1,0.4,1.4,0.5c0.4,0.1,0.9,0.2,1.4,0.2c0.2,0,0.4,0,0.7-0.1c0.3,0,0.5-0.1,0.7-0.2
		c0.2-0.1,0.4-0.2,0.5-0.4c0.1-0.2,0.2-0.4,0.2-0.6c0-0.4-0.1-0.6-0.3-0.8c-0.2-0.2-0.5-0.3-0.9-0.4L243.1,214.8L243.1,214.8z
		 M256.3,207.9c0.2,0,0.4-0.1,0.6-0.1c0.2,0,0.4,0,0.7,0c0.3,0,0.5,0,0.7,0c0.2,0,0.4,0.1,0.6,0.1c0,0.1,0.1,0.2,0.1,0.3
		c0,0.1,0.1,0.3,0.1,0.5c0,0.2,0.1,0.3,0.1,0.5c0,0.2,0,0.3,0.1,0.4c0.2-0.2,0.3-0.5,0.5-0.7c0.2-0.2,0.5-0.4,0.7-0.6
		c0.3-0.2,0.6-0.3,0.9-0.5c0.3-0.1,0.7-0.2,1.2-0.2c1.3,0,2.3,0.4,3,1.1c0.7,0.8,1,1.9,1,3.5v7.7c-0.5,0.1-1.1,0.1-1.6,0.1
		c-0.5,0-1.1,0-1.6-0.1v-6.9c0-0.8-0.1-1.5-0.4-1.9c-0.3-0.5-0.7-0.7-1.3-0.7c-0.3,0-0.5,0-0.8,0.1c-0.3,0.1-0.5,0.2-0.7,0.5
		c-0.2,0.2-0.4,0.5-0.5,1c-0.1,0.4-0.2,0.9-0.2,1.6v6.4c-0.5,0.1-1.1,0.1-1.6,0.1c-0.5,0-1.1,0-1.6-0.1V207.9L256.3,207.9z
		 M269.5,207.9c0.5-0.1,1.1-0.1,1.6-0.1c0.5,0,1.1,0,1.6,0.1v6.4c0,0.6,0,1.2,0.1,1.6c0.1,0.4,0.3,0.7,0.5,1
		c0.2,0.2,0.5,0.4,0.8,0.5c0.3,0.1,0.7,0.2,1.1,0.2c0.6,0,1-0.1,1.4-0.2v-9.5c0.5-0.1,1.1-0.1,1.6-0.1c0.5,0,1.1,0,1.6,0.1v11.7
		c-0.5,0.2-1.1,0.3-1.9,0.5c-0.8,0.2-1.6,0.2-2.5,0.2c-0.8,0-1.5-0.1-2.2-0.2c-0.7-0.1-1.3-0.4-1.9-0.8c-0.5-0.4-1-1-1.3-1.8
		c-0.3-0.8-0.5-1.8-0.5-3.1V207.9L269.5,207.9z M285.3,215c0.1,0.9,0.4,1.6,1,2c0.6,0.4,1.3,0.6,2.3,0.6c0.5,0,1-0.1,1.6-0.2
		c0.5-0.1,1.1-0.2,1.5-0.4c0.2,0.3,0.3,0.7,0.4,1.1c0.1,0.4,0.2,0.9,0.2,1.4c-1.2,0.5-2.5,0.7-4,0.7c-1.1,0-2-0.2-2.8-0.5
		c-0.8-0.3-1.4-0.7-1.9-1.3c-0.5-0.6-0.9-1.2-1.1-2c-0.2-0.8-0.4-1.6-0.4-2.5c0-0.9,0.1-1.7,0.4-2.5c0.2-0.8,0.6-1.5,1.1-2
		c0.5-0.6,1.1-1,1.8-1.4c0.7-0.3,1.5-0.5,2.5-0.5c0.8,0,1.6,0.1,2.2,0.4c0.6,0.3,1.2,0.7,1.6,1.2c0.4,0.5,0.8,1.1,1,1.8
		c0.2,0.7,0.3,1.5,0.3,2.3c0,0.3,0,0.6,0,0.9c0,0.3,0,0.5-0.1,0.7H285.3L285.3,215z M290,212.7c0-0.8-0.2-1.4-0.6-1.8
		c-0.4-0.5-0.9-0.7-1.6-0.7c-0.8,0-1.3,0.2-1.7,0.7c-0.4,0.4-0.6,1.1-0.7,1.9H290L290,212.7z M297.8,214.8c-0.9-0.3-1.5-0.6-2-1.1
		c-0.5-0.5-0.7-1.2-0.7-2.2c0-1.2,0.4-2.1,1.2-2.8c0.8-0.7,2-1,3.4-1c0.6,0,1.2,0.1,1.8,0.2c0.6,0.1,1.2,0.3,1.8,0.5
		c0,0.4-0.1,0.8-0.2,1.3c-0.1,0.4-0.3,0.8-0.4,1.1c-0.4-0.2-0.8-0.3-1.2-0.4c-0.4-0.1-0.9-0.2-1.4-0.2c-0.5,0-0.9,0.1-1.2,0.2
		c-0.3,0.2-0.4,0.4-0.4,0.8c0,0.3,0.1,0.6,0.3,0.7c0.2,0.1,0.5,0.3,0.9,0.4l1.3,0.4c0.4,0.1,0.8,0.3,1.2,0.5
		c0.3,0.2,0.6,0.4,0.9,0.7c0.2,0.3,0.4,0.6,0.6,1c0.1,0.4,0.2,0.9,0.2,1.4c0,0.6-0.1,1.1-0.4,1.6c-0.2,0.5-0.6,0.9-1,1.3
		c-0.4,0.4-1,0.7-1.6,0.9c-0.6,0.2-1.4,0.3-2.2,0.3c-0.4,0-0.7,0-1,0c-0.3,0-0.6-0.1-0.9-0.1c-0.3-0.1-0.6-0.1-0.8-0.2
		c-0.3-0.1-0.6-0.2-0.9-0.3c0-0.4,0.1-0.8,0.2-1.3c0.1-0.4,0.3-0.8,0.4-1.3c0.5,0.2,1,0.4,1.4,0.5c0.4,0.1,0.9,0.2,1.4,0.2
		c0.2,0,0.4,0,0.7-0.1c0.3,0,0.5-0.1,0.7-0.2c0.2-0.1,0.4-0.2,0.5-0.4c0.1-0.2,0.2-0.4,0.2-0.6c0-0.4-0.1-0.6-0.3-0.8
		c-0.2-0.2-0.5-0.3-0.9-0.4L297.8,214.8L297.8,214.8z M306.4,210.4h-1.5l-0.1-0.5l4.3-5.6h0.5v3.5h2.8c0,0.2,0.1,0.4,0.1,0.6
		c0,0.2,0,0.4,0,0.6c0,0.2,0,0.4,0,0.6c0,0.2,0,0.4-0.1,0.7h-2.8v4.8c0,0.5,0,0.9,0.1,1.2c0.1,0.3,0.2,0.5,0.3,0.7
		c0.1,0.2,0.3,0.3,0.5,0.4c0.2,0.1,0.5,0.1,0.8,0.1c0.2,0,0.5,0,0.7-0.1c0.2,0,0.4-0.1,0.6-0.1c0.1,0.3,0.2,0.6,0.2,0.9
		c0,0.3,0.1,0.6,0.1,0.9c0,0.2,0,0.3,0,0.4c0,0.1,0,0.2,0,0.3c-0.7,0.2-1.4,0.3-2.2,0.3c-1.4,0-2.4-0.3-3.2-1
		c-0.7-0.7-1.1-1.7-1.1-3.2V210.4L306.4,210.4z M314.8,207.9c0.2,0,0.4-0.1,0.7-0.1c0.2,0,0.4,0,0.7,0c0.2,0,0.5,0,0.7,0
		c0.2,0,0.4,0.1,0.6,0.1c0,0.1,0.1,0.2,0.1,0.3c0,0.1,0.1,0.3,0.1,0.5c0,0.2,0.1,0.3,0.1,0.5c0,0.2,0,0.3,0.1,0.4
		c0.3-0.5,0.7-0.9,1.2-1.3c0.5-0.4,1.1-0.6,1.8-0.6c0.2,0,0.3,0,0.5,0c0.2,0,0.3,0,0.4,0.1c0,0.2,0.1,0.3,0.1,0.5c0,0.2,0,0.4,0,0.6
		c0,0.3,0,0.6,0,0.9c0,0.3-0.1,0.6-0.1,0.9c-0.2,0-0.4,0-0.6,0c-0.2,0-0.3,0-0.4,0c-0.3,0-0.5,0-0.9,0.1c-0.3,0.1-0.6,0.2-0.9,0.4
		c-0.3,0.2-0.5,0.6-0.7,1.1c-0.2,0.5-0.3,1.1-0.3,2v5.8c-0.3,0-0.5,0.1-0.8,0.1c-0.3,0-0.5,0-0.8,0c-0.3,0-0.5,0-0.8,0
		c-0.3,0-0.5,0-0.8-0.1V207.9L314.8,207.9z M328.6,220.3c-1,0-1.8-0.2-2.5-0.5c-0.7-0.3-1.3-0.8-1.8-1.3c-0.5-0.6-0.8-1.2-1-2
		c-0.2-0.8-0.4-1.6-0.4-2.5c0-0.9,0.1-1.7,0.4-2.5c0.2-0.8,0.6-1.5,1-2c0.5-0.6,1-1,1.8-1.3c0.7-0.3,1.5-0.5,2.5-0.5
		c1,0,1.8,0.2,2.5,0.5c0.7,0.3,1.3,0.8,1.8,1.3c0.5,0.6,0.8,1.2,1,2c0.2,0.8,0.3,1.6,0.3,2.5c0,0.9-0.1,1.7-0.3,2.5
		c-0.2,0.8-0.6,1.4-1,2c-0.5,0.6-1.1,1-1.8,1.3C330.4,220.2,329.6,220.3,328.6,220.3L328.6,220.3z M328.6,217.8c0.9,0,1.5-0.3,1.8-1
		c0.4-0.6,0.6-1.6,0.6-2.8c0-1.2-0.2-2.2-0.6-2.8c-0.4-0.6-1-1-1.8-1c-0.8,0-1.4,0.3-1.8,1c-0.4,0.6-0.6,1.6-0.6,2.8
		c0,1.2,0.2,2.2,0.6,2.8C327.2,217.5,327.8,217.8,328.6,217.8L328.6,217.8z M349.8,217.2c0.2,0.3,0.3,0.7,0.5,1.1
		c0.1,0.4,0.2,0.9,0.2,1.5c-0.6,0.3-1.2,0.4-1.7,0.5c-0.5,0.1-1.1,0.1-1.7,0.1c-1,0-1.8-0.2-2.6-0.5c-0.7-0.3-1.3-0.8-1.8-1.3
		c-0.5-0.6-0.8-1.2-1.1-2c-0.2-0.8-0.4-1.6-0.4-2.5c0-0.9,0.1-1.7,0.4-2.5c0.2-0.8,0.6-1.4,1.1-2c0.5-0.6,1.1-1,1.8-1.4
		c0.7-0.3,1.5-0.5,2.5-0.5c0.3,0,0.6,0,0.9,0c0.3,0,0.6,0,0.8,0.1c0.3,0,0.5,0.1,0.8,0.2c0.3,0.1,0.5,0.2,0.9,0.3
		c0,0.4,0,0.8-0.1,1.2c-0.1,0.4-0.2,0.9-0.4,1.3c-0.5-0.2-0.9-0.3-1.2-0.3c-0.3-0.1-0.7-0.1-1.2-0.1c-0.9,0-1.7,0.3-2.1,0.9
		c-0.5,0.6-0.7,1.5-0.7,2.7c0,1.3,0.3,2.2,0.8,2.8c0.5,0.6,1.2,0.9,2.1,0.9c0.2,0,0.4,0,0.6,0c0.2,0,0.4,0,0.6-0.1
		c0.2,0,0.4-0.1,0.6-0.1C349.3,217.3,349.5,217.3,349.8,217.2L349.8,217.2z M357.3,220.3c-1,0-1.8-0.2-2.5-0.5
		c-0.7-0.3-1.3-0.8-1.8-1.3c-0.5-0.6-0.8-1.2-1-2c-0.2-0.8-0.4-1.6-0.4-2.5c0-0.9,0.1-1.7,0.4-2.5c0.2-0.8,0.6-1.5,1-2
		c0.5-0.6,1-1,1.8-1.3c0.7-0.3,1.5-0.5,2.5-0.5c1,0,1.8,0.2,2.5,0.5c0.7,0.3,1.3,0.8,1.8,1.3c0.5,0.6,0.8,1.2,1,2
		c0.2,0.8,0.3,1.6,0.3,2.5c0,0.9-0.1,1.7-0.3,2.5c-0.2,0.8-0.6,1.4-1,2c-0.5,0.6-1.1,1-1.8,1.3C359.1,220.2,358.3,220.3,357.3,220.3
		L357.3,220.3z M357.3,217.8c0.9,0,1.5-0.3,1.8-1c0.4-0.6,0.6-1.6,0.6-2.8c0-1.2-0.2-2.2-0.6-2.8c-0.4-0.6-1-1-1.8-1
		c-0.8,0-1.4,0.3-1.8,1c-0.4,0.6-0.6,1.6-0.6,2.8c0,1.2,0.2,2.2,0.6,2.8C355.9,217.5,356.5,217.8,357.3,217.8z"/>
	<path class="st0" d="M365.6,207.9c0.2,0,0.4-0.1,0.6-0.1c0.2,0,0.4,0,0.7,0c0.3,0,0.5,0,0.7,0c0.2,0,0.4,0.1,0.6,0.1
		c0,0.1,0.1,0.2,0.1,0.3c0,0.1,0.1,0.3,0.1,0.5c0,0.2,0.1,0.3,0.1,0.5c0,0.2,0,0.3,0.1,0.4c0.1-0.2,0.3-0.5,0.5-0.7
		c0.2-0.2,0.4-0.4,0.7-0.6c0.3-0.2,0.6-0.3,0.9-0.5c0.3-0.1,0.7-0.2,1.2-0.2c1.8,0,3,0.7,3.5,2.2c0.3-0.6,0.7-1.1,1.3-1.5
		c0.6-0.4,1.3-0.6,2.1-0.6c1.3,0,2.3,0.4,3,1.1c0.6,0.8,0.9,1.9,0.9,3.6v7.7c-0.5,0.1-1.1,0.1-1.6,0.1c-0.5,0-1.1,0-1.6-0.1v-6.9
		c0-0.8-0.1-1.5-0.3-1.9c-0.2-0.5-0.6-0.7-1.2-0.7c-0.3,0-0.5,0-0.8,0.1c-0.3,0.1-0.5,0.2-0.7,0.4c-0.2,0.2-0.4,0.5-0.5,0.9
		c-0.1,0.4-0.2,0.9-0.2,1.5v6.5c-0.5,0.1-1.1,0.1-1.6,0.1c-0.5,0-1.1,0-1.6-0.1v-6.9c0-0.8-0.1-1.5-0.3-1.9
		c-0.2-0.5-0.6-0.7-1.2-0.7c-0.3,0-0.5,0-0.8,0.1c-0.3,0.1-0.5,0.2-0.7,0.5c-0.2,0.2-0.4,0.5-0.5,1c-0.1,0.4-0.2,0.9-0.2,1.6v6.4
		c-0.5,0.1-1.1,0.1-1.6,0.1c-0.5,0-1.1,0-1.6-0.1V207.9L365.6,207.9z M385.6,207.9c0.2,0,0.4-0.1,0.6-0.1c0.2,0,0.4,0,0.7,0
		c0.4,0,0.9,0,1.3,0.1c0,0.1,0.1,0.2,0.1,0.3c0,0.1,0.1,0.3,0.1,0.5c0,0.2,0.1,0.3,0.1,0.5c0,0.2,0,0.3,0.1,0.4
		c0.1-0.3,0.3-0.5,0.5-0.7c0.2-0.2,0.4-0.5,0.7-0.6c0.3-0.2,0.6-0.3,0.9-0.5c0.3-0.1,0.7-0.2,1.2-0.2c0.7,0,1.3,0.1,1.8,0.4
		c0.6,0.3,1.1,0.6,1.5,1.1c0.4,0.5,0.8,1.1,1,1.9c0.2,0.8,0.4,1.7,0.4,2.7c0,1-0.1,1.9-0.4,2.7c-0.3,0.8-0.7,1.5-1.3,2.1
		c-0.5,0.6-1.2,1-2,1.3c-0.8,0.3-1.7,0.5-2.7,0.5c-0.3,0-0.5,0-0.8,0c-0.3,0-0.5-0.1-0.6-0.1v5.4c-0.3,0-0.6,0.1-0.8,0.1
		c-0.3,0-0.5,0-0.8,0c-0.3,0-0.5,0-0.8,0c-0.3,0-0.5,0-0.8-0.1V207.9L385.6,207.9z M388.8,217.5c0.4,0.1,0.9,0.2,1.4,0.2
		c0.9,0,1.7-0.3,2.2-0.9c0.5-0.6,0.8-1.6,0.8-2.8c0-0.5,0-0.9-0.1-1.3c-0.1-0.4-0.2-0.8-0.4-1.1c-0.2-0.3-0.4-0.5-0.7-0.7
		c-0.3-0.2-0.6-0.3-1-0.3c-0.4,0-0.7,0.1-1,0.2c-0.3,0.1-0.5,0.4-0.6,0.6c-0.2,0.3-0.3,0.6-0.4,0.9c-0.1,0.3-0.1,0.7-0.1,1.1V217.5
		L388.8,217.5z M399.1,207.9c0.2,0,0.4-0.1,0.7-0.1c0.2,0,0.4,0,0.7,0c0.2,0,0.5,0,0.7,0c0.2,0,0.4,0.1,0.6,0.1
		c0,0.1,0.1,0.2,0.1,0.3c0,0.1,0.1,0.3,0.1,0.5c0,0.2,0.1,0.3,0.1,0.5c0,0.2,0,0.3,0.1,0.4c0.3-0.5,0.7-0.9,1.2-1.3
		c0.5-0.4,1.1-0.6,1.8-0.6c0.2,0,0.3,0,0.5,0c0.2,0,0.3,0,0.4,0.1c0,0.2,0.1,0.3,0.1,0.5c0,0.2,0,0.4,0,0.6c0,0.3,0,0.6,0,0.9
		c0,0.3-0.1,0.6-0.1,0.9c-0.2,0-0.4,0-0.6,0c-0.2,0-0.3,0-0.4,0c-0.3,0-0.5,0-0.9,0.1c-0.3,0.1-0.6,0.2-0.9,0.4
		c-0.3,0.2-0.5,0.6-0.7,1.1c-0.2,0.5-0.3,1.1-0.3,2v5.8c-0.3,0-0.5,0.1-0.8,0.1c-0.3,0-0.5,0-0.8,0c-0.3,0-0.5,0-0.8,0
		c-0.3,0-0.5,0-0.8-0.1V207.9L399.1,207.9z M412.9,220.3c-1,0-1.8-0.2-2.5-0.5c-0.7-0.3-1.3-0.8-1.8-1.3c-0.5-0.6-0.8-1.2-1-2
		c-0.2-0.8-0.4-1.6-0.4-2.5c0-0.9,0.1-1.7,0.4-2.5c0.2-0.8,0.6-1.5,1-2c0.5-0.6,1-1,1.8-1.3c0.7-0.3,1.5-0.5,2.5-0.5
		c1,0,1.8,0.2,2.5,0.5c0.7,0.3,1.3,0.8,1.8,1.3c0.5,0.6,0.8,1.2,1,2c0.2,0.8,0.3,1.6,0.3,2.5c0,0.9-0.1,1.7-0.3,2.5
		c-0.2,0.8-0.6,1.4-1,2c-0.5,0.6-1.1,1-1.8,1.3C414.7,220.2,413.9,220.3,412.9,220.3L412.9,220.3z M412.9,217.8c0.9,0,1.5-0.3,1.8-1
		c0.4-0.6,0.6-1.6,0.6-2.8c0-1.2-0.2-2.2-0.6-2.8c-0.4-0.6-1-1-1.8-1c-0.8,0-1.4,0.3-1.8,1c-0.4,0.6-0.6,1.6-0.6,2.8
		c0,1.2,0.2,2.2,0.6,2.8C411.5,217.5,412.1,217.8,412.9,217.8L412.9,217.8z M421.2,207.9c0.2,0,0.4-0.1,0.6-0.1c0.2,0,0.4,0,0.7,0
		c0.3,0,0.5,0,0.7,0c0.2,0,0.4,0.1,0.6,0.1c0,0.1,0.1,0.2,0.1,0.3c0,0.1,0.1,0.3,0.1,0.5c0,0.2,0.1,0.3,0.1,0.5c0,0.2,0,0.3,0.1,0.4
		c0.1-0.2,0.3-0.5,0.5-0.7c0.2-0.2,0.4-0.4,0.7-0.6c0.3-0.2,0.6-0.3,0.9-0.5c0.3-0.1,0.7-0.2,1.2-0.2c1.8,0,3,0.7,3.5,2.2
		c0.3-0.6,0.7-1.1,1.3-1.5c0.6-0.4,1.3-0.6,2.1-0.6c1.3,0,2.3,0.4,3,1.1c0.6,0.8,0.9,1.9,0.9,3.6v7.7c-0.5,0.1-1.1,0.1-1.6,0.1
		s-1.1,0-1.6-0.1v-6.9c0-0.8-0.1-1.5-0.3-1.9c-0.2-0.5-0.6-0.7-1.2-0.7c-0.3,0-0.5,0-0.8,0.1c-0.3,0.1-0.5,0.2-0.7,0.4
		c-0.2,0.2-0.4,0.5-0.5,0.9c-0.1,0.4-0.2,0.9-0.2,1.5v6.5c-0.5,0.1-1.1,0.1-1.6,0.1c-0.5,0-1.1,0-1.6-0.1v-6.9
		c0-0.8-0.1-1.5-0.3-1.9c-0.2-0.5-0.6-0.7-1.2-0.7c-0.3,0-0.5,0-0.8,0.1c-0.3,0.1-0.5,0.2-0.7,0.5c-0.2,0.2-0.4,0.5-0.5,1
		c-0.1,0.4-0.2,0.9-0.2,1.6v6.4c-0.5,0.1-1.1,0.1-1.6,0.1c-0.5,0-1.1,0-1.6-0.1V207.9L421.2,207.9z M441.8,210.4h-1.5
		c0-0.2-0.1-0.4-0.1-0.6c0-0.2,0-0.4,0-0.6c0-0.4,0-0.8,0.1-1.2h4.7V220c-0.5,0.1-1.1,0.1-1.6,0.1c-0.5,0-1,0-1.6-0.1V210.4
		L441.8,210.4z M441.4,205.9c-0.1-0.5-0.1-1.1-0.1-1.6c0-0.5,0-1,0.1-1.6c0.3,0,0.5-0.1,0.8-0.1c0.3,0,0.6,0,0.8,0
		c0.3,0,0.5,0,0.8,0c0.3,0,0.6,0.1,0.8,0.1c0,0.3,0.1,0.5,0.1,0.8c0,0.3,0,0.5,0,0.8c0,0.3,0,0.5,0,0.8c0,0.3,0,0.5-0.1,0.8
		c-0.3,0-0.5,0.1-0.8,0.1c-0.3,0-0.6,0-0.8,0c-0.2,0-0.5,0-0.8,0C441.9,205.9,441.6,205.9,441.4,205.9L441.4,205.9z M450.5,214.8
		c-0.9-0.3-1.5-0.6-2-1.1c-0.5-0.5-0.7-1.2-0.7-2.2c0-1.2,0.4-2.1,1.2-2.8c0.8-0.7,2-1,3.4-1c0.6,0,1.2,0.1,1.8,0.2
		c0.6,0.1,1.2,0.3,1.8,0.5c0,0.4-0.1,0.8-0.2,1.3c-0.1,0.4-0.3,0.8-0.4,1.1c-0.4-0.2-0.8-0.3-1.2-0.4c-0.4-0.1-0.9-0.2-1.4-0.2
		c-0.5,0-0.9,0.1-1.2,0.2c-0.3,0.2-0.4,0.4-0.4,0.8c0,0.3,0.1,0.6,0.3,0.7c0.2,0.1,0.5,0.3,0.9,0.4l1.3,0.4c0.4,0.1,0.8,0.3,1.2,0.5
		c0.3,0.2,0.6,0.4,0.9,0.7c0.2,0.3,0.4,0.6,0.6,1c0.1,0.4,0.2,0.9,0.2,1.4c0,0.6-0.1,1.1-0.4,1.6c-0.2,0.5-0.6,0.9-1,1.3
		c-0.4,0.4-1,0.7-1.6,0.9c-0.6,0.2-1.4,0.3-2.2,0.3c-0.4,0-0.7,0-1,0c-0.3,0-0.6-0.1-0.9-0.1c-0.3-0.1-0.6-0.1-0.8-0.2
		c-0.3-0.1-0.6-0.2-0.9-0.3c0-0.4,0.1-0.8,0.2-1.3c0.1-0.4,0.3-0.8,0.4-1.3c0.5,0.2,1,0.4,1.4,0.5c0.4,0.1,0.9,0.2,1.4,0.2
		c0.2,0,0.4,0,0.7-0.1c0.3,0,0.5-0.1,0.7-0.2c0.2-0.1,0.4-0.2,0.5-0.4c0.1-0.2,0.2-0.4,0.2-0.6c0-0.4-0.1-0.6-0.3-0.8
		c-0.2-0.2-0.5-0.3-0.9-0.4L450.5,214.8L450.5,214.8z M463.7,220.3c-1,0-1.8-0.2-2.5-0.5c-0.7-0.3-1.3-0.8-1.8-1.3
		c-0.5-0.6-0.8-1.2-1-2c-0.2-0.8-0.4-1.6-0.4-2.5c0-0.9,0.1-1.7,0.4-2.5c0.2-0.8,0.6-1.5,1-2c0.5-0.6,1-1,1.8-1.3
		c0.7-0.3,1.5-0.5,2.5-0.5c1,0,1.8,0.2,2.5,0.5c0.7,0.3,1.3,0.8,1.8,1.3c0.5,0.6,0.8,1.2,1,2c0.2,0.8,0.3,1.6,0.3,2.5
		c0,0.9-0.1,1.7-0.3,2.5c-0.2,0.8-0.6,1.4-1,2c-0.5,0.6-1.1,1-1.8,1.3C465.5,220.2,464.7,220.3,463.7,220.3L463.7,220.3z
		 M463.7,217.8c0.9,0,1.5-0.3,1.8-1c0.4-0.6,0.6-1.6,0.6-2.8c0-1.2-0.2-2.2-0.6-2.8c-0.4-0.6-1-1-1.8-1c-0.8,0-1.4,0.3-1.8,1
		c-0.4,0.6-0.6,1.6-0.6,2.8c0,1.2,0.2,2.2,0.6,2.8C462.3,217.5,462.9,217.8,463.7,217.8L463.7,217.8z M472,203.2
		c0.6-0.1,1.2-0.1,1.8-0.1c0.6,0,1.2,0,1.8,0.1l-0.2,11.5c-0.5,0.1-1,0.1-1.5,0.1c-0.5,0-1,0-1.6-0.1L472,203.2L472,203.2z
		 M472.1,220c-0.1-0.6-0.1-1.1-0.1-1.7c0-0.6,0-1.1,0.1-1.7c0.6-0.1,1.1-0.1,1.7-0.1c0.5,0,1.1,0,1.7,0.1c0.1,0.6,0.1,1.2,0.1,1.7
		c0,0.6,0,1.2-0.1,1.7c-0.6,0.1-1.1,0.1-1.7,0.1C473.2,220.2,472.6,220.1,472.1,220z"/>
</g>
<g>
	<path class="st2" d="M371.9,66.3c0.3,3,0.4,6.2,0.3,9.3c-0.8,21.1-10.8,39.8-26.2,52.1c15.3-12.7,25.3-31.6,26.1-53.2
		C372.1,71.8,372.1,69,371.9,66.3L371.9,66.3z M303.7,8c-34.9-1.2-64.2,26.5-65.4,62c-1.3,35.4,25.9,65.1,60.8,66.3
		c34.9,1.2,64.2-26.5,65.4-62C365.7,38.9,338.5,9.2,303.7,8z"/>
	<path class="st3" d="M303.9,0.3c39,1.3,69.5,34.6,68.1,74.2c-1.4,39.6-34.2,70.7-73.3,69.4c-39-1.3-69.5-34.6-68.1-74.2
		C232.1,30.1,264.9-1,303.9,0.3L303.9,0.3z M303.7,8c-34.9-1.2-64.2,26.5-65.4,62c-1.3,35.4,25.9,65.1,60.8,66.3
		c34.9,1.2,64.2-26.5,65.4-62C365.7,38.9,338.5,9.2,303.7,8z"/>
	<path class="st4" d="M272.3,55.9h12.2V43.6c0-9.5,7.8-17.3,17.3-17.3l0,0c9.5,0,17.3,7.8,17.3,17.3v12.2h12.2
		c9.5,0,17.3,7.8,17.3,17.3l0,0c0,9.5-7.8,17.3-17.3,17.3h-12.2v12.2c0,9.5-7.8,17.3-17.3,17.3l0,0c-9.5,0-17.3-7.8-17.3-17.3V90.5
		h-12.2c-9.5,0-17.3-7.8-17.3-17.3l0,0C255,63.7,262.8,55.9,272.3,55.9z"/>
	<path class="st5" d="M298.9,65.4c-0.2,1.2-0.1,3.3,0,4.5h13.5c0.3,0.5,0.6,1.1,0.8,1.8c0.2,0.8,0.3,1.6,0.3,2.4
		c0,1.6-0.3,2.8-1,3.5c-0.7,0.7-1.6,1-2.8,1h-10.8v13.4c-0.5,0.1-1.2,0.3-2.1,0.4c-1,0.1-1.9,0.2-2.9,0.2c-0.9,0-1.8-0.1-2.5-0.2
		c-0.7-0.1-1.3-0.4-1.8-0.8c-0.5-0.4-0.9-0.9-1.1-1.6c-0.2-0.7-0.4-1.6-0.4-2.7V72.8C290.1,69.4,295.4,65.4,298.9,65.4z"/>
	<path class="st6" d="M314.5,53.8c0.3,0.5,0.5,1.1,0.8,1.9c0.2,0.8,0.3,1.6,0.3,2.4c0,1.7-0.3,2.8-1,3.5c-0.7,0.7-1.6,1-2.8,1
		c-9.4,0-18.7-1.2-23.7,8.9v-5c0-6.6,3.8-12.8,11-12.8H314.5z"/>
	<path class="st7" d="M278.4,50.6v-8.4c0-11.6,9.5-21.2,21.2-21.2c6.1,0,11.6,2.6,15.4,6.7c-3.5-2.5-7.7-4-12.3-4
		c-11.6,0-21.2,9.5-21.2,21.2v8.4h-8.4c-11.6,0-21.2,9.5-21.2,21.2c0,5.6,2.2,10.7,5.7,14.4c-5.3-3.9-8.8-10.1-8.8-17.2
		c0-11.6,9.5-21.2,21.2-21.2H278.4L278.4,50.6z M323.8,50.6h5.3c6.1,0,11.6,2.6,15.4,6.7c-3.5-2.5-7.7-4-12.3-4h-8.4V50.6
		L323.8,50.6z M287.2,118.5c-5.3-3.8-8.8-10.1-8.8-17.2v-5.7h3.1v8.4C281.5,109.7,283.6,114.7,287.2,118.5z"/>
</g>
</svg>
