<!-- Generator: Adobe Illustrator 21.1.0, SVG Export Plug-In  -->
<svg version="1.1"
	 xmlns="http://www.w3.org/2000/svg" xmlns:xlink="http://www.w3.org/1999/xlink" xmlns:a="http://ns.adobe.com/AdobeSVGViewerExtensions/3.0/"
	 x="0px" y="0px" width="169.2px" height="77px" viewBox="0 0 169.2 77" style="enable-background:new 0 0 169.2 77;"
	 xml:space="preserve">
<style type="text/css">
	.st0{fill:#FFFFFF;}
	.st1{fill-rule:evenodd;clip-rule:evenodd;fill:#FFFFFF;}
	.st2{fill-rule:evenodd;clip-rule:evenodd;fill:#5B8EE5;}
	.st3{fill-rule:evenodd;clip-rule:evenodd;fill:#223887;}
</style>
<defs>
</defs>
<g>
	<path class="st0" d="M66,52.1h1.6c0.4,0,0.6,0.1,0.6,0.2c0,0.1-0.2,0.3-0.7,0.8c-0.5,0.5-0.9,0.9-1.4,1.3c-0.5,0.4-0.8,0.7-1,0.8
		c-0.5,0.2-1,0.4-1.5,0.4c-0.3,0-0.5-0.1-0.5-0.3c0-0.1,0.1-0.4,0.3-0.7l0.5-1c0.3-0.6,0.6-1,0.8-1.1C65.2,52.1,65.5,52.1,66,52.1
		L66,52.1z"/>
	<path class="st1" d="M71.8,62.4c-0.3,0.1-0.6,0.2-0.9,0.3c-0.4,0.1-0.8,0.2-1.2,0.3c-0.2,0.1-0.4,0.2-0.5,0.3
		C69,63.4,69,63.6,69,63.9c0,0.3,0.1,0.5,0.3,0.7c0.2,0.2,0.4,0.3,0.7,0.3c0.3,0,0.7-0.1,1-0.3c0.3-0.2,0.5-0.4,0.6-0.7
		C71.7,63.5,71.7,62.8,71.8,62.4L71.8,62.4z M72.1,66.1c-0.4,0.3-0.8,0.6-1.2,0.9c-0.5,0.3-1.1,0.4-1.7,0.4c-0.5,0-1.1-0.1-1.6-0.4
		c-0.4-0.3-0.8-0.7-1.1-1.2c-0.2-0.5-0.4-1.1-0.4-1.7c0-0.8,0.2-1.5,0.6-2.1c0.4-0.6,1-1,1.7-1.1c0.3-0.1,0.7-0.2,1-0.3
		c0.4-0.1,0.9-0.2,1.3-0.4c0.3-0.1,0.6-0.2,0.9-0.3c0-0.3-0.1-0.7-0.2-0.9c-0.2-0.3-0.7-0.3-0.9-0.3c-0.3,0-0.7,0-1,0.2
		c-0.2,0.2-0.4,0.4-0.6,0.7c-0.1,0.3-0.3,0.5-0.4,0.8c-0.2,0.3-0.5,0.3-0.8,0.3c-0.3,0-0.6-0.1-0.8-0.4c-0.2-0.3-0.4-0.6-0.4-1
		c0-0.6,0.2-1.1,0.5-1.6c0.3-0.6,0.8-0.9,1.3-1.2c0.7-0.3,1.4-0.4,2.2-0.4c0.7,0,1.6,0.1,2.3,0.4c0.6,0.3,1,0.8,1.3,1.5
		c0.3,0.7,0.4,1.6,0.4,2.5c0,0.5,0,1,0,1.5c0,0.5,0,0.9,0,1.4c0,0.5,0.1,0.9,0.2,1.4c0.1,0.3,0.2,0.8,0.2,1.1c0,0.4-0.2,0.8-0.4,1
		c-0.3,0.3-0.6,0.4-0.9,0.4c-0.3,0-0.6-0.2-0.9-0.5C72.5,66.6,72.3,66.4,72.1,66.1L72.1,66.1z"/>
	<path class="st1" d="M48.7,60.5h3c-0.1-0.5-0.2-0.9-0.4-1.3c-0.3-0.4-0.6-0.5-1.1-0.5c-0.4,0-0.7,0.2-1,0.5
		C48.9,59.6,48.8,60,48.7,60.5L48.7,60.5z M48.7,62.8c0,0.3,0.1,0.6,0.2,0.9c0.1,0.3,0.3,0.6,0.6,0.8c0.3,0.2,0.5,0.3,0.8,0.3
		c0.2,0,0.4,0,0.6-0.1c0.2-0.1,0.3-0.2,0.5-0.3c0.2-0.1,0.3-0.3,0.5-0.5c0.2-0.2,0.4-0.5,0.6-0.7c0.2-0.2,0.4-0.3,0.7-0.3
		c0.3,0,0.5,0.1,0.7,0.3c0.2,0.2,0.3,0.6,0.3,0.9c0,0.4-0.1,0.7-0.3,1c-0.2,0.4-0.5,0.7-0.7,1c-0.4,0.3-0.8,0.6-1.2,0.8
		c-0.5,0.2-1.1,0.3-1.7,0.3c-1.3,0-2.5-0.4-3.3-1.5c-0.9-1.1-1.2-2.6-1.2-4.1c0-0.8,0.1-1.5,0.3-2.2c0.2-0.7,0.5-1.3,0.9-1.8
		c0.4-0.5,0.9-0.9,1.4-1.2c0.6-0.3,1.2-0.4,1.8-0.4c0.8,0,1.6,0.2,2.3,0.7c0.6,0.4,1.1,1,1.4,1.8c0.3,0.7,0.5,1.4,0.5,2.2
		c0,0.6-0.1,1.3-0.6,1.6c-0.4,0.3-0.9,0.3-1.4,0.3H48.7L48.7,62.8z"/>
	<path class="st1" d="M28.8,61.7c0,0.7,0.1,1.5,0.5,2.1c0.3,0.4,0.7,0.7,1.2,0.7c0.3,0,0.6-0.1,0.8-0.3c0.3-0.2,0.5-0.5,0.6-0.9
		c0.2-0.5,0.3-1,0.3-1.5c0-0.7-0.1-1.6-0.5-2.2c-0.3-0.5-0.7-0.7-1.2-0.7c-0.5,0-0.9,0.2-1.2,0.7C28.9,60.1,28.8,60.9,28.8,61.7
		L28.8,61.7z M32.1,66.1c-0.2,0.2-0.4,0.4-0.6,0.5c-0.5,0.3-1.1,0.5-1.7,0.5c-0.7,0-1.4-0.2-2-0.7c-0.6-0.5-1-1.2-1.3-2
		c-0.3-0.9-0.4-1.9-0.4-2.9c0-0.7,0.1-1.5,0.3-2.2c0.2-0.6,0.4-1.2,0.8-1.7c0.3-0.5,0.7-0.8,1.2-1.1c0.5-0.2,1-0.4,1.5-0.4
		c0.6,0,1.2,0.1,1.7,0.5c0.3,0.2,0.5,0.4,0.8,0.7c0.1-0.2,0.1-0.5,0.3-0.7c0.2-0.3,0.6-0.5,0.9-0.5c0.5,0,0.9,0.2,1.1,0.7
		c0.2,0.5,0.2,1.1,0.2,1.6v7.4c0,0.8-0.1,1.6-0.2,2.3c-0.2,0.6-0.4,1.2-0.8,1.7c-0.4,0.5-0.9,0.8-1.4,1c-0.6,0.2-1.4,0.3-2,0.3
		c-0.7,0-1.4-0.1-2-0.4c-0.5-0.2-1-0.6-1.4-1.1c-0.3-0.4-0.5-0.9-0.5-1.5c0-0.4,0.1-0.8,0.4-1.1c0.2-0.3,0.5-0.4,0.9-0.4
		c0.4,0,0.8,0.2,1.1,0.6c0.1,0.2,0.2,0.3,0.3,0.5c0.1,0.1,0.2,0.3,0.3,0.4c0.1,0.1,0.3,0.2,0.4,0.2c0.2,0.1,0.4,0.1,0.6,0.1
		c0.3,0,0.8,0,1.1-0.2c0.2-0.1,0.4-0.3,0.5-0.6c0.1-0.3,0.2-0.6,0.2-0.9C32,66.6,32,66.4,32.1,66.1L32.1,66.1z"/>
	<path class="st1" d="M23,61.7c0-0.7-0.1-1.6-0.5-2.2c-0.3-0.5-0.7-0.7-1.2-0.7c-0.3,0-0.6,0.1-0.9,0.3c-0.3,0.2-0.5,0.6-0.6,1
		c-0.2,0.5-0.2,1.1-0.2,1.6c0,0.5,0.1,1.1,0.2,1.6c0.1,0.4,0.3,0.7,0.6,1c0.3,0.2,0.6,0.3,0.9,0.3c0.5,0,0.9-0.2,1.2-0.7
		C22.9,63.3,23,62.5,23,61.7L23,61.7z M25.7,61.7c0,0.8-0.1,1.5-0.3,2.3c-0.2,0.7-0.5,1.3-0.9,1.8c-0.4,0.5-0.9,0.9-1.4,1.2
		c-0.6,0.3-1.2,0.4-1.8,0.4c-0.6,0-1.2-0.1-1.8-0.4c-0.5-0.3-1-0.7-1.4-1.2c-0.4-0.5-0.7-1.1-0.9-1.8c-0.2-0.7-0.3-1.5-0.3-2.2
		c0-0.8,0.1-1.5,0.3-2.3c0.2-0.7,0.5-1.3,0.9-1.8c0.4-0.5,0.9-0.9,1.4-1.2c0.6-0.3,1.2-0.4,1.8-0.4c0.6,0,1.2,0.1,1.8,0.4
		c0.5,0.3,1,0.7,1.4,1.2c0.4,0.5,0.7,1.1,0.9,1.8C25.6,60.2,25.7,61,25.7,61.7L25.7,61.7z"/>
	<path class="st1" d="M6.7,62.8c0.4-0.9,0.5-2,0.5-3c0-0.9-0.1-2.1-0.4-2.8c-0.2-0.5-0.6-0.9-1-1.1c-0.5-0.2-1.1-0.3-1.7-0.3h-1v0
		l-0.1,0c0,0-0.1,0-0.2,0c-0.1,0-0.1,0-0.2,0.1c-0.5,0.2-1,0.5-1.5,0.9c-0.4,0.3-0.8,0.7-1.1,1.3v-1.9c0-2.3,1.8-3.3,3.3-3.3h1.3
		c0.7,0,1.4,0.1,2.1,0.3c0.6,0.2,1.1,0.6,1.6,1.1c1.4,1.5,1.9,3.7,1.9,5.9c0,0.8,0,1.6-0.2,2.3c-0.1,0.7-0.3,1.3-0.6,2
		c-0.3,0.6-0.6,1.1-1,1.6c-0.3,0.4-0.7,0.6-1.1,0.9C7,66.8,6.6,66.9,6.1,67c-0.5,0.1-1,0.1-1.4,0.1H2.3c0.6-0.2,1.3-0.6,2-1.1
		c0.8-0.7,1.6-1.5,2-2.5L6.7,62.8L6.7,62.8L6.7,62.8z M2.8,64.1v-8.2l-0.1,0c-0.5,0.2-1,0.5-1.4,0.8c-0.4,0.3-0.8,0.8-1.1,1.3v6.7
		c0,0.2,0,0.4,0,0.6c0,0.2,0,0.4,0.1,0.6c0,0.2,0.1,0.3,0.2,0.5c0.1,0.1,0.2,0.2,0.3,0.3c0.1,0.1,0.3,0.2,0.5,0.2
		C1.4,67,1.6,67,1.8,67c0.6,0,1.5-0.5,2.4-1.2c0.6-0.5,1.2-1.1,1.7-1.8l-0.1,0c-0.1,0-0.2,0.1-0.3,0.1c-0.1,0-0.2,0-0.3,0.1
		c-0.1,0-0.3,0-0.4,0l-0.4,0H2.8V64.1L2.8,64.1z"/>
	<path class="st2" d="M2.9,55.7v8.4h1.4c0.3,0,0.6,0,0.8,0c0.2,0,0.4-0.1,0.6-0.2c0.2-0.1,0.3-0.2,0.5-0.3l0,0
		c-0.9,1.9-3.3,3.6-4.5,3.6c-0.4,0-0.8-0.1-1.1-0.3c-0.3-0.2-0.5-0.5-0.6-0.9C0,65.5,0,65.1,0,64.7V58c0.7-1.2,1.6-1.8,2.6-2.2
		C2.7,55.7,2.8,55.7,2.9,55.7L2.9,55.7z"/>
	<path class="st1" d="M65.1,58v7.4c0,0.5-0.1,1-0.4,1.4c-0.3,0.4-0.6,0.5-1,0.5c-0.4,0-0.7-0.2-1-0.5c-0.3-0.4-0.4-0.9-0.4-1.4v-7.3
		c0-0.5,0.1-1,0.4-1.4c0.3-0.4,0.6-0.5,1-0.5c0.4,0,0.7,0.2,1,0.5C65,57,65.1,57.5,65.1,58L65.1,58z"/>
	<path class="st1" d="M58.1,57.1c0.1-0.2,0.2-0.3,0.4-0.4c0.4-0.4,0.8-0.5,1.3-0.5c0.5,0,1,0.2,1.4,0.5c0.5,0.3,0.8,0.8,0.8,1.4
		c0,0.4-0.1,0.8-0.4,1.1c-0.2,0.3-0.5,0.4-0.8,0.4c-0.2,0-0.5-0.1-0.7-0.2c-0.2-0.1-0.4-0.2-0.7-0.2c-0.2,0-0.4,0-0.5,0.2
		c-0.2,0.2-0.3,0.4-0.3,0.7c-0.1,0.4-0.2,0.9-0.2,1.3c0,0.6-0.1,1.3-0.1,1.9v2.1c0,0.5-0.1,1.1-0.4,1.4c-0.3,0.3-0.6,0.5-1,0.5
		c-0.4,0-0.7-0.2-1-0.5c-0.3-0.4-0.4-0.9-0.4-1.4v-7.1c0-1.1,0.3-2.1,1.3-2.1c0.4,0,0.8,0.2,1,0.6C58,56.8,58,56.9,58.1,57.1
		L58.1,57.1z"/>
	<path class="st1" d="M41.9,66.1c-0.1,0.1-0.2,0.2-0.3,0.3c-0.3,0.3-0.6,0.5-1,0.7c-0.4,0.2-0.8,0.2-1.2,0.2c-0.5,0-1-0.1-1.5-0.4
		c-0.4-0.3-0.8-0.7-1.1-1.2c-0.4-0.7-0.4-1.7-0.4-2.6v-5.1c0-0.5,0.1-1,0.4-1.4c0.3-0.4,0.6-0.5,1-0.5c0.4,0,0.7,0.2,1,0.5
		c0.3,0.4,0.4,0.9,0.4,1.4v4.1c0,0.5,0,1,0.1,1.4c0.1,0.3,0.2,0.5,0.3,0.7c0.2,0.2,0.4,0.2,0.6,0.2c0.3,0,0.6-0.1,0.8-0.3
		c0.3-0.2,0.4-0.5,0.6-0.8c0.2-0.5,0.2-1.7,0.2-2.2v-3.1c0-0.5,0.1-1,0.4-1.4c0.3-0.4,0.6-0.5,1-0.5c0.4,0,0.7,0.2,1,0.5
		c0.3,0.4,0.4,0.9,0.4,1.4v7.4c0,0.5-0.1,1-0.4,1.4c-0.2,0.3-0.6,0.5-0.9,0.5c-0.4,0-0.7-0.2-1-0.5C42.1,66.6,42,66.4,41.9,66.1
		L41.9,66.1z"/>
	<path class="st1" d="M13.3,57.1c0.1-0.2,0.2-0.3,0.4-0.4c0.4-0.4,0.8-0.5,1.3-0.5c0.5,0,1,0.2,1.4,0.5c0.5,0.3,0.8,0.8,0.8,1.4
		c0,0.4-0.1,0.8-0.4,1.1c-0.2,0.3-0.5,0.4-0.8,0.4c-0.2,0-0.5-0.1-0.7-0.2c-0.2-0.1-0.4-0.2-0.7-0.2c-0.2,0-0.4,0-0.5,0.2
		c-0.2,0.2-0.3,0.4-0.3,0.7c-0.1,0.4-0.2,0.9-0.2,1.3c0,0.6-0.1,1.3-0.1,1.9v2.1c0,0.5-0.1,1.1-0.4,1.4c-0.3,0.3-0.6,0.5-1,0.5
		c-0.4,0-0.7-0.2-1-0.5c-0.3-0.4-0.4-0.9-0.4-1.4v-7.1c0-1.1,0.3-2.1,1.3-2.1c0.4,0,0.8,0.2,1,0.6C13.2,56.8,13.2,56.9,13.3,57.1
		L13.3,57.1z"/>
	<path class="st1" d="M163.3,60.5h3c-0.1-0.5-0.2-0.9-0.4-1.3c-0.3-0.4-0.6-0.5-1.1-0.5c-0.4,0-0.7,0.2-1,0.5
		C163.5,59.5,163.3,60,163.3,60.5L163.3,60.5z M163.2,62.8c0,0.3,0.1,0.6,0.2,0.9c0.1,0.3,0.3,0.6,0.6,0.8c0.3,0.2,0.5,0.3,0.8,0.3
		c0.2,0,0.4,0,0.6-0.1c0.2-0.1,0.3-0.2,0.5-0.3c0.2-0.1,0.3-0.3,0.5-0.5c0.2-0.2,0.4-0.5,0.6-0.7c0.2-0.2,0.4-0.3,0.7-0.3
		c0.3,0,0.5,0.1,0.7,0.3c0.2,0.2,0.3,0.6,0.3,0.9c0,0.4-0.1,0.7-0.3,1c-0.2,0.4-0.5,0.7-0.7,1c-0.4,0.3-0.8,0.6-1.2,0.8
		c-0.5,0.2-1.1,0.3-1.7,0.3c-1.3,0-2.5-0.4-3.3-1.5c-0.9-1.1-1.2-2.6-1.2-4.1c0-0.8,0.1-1.5,0.3-2.2c0.2-0.7,0.5-1.3,0.9-1.8
		c0.4-0.5,0.9-0.9,1.4-1.2c0.6-0.3,1.2-0.4,1.8-0.4c0.8,0,1.6,0.2,2.3,0.7c0.6,0.4,1.1,1,1.4,1.8c0.3,0.7,0.5,1.4,0.5,2.2
		c0,0.6-0.1,1.3-0.6,1.6c-0.4,0.3-0.9,0.3-1.4,0.3H163.2L163.2,62.8z"/>
	<path class="st1" d="M143.6,61.7c0-0.7-0.1-1.6-0.5-2.2c-0.3-0.5-0.7-0.7-1.2-0.7c-0.3,0-0.6,0.1-0.9,0.3c-0.3,0.2-0.5,0.6-0.6,1
		c-0.2,0.5-0.2,1.1-0.2,1.6c0,0.5,0.1,1.1,0.2,1.6c0.1,0.4,0.3,0.7,0.6,1c0.3,0.2,0.6,0.3,0.9,0.3c0.5,0,0.9-0.2,1.2-0.7
		C143.5,63.3,143.6,62.5,143.6,61.7L143.6,61.7z M146.4,61.7c0,0.8-0.1,1.5-0.3,2.3c-0.2,0.7-0.5,1.3-0.9,1.8
		c-0.4,0.5-0.9,0.9-1.4,1.2c-0.6,0.3-1.2,0.4-1.8,0.4c-0.6,0-1.2-0.1-1.8-0.4c-0.5-0.3-1-0.7-1.4-1.2c-0.4-0.5-0.7-1.1-0.9-1.8
		c-0.2-0.7-0.3-1.5-0.3-2.2c0-0.8,0.1-1.5,0.3-2.3c0.2-0.7,0.5-1.3,0.9-1.8c0.4-0.5,0.9-0.9,1.4-1.2c0.6-0.3,1.2-0.4,1.8-0.4
		c0.6,0,1.2,0.1,1.8,0.4c0.5,0.3,1,0.7,1.4,1.2c0.4,0.5,0.7,1.1,0.9,1.8C146.3,60.2,146.4,60.9,146.4,61.7L146.4,61.7z"/>
	<path class="st1" d="M123.8,62.3c-0.3,0.1-0.6,0.2-0.9,0.3c-0.4,0.1-0.8,0.2-1.2,0.3c-0.2,0.1-0.4,0.2-0.5,0.3
		c-0.1,0.1-0.2,0.3-0.2,0.6c0,0.3,0.1,0.5,0.3,0.7c0.2,0.2,0.4,0.3,0.7,0.3c0.3,0,0.7-0.1,1-0.3c0.3-0.2,0.5-0.4,0.6-0.7
		C123.7,63.5,123.8,62.8,123.8,62.3L123.8,62.3z M124.2,66.1c-0.4,0.3-0.8,0.6-1.2,0.9c-0.5,0.3-1.1,0.4-1.7,0.4
		c-0.5,0-1.1-0.1-1.6-0.4c-0.4-0.3-0.8-0.7-1.1-1.2c-0.2-0.5-0.4-1.1-0.4-1.7c0-0.8,0.2-1.5,0.6-2.1c0.4-0.6,1-1,1.7-1.1
		c0.3-0.1,0.7-0.2,1-0.3c0.4-0.1,0.9-0.2,1.3-0.4c0.3-0.1,0.6-0.2,0.9-0.3c0-0.3-0.1-0.7-0.2-0.9c-0.2-0.3-0.7-0.3-0.9-0.3
		c-0.3,0-0.7,0-1,0.2c-0.2,0.2-0.4,0.4-0.6,0.7c-0.1,0.3-0.3,0.5-0.4,0.8c-0.2,0.3-0.5,0.3-0.8,0.3c-0.3,0-0.6-0.1-0.8-0.4
		c-0.2-0.3-0.4-0.6-0.4-1c0-0.6,0.2-1.1,0.5-1.6c0.3-0.6,0.8-0.9,1.3-1.2c0.7-0.3,1.4-0.4,2.2-0.4c0.7,0,1.6,0.1,2.3,0.4
		c0.6,0.3,1,0.8,1.3,1.5c0.3,0.7,0.4,1.6,0.4,2.5c0,0.5,0,1,0,1.5c0,0.5,0,0.9,0,1.4c0,0.5,0.1,0.9,0.2,1.4c0.1,0.3,0.2,0.8,0.2,1.1
		c0,0.4-0.2,0.8-0.4,1c-0.3,0.3-0.6,0.4-0.9,0.4c-0.3,0-0.6-0.2-0.9-0.5C124.5,66.6,124.3,66.4,124.2,66.1L124.2,66.1z"/>
	<path class="st1" d="M93.1,62.3c-0.3,0.1-0.6,0.2-0.9,0.3c-0.4,0.1-0.8,0.2-1.2,0.3c-0.2,0.1-0.4,0.2-0.5,0.3
		c-0.1,0.1-0.2,0.3-0.2,0.6c0,0.3,0.1,0.5,0.3,0.7c0.2,0.2,0.4,0.3,0.7,0.3c0.3,0,0.7-0.1,1-0.3c0.3-0.2,0.5-0.4,0.6-0.7
		C93,63.5,93,62.8,93.1,62.3L93.1,62.3z M93.4,66.1c-0.4,0.3-0.8,0.6-1.2,0.9c-0.5,0.3-1.1,0.4-1.7,0.4c-0.5,0-1.1-0.1-1.6-0.4
		c-0.4-0.3-0.8-0.7-1.1-1.2c-0.2-0.5-0.4-1.1-0.4-1.7c0-0.8,0.2-1.5,0.6-2.1c0.4-0.6,1-1,1.7-1.1c0.3-0.1,0.7-0.2,1-0.3
		c0.4-0.1,0.9-0.2,1.3-0.4c0.3-0.1,0.6-0.2,0.9-0.3c0-0.3-0.1-0.7-0.2-0.9c-0.2-0.3-0.7-0.3-0.9-0.3c-0.3,0-0.7,0-1,0.2
		c-0.2,0.2-0.4,0.4-0.6,0.7c-0.1,0.3-0.3,0.5-0.4,0.8c-0.2,0.3-0.5,0.3-0.8,0.3c-0.3,0-0.6-0.1-0.8-0.4c-0.2-0.3-0.4-0.6-0.4-1
		c0-0.6,0.2-1.1,0.5-1.6c0.3-0.6,0.8-0.9,1.3-1.2c0.7-0.3,1.4-0.4,2.2-0.4c0.7,0,1.6,0.1,2.3,0.4c0.6,0.3,1,0.8,1.3,1.5
		c0.3,0.7,0.4,1.6,0.4,2.5c0,0.5,0,1,0,1.5c0,0.5,0,0.9,0,1.4c0,0.5,0.1,0.9,0.2,1.4c0.1,0.3,0.2,0.8,0.2,1.1c0,0.4-0.2,0.8-0.4,1
		c-0.3,0.3-0.6,0.4-0.9,0.4c-0.3,0-0.6-0.2-0.9-0.5C93.8,66.6,93.6,66.4,93.4,66.1L93.4,66.1z"/>
	<path class="st1" d="M158.1,59v4.3c0,0.3,0,0.6,0,0.9c0,0.1,0,0.2,0.1,0.3c0,0.1,0.2,0.1,0.2,0.1c0.1,0,0.3,0,0.4-0.1
		c0.2,0,0.4-0.1,0.6-0.1c0.3,0,0.5,0.1,0.7,0.4c0.2,0.2,0.3,0.6,0.3,0.9c0,0.6-0.3,1-0.7,1.3c-0.5,0.3-1.2,0.4-1.7,0.4
		c-0.6,0-1.2-0.1-1.7-0.5c-0.4-0.3-0.7-0.8-0.8-1.4c-0.1-0.6-0.2-1.4-0.2-2V59c-0.3,0-0.6-0.1-0.8-0.4c-0.2-0.3-0.3-0.6-0.3-1
		c0-0.4,0.1-0.7,0.4-1c0.2-0.2,0.5-0.3,0.8-0.4v-1.1c0-0.3,0-0.7,0-1c0-0.3,0.1-0.5,0.2-0.8c0.1-0.2,0.3-0.4,0.5-0.6
		c0.2-0.1,0.4-0.2,0.7-0.2c0.4,0,0.7,0.2,0.9,0.5c0.2,0.2,0.3,0.5,0.4,0.8c0.1,0.3,0.1,0.7,0.1,1.1v1.3h0.4c0.3,0,0.7,0.1,0.9,0.4
		c0.2,0.3,0.3,0.6,0.3,1c0,0.5-0.2,0.9-0.5,1.1C158.9,58.9,158.5,59,158.1,59L158.1,59L158.1,59z"/>
	<path class="st1" d="M150.2,57c0.1-0.2,0.2-0.3,0.4-0.4c0.4-0.4,0.8-0.5,1.3-0.5c0.5,0,1,0.2,1.4,0.5c0.5,0.3,0.8,0.8,0.8,1.4
		c0,0.4-0.1,0.8-0.4,1.1c-0.2,0.3-0.5,0.4-0.8,0.4c-0.2,0-0.5-0.1-0.7-0.2c-0.2-0.1-0.4-0.2-0.7-0.2c-0.2,0-0.4,0-0.5,0.2
		c-0.2,0.2-0.3,0.4-0.3,0.7c-0.1,0.4-0.2,0.9-0.2,1.3c0,0.6-0.1,1.3-0.1,1.9v2.1c0,0.5-0.1,1.1-0.4,1.4c-0.3,0.3-0.6,0.5-1,0.5
		c-0.4,0-0.7-0.2-1-0.5c-0.3-0.4-0.4-0.9-0.4-1.4v-7.1c0-1.1,0.3-2.1,1.3-2.1c0.4,0,0.8,0.2,1,0.6C150.1,56.8,150.1,56.9,150.2,57
		L150.2,57z"/>
	<path class="st1" d="M130.7,57.2c0.2-0.3,0.5-0.5,0.8-0.7c0.5-0.3,1.1-0.5,1.6-0.5c0.6,0,1.1,0.2,1.6,0.5c0.5,0.3,0.9,0.8,1.1,1.4
		c0.2,0.4,0.3,0.7,0.3,1.1c0.1,0.5,0.1,1,0.1,1.4v4.8c0,0.5-0.1,1-0.4,1.4c-0.3,0.4-0.6,0.5-1,0.5c-0.4,0-0.7-0.2-1-0.5
		c-0.3-0.4-0.4-0.9-0.4-1.4v-4.3c0-0.5,0-1.3-0.2-1.7c-0.2-0.4-0.5-0.4-0.8-0.4c-0.3,0-0.6,0.1-0.8,0.3c-0.3,0.2-0.4,0.6-0.5,0.9
		c-0.1,0.5-0.1,1.5-0.1,2v3.2c0,0.5-0.1,1.1-0.4,1.4c-0.3,0.4-0.6,0.5-1,0.5c-0.4,0-0.7-0.2-1-0.5c-0.3-0.4-0.4-0.9-0.4-1.4V58
		c0-0.5,0.1-1,0.3-1.4c0.2-0.3,0.6-0.5,1-0.5c0.2,0,0.5,0.1,0.7,0.2c0.2,0.2,0.4,0.4,0.5,0.6C130.7,57,130.7,57.1,130.7,57.2
		L130.7,57.2z"/>
	<path class="st1" d="M107.1,57.2c0.2-0.2,0.5-0.5,0.7-0.6c0.5-0.3,1-0.4,1.5-0.4c0.5,0,1,0.1,1.5,0.4c0.3,0.2,0.6,0.5,0.8,0.8
		c0.3-0.3,0.6-0.6,0.9-0.9c0.5-0.3,1-0.4,1.5-0.4c0.6,0,1.1,0.1,1.6,0.5c0.5,0.3,0.8,0.8,1.1,1.4c0.3,0.7,0.3,1.6,0.3,2.4v5
		c0,0.5-0.1,1.1-0.4,1.5c-0.3,0.4-0.6,0.5-1,0.5c-0.4,0-0.8-0.2-1-0.5c-0.3-0.4-0.4-1-0.4-1.5V61c0-0.4,0-0.9-0.1-1.3
		c0-0.2-0.1-0.4-0.2-0.6c-0.1-0.2-0.3-0.2-0.5-0.2c-0.2,0-0.4,0.1-0.6,0.2c-0.2,0.2-0.3,0.4-0.5,0.6c-0.2,0.5-0.2,1.6-0.2,2.1v3.4
		c0,0.5-0.1,1.1-0.4,1.5c-0.3,0.4-0.6,0.5-1,0.5c-0.4,0-0.7-0.2-1-0.5c-0.3-0.4-0.4-1-0.4-1.5v-4.1c0-0.5,0-1-0.1-1.5
		c0-0.2-0.1-0.5-0.2-0.7c-0.1-0.2-0.3-0.2-0.5-0.2c-0.4,0-0.8,0.1-1,0.6c-0.2,0.7-0.3,1.6-0.3,2.3v3.5c0,0.5-0.1,1.1-0.4,1.5
		c-0.3,0.4-0.6,0.5-1,0.5c-0.4,0-0.8-0.2-1-0.5c-0.3-0.4-0.4-1-0.4-1.5V58c0-0.5,0.1-1,0.4-1.4c0.2-0.3,0.6-0.5,1-0.5
		c0.4,0,0.7,0.2,0.9,0.5C106.9,56.7,107,56.9,107.1,57.2L107.1,57.2z"/>
	<path class="st1" d="M100,57c0.1-0.2,0.2-0.3,0.4-0.4c0.4-0.4,0.8-0.5,1.3-0.5c0.5,0,1,0.2,1.4,0.5c0.5,0.3,0.8,0.8,0.8,1.4
		c0,0.4-0.1,0.8-0.4,1.1c-0.2,0.3-0.5,0.4-0.8,0.4c-0.2,0-0.5-0.1-0.7-0.2c-0.2-0.1-0.4-0.2-0.7-0.2c-0.2,0-0.4,0-0.5,0.2
		c-0.2,0.2-0.3,0.4-0.3,0.7c-0.1,0.4-0.2,0.9-0.2,1.3c0,0.6-0.1,1.3-0.1,1.9v2.1c0,0.5-0.1,1.1-0.4,1.4c-0.3,0.3-0.6,0.5-1,0.5
		c-0.4,0-0.7-0.2-1-0.5c-0.3-0.4-0.4-0.9-0.4-1.4v-7.1c0-1.1,0.3-2.1,1.3-2.1c0.4,0,0.8,0.2,1,0.6C99.9,56.8,100,56.9,100,57L100,57
		z"/>
	<path class="st1" d="M81.7,57v1.2H85c0.4,0,0.7,0.1,1,0.4c0.2,0.3,0.4,0.7,0.4,1.1c0,0.4-0.1,0.8-0.4,1.1c-0.3,0.3-0.6,0.4-1,0.4
		h-3.4v4.1c0,0.6-0.1,1.1-0.4,1.6c-0.3,0.4-0.6,0.5-1.1,0.5c-0.4,0-0.8-0.2-1.1-0.6c-0.3-0.4-0.4-1-0.4-1.6v-7.3l0.1-0.2
		c0.5-0.9,1.1-1.4,1.8-1.7c0.6-0.2,1.2-0.3,2-0.3C82.1,55.9,81.7,56.3,81.7,57L81.7,57z M78.9,57.2L78.9,57.2c0.5-0.7,1-1.1,1.7-1.4
		c0.8-0.3,1.8-0.4,3-0.4l0.3,0l0.4,0h1.5c0.2,0,0.3,0,0.5-0.1c0.2-0.1,0.3-0.1,0.4-0.3c0.1-0.1,0.2-0.3,0.3-0.4
		C87,54.4,87,54.2,87,54c0-0.2,0-0.4-0.1-0.6c-0.1-0.2-0.1-0.3-0.3-0.4c-0.1-0.1-0.3-0.2-0.4-0.3c-0.2-0.1-0.3-0.1-0.5-0.1h-3
		c-1.3,0-2.3,0.4-2.9,1.1C79.2,54.5,78.9,55.7,78.9,57.2L78.9,57.2z"/>
	<path class="st2" d="M78.7,57.7v-0.5c0.1-3.1,1.3-4.6,4-4.6h3c0.4,0,0.8,0.1,1,0.4c0.3,0.3,0.4,0.7,0.4,1.1c0,0.4-0.1,0.8-0.4,1.1
		c-0.3,0.3-0.7,0.4-1,0.4h-1.5c-0.2,0-0.5,0-0.7,0h0l0,0C81.2,55.6,79.7,55.7,78.7,57.7L78.7,57.7z"/>
	<path class="st0" d="M60.9,73.2c0.2,0,0.3,0,0.5,0c0.2,0,0.3,0,0.5,0l0.1,3.6c-0.2,0-0.4,0-0.5,0c-0.2,0-0.4,0-0.6,0L60.9,73.2
		L60.9,73.2z M60.9,72.6c0-0.2,0-0.4,0-0.5s0-0.4,0-0.5c0.2,0,0.3,0,0.5,0s0.3,0,0.5,0c0,0.2,0,0.4,0,0.5c0,0.2,0,0.4,0,0.5
		c-0.2,0-0.4,0-0.5,0C61.2,72.6,61,72.6,60.9,72.6L60.9,72.6z M63.9,72.8c-0.2-0.1-0.3-0.1-0.4-0.2c-0.1-0.1-0.2-0.2-0.3-0.3
		c-0.1-0.1-0.2-0.2-0.2-0.4c0-0.1-0.1-0.3-0.1-0.5c0-0.2,0-0.5,0.1-0.7c0.1-0.2,0.2-0.3,0.4-0.5c0.2-0.1,0.3-0.2,0.5-0.3
		c0.2-0.1,0.5-0.1,0.7-0.1c0.2,0,0.5,0,0.7,0.1c0.2,0,0.4,0.1,0.7,0.2c0,0.3-0.1,0.6-0.2,0.8c-0.1,0-0.1-0.1-0.2-0.1
		c-0.1,0-0.2-0.1-0.2-0.1c-0.1,0-0.2,0-0.3,0c-0.1,0-0.2,0-0.4,0c-0.1,0-0.2,0-0.2,0c-0.1,0-0.2,0-0.2,0.1C64,70.9,64,71,64,71.1
		c0,0.1-0.1,0.2-0.1,0.3c0,0.1,0,0.2,0,0.2c0,0.1,0.1,0.1,0.1,0.2c0.1,0,0.1,0.1,0.2,0.1c0.1,0,0.1,0.1,0.2,0.1l0.4,0.2
		c0.2,0.1,0.3,0.1,0.5,0.2c0.1,0.1,0.3,0.2,0.4,0.3c0.1,0.1,0.2,0.3,0.2,0.4c0.1,0.2,0.1,0.4,0.1,0.6c0,0.2,0,0.5-0.1,0.7
		c-0.1,0.2-0.2,0.4-0.4,0.5c-0.2,0.1-0.4,0.3-0.6,0.3c-0.2,0.1-0.5,0.1-0.8,0.1c-0.2,0-0.3,0-0.4,0c-0.1,0-0.2,0-0.4,0
		c-0.1,0-0.2,0-0.3-0.1c-0.1,0-0.2-0.1-0.3-0.1c0-0.1,0-0.3,0.1-0.4c0-0.2,0.1-0.3,0.1-0.5c0.2,0.1,0.4,0.1,0.6,0.2
		c0.2,0,0.4,0.1,0.6,0.1c0.3,0,0.5-0.1,0.7-0.2c0.2-0.1,0.3-0.3,0.3-0.5c0-0.1,0-0.2-0.1-0.3c0-0.1-0.1-0.1-0.2-0.2
		c-0.1-0.1-0.1-0.1-0.2-0.1c-0.1,0-0.2-0.1-0.2-0.1L63.9,72.8L63.9,72.8z M66.8,71.5c0.2,0,0.3,0,0.5,0c0.2,0,0.3,0,0.5,0v2
		c0,0.2,0,0.4,0,0.5c0,0.1,0.1,0.2,0.1,0.3c0.1,0.1,0.1,0.1,0.2,0.2c0.1,0,0.2,0,0.3,0c0.2,0,0.3,0,0.4-0.1v-3c0.2,0,0.3,0,0.5,0
		c0.2,0,0.3,0,0.5,0v3.6c-0.2,0.1-0.4,0.1-0.6,0.2c-0.2,0.1-0.5,0.1-0.8,0.1c-0.2,0-0.5,0-0.7-0.1c-0.2,0-0.4-0.1-0.6-0.2
		c-0.2-0.1-0.3-0.3-0.4-0.6c-0.1-0.2-0.1-0.6-0.1-1V71.5L66.8,71.5z M73.4,72.8c-0.2-0.1-0.3-0.1-0.4-0.2c-0.1-0.1-0.2-0.2-0.3-0.3
		c-0.1-0.1-0.2-0.2-0.2-0.4s-0.1-0.3-0.1-0.5c0-0.2,0-0.5,0.1-0.7c0.1-0.2,0.2-0.3,0.4-0.5c0.2-0.1,0.3-0.2,0.5-0.3
		c0.2-0.1,0.5-0.1,0.7-0.1c0.2,0,0.5,0,0.7,0.1c0.2,0,0.4,0.1,0.7,0.2c0,0.3-0.1,0.6-0.2,0.8C75.1,71,75,71,75,70.9
		c-0.1,0-0.2-0.1-0.2-0.1c-0.1,0-0.2,0-0.3,0c-0.1,0-0.2,0-0.4,0c-0.1,0-0.2,0-0.2,0c-0.1,0-0.2,0-0.2,0.1c-0.1,0-0.1,0.1-0.2,0.2
		c0,0.1-0.1,0.2-0.1,0.3c0,0.1,0,0.2,0,0.2c0,0.1,0.1,0.1,0.1,0.2c0.1,0,0.1,0.1,0.2,0.1c0.1,0,0.1,0.1,0.2,0.1l0.4,0.2
		c0.2,0.1,0.3,0.1,0.5,0.2c0.1,0.1,0.3,0.2,0.4,0.3c0.1,0.1,0.2,0.3,0.2,0.4c0.1,0.2,0.1,0.4,0.1,0.6c0,0.2,0,0.5-0.1,0.7
		c-0.1,0.2-0.2,0.4-0.4,0.5c-0.2,0.1-0.4,0.3-0.6,0.3c-0.2,0.1-0.5,0.1-0.8,0.1c-0.2,0-0.3,0-0.4,0c-0.1,0-0.2,0-0.4,0
		c-0.1,0-0.2,0-0.3-0.1c-0.1,0-0.2-0.1-0.3-0.1c0-0.1,0-0.3,0.1-0.4c0-0.2,0.1-0.3,0.1-0.5c0.2,0.1,0.4,0.1,0.6,0.2
		c0.2,0,0.4,0.1,0.6,0.1c0.3,0,0.5-0.1,0.7-0.2c0.2-0.1,0.3-0.3,0.3-0.5c0-0.1,0-0.2-0.1-0.3c0-0.1-0.1-0.1-0.2-0.2
		c-0.1-0.1-0.1-0.1-0.2-0.1c-0.1,0-0.2-0.1-0.2-0.1L73.4,72.8L73.4,72.8z M78.2,73.5c-0.1,0-0.1,0-0.2,0c-0.1,0-0.1,0-0.2,0
		c-0.2,0-0.4,0-0.5,0.1c-0.1,0.1-0.2,0.2-0.2,0.4c0,0.1,0,0.2,0.1,0.3c0.1,0.1,0.1,0.1,0.2,0.1c0.1,0,0.2,0.1,0.2,0.1
		c0.1,0,0.2,0,0.2,0c0.1,0,0.1,0,0.2,0c0.1,0,0.1,0,0.2,0V73.5L78.2,73.5z M78.2,72.8c0-0.1,0-0.2-0.1-0.3c0-0.1-0.1-0.1-0.2-0.2
		c-0.1,0-0.1-0.1-0.2-0.1c-0.1,0-0.2,0-0.3,0c-0.3,0-0.5,0.1-0.8,0.2c-0.1-0.1-0.1-0.2-0.1-0.4c0-0.1,0-0.2,0-0.4
		c0.2-0.1,0.4-0.1,0.6-0.2c0.2,0,0.4-0.1,0.6-0.1c0.5,0,0.9,0.1,1.2,0.4c0.3,0.2,0.4,0.6,0.4,1.2v2.2c-0.2,0.1-0.4,0.1-0.6,0.2
		c-0.2,0-0.5,0.1-0.8,0.1c-0.2,0-0.5,0-0.7-0.1c-0.2,0-0.4-0.1-0.5-0.2c-0.1-0.1-0.3-0.2-0.3-0.4c-0.1-0.2-0.1-0.4-0.1-0.6
		c0-0.2,0-0.4,0.1-0.6c0.1-0.2,0.2-0.3,0.4-0.4c0.2-0.1,0.3-0.2,0.5-0.2c0.2,0,0.4-0.1,0.6-0.1C77.9,72.9,78,72.9,78.2,72.8
		L78.2,72.8L78.2,72.8z M80,69.9c0.2,0,0.3,0,0.5,0c0.2,0,0.3,0,0.5,0v3.8c0,0.2,0,0.3,0,0.4c0,0.1,0,0.2,0.1,0.2
		c0,0.1,0.1,0.1,0.1,0.1c0.1,0,0.1,0,0.2,0c0,0,0.1,0,0.1,0c0,0,0.1,0,0.1,0c0.1,0.2,0.1,0.4,0.1,0.6c0,0,0,0.1,0,0.1
		c0,0,0,0.1,0,0.1c-0.1,0-0.2,0-0.3,0.1c-0.1,0-0.2,0-0.3,0c-0.4,0-0.7-0.1-0.9-0.3c-0.2-0.2-0.3-0.5-0.3-1V69.9L80,69.9z
		 M82.3,71.5c0.2,0,0.3,0,0.5,0c0.2,0,0.3,0,0.5,0v2c0,0.2,0,0.4,0,0.5c0,0.1,0.1,0.2,0.1,0.3c0.1,0.1,0.1,0.1,0.2,0.2
		c0.1,0,0.2,0,0.3,0c0.2,0,0.3,0,0.4-0.1v-3c0.2,0,0.3,0,0.5,0c0.2,0,0.3,0,0.5,0v3.6c-0.2,0.1-0.4,0.1-0.6,0.2
		c-0.2,0.1-0.5,0.1-0.8,0.1c-0.2,0-0.5,0-0.7-0.1c-0.2,0-0.4-0.1-0.6-0.2c-0.2-0.1-0.3-0.3-0.4-0.6c-0.1-0.2-0.1-0.6-0.1-1V71.5
		L82.3,71.5z M88.6,69.9c0.1,0,0.2,0,0.3,0c0.1,0,0.2,0,0.2,0c0.1,0,0.2,0,0.2,0c0.1,0,0.2,0,0.3,0v5.2c-0.2,0.1-0.4,0.1-0.7,0.2
		c-0.2,0-0.5,0.1-0.8,0.1c-0.3,0-0.5,0-0.7-0.1c-0.2-0.1-0.4-0.2-0.6-0.3c-0.2-0.2-0.3-0.4-0.4-0.6c-0.1-0.2-0.2-0.5-0.2-0.9
		c0-0.3,0-0.5,0.1-0.8c0.1-0.2,0.2-0.5,0.4-0.6c0.2-0.2,0.4-0.3,0.6-0.4c0.2-0.1,0.5-0.2,0.8-0.2c0.1,0,0.2,0,0.3,0
		c0.1,0,0.2,0,0.3,0V69.9L88.6,69.9z M88.6,72.3c-0.1,0-0.2,0-0.2,0c-0.1,0-0.1,0-0.2,0c-0.2,0-0.3,0-0.4,0.1
		c-0.1,0.1-0.2,0.2-0.3,0.3c-0.1,0.1-0.1,0.2-0.2,0.4c0,0.1-0.1,0.3-0.1,0.5c0,0.2,0,0.4,0.1,0.5c0,0.1,0.1,0.2,0.2,0.3
		c0.1,0.1,0.2,0.1,0.3,0.2c0.1,0,0.2,0.1,0.4,0.1c0.1,0,0.2,0,0.2,0c0.1,0,0.1,0,0.2,0V72.3L88.6,72.3z M92.9,73.7
		c0,0.3,0.1,0.5,0.3,0.6c0.2,0.1,0.4,0.2,0.7,0.2c0.2,0,0.3,0,0.5,0c0.2,0,0.3-0.1,0.5-0.1c0.1,0.1,0.1,0.2,0.1,0.4
		c0,0.1,0.1,0.3,0.1,0.4c-0.4,0.1-0.8,0.2-1.2,0.2c-0.3,0-0.6,0-0.9-0.1c-0.2-0.1-0.4-0.2-0.6-0.4c-0.2-0.2-0.3-0.4-0.3-0.6
		C92,74,92,73.7,92,73.4c0-0.3,0-0.5,0.1-0.8c0.1-0.2,0.2-0.5,0.3-0.6c0.1-0.2,0.3-0.3,0.6-0.4c0.2-0.1,0.5-0.2,0.8-0.2
		c0.3,0,0.5,0,0.7,0.1c0.2,0.1,0.4,0.2,0.5,0.4c0.1,0.2,0.2,0.4,0.3,0.6c0.1,0.2,0.1,0.5,0.1,0.7c0,0.1,0,0.2,0,0.3
		c0,0.1,0,0.2,0,0.2H92.9L92.9,73.7z M94.4,73c0-0.2-0.1-0.4-0.2-0.6c-0.1-0.1-0.3-0.2-0.5-0.2c-0.2,0-0.4,0.1-0.5,0.2
		C93.1,72.5,93,72.7,93,73H94.4L94.4,73z M96.8,73.6c-0.3-0.1-0.5-0.2-0.6-0.3c-0.1-0.2-0.2-0.4-0.2-0.7c0-0.4,0.1-0.7,0.4-0.9
		c0.3-0.2,0.6-0.3,1.1-0.3c0.2,0,0.4,0,0.5,0.1c0.2,0,0.4,0.1,0.5,0.2c0,0.1,0,0.3-0.1,0.4c0,0.1-0.1,0.3-0.1,0.4
		c-0.1,0-0.2-0.1-0.4-0.1c-0.1,0-0.3-0.1-0.4-0.1c-0.2,0-0.3,0-0.4,0.1c-0.1,0.1-0.1,0.1-0.1,0.2c0,0.1,0,0.2,0.1,0.2
		c0.1,0,0.2,0.1,0.3,0.1l0.4,0.1c0.1,0,0.3,0.1,0.4,0.1c0.1,0.1,0.2,0.1,0.3,0.2c0.1,0.1,0.1,0.2,0.2,0.3c0,0.1,0.1,0.3,0.1,0.4
		c0,0.2,0,0.3-0.1,0.5c-0.1,0.2-0.2,0.3-0.3,0.4c-0.1,0.1-0.3,0.2-0.5,0.3c-0.2,0.1-0.4,0.1-0.7,0.1c-0.1,0-0.2,0-0.3,0
		c-0.1,0-0.2,0-0.3,0c-0.1,0-0.2,0-0.3-0.1c-0.1,0-0.2-0.1-0.3-0.1c0-0.1,0-0.3,0.1-0.4c0-0.1,0.1-0.3,0.1-0.4
		c0.2,0.1,0.3,0.1,0.4,0.1c0.1,0,0.3,0,0.4,0c0.1,0,0.1,0,0.2,0c0.1,0,0.2,0,0.2-0.1c0.1,0,0.1-0.1,0.2-0.1c0-0.1,0.1-0.1,0.1-0.2
		c0-0.1,0-0.2-0.1-0.3c-0.1-0.1-0.2-0.1-0.3-0.1L96.8,73.6L96.8,73.6z M101,71.5c0.1,0,0.1,0,0.2,0c0.1,0,0.1,0,0.2,0
		c0.1,0,0.2,0,0.2,0c0.1,0,0.1,0,0.2,0c0,0,0,0.1,0,0.1c0,0,0,0.1,0,0.1c0,0.1,0,0.1,0,0.1c0,0,0,0.1,0,0.1c0-0.1,0.1-0.1,0.2-0.2
		c0.1-0.1,0.1-0.1,0.2-0.2c0.1-0.1,0.2-0.1,0.3-0.1c0.1,0,0.2-0.1,0.4-0.1c0.4,0,0.7,0.1,0.9,0.4c0.2,0.2,0.3,0.6,0.3,1.1v2.4
		c-0.2,0-0.3,0-0.5,0c-0.2,0-0.3,0-0.5,0v-2.1c0-0.3,0-0.5-0.1-0.6c-0.1-0.1-0.2-0.2-0.4-0.2c-0.1,0-0.2,0-0.2,0
		c-0.1,0-0.2,0.1-0.2,0.1c-0.1,0.1-0.1,0.2-0.2,0.3c0,0.1-0.1,0.3-0.1,0.5v2c-0.2,0-0.3,0-0.5,0c-0.2,0-0.3,0-0.5,0V71.5L101,71.5z
		 M105.1,71.5c0.2,0,0.3,0,0.5,0c0.2,0,0.3,0,0.5,0v2c0,0.2,0,0.4,0,0.5c0,0.1,0.1,0.2,0.1,0.3c0.1,0.1,0.1,0.1,0.2,0.2
		c0.1,0,0.2,0,0.3,0c0.2,0,0.3,0,0.4-0.1v-3c0.2,0,0.3,0,0.5,0c0.2,0,0.3,0,0.5,0v3.6c-0.2,0.1-0.4,0.1-0.6,0.2
		c-0.2,0.1-0.5,0.1-0.8,0.1c-0.2,0-0.5,0-0.7-0.1c-0.2,0-0.4-0.1-0.6-0.2c-0.2-0.1-0.3-0.3-0.4-0.6c-0.1-0.2-0.1-0.6-0.1-1V71.5
		L105.1,71.5z M110,73.7c0,0.3,0.1,0.5,0.3,0.6c0.2,0.1,0.4,0.2,0.7,0.2c0.2,0,0.3,0,0.5,0c0.2,0,0.3-0.1,0.5-0.1
		c0.1,0.1,0.1,0.2,0.1,0.4c0,0.1,0.1,0.3,0.1,0.4c-0.4,0.1-0.8,0.2-1.2,0.2c-0.3,0-0.6,0-0.9-0.1c-0.2-0.1-0.4-0.2-0.6-0.4
		c-0.2-0.2-0.3-0.4-0.3-0.6c-0.1-0.2-0.1-0.5-0.1-0.8c0-0.3,0-0.5,0.1-0.8c0.1-0.2,0.2-0.5,0.3-0.6c0.1-0.2,0.3-0.3,0.6-0.4
		c0.2-0.1,0.5-0.2,0.8-0.2c0.3,0,0.5,0,0.7,0.1c0.2,0.1,0.4,0.2,0.5,0.4c0.1,0.2,0.2,0.4,0.3,0.6c0.1,0.2,0.1,0.5,0.1,0.7
		c0,0.1,0,0.2,0,0.3c0,0.1,0,0.2,0,0.2H110L110,73.7z M111.4,73c0-0.2-0.1-0.4-0.2-0.6c-0.1-0.1-0.3-0.2-0.5-0.2
		c-0.2,0-0.4,0.1-0.5,0.2c-0.1,0.1-0.2,0.3-0.2,0.6H111.4L111.4,73z M113.9,73.6c-0.3-0.1-0.5-0.2-0.6-0.3c-0.1-0.2-0.2-0.4-0.2-0.7
		c0-0.4,0.1-0.7,0.4-0.9c0.3-0.2,0.6-0.3,1.1-0.3c0.2,0,0.4,0,0.5,0.1c0.2,0,0.4,0.1,0.5,0.2c0,0.1,0,0.3-0.1,0.4
		c0,0.1-0.1,0.3-0.1,0.4c-0.1,0-0.2-0.1-0.4-0.1c-0.1,0-0.3-0.1-0.4-0.1c-0.2,0-0.3,0-0.4,0.1c-0.1,0.1-0.1,0.1-0.1,0.2
		c0,0.1,0,0.2,0.1,0.2c0.1,0,0.2,0.1,0.3,0.1l0.4,0.1c0.1,0,0.3,0.1,0.4,0.1c0.1,0.1,0.2,0.1,0.3,0.2c0.1,0.1,0.1,0.2,0.2,0.3
		s0.1,0.3,0.1,0.4c0,0.2,0,0.3-0.1,0.5c-0.1,0.2-0.2,0.3-0.3,0.4c-0.1,0.1-0.3,0.2-0.5,0.3c-0.2,0.1-0.4,0.1-0.7,0.1
		c-0.1,0-0.2,0-0.3,0c-0.1,0-0.2,0-0.3,0s-0.2,0-0.3-0.1c-0.1,0-0.2-0.1-0.3-0.1c0-0.1,0-0.3,0.1-0.4c0-0.1,0.1-0.3,0.1-0.4
		c0.2,0.1,0.3,0.1,0.4,0.1c0.1,0,0.3,0,0.4,0c0.1,0,0.1,0,0.2,0c0.1,0,0.1,0,0.2-0.1c0.1,0,0.1-0.1,0.2-0.1c0-0.1,0.1-0.1,0.1-0.2
		c0-0.1,0-0.2-0.1-0.3c-0.1-0.1-0.2-0.1-0.3-0.1L113.9,73.6L113.9,73.6z M116.5,72.3h-0.5l0-0.1l1.3-1.7h0.2v1.1h0.9
		c0,0.1,0,0.1,0,0.2c0,0.1,0,0.1,0,0.2c0,0.1,0,0.1,0,0.2c0,0.1,0,0.1,0,0.2h-0.9v1.5c0,0.2,0,0.3,0,0.4c0,0.1,0.1,0.2,0.1,0.2
		c0,0.1,0.1,0.1,0.2,0.1c0.1,0,0.1,0,0.2,0c0.1,0,0.1,0,0.2,0c0.1,0,0.1,0,0.2,0c0,0.1,0.1,0.2,0.1,0.3c0,0.1,0,0.2,0,0.3
		c0,0.1,0,0.1,0,0.1c0,0,0,0.1,0,0.1c-0.2,0.1-0.4,0.1-0.7,0.1c-0.4,0-0.8-0.1-1-0.3c-0.2-0.2-0.3-0.5-0.3-1V72.3L116.5,72.3z
		 M119.2,71.5c0.1,0,0.1,0,0.2,0c0.1,0,0.1,0,0.2,0c0.1,0,0.1,0,0.2,0c0.1,0,0.1,0,0.2,0c0,0,0,0.1,0,0.1c0,0,0,0.1,0,0.1
		c0,0.1,0,0.1,0,0.2c0,0.1,0,0.1,0,0.1c0.1-0.2,0.2-0.3,0.4-0.4c0.2-0.1,0.3-0.2,0.6-0.2c0,0,0.1,0,0.2,0c0.1,0,0.1,0,0.1,0
		c0,0,0,0.1,0,0.2c0,0.1,0,0.1,0,0.2c0,0.1,0,0.2,0,0.3c0,0.1,0,0.2,0,0.3c-0.1,0-0.1,0-0.2,0c-0.1,0-0.1,0-0.1,0
		c-0.1,0-0.2,0-0.3,0c-0.1,0-0.2,0.1-0.3,0.1c-0.1,0.1-0.2,0.2-0.2,0.3c-0.1,0.1-0.1,0.4-0.1,0.6v1.8c-0.1,0-0.2,0-0.3,0
		c-0.1,0-0.2,0-0.2,0c-0.1,0-0.2,0-0.2,0c-0.1,0-0.2,0-0.3,0V71.5L119.2,71.5z M123.5,75.4c-0.3,0-0.6,0-0.8-0.1
		c-0.2-0.1-0.4-0.2-0.5-0.4c-0.1-0.2-0.3-0.4-0.3-0.6c-0.1-0.2-0.1-0.5-0.1-0.8c0-0.3,0-0.5,0.1-0.8c0.1-0.2,0.2-0.5,0.3-0.6
		c0.1-0.2,0.3-0.3,0.5-0.4c0.2-0.1,0.5-0.2,0.8-0.2c0.3,0,0.6,0.1,0.8,0.2c0.2,0.1,0.4,0.2,0.6,0.4c0.1,0.2,0.3,0.4,0.3,0.6
		c0.1,0.2,0.1,0.5,0.1,0.8c0,0.3,0,0.5-0.1,0.8c-0.1,0.2-0.2,0.4-0.3,0.6c-0.1,0.2-0.3,0.3-0.6,0.4C124,75.3,123.8,75.4,123.5,75.4
		L123.5,75.4z M123.5,74.6c0.3,0,0.5-0.1,0.6-0.3c0.1-0.2,0.2-0.5,0.2-0.9c0-0.4-0.1-0.7-0.2-0.9c-0.1-0.2-0.3-0.3-0.6-0.3
		c-0.3,0-0.4,0.1-0.6,0.3c-0.1,0.2-0.2,0.5-0.2,0.9c0,0.4,0.1,0.7,0.2,0.9C123,74.5,123.2,74.6,123.5,74.6L123.5,74.6z M130,74.4
		c0.1,0.1,0.1,0.2,0.1,0.3c0,0.1,0.1,0.3,0.1,0.5c-0.2,0.1-0.4,0.1-0.5,0.1c-0.2,0-0.3,0-0.5,0c-0.3,0-0.6,0-0.8-0.1
		c-0.2-0.1-0.4-0.2-0.6-0.4c-0.1-0.2-0.3-0.4-0.3-0.6c-0.1-0.2-0.1-0.5-0.1-0.8c0-0.3,0-0.5,0.1-0.8c0.1-0.2,0.2-0.4,0.3-0.6
		s0.3-0.3,0.6-0.4c0.2-0.1,0.5-0.2,0.8-0.2c0.1,0,0.2,0,0.3,0c0.1,0,0.2,0,0.3,0c0.1,0,0.2,0,0.2,0.1c0.1,0,0.2,0.1,0.3,0.1
		c0,0.1,0,0.2,0,0.4c0,0.1-0.1,0.3-0.1,0.4c-0.1,0-0.3-0.1-0.4-0.1c-0.1,0-0.2,0-0.4,0c-0.3,0-0.5,0.1-0.7,0.3
		c-0.1,0.2-0.2,0.5-0.2,0.8c0,0.4,0.1,0.7,0.2,0.9c0.2,0.2,0.4,0.3,0.7,0.3c0.1,0,0.1,0,0.2,0c0.1,0,0.1,0,0.2,0c0.1,0,0.1,0,0.2,0
		C129.9,74.4,130,74.4,130,74.4L130,74.4z M132.4,75.4c-0.3,0-0.6,0-0.8-0.1c-0.2-0.1-0.4-0.2-0.5-0.4c-0.1-0.2-0.3-0.4-0.3-0.6
		c-0.1-0.2-0.1-0.5-0.1-0.8c0-0.3,0-0.5,0.1-0.8c0.1-0.2,0.2-0.5,0.3-0.6c0.1-0.2,0.3-0.3,0.5-0.4c0.2-0.1,0.5-0.2,0.8-0.2
		c0.3,0,0.6,0.1,0.8,0.2c0.2,0.1,0.4,0.2,0.6,0.4c0.1,0.2,0.3,0.4,0.3,0.6c0.1,0.2,0.1,0.5,0.1,0.8c0,0.3,0,0.5-0.1,0.8
		c-0.1,0.2-0.2,0.4-0.3,0.6c-0.1,0.2-0.3,0.3-0.6,0.4C133,75.3,132.7,75.4,132.4,75.4L132.4,75.4z M132.4,74.6
		c0.3,0,0.5-0.1,0.6-0.3c0.1-0.2,0.2-0.5,0.2-0.9c0-0.4-0.1-0.7-0.2-0.9c-0.1-0.2-0.3-0.3-0.6-0.3c-0.3,0-0.4,0.1-0.6,0.3
		c-0.1,0.2-0.2,0.5-0.2,0.9c0,0.4,0.1,0.7,0.2,0.9C131.9,74.5,132.1,74.6,132.4,74.6L132.4,74.6z"/>
	<path class="st0" d="M135,71.5c0.1,0,0.1,0,0.2,0c0.1,0,0.1,0,0.2,0c0.1,0,0.2,0,0.2,0c0.1,0,0.1,0,0.2,0c0,0,0,0.1,0,0.1
		s0,0.1,0,0.1c0,0.1,0,0.1,0,0.1c0,0,0,0.1,0,0.1c0-0.1,0.1-0.1,0.1-0.2c0.1-0.1,0.1-0.1,0.2-0.2c0.1-0.1,0.2-0.1,0.3-0.1
		c0.1,0,0.2-0.1,0.4-0.1c0.6,0,0.9,0.2,1.1,0.7c0.1-0.2,0.2-0.3,0.4-0.5c0.2-0.1,0.4-0.2,0.7-0.2c0.4,0,0.7,0.1,0.9,0.4
		c0.2,0.2,0.3,0.6,0.3,1.1v2.4c-0.2,0-0.3,0-0.5,0c-0.2,0-0.3,0-0.5,0v-2.1c0-0.3,0-0.5-0.1-0.6c-0.1-0.1-0.2-0.2-0.4-0.2
		c-0.1,0-0.2,0-0.2,0c-0.1,0-0.1,0.1-0.2,0.1c-0.1,0.1-0.1,0.2-0.2,0.3c0,0.1-0.1,0.3-0.1,0.5v2c-0.2,0-0.3,0-0.5,0
		c-0.2,0-0.3,0-0.5,0v-2.1c0-0.3,0-0.5-0.1-0.6c-0.1-0.1-0.2-0.2-0.4-0.2c-0.1,0-0.2,0-0.2,0c-0.1,0-0.2,0.1-0.2,0.1
		c-0.1,0.1-0.1,0.2-0.2,0.3c0,0.1-0.1,0.3-0.1,0.5v2c-0.2,0-0.3,0-0.5,0c-0.2,0-0.3,0-0.5,0V71.5L135,71.5z M141.2,71.5
		c0.1,0,0.1,0,0.2,0c0.1,0,0.1,0,0.2,0c0.1,0,0.3,0,0.4,0c0,0,0,0.1,0,0.1c0,0,0,0.1,0,0.1c0,0.1,0,0.1,0,0.2c0,0.1,0,0.1,0,0.1
		c0-0.1,0.1-0.2,0.2-0.2c0.1-0.1,0.1-0.1,0.2-0.2c0.1-0.1,0.2-0.1,0.3-0.1c0.1,0,0.2-0.1,0.4-0.1c0.2,0,0.4,0,0.6,0.1
		c0.2,0.1,0.3,0.2,0.5,0.4c0.1,0.2,0.2,0.4,0.3,0.6c0.1,0.2,0.1,0.5,0.1,0.8c0,0.3,0,0.6-0.1,0.9c-0.1,0.3-0.2,0.5-0.4,0.6
		c-0.2,0.2-0.4,0.3-0.6,0.4c-0.2,0.1-0.5,0.1-0.8,0.1c-0.1,0-0.2,0-0.2,0c-0.1,0-0.1,0-0.2,0V77c-0.1,0-0.2,0-0.3,0
		c-0.1,0-0.2,0-0.2,0c-0.1,0-0.2,0-0.2,0c-0.1,0-0.2,0-0.3,0V71.5L141.2,71.5z M142.2,74.5c0.1,0,0.3,0.1,0.4,0.1
		c0.3,0,0.5-0.1,0.7-0.3c0.2-0.2,0.2-0.5,0.2-0.9c0-0.2,0-0.3,0-0.4c0-0.1-0.1-0.2-0.1-0.3c-0.1-0.1-0.1-0.2-0.2-0.2
		c-0.1-0.1-0.2-0.1-0.3-0.1c-0.1,0-0.2,0-0.3,0.1c-0.1,0-0.1,0.1-0.2,0.2c-0.1,0.1-0.1,0.2-0.1,0.3c0,0.1,0,0.2,0,0.3V74.5
		L142.2,74.5z M145.4,71.5c0.1,0,0.1,0,0.2,0c0.1,0,0.1,0,0.2,0c0.1,0,0.1,0,0.2,0c0.1,0,0.1,0,0.2,0c0,0,0,0.1,0,0.1
		c0,0,0,0.1,0,0.1c0,0.1,0,0.1,0,0.2c0,0.1,0,0.1,0,0.1c0.1-0.2,0.2-0.3,0.4-0.4c0.2-0.1,0.3-0.2,0.6-0.2c0,0,0.1,0,0.2,0
		c0.1,0,0.1,0,0.1,0c0,0,0,0.1,0,0.2c0,0.1,0,0.1,0,0.2c0,0.1,0,0.2,0,0.3c0,0.1,0,0.2,0,0.3c-0.1,0-0.1,0-0.2,0c-0.1,0-0.1,0-0.1,0
		c-0.1,0-0.2,0-0.3,0c-0.1,0-0.2,0.1-0.3,0.1c-0.1,0.1-0.2,0.2-0.2,0.3c-0.1,0.1-0.1,0.4-0.1,0.6v1.8c-0.1,0-0.2,0-0.3,0
		c-0.1,0-0.2,0-0.2,0c-0.1,0-0.2,0-0.2,0c-0.1,0-0.2,0-0.3,0V71.5L145.4,71.5z M149.7,75.4c-0.3,0-0.6,0-0.8-0.1
		c-0.2-0.1-0.4-0.2-0.5-0.4c-0.1-0.2-0.3-0.4-0.3-0.6c-0.1-0.2-0.1-0.5-0.1-0.8c0-0.3,0-0.5,0.1-0.8c0.1-0.2,0.2-0.5,0.3-0.6
		c0.1-0.2,0.3-0.3,0.5-0.4c0.2-0.1,0.5-0.2,0.8-0.2c0.3,0,0.6,0.1,0.8,0.2c0.2,0.1,0.4,0.2,0.6,0.4c0.1,0.2,0.3,0.4,0.3,0.6
		c0.1,0.2,0.1,0.5,0.1,0.8c0,0.3,0,0.5-0.1,0.8c-0.1,0.2-0.2,0.4-0.3,0.6c-0.1,0.2-0.3,0.3-0.6,0.4C150.2,75.3,150,75.4,149.7,75.4
		L149.7,75.4z M149.7,74.6c0.3,0,0.5-0.1,0.6-0.3c0.1-0.2,0.2-0.5,0.2-0.9c0-0.4-0.1-0.7-0.2-0.9c-0.1-0.2-0.3-0.3-0.6-0.3
		c-0.3,0-0.4,0.1-0.6,0.3c-0.1,0.2-0.2,0.5-0.2,0.9c0,0.4,0.1,0.7,0.2,0.9C149.2,74.5,149.4,74.6,149.7,74.6L149.7,74.6z
		 M152.2,71.5c0.1,0,0.1,0,0.2,0c0.1,0,0.1,0,0.2,0c0.1,0,0.2,0,0.2,0c0.1,0,0.1,0,0.2,0c0,0,0,0.1,0,0.1c0,0,0,0.1,0,0.1
		c0,0.1,0,0.1,0,0.1c0,0,0,0.1,0,0.1c0-0.1,0.1-0.1,0.1-0.2c0.1-0.1,0.1-0.1,0.2-0.2c0.1-0.1,0.2-0.1,0.3-0.1c0.1,0,0.2-0.1,0.4-0.1
		c0.6,0,0.9,0.2,1.1,0.7c0.1-0.2,0.2-0.3,0.4-0.5c0.2-0.1,0.4-0.2,0.7-0.2c0.4,0,0.7,0.1,0.9,0.4c0.2,0.2,0.3,0.6,0.3,1.1v2.4
		c-0.2,0-0.3,0-0.5,0c-0.2,0-0.3,0-0.5,0v-2.1c0-0.3,0-0.5-0.1-0.6c-0.1-0.1-0.2-0.2-0.4-0.2c-0.1,0-0.2,0-0.2,0
		c-0.1,0-0.1,0.1-0.2,0.1c-0.1,0.1-0.1,0.2-0.2,0.3c0,0.1-0.1,0.3-0.1,0.5v2c-0.2,0-0.3,0-0.5,0c-0.2,0-0.3,0-0.5,0v-2.1
		c0-0.3,0-0.5-0.1-0.6c-0.1-0.1-0.2-0.2-0.4-0.2c-0.1,0-0.2,0-0.2,0c-0.1,0-0.2,0.1-0.2,0.1s-0.1,0.2-0.2,0.3c0,0.1-0.1,0.3-0.1,0.5
		v2c-0.2,0-0.3,0-0.5,0c-0.2,0-0.3,0-0.5,0V71.5L152.2,71.5z M158.7,72.3h-0.5c0-0.1,0-0.1,0-0.2c0-0.1,0-0.1,0-0.2
		c0-0.1,0-0.3,0-0.4h1.5v3.8c-0.2,0-0.3,0-0.5,0c-0.2,0-0.3,0-0.5,0V72.3L158.7,72.3z M158.5,70.9c0-0.2,0-0.3,0-0.5
		c0-0.2,0-0.3,0-0.5c0.1,0,0.2,0,0.3,0c0.1,0,0.2,0,0.3,0c0.1,0,0.2,0,0.3,0c0.1,0,0.2,0,0.3,0c0,0.1,0,0.2,0,0.2c0,0.1,0,0.2,0,0.2
		c0,0.1,0,0.2,0,0.2c0,0.1,0,0.2,0,0.2c-0.1,0-0.2,0-0.3,0c-0.1,0-0.2,0-0.3,0c-0.1,0-0.2,0-0.3,0C158.7,70.9,158.6,70.9,158.5,70.9
		L158.5,70.9z M161.4,73.6c-0.3-0.1-0.5-0.2-0.6-0.3c-0.1-0.2-0.2-0.4-0.2-0.7c0-0.4,0.1-0.7,0.4-0.9c0.3-0.2,0.6-0.3,1.1-0.3
		c0.2,0,0.4,0,0.5,0.1c0.2,0,0.4,0.1,0.5,0.2c0,0.1,0,0.3-0.1,0.4c0,0.1-0.1,0.3-0.1,0.4c-0.1,0-0.2-0.1-0.4-0.1
		c-0.1,0-0.3-0.1-0.4-0.1c-0.2,0-0.3,0-0.4,0.1c-0.1,0.1-0.1,0.1-0.1,0.2c0,0.1,0,0.2,0.1,0.2c0.1,0,0.2,0.1,0.3,0.1l0.4,0.1
		c0.1,0,0.3,0.1,0.4,0.1c0.1,0.1,0.2,0.1,0.3,0.2c0.1,0.1,0.1,0.2,0.2,0.3c0,0.1,0.1,0.3,0.1,0.4c0,0.2,0,0.3-0.1,0.5
		c-0.1,0.2-0.2,0.3-0.3,0.4c-0.1,0.1-0.3,0.2-0.5,0.3c-0.2,0.1-0.4,0.1-0.7,0.1c-0.1,0-0.2,0-0.3,0c-0.1,0-0.2,0-0.3,0
		s-0.2,0-0.3-0.1c-0.1,0-0.2-0.1-0.3-0.1c0-0.1,0-0.3,0.1-0.4c0-0.1,0.1-0.3,0.1-0.4c0.2,0.1,0.3,0.1,0.4,0.1c0.1,0,0.3,0,0.4,0
		c0.1,0,0.1,0,0.2,0c0.1,0,0.2,0,0.2-0.1c0.1,0,0.1-0.1,0.2-0.1c0-0.1,0.1-0.1,0.1-0.2c0-0.1,0-0.2-0.1-0.3
		c-0.1-0.1-0.2-0.1-0.3-0.1L161.4,73.6L161.4,73.6z M165.5,75.4c-0.3,0-0.6,0-0.8-0.1c-0.2-0.1-0.4-0.2-0.5-0.4
		c-0.1-0.2-0.3-0.4-0.3-0.6c-0.1-0.2-0.1-0.5-0.1-0.8c0-0.3,0-0.5,0.1-0.8c0.1-0.2,0.2-0.5,0.3-0.6c0.1-0.2,0.3-0.3,0.5-0.4
		c0.2-0.1,0.5-0.2,0.8-0.2c0.3,0,0.6,0.1,0.8,0.2c0.2,0.1,0.4,0.2,0.6,0.4c0.1,0.2,0.3,0.4,0.3,0.6c0.1,0.2,0.1,0.5,0.1,0.8
		c0,0.3,0,0.5-0.1,0.8c-0.1,0.2-0.2,0.4-0.3,0.6c-0.1,0.2-0.3,0.3-0.6,0.4C166,75.3,165.8,75.4,165.5,75.4L165.5,75.4z M165.5,74.6
		c0.3,0,0.5-0.1,0.6-0.3c0.1-0.2,0.2-0.5,0.2-0.9c0-0.4-0.1-0.7-0.2-0.9c-0.1-0.2-0.3-0.3-0.6-0.3c-0.3,0-0.4,0.1-0.6,0.3
		c-0.1,0.2-0.2,0.5-0.2,0.9c0,0.4,0.1,0.7,0.2,0.9C165,74.5,165.2,74.6,165.5,74.6L165.5,74.6z M168.1,70c0.2,0,0.4,0,0.5,0
		c0.2,0,0.4,0,0.6,0l-0.1,3.6c-0.2,0-0.3,0-0.5,0c-0.2,0-0.3,0-0.5,0L168.1,70L168.1,70z M168.1,75.3c0-0.2,0-0.4,0-0.5s0-0.4,0-0.5
		c0.2,0,0.3,0,0.5,0c0.2,0,0.3,0,0.5,0c0,0.2,0,0.4,0,0.5c0,0.2,0,0.4,0,0.5c-0.2,0-0.4,0-0.5,0C168.4,75.3,168.3,75.3,168.1,75.3
		L168.1,75.3z"/>
	<path class="st3" d="M85.5,1c13.3,0.5,23.7,11.6,23.2,24.8C108.2,39.1,97,49.4,83.7,49C70.4,48.5,60,37.4,60.5,24.2
		C61,10.9,72.2,0.5,85.5,1L85.5,1z"/>
	<path class="st2" d="M85.3,0c13.4,0.5,23.8,11.8,23.3,25.4C108.2,39,96.9,49.7,83.5,49.2c-13.4-0.5-23.8-11.8-23.3-25.4
		C60.7,10.2,71.9-0.4,85.3,0L85.3,0z M85.2,2.6c11.9,0.4,21.3,10.6,20.8,22.7C105.6,37.5,95.6,47,83.6,46.6
		C71.7,46.2,62.4,36,62.8,23.9C63.2,11.7,73.3,2.2,85.2,2.6L85.2,2.6z"/>
	<path class="st1" d="M86.3,1.1c13,0.4,23.1,11.6,22.7,24.9c-0.5,13.3-11.4,23.7-24.4,23.3c-13-0.4-23.1-11.6-22.7-24.9
		C62.4,11.1,73.3,0.7,86.3,1.1L86.3,1.1z M86.2,2.7c12.4,0.4,22,10.8,21.6,23.1c-0.4,12.3-10.8,22-23.2,21.5
		c-12.4-0.4-22-10.8-21.6-23.1C63.5,11.9,73.9,2.3,86.2,2.7L86.2,2.7z"/>
	<path class="st2" d="M93.8,17.5l0.4,0c2.3,0.1,4.8,1,6.4,2.7C99,19,97,18.3,95.1,18.3l-1.3,0L93.8,17.5L93.8,17.5z M80.3,38.6
		c-1.7-1.4-2.7-3.6-2.7-5.9l0-1.4l0.9,0l-0.1,2.1C78.4,35.4,79.1,37.2,80.3,38.6L80.3,38.6z M70.6,28.4c-1.5-1.2-2.5-2.9-2.4-5
		c0.2-4.3,4.8-6.6,8.7-6.5l1.3,0l0.1-2c0.1-3.7,3-6.9,6.8-6.8l1.6,0.1c1.7,0.1,3.1,0.8,4.2,1.9c-1-0.7-2.1-1.1-3.4-1.1l-1.7-0.1
		c-3.8-0.1-6.7,3.1-6.8,6.8l-0.1,2l-1.3,0c-3.9-0.1-8.6,2.2-8.7,6.5C68.9,25.9,69.5,27.3,70.6,28.4L70.6,28.4z"/>
	<path class="st1" d="M85.7,9.6l1.7,0.1c3,0.1,5.3,2.8,5.2,6l-0.1,3.4l2.7,0.1c4.1,0.1,7.3,2.8,7.2,5.9l0,0
		c-0.1,3.1-3.5,5.5-7.6,5.4L92,30.4l-0.1,3.5c-0.1,3.2-2.6,5.8-5.6,5.7l-1.7-0.1c-3-0.1-5.3-2.8-5.2-6l0.1-3.5l-2.7-0.1
		c-4.1-0.1-7.3-2.8-7.2-5.9l0,0c0.1-3.1,3.5-5.5,7.6-5.4l2.7,0.1l0.1-3.4C80.2,12,82.7,9.5,85.7,9.6L85.7,9.6z"/>
	<path class="st3" d="M85.2,22.4v1.3h3.5c0.4,0,0.8,0.1,1,0.4c0.3,0.3,0.4,0.7,0.4,1.1c0,0.4-0.1,0.8-0.4,1.1
		c-0.3,0.3-0.7,0.4-1,0.4h-3.5V31c0,0.6-0.1,1.2-0.4,1.6c-0.3,0.4-0.7,0.6-1.1,0.6c-0.4,0-0.8-0.2-1.1-0.6c-0.3-0.4-0.4-1-0.4-1.6
		v-7.5l0.1-0.2c0.5-1,1.1-1.5,1.9-1.8c0.6-0.2,1.3-0.3,2.1-0.4C85.6,21.3,85.2,21.7,85.2,22.4L85.2,22.4z M82.3,22.6L82.3,22.6
		c0.5-0.7,1.1-1.2,1.8-1.4c0.8-0.3,1.8-0.4,3.1-0.4l0.4,0l0.4,0h1.6c0.2,0,0.4,0,0.5-0.1c0.2-0.1,0.3-0.2,0.4-0.3
		c0.1-0.1,0.2-0.3,0.3-0.5c0.1-0.2,0.1-0.4,0.1-0.6c0-0.2,0-0.4-0.1-0.6c-0.1-0.2-0.1-0.3-0.3-0.5c-0.1-0.1-0.3-0.2-0.4-0.3
		C89.8,18,89.6,18,89.4,18h-3.1c-1.3,0-2.3,0.4-3,1.2C82.7,19.9,82.3,21.1,82.3,22.6L82.3,22.6z"/>
	<path class="st2" d="M82.2,23.1v-0.5c0.1-3.2,1.4-4.8,4.2-4.8h3.1c0.4,0,0.8,0.1,1.1,0.4c0.3,0.3,0.4,0.7,0.4,1.1
		c0,0.4-0.1,0.8-0.4,1.1c-0.3,0.3-0.7,0.4-1.1,0.4h-1.6c-0.3,0-0.5,0-0.7,0h0l0,0C84.8,21,83.2,21.2,82.2,23.1L82.2,23.1z"/>
</g>
</svg>
