<!-- Generator: Adobe Illustrator 21.1.0, SVG Export Plug-In  -->
<svg version="1.1"
	 xmlns="http://www.w3.org/2000/svg" xmlns:xlink="http://www.w3.org/1999/xlink" xmlns:a="http://ns.adobe.com/AdobeSVGViewerExtensions/3.0/"
	 x="0px" y="0px" width="30.5px" height="41.9px" viewBox="0 0 30.5 41.9" style="enable-background:new 0 0 30.5 41.9;"
	 xml:space="preserve">
<style type="text/css">
	.st0{fill-rule:evenodd;clip-rule:evenodd;fill:#FFFFFF;}
</style>
<defs>
</defs>
<g>
	<path class="st0" d="M5.6,13.4c0-2.2,1.1-4.2,2.5-5.7l0.5-0.5c4-3.7,9.9-3.4,13.8,0.7c0.2,0.2,0.3,0.3,0.5,0.5
		c2.8,3.4,2.3,9-0.9,12.2c-3.7,3.6-10.1,3.7-13.8-0.1C6.3,18.5,5.6,16.4,5.6,13.4L5.6,13.4z M0,14.4c0,5.1,1.9,8,4.4,12
		c0.7,1.1,1.4,2.1,2.1,3.2c0.6,0.9,7.9,11.7,8.7,12.2c0.8-0.5,1.6-2.1,2.3-2.9l6.6-9.4c0.7-1.1,1.3-2,2-3.1c3.3-5.3,6-11.1,3.1-17.5
		C26.9,4,21.8,0,16.3,0c-3.1,0-4.9,0.1-7.7,1.4C7.7,1.8,7.2,2.2,6.3,2.7C3,4.9,0,9.6,0,14.4L0,14.4z"/>
</g>
</svg>
