<!-- Generator: Adobe Illustrator 21.1.0, SVG Export Plug-In  -->
<svg version="1.1"
	 xmlns="http://www.w3.org/2000/svg" xmlns:xlink="http://www.w3.org/1999/xlink" xmlns:a="http://ns.adobe.com/AdobeSVGViewerExtensions/3.0/"
	 x="0px" y="0px" width="28.9px" height="30.2px" viewBox="0 0 28.9 30.2" style="enable-background:new 0 0 28.9 30.2;"
	 xml:space="preserve">
<style type="text/css">
	.st0{fill-rule:evenodd;clip-rule:evenodd;fill:#FFFFFF;}
</style>
<defs>
</defs>
<g>
	<path class="st0" d="M6.7,0H6L5.6,0.2C5.5,0.2,5.4,0.3,5.2,0.3C4.7,0.6,4.4,1,4.1,1.3C2.3,2.6,0.8,4.3,0.3,6.7
		c-0.6,2.4-0.3,4.6,0.5,6.9C1.7,16,3,18,4.6,20l3.9,4.4c0.9,0.9,2.9,2.6,4,3.2c1.5,0.9,3.1,1.9,5,2.3c1.3,0.3,2.4,0.5,3.8,0.3
		c1.4-0.2,2-0.3,3.2-0.9c1.2-0.6,2.1-1.3,3-2.2c0.2-0.2,0.3-0.3,0.6-0.5c1.6-1.4,0.7-2.8-0.5-3.9c-0.2-0.2-0.3-0.3-0.5-0.5
		c-0.2-0.2-0.3-0.3-0.6-0.5c-0.2-0.2-0.3-0.3-0.6-0.5c-1.1-0.8-1.7-1.5-3.3-1.9c-1.5-0.4-2.3,0.5-3,1.1c-0.9,0.7-1.6,1.6-2.2,1.9
		c-0.5,0.2-1.3,0.2-1.8,0c-1-0.4-1.7-0.9-2.5-1.6L11.5,19c-0.5-0.5-1.8-2.1-2.3-2.8c-1-1.4-2.7-4.2-0.6-5.6c0.7-0.5,1.1-0.8,1.7-1.3
		c1.8-1.4,1.4-3.3,0.3-5C9.6,2.7,9.2,2,8,0.8C7.4,0.1,7.1,0.3,6.7,0L6.7,0z"/>
</g>
</svg>