<?xml version="1.0" standalone="no"?>
<!DOCTYPE svg PUBLIC "-//W3C//DTD SVG 20010904//EN"
 "http://www.w3.org/TR/2001/REC-SVG-20010904/DTD/svg10.dtd">
<svg version="1.0" xmlns="http://www.w3.org/2000/svg"
 width="260.000000pt" height="260.000000pt" viewBox="0 0 260.000000 260.000000"
 preserveAspectRatio="xMidYMid meet">
<metadata>
Created by potrace 1.11, written by Peter Selinger 2001-2013
</metadata>
<g transform="translate(0.000000,260.000000) scale(0.100000,-0.100000)"
fill="#000000" stroke="none">
<path d="M0 1300 l0 -1300 1300 0 1300 0 0 1300 0 1300 -1300 0 -1300 0 0
-1300z m1555 1010 c364 -99 638 -381 737 -755 29 -113 36 -329 14 -448 -77
-406 -365 -719 -764 -829 -64 -18 -106 -22 -247 -22 -148 -1 -181 2 -255 22
-368 101 -643 381 -742 757 -30 113 -36 329 -14 449 80 421 391 745 806 837
119 26 350 21 465 -11z"/>
<path d="M1190 2229 c-48 -5 -127 -24 -182 -43 -564 -193 -805 -858 -501
-1382 54 -94 217 -261 305 -312 88 -52 206 -99 293 -117 101 -22 276 -22 372
-1 286 62 521 249 648 518 65 138 88 244 88 403 0 191 -39 337 -134 498 -51
87 -218 257 -301 305 -184 108 -383 152 -588 131z m197 -280 c57 -18 109 -64
138 -124 24 -49 29 -71 33 -176 l5 -119 106 0 c58 0 123 -5 145 -11 42 -12
119 -77 141 -120 64 -123 17 -279 -104 -341 -50 -26 -62 -28 -172 -28 l-119 0
0 -84 c0 -170 -36 -257 -128 -312 -68 -41 -127 -50 -198 -29 -68 20 -129 73
-160 140 -21 43 -24 65 -24 168 l0 117 -120 0 c-134 0 -164 8 -225 61 -80 70
-107 194 -64 289 27 60 64 98 124 126 44 21 65 24 166 24 l117 0 4 128 c3 105
7 134 25 167 62 116 179 163 310 124z"/>
<path d="M1190 1541 c-45 -24 -78 -89 -83 -162 l-4 -55 41 41 c52 51 95 65
229 72 101 5 110 8 119 29 6 12 7 39 4 58 l-7 36 -132 0 c-110 0 -138 -3 -167
-19z"/>
<path d="M1178 1360 c-73 -48 -78 -62 -78 -197 0 -153 6 -163 96 -163 l64 0 0
100 0 100 89 0 c102 0 121 10 121 65 0 64 -2 65 -111 65 l-99 0 0 30 c0 39
-22 39 -82 0z"/>
</g>
</svg>
