<?xml version="1.0" standalone="no"?>
<!DOCTYPE svg PUBLIC "-//W3C//DTD SVG 20010904//EN"
 "http://www.w3.org/TR/2001/REC-SVG-20010904/DTD/svg10.dtd">
<svg version="1.0" xmlns="http://www.w3.org/2000/svg"
 width="260.000000pt" height="260.000000pt" viewBox="0 0 260.000000 260.000000"
 preserveAspectRatio="xMidYMid meet">
<metadata>
Created by potrace 1.11, written by Peter Selinger 2001-2013
</metadata>
<g transform="translate(0.000000,260.000000) scale(0.100000,-0.100000)"
fill="#000000" stroke="none">
<path d="M0 1300 l0 -1300 1300 0 1300 0 0 1300 0 1300 -1300 0 -1300 0 0
-1300z m1560 930 c104 -25 263 -101 350 -168 163 -124 294 -321 352 -529 19
-67 22 -104 22 -258 0 -212 -14 -278 -93 -440 -127 -260 -327 -428 -608 -511
-126 -37 -319 -44 -453 -16 -358 74 -643 351 -741 719 -32 118 -37 320 -11
443 39 189 119 343 251 482 159 168 344 263 586 302 65 10 262 -4 345 -24z"/>
<path d="M1240 2188 c-201 -15 -385 -99 -540 -245 -209 -197 -301 -423 -287
-711 6 -140 30 -231 93 -358 114 -233 327 -401 602 -476 113 -31 333 -31 452
1 281 74 517 277 620 534 47 119 61 184 67 312 11 257 -71 473 -251 663 -190
200 -468 303 -756 280z m262 -315 c26 -18 54 -52 71 -83 24 -47 27 -62 27
-156 l0 -104 84 0 c199 0 326 -90 326 -231 0 -69 -34 -127 -97 -167 -65 -41
-111 -52 -220 -52 l-93 0 0 -104 c0 -116 -11 -154 -62 -212 -46 -52 -99 -74
-183 -74 -100 0 -143 15 -192 66 -52 54 -73 119 -73 229 l0 82 -102 7 c-78 6
-117 13 -161 33 -210 94 -189 331 37 407 29 10 81 16 136 16 l90 0 0 83 c0
105 21 177 66 226 56 63 84 72 201 69 96 -3 104 -5 145 -35z"/>
<path d="M1291 1598 c-100 -49 -124 -141 -119 -446 3 -200 3 -204 27 -223 47
-38 120 -16 140 43 6 17 11 65 11 107 l0 76 69 0 c79 0 107 17 117 70 7 37
-15 89 -41 99 -9 3 -48 6 -86 6 l-69 0 0 36 c0 62 13 74 80 74 79 0 115 28
115 90 0 34 -6 47 -28 66 -39 33 -151 34 -216 2z"/>
</g>
</svg>
