<!-- Generator: Adobe Illustrator 21.1.0, SVG Export Plug-In  -->
<svg version="1.1"
	 xmlns="http://www.w3.org/2000/svg" xmlns:xlink="http://www.w3.org/1999/xlink" xmlns:a="http://ns.adobe.com/AdobeSVGViewerExtensions/3.0/"
	 x="0px" y="0px" width="142.4px" height="51.3px" viewBox="0 0 142.4 51.3"
	 style="overflow:scroll;enable-background:new 0 0 142.4 51.3;" xml:space="preserve">
<style type="text/css">
	.st0{fill-rule:evenodd;clip-rule:evenodd;fill:#315290;}
	.st1{fill-rule:evenodd;clip-rule:evenodd;fill:#C6363D;}
</style>
<defs>
</defs>
<path class="st0" d="M29.5,21.1c-2.8,0-5.1-0.9-6.9-2.7c-1.8-1.8-2.7-4.2-2.7-7.2c0-3.1,0.9-5.6,2.7-7.6c1.8-1.9,4.2-2.9,7.2-2.9
	c2.8,0,5.1,0.9,6.8,2.8c1.7,1.8,2.6,4.3,2.6,7.3c0,3.1-0.9,5.6-2.7,7.5c-0.1,0.1-0.1,0.1-0.2,0.2c-0.1,0.1-0.1,0.1-0.2,0.2l5,4.8H35
	l-2.6-2.6C31.5,21,30.6,21.1,29.5,21.1L29.5,21.1z M29.7,4.5c-1.5,0-2.8,0.6-3.7,1.8c-0.9,1.2-1.4,2.7-1.4,4.6c0,2,0.5,3.5,1.4,4.6
	c0.9,1.1,2.1,1.7,3.6,1.7c1.5,0,2.7-0.5,3.6-1.7c0.9-1.1,1.3-2.6,1.3-4.6c0-2-0.4-3.6-1.3-4.8C32.4,5.1,31.2,4.5,29.7,4.5L29.7,4.5z
	 M55.5,20.8h-4.3v-2.1h-0.1c-1.1,1.7-2.5,2.5-4.3,2.5c-3.3,0-4.9-2-4.9-5.9V6.7h4.3v8.1c0,2,0.8,3,2.4,3c0.8,0,1.4-0.3,1.9-0.8
	c0.5-0.5,0.7-1.3,0.7-2.2V6.7h4.3V20.8L55.5,20.8z M61.3,4.5c-0.7,0-1.3-0.2-1.8-0.7c-0.5-0.4-0.7-1-0.7-1.6c0-0.7,0.2-1.2,0.7-1.6
	C60,0.2,60.6,0,61.3,0c0.7,0,1.3,0.2,1.8,0.6c0.5,0.4,0.7,0.9,0.7,1.6c0,0.7-0.2,1.2-0.7,1.6C62.7,4.3,62.1,4.5,61.3,4.5L61.3,4.5z
	 M63.5,20.8h-4.3V6.7h4.3V20.8L63.5,20.8z M79.8,15h-9.2c0.1,2,1.4,3.1,3.9,3.1c1.5,0,2.9-0.4,4.1-1.1v3.1c-1.3,0.7-3,1-5.1,1
	c-2.3,0-4-0.6-5.3-1.9c-1.3-1.3-1.9-3-1.9-5.3c0-2.3,0.7-4.2,2-5.6c1.4-1.4,3-2,5-2c2,0,3.6,0.6,4.8,1.8c1.1,1.2,1.7,2.9,1.7,5V15
	L79.8,15z M75.7,12.3c0-2-0.8-3-2.4-3c-0.7,0-1.3,0.3-1.8,0.9c-0.5,0.6-0.8,1.3-0.9,2.2H75.7L75.7,12.3z M95.9,20.8h-4.3v-7.8
	c0-2.2-0.8-3.3-2.3-3.3c-0.8,0-1.4,0.3-1.9,0.9c-0.5,0.6-0.7,1.3-0.7,2.2v8h-4.3V6.7h4.3v2.2h0.1c1-1.7,2.5-2.6,4.5-2.6
	c3.1,0,4.7,1.9,4.7,5.8V20.8L95.9,20.8z M112,15h-9.2c0.1,2,1.4,3.1,3.9,3.1c1.5,0,2.9-0.4,4.1-1.1v3.1c-1.3,0.7-3,1-5.1,1
	c-2.3,0-4-0.6-5.3-1.9c-1.3-1.3-1.9-3-1.9-5.3c0-2.3,0.7-4.2,2-5.6c1.4-1.4,3-2,5-2c2,0,3.6,0.6,4.8,1.8c1.1,1.2,1.7,2.9,1.7,5V15
	L112,15z M108,12.3c0-2-0.8-3-2.4-3c-0.7,0-1.3,0.3-1.8,0.9c-0.5,0.6-0.8,1.3-0.9,2.2H108L108,12.3z M113.7,20.4v-3.5
	c0.7,0.4,1.4,0.7,2.1,1c0.7,0.2,1.4,0.3,2,0.3c0.8,0,1.4-0.1,1.8-0.3c0.4-0.2,0.7-0.5,0.7-1c0-0.3-0.1-0.5-0.3-0.7
	c-0.2-0.2-0.5-0.3-0.8-0.5c-0.3-0.1-0.7-0.3-1-0.4c-0.4-0.1-0.7-0.2-1.1-0.4c-0.6-0.2-1.1-0.4-1.5-0.7c-0.4-0.2-0.8-0.5-1.1-0.8
	c-0.3-0.3-0.5-0.7-0.7-1.1c-0.2-0.4-0.2-0.9-0.2-1.5c0-0.8,0.2-1.5,0.5-2c0.3-0.6,0.8-1,1.4-1.4c0.6-0.4,1.2-0.6,2-0.8
	c0.7-0.2,1.5-0.3,2.3-0.3c0.6,0,1.3,0,1.9,0.1c0.6,0.1,1.3,0.2,1.9,0.4v3.4c-0.6-0.3-1.1-0.6-1.8-0.7c-0.6-0.2-1.2-0.2-1.8-0.2
	c-0.3,0-0.6,0-0.8,0.1c-0.3,0-0.5,0.1-0.7,0.2c-0.2,0.1-0.3,0.2-0.5,0.4c-0.1,0.1-0.2,0.3-0.2,0.5c0,0.3,0.1,0.5,0.2,0.7
	c0.2,0.2,0.4,0.3,0.6,0.5c0.3,0.1,0.6,0.3,0.9,0.4c0.3,0.1,0.6,0.2,1,0.3c0.6,0.2,1.1,0.4,1.6,0.7c0.5,0.2,0.9,0.5,1.2,0.8
	c0.3,0.3,0.6,0.7,0.8,1.1c0.2,0.4,0.3,0.9,0.3,1.5c0,0.8-0.2,1.5-0.5,2.1c-0.4,0.6-0.8,1.1-1.4,1.4c-0.6,0.4-1.3,0.6-2.1,0.8
	c-0.8,0.2-1.6,0.3-2.4,0.3C116.4,21.1,115,20.9,113.7,20.4z"/>
<path class="st1" d="M0.1,49.7v-6.3c1.1,1,2.4,1.7,3.7,2.2c1.3,0.5,2.7,0.7,4.1,0.7c0.8,0,1.5-0.1,2.1-0.2c0.6-0.1,1.1-0.3,1.5-0.6
	c0.4-0.3,0.7-0.6,0.9-0.9c0.2-0.4,0.3-0.7,0.3-1.1c0-0.6-0.2-1-0.5-1.5c-0.3-0.4-0.7-0.8-1.3-1.2c-0.5-0.4-1.2-0.7-2-1.1
	c-0.7-0.3-1.6-0.7-2.4-1.1c-2.2-0.9-3.9-2-5-3.4C0.5,33.9,0,32.3,0,30.4c0-1.5,0.3-2.7,0.9-3.8c0.6-1.1,1.4-1.9,2.4-2.6
	c1-0.7,2.2-1.2,3.6-1.5c1.3-0.3,2.8-0.5,4.3-0.5c1.5,0,2.8,0.1,3.9,0.3c1.1,0.2,2.2,0.5,3.2,0.8v5.9c-0.5-0.3-1-0.6-1.6-0.9
	c-0.6-0.2-1.1-0.5-1.7-0.6c-0.6-0.2-1.2-0.3-1.8-0.4C12.6,27,12,27,11.5,27c-0.7,0-1.4,0.1-2,0.2c-0.6,0.1-1.1,0.3-1.5,0.6
	c-0.4,0.3-0.7,0.5-1,0.9c-0.2,0.4-0.3,0.7-0.3,1.2c0,0.5,0.1,0.9,0.4,1.3c0.3,0.4,0.6,0.7,1.1,1.1c0.5,0.3,1,0.7,1.7,1
	c0.7,0.3,1.4,0.7,2.2,1c1.1,0.5,2.1,1,3.1,1.5c0.9,0.5,1.7,1.1,2.3,1.8c0.6,0.7,1.1,1.4,1.5,2.3c0.3,0.9,0.5,1.9,0.5,3
	c0,1.6-0.3,2.9-0.9,4c-0.6,1.1-1.4,1.9-2.4,2.6c-1,0.7-2.2,1.1-3.6,1.4c-1.4,0.3-2.8,0.4-4.3,0.4c-1.6,0-3-0.1-4.4-0.4
	C2.4,50.6,1.1,50.2,0.1,49.7L0.1,49.7z M33.2,51.3c-3.4,0-6-0.9-8-2.8c-1.9-1.9-2.9-4.5-2.9-7.7c0-3.4,1-6,3-7.9
	c2-1.9,4.7-2.8,8.1-2.8c3.4,0,6,0.9,7.9,2.8c1.9,1.9,2.9,4.4,2.9,7.5c0,3.4-1,6-3,8C39.3,50.3,36.6,51.3,33.2,51.3L33.2,51.3z
	 M33.3,34.8c-1.5,0-2.6,0.5-3.4,1.5c-0.8,1-1.2,2.5-1.2,4.3c0,3.9,1.6,5.8,4.7,5.8c3,0,4.5-2,4.5-6C37.9,36.7,36.4,34.8,33.3,34.8
	L33.3,34.8z M80.5,50.8h-6.2V39.2c0-2.9-1.1-4.4-3.2-4.4c-1,0-1.9,0.4-2.5,1.3c-0.6,0.9-1,2-1,3.3v11.3h-6.2V39.1
	c0-2.9-1.1-4.3-3.2-4.3c-1.1,0-1.9,0.4-2.6,1.3c-0.6,0.8-1,2-1,3.4v11.3h-6.2V30.5h6.2v3.2h0.1c0.6-1.1,1.6-2,2.7-2.6
	c1.2-0.7,2.4-1,3.8-1c2.9,0,4.8,1.3,5.9,3.8c1.5-2.5,3.8-3.8,6.8-3.8c4.4,0,6.6,2.7,6.6,8.2V50.8L80.5,50.8z M95.1,51.3
	c-3.4,0-6-0.9-8-2.8c-1.9-1.9-2.9-4.5-2.9-7.7c0-3.4,1-6,3-7.9c2-1.9,4.7-2.8,8.1-2.8c3.4,0,6,0.9,7.9,2.8c1.9,1.9,2.9,4.4,2.9,7.5
	c0,3.4-1,6-3,8C101.2,50.3,98.5,51.3,95.1,51.3L95.1,51.3z M95.3,34.8c-1.5,0-2.6,0.5-3.4,1.5c-0.8,1-1.2,2.5-1.2,4.3
	c0,3.9,1.6,5.8,4.7,5.8c3,0,4.5-2,4.5-6C99.8,36.7,98.3,34.8,95.3,34.8L95.3,34.8z M108.9,50.3v-5.1c1,0.6,2.1,1.1,3.1,1.4
	c1,0.3,2,0.5,2.9,0.5c1.1,0,2-0.1,2.6-0.5c0.6-0.3,1-0.8,1-1.4c0-0.4-0.1-0.7-0.4-1c-0.3-0.3-0.7-0.5-1.1-0.7
	c-0.5-0.2-1-0.4-1.5-0.5c-0.5-0.2-1.1-0.3-1.6-0.5c-0.8-0.3-1.5-0.6-2.1-1c-0.6-0.4-1.1-0.8-1.5-1.2c-0.4-0.5-0.7-1-0.9-1.6
	c-0.2-0.6-0.3-1.3-0.3-2.2c0-1.1,0.3-2.1,0.7-2.9c0.5-0.8,1.2-1.5,2-2c0.8-0.5,1.8-0.9,2.8-1.1c1.1-0.2,2.2-0.4,3.3-0.4
	c0.9,0,1.8,0.1,2.7,0.2c0.9,0.1,1.8,0.3,2.7,0.6v4.8c-0.8-0.5-1.6-0.8-2.5-1c-0.9-0.2-1.8-0.3-2.7-0.3c-0.4,0-0.8,0-1.2,0.1
	c-0.4,0.1-0.7,0.2-1,0.3c-0.3,0.1-0.5,0.3-0.6,0.5c-0.2,0.2-0.2,0.5-0.2,0.7c0,0.4,0.1,0.7,0.4,0.9c0.2,0.3,0.5,0.5,0.9,0.7
	c0.4,0.2,0.8,0.4,1.3,0.5c0.5,0.2,0.9,0.3,1.4,0.5c0.8,0.3,1.6,0.6,2.3,1c0.7,0.3,1.2,0.7,1.7,1.2c0.5,0.5,0.9,1,1.1,1.6
	c0.3,0.6,0.4,1.4,0.4,2.2c0,1.2-0.3,2.2-0.8,3.1c-0.5,0.9-1.2,1.5-2.1,2.1c-0.9,0.5-1.9,0.9-3,1.2c-1.1,0.2-2.3,0.4-3.5,0.4
	C112.9,51.3,110.8,50.9,108.9,50.3L108.9,50.3z M130.6,42.6c-0.1-0.3-0.2-0.7-0.3-1.2c-0.1-0.4-0.1-0.8-0.1-1.2
	c0-0.6,0.1-1.2,0.2-1.7c0.1-0.5,0.3-1,0.5-1.4c0.2-0.4,0.5-0.9,0.9-1.3c0.4-0.4,0.8-0.8,1.2-1.2c0.5-0.4,0.9-0.8,1.3-1.2
	c0.4-0.4,0.7-0.7,1-1.1c0.3-0.4,0.5-0.7,0.6-1.1c0.1-0.4,0.2-0.8,0.2-1.3c0-0.4-0.1-0.8-0.2-1.1c-0.1-0.3-0.4-0.6-0.6-0.9
	c-0.3-0.3-0.6-0.4-1-0.6c-0.4-0.1-0.8-0.2-1.3-0.2c-1,0-2.1,0.2-3.2,0.6c-1.1,0.4-2.2,1.1-3.1,2v-6c1-0.6,2.1-1.1,3.3-1.4
	c1.2-0.3,2.4-0.5,3.7-0.5c1.2,0,2.4,0.1,3.4,0.4c1.1,0.3,2,0.7,2.8,1.3c0.8,0.6,1.4,1.3,1.8,2.2c0.4,0.9,0.7,2,0.7,3.3
	c0,0.8-0.1,1.5-0.3,2.2c-0.2,0.6-0.5,1.3-0.8,1.9c-0.4,0.6-0.8,1.1-1.3,1.7c-0.5,0.5-1.1,1.1-1.8,1.7c-0.5,0.4-0.9,0.7-1.2,1.1
	c-0.4,0.3-0.6,0.7-0.9,1c-0.2,0.3-0.4,0.7-0.5,1c-0.1,0.4-0.2,0.8-0.2,1.2c0,0.3,0,0.6,0.1,1c0.1,0.3,0.2,0.6,0.3,0.8H130.6
	L130.6,42.6z M133.5,51.2c-1.1,0-1.9-0.3-2.6-0.9c-0.7-0.7-1.1-1.4-1.1-2.3c0-0.9,0.4-1.7,1.1-2.3c0.7-0.6,1.6-0.9,2.6-0.9
	c1,0,1.9,0.3,2.6,0.9c0.7,0.6,1,1.4,1,2.3c0,1-0.3,1.7-1,2.4C135.4,50.9,134.6,51.2,133.5,51.2z"/>
</svg>
