<!-- Generator: Adobe Illustrator 21.1.0, SVG Export Plug-In  -->
<svg version="1.1"
	 xmlns="http://www.w3.org/2000/svg" xmlns:xlink="http://www.w3.org/1999/xlink" xmlns:a="http://ns.adobe.com/AdobeSVGViewerExtensions/3.0/"
	 x="0px" y="0px" width="146px" height="38.9px" viewBox="0 0 146 38.9" style="enable-background:new 0 0 146 38.9;"
	 xml:space="preserve">
<style type="text/css">
	.st0{fill:#C23436;}
	.st1{fill:#133C7E;}
</style>
<defs>
</defs>
<g>
	<path class="st0" d="M4.1,32.8H0V14.8h4.1V32.8z M20.2,32.8h-4v-7.2c0-2-0.7-3-2.1-3c-0.7,0-1.2,0.3-1.7,0.8
		c-0.5,0.5-0.7,1.2-0.7,2v7.3h-4V19.9h4v2h0c1-1.6,2.3-2.4,4.1-2.4c2.9,0,4.3,1.8,4.3,5.3V32.8z M35.6,19.9l-5.2,13.9
		c-1.2,3.3-3.1,5-5.7,5c-1,0-1.8-0.1-2.4-0.3v-3.2c0.5,0.3,1.1,0.5,1.7,0.5c1,0,1.7-0.5,2.1-1.4l0.7-1.6l-5.2-12.9h4.4l2.4,7.9
		c0.2,0.5,0.3,1,0.4,1.7h0.1c0.1-0.5,0.2-1.1,0.4-1.7l2.4-7.9H35.6z M48.6,27.5h-8.4c0.1,1.8,1.3,2.8,3.5,2.8c1.4,0,2.7-0.3,3.7-1
		v2.9c-1.2,0.7-2.7,1-4.6,1c-2.1,0-3.7-0.6-4.8-1.7c-1.1-1.2-1.7-2.8-1.7-4.8c0-2.2,0.6-3.9,1.9-5.1c1.2-1.2,2.8-1.9,4.6-1.9
		c1.9,0,3.3,0.6,4.3,1.7c1,1.1,1.6,2.6,1.6,4.5V27.5z M44.9,25.1c0-1.8-0.8-2.7-2.2-2.7c-0.7,0-1.2,0.3-1.7,0.8
		c-0.5,0.5-0.7,1.2-0.9,2H44.9z M60.7,32.3c-0.9,0.5-2.2,0.8-3.9,0.8c-2,0-3.6-0.6-4.8-1.8c-1.2-1.2-1.8-2.7-1.8-4.6
		c0-2.2,0.7-3.9,2-5.2c1.3-1.2,3.1-1.9,5.3-1.9c1.5,0,2.6,0.2,3.3,0.6v3.4c-0.8-0.6-1.8-0.9-2.8-0.9c-1.1,0-2,0.3-2.7,1
		c-0.7,0.7-1,1.6-1,2.7s0.3,2,1,2.7c0.7,0.7,1.5,1,2.6,1c1,0,2-0.3,2.9-0.9V32.3z M71.1,32.7c-0.6,0.3-1.5,0.5-2.7,0.5
		c-2.8,0-4.2-1.5-4.2-4.4v-5.9h-2.1v-2.9h2.1v-2.8l4-1.1v3.9h2.9v2.9h-2.9v5.2c0,1.3,0.5,2,1.6,2c0.4,0,0.9-0.1,1.3-0.3V32.7z
		 M79.3,33.1c-2.2,0-3.8-0.6-5.1-1.8c-1.2-1.2-1.8-2.8-1.8-4.9c0-2.1,0.7-3.8,1.9-5c1.3-1.2,3-1.8,5.2-1.8c2.2,0,3.8,0.6,5,1.8
		c1.2,1.2,1.8,2.8,1.8,4.8c0,2.2-0.6,3.8-1.9,5.1C83.3,32.5,81.5,33.1,79.3,33.1L79.3,33.1z M79.5,22.7c-1,0-1.7,0.3-2.2,1
		c-0.5,0.7-0.8,1.6-0.8,2.7c0,2.5,1,3.7,3,3.7c1.9,0,2.8-1.2,2.8-3.8C82.3,23.9,81.4,22.7,79.5,22.7L79.5,22.7z M92.9,32.8h-4V13.7
		h4V32.8z M102.4,33.1c-2.2,0-3.8-0.6-5.1-1.8c-1.2-1.2-1.8-2.8-1.8-4.9c0-2.1,0.7-3.8,1.9-5c1.3-1.2,3-1.8,5.2-1.8
		c2.2,0,3.8,0.6,5,1.8c1.2,1.2,1.8,2.8,1.8,4.8c0,2.2-0.6,3.8-1.9,5.1C106.3,32.5,104.6,33.1,102.4,33.1L102.4,33.1z M102.5,22.7
		c-1,0-1.7,0.3-2.2,1c-0.5,0.7-0.8,1.6-0.8,2.7c0,2.5,1,3.7,3,3.7c1.9,0,2.9-1.2,2.9-3.8C105.4,23.9,104.4,22.7,102.5,22.7
		L102.5,22.7z M124.7,31.4c0,2.4-0.7,4.2-2.1,5.6c-1.4,1.3-3.4,2-6,2c-1.7,0-3.1-0.2-4.1-0.7v-3.3c1.3,0.8,2.6,1.2,4,1.2
		c1.3,0,2.4-0.4,3.1-1.1c0.7-0.7,1.1-1.7,1.1-2.9v-1h0c-0.9,1.4-2.3,2.2-4,2.2c-1.6,0-2.9-0.6-3.9-1.7c-1-1.2-1.4-2.7-1.4-4.7
		c0-2.2,0.5-3.9,1.6-5.2c1.1-1.3,2.5-1.9,4.2-1.9c1.6,0,2.7,0.6,3.5,1.8h0v-1.5h4V31.4z M120.7,26.6v-1c0-0.8-0.2-1.5-0.7-2.1
		s-1.1-0.9-1.9-0.9c-0.9,0-1.6,0.3-2.1,1c-0.5,0.7-0.8,1.6-0.8,2.9c0,1,0.3,1.9,0.7,2.5c0.5,0.7,1.1,0.9,2,0.9c0.8,0,1.5-0.3,2-0.9
		C120.5,28.5,120.7,27.7,120.7,26.6L120.7,26.6z M132,32.8h-4V19.9h4V32.8z M134,13.8l-3.9,4.1h-2.9l3.3-4.1H134z M146,32.8h-3.8V31
		h0c-0.9,1.4-2.2,2.2-3.9,2.2c-1.2,0-2.2-0.4-2.9-1.1c-0.7-0.7-1.1-1.6-1.1-2.8c0-2.5,1.5-3.9,4.5-4.3l3.5-0.5
		c0-1.4-0.8-2.1-2.3-2.1c-1.5,0-3,0.5-4.4,1.4v-3c0.6-0.3,1.3-0.5,2.3-0.7c1-0.2,1.8-0.3,2.6-0.3c3.7,0,5.5,1.8,5.5,5.5V32.8z
		 M142.3,27.6v-0.9l-2.3,0.3c-1.3,0.2-2,0.8-2,1.8c0,0.5,0.2,0.8,0.5,1.1s0.7,0.4,1.3,0.4c0.7,0,1.4-0.3,1.8-0.8
		C142,29,142.3,28.4,142.3,27.6L142.3,27.6z"/>
	<path class="st1" d="M11.3,14v-3.2c0.6,0.5,1.2,0.9,1.9,1.1c0.7,0.2,1.4,0.4,2,0.4c0.4,0,0.8-0.1,1.1-0.1c0.3-0.1,0.5-0.2,0.8-0.3
		c0.2-0.1,0.3-0.3,0.5-0.5c0.1-0.2,0.1-0.4,0.1-0.6c0-0.3-0.1-0.5-0.2-0.7c-0.2-0.2-0.4-0.4-0.7-0.6c-0.3-0.2-0.6-0.4-1-0.6
		c-0.4-0.2-0.8-0.3-1.2-0.5c-1.1-0.5-2-1-2.5-1.7c-0.5-0.7-0.8-1.5-0.8-2.4c0-0.7,0.1-1.4,0.5-1.9c0.3-0.5,0.7-1,1.2-1.3
		c0.5-0.3,1.1-0.6,1.8-0.8C15.3,0.1,16.1,0,16.8,0c0.8,0,1.4,0.1,2,0.1c0.6,0.1,1.1,0.2,1.6,0.4v3c-0.3-0.2-0.5-0.3-0.8-0.4
		C19.3,3,19,2.9,18.7,2.8c-0.3-0.1-0.6-0.1-0.9-0.2c-0.3,0-0.6-0.1-0.9-0.1c-0.4,0-0.7,0-1,0.1c-0.3,0.1-0.6,0.2-0.8,0.3
		c-0.2,0.1-0.4,0.3-0.5,0.5c-0.1,0.2-0.2,0.4-0.2,0.6s0.1,0.5,0.2,0.7c0.1,0.2,0.3,0.4,0.6,0.5c0.2,0.2,0.5,0.3,0.9,0.5
		c0.3,0.2,0.7,0.3,1.1,0.5c0.6,0.3,1.1,0.5,1.6,0.8c0.5,0.3,0.9,0.6,1.2,0.9c0.3,0.3,0.6,0.7,0.8,1.2c0.2,0.5,0.3,1,0.3,1.5
		c0,0.8-0.1,1.5-0.5,2c-0.3,0.5-0.7,1-1.2,1.3c-0.5,0.3-1.1,0.6-1.8,0.7c-0.7,0.2-1.4,0.2-2.2,0.2c-0.8,0-1.5-0.1-2.2-0.2
		S11.8,14.3,11.3,14L11.3,14z M32,14.6h-8.6V0.3h8.3v2.6h-5v3.2h4.7v2.6h-4.7V12H32V14.6z M46.3,14.6h-3.7l-2.2-3.7
		c-0.2-0.3-0.3-0.5-0.5-0.7c-0.1-0.2-0.3-0.4-0.5-0.6c-0.2-0.2-0.3-0.3-0.5-0.4s-0.4-0.1-0.6-0.1h-0.9v5.5h-3.2V0.3h5.1
		c3.5,0,5.2,1.3,5.2,3.9c0,0.5-0.1,1-0.2,1.4S44,6.3,43.7,6.7c-0.3,0.3-0.6,0.7-1,0.9c-0.4,0.3-0.8,0.5-1.3,0.6v0
		c0.2,0.1,0.4,0.2,0.6,0.3c0.2,0.1,0.4,0.3,0.6,0.5c0.2,0.2,0.4,0.4,0.5,0.7c0.2,0.2,0.3,0.5,0.5,0.7L46.3,14.6z M37.5,2.7v4h1.4
		c0.7,0,1.2-0.2,1.7-0.6c0.4-0.4,0.6-0.9,0.6-1.5c0-1.2-0.7-1.9-2.2-1.9H37.5z M59.6,0.3l-4.9,14.3H51L46.1,0.3h3.5l3,10
		c0.2,0.5,0.3,1,0.3,1.4h0.1c0.1-0.5,0.1-0.9,0.3-1.5l3-9.9H59.6z M64.5,14.6h-3.2V0.3h3.2V14.6z M78.1,14.1c-1,0.5-2.4,0.8-4.1,0.8
		c-2.2,0-3.9-0.7-5.2-1.9c-1.3-1.3-1.9-3-1.9-5.2c0-2.3,0.7-4.1,2.1-5.6C70.4,0.7,72.3,0,74.5,0c1.4,0,2.6,0.2,3.5,0.5v3.1
		c-1-0.6-2-0.9-3.3-0.9c-1.3,0-2.4,0.4-3.3,1.3c-0.8,0.9-1.2,2-1.2,3.4c0,1.4,0.4,2.5,1.2,3.3c0.8,0.8,1.8,1.2,3.1,1.2
		c1.3,0,2.4-0.3,3.5-0.9V14.1z M83.8,14.6h-3.2V0.3h3.2V14.6z M93.1,14.8c-2.1,0-3.7-0.7-5-2c-1.3-1.3-2-3.1-2-5.2
		c0-2.3,0.7-4.1,2-5.5c1.3-1.4,3-2.1,5.2-2.1c2,0,3.7,0.7,5,2s1.9,3.1,1.9,5.3c0,2.2-0.7,4.1-2,5.4C96.9,14.1,95.2,14.8,93.1,14.8
		L93.1,14.8z M93.3,2.8c-1.1,0-2,0.4-2.7,1.3c-0.7,0.9-1,2-1,3.4c0,1.4,0.3,2.6,1,3.4c0.7,0.8,1.6,1.2,2.6,1.2c1.1,0,2-0.4,2.6-1.2
		c0.7-0.8,1-1.9,1-3.3c0-1.5-0.3-2.6-1-3.5C95.2,3.2,94.3,2.8,93.3,2.8L93.3,2.8z"/>
</g>
</svg>
