<!-- Generator: Adobe Illustrator 21.1.0, SVG Export Plug-In  -->
<svg version="1.1"
	 xmlns="http://www.w3.org/2000/svg" xmlns:xlink="http://www.w3.org/1999/xlink" xmlns:a="http://ns.adobe.com/AdobeSVGViewerExtensions/3.0/"
	 x="0px" y="0px" width="135.1px" height="48.6px" viewBox="0 0 135.1 48.6"
	 style="overflow:scroll;enable-background:new 0 0 135.1 48.6;" xml:space="preserve">
<style type="text/css">
	.st0{fill-rule:evenodd;clip-rule:evenodd;fill:#315290;}
	.st1{fill-rule:evenodd;clip-rule:evenodd;fill:#C6363D;}
</style>
<defs>
</defs>
<path class="st0" d="M28,20c-2.7,0-4.9-0.9-6.5-2.6c-1.7-1.8-2.5-4-2.5-6.8c0-2.9,0.9-5.3,2.6-7.2c1.7-1.8,4-2.7,6.8-2.7
	c2.7,0,4.8,0.9,6.5,2.6c1.6,1.7,2.5,4,2.5,6.9c0,2.9-0.9,5.3-2.6,7.1c-0.1,0.1-0.1,0.1-0.2,0.2c-0.1,0.1-0.1,0.1-0.2,0.2l4.7,4.5
	h-5.9l-2.5-2.5C29.9,19.9,29,20,28,20L28,20z M28.2,4.3c-1.5,0-2.6,0.6-3.5,1.7c-0.9,1.1-1.3,2.6-1.3,4.4c0,1.8,0.4,3.3,1.3,4.4
	c0.9,1.1,2,1.6,3.4,1.6c1.5,0,2.6-0.5,3.5-1.6c0.8-1.1,1.3-2.5,1.3-4.4c0-1.9-0.4-3.4-1.2-4.5C30.8,4.9,29.6,4.3,28.2,4.3L28.2,4.3z
	 M52.6,19.7h-4.1v-2h-0.1c-1,1.6-2.4,2.4-4.1,2.4c-3.1,0-4.6-1.9-4.6-5.6v-8h4.1V14c0,1.9,0.7,2.8,2.2,2.8c0.7,0,1.3-0.3,1.8-0.8
	c0.4-0.5,0.7-1.2,0.7-2.1V6.3h4.1V19.7L52.6,19.7z M58.2,4.2c-0.7,0-1.3-0.2-1.7-0.6c-0.4-0.4-0.7-0.9-0.7-1.5
	c0-0.6,0.2-1.1,0.7-1.5c0.4-0.4,1-0.6,1.7-0.6c0.7,0,1.3,0.2,1.7,0.6c0.4,0.4,0.7,0.9,0.7,1.5c0,0.6-0.2,1.1-0.7,1.5
	C59.4,4,58.9,4.2,58.2,4.2L58.2,4.2z M60.2,19.7h-4.1V6.3h4.1V19.7L60.2,19.7z M75.6,14.2h-8.7c0.1,1.9,1.4,2.9,3.7,2.9
	c1.5,0,2.8-0.3,3.9-1v3c-1.2,0.7-2.8,1-4.8,1c-2.2,0-3.8-0.6-5-1.8c-1.2-1.2-1.8-2.9-1.8-5c0-2.2,0.6-4,1.9-5.3
	C66.1,6.7,67.7,6,69.5,6C71.5,6,73,6.6,74,7.8c1.1,1.2,1.6,2.7,1.6,4.7V14.2L75.6,14.2z M71.8,11.7c0-1.9-0.8-2.9-2.3-2.9
	c-0.7,0-1.2,0.3-1.7,0.8c-0.5,0.5-0.8,1.2-0.9,2H71.8L71.8,11.7z M91,19.7h-4.1v-7.4c0-2.1-0.7-3.1-2.2-3.1c-0.7,0-1.3,0.3-1.8,0.8
	c-0.5,0.5-0.7,1.2-0.7,2.1v7.6h-4.1V6.3h4.1v2.1h0.1c1-1.6,2.4-2.4,4.3-2.4c3,0,4.4,1.8,4.4,5.5V19.7L91,19.7z M106.2,14.2h-8.7
	c0.1,1.9,1.4,2.9,3.7,2.9c1.5,0,2.8-0.3,3.9-1v3c-1.2,0.7-2.8,1-4.8,1c-2.2,0-3.8-0.6-5-1.8c-1.2-1.2-1.8-2.9-1.8-5
	c0-2.2,0.6-4,1.9-5.3c1.3-1.3,2.9-1.9,4.7-1.9c1.9,0,3.5,0.6,4.5,1.7c1.1,1.2,1.6,2.7,1.6,4.7V14.2L106.2,14.2z M102.4,11.7
	c0-1.9-0.8-2.9-2.3-2.9c-0.7,0-1.2,0.3-1.7,0.8c-0.5,0.5-0.8,1.2-0.9,2H102.4L102.4,11.7z M107.8,19.3V16c0.7,0.4,1.4,0.7,2,0.9
	c0.7,0.2,1.3,0.3,1.9,0.3c0.7,0,1.3-0.1,1.7-0.3c0.4-0.2,0.6-0.5,0.6-0.9c0-0.3-0.1-0.5-0.3-0.7c-0.2-0.2-0.4-0.3-0.7-0.5
	c-0.3-0.1-0.6-0.2-1-0.4c-0.4-0.1-0.7-0.2-1-0.4c-0.5-0.2-1-0.4-1.4-0.6c-0.4-0.2-0.7-0.5-1-0.8c-0.3-0.3-0.5-0.7-0.6-1.1
	c-0.1-0.4-0.2-0.9-0.2-1.4c0-0.7,0.2-1.4,0.5-1.9c0.3-0.5,0.8-1,1.3-1.3c0.5-0.3,1.2-0.6,1.9-0.8c0.7-0.2,1.4-0.2,2.2-0.2
	c0.6,0,1.2,0,1.8,0.1c0.6,0.1,1.2,0.2,1.8,0.4v3.2c-0.5-0.3-1.1-0.5-1.7-0.7c-0.6-0.2-1.2-0.2-1.8-0.2c-0.3,0-0.5,0-0.8,0.1
	c-0.2,0-0.5,0.1-0.6,0.2c-0.2,0.1-0.3,0.2-0.4,0.4c-0.1,0.1-0.2,0.3-0.2,0.5c0,0.2,0.1,0.4,0.2,0.6c0.2,0.2,0.4,0.3,0.6,0.4
	c0.3,0.1,0.5,0.2,0.8,0.3c0.3,0.1,0.6,0.2,0.9,0.3c0.5,0.2,1,0.4,1.5,0.6c0.4,0.2,0.8,0.5,1.1,0.8c0.3,0.3,0.6,0.7,0.7,1.1
	c0.2,0.4,0.3,0.9,0.3,1.5c0,0.8-0.2,1.5-0.5,2c-0.3,0.6-0.8,1-1.4,1.4c-0.6,0.4-1.2,0.6-2,0.8c-0.7,0.2-1.5,0.2-2.3,0.2
	C110.4,20,109.1,19.8,107.8,19.3z"/>
<path class="st1" d="M0.1,47.1v-6c1.1,0.9,2.3,1.6,3.6,2.1c1.3,0.5,2.6,0.7,3.9,0.7c0.8,0,1.4-0.1,2-0.2c0.6-0.1,1-0.3,1.4-0.6
	c0.4-0.2,0.7-0.5,0.9-0.9c0.2-0.3,0.3-0.7,0.3-1.1c0-0.5-0.1-1-0.4-1.4c-0.3-0.4-0.7-0.8-1.2-1.1c-0.5-0.4-1.1-0.7-1.9-1
	c-0.7-0.3-1.5-0.7-2.3-1c-2.1-0.9-3.7-1.9-4.7-3.2c-1-1.3-1.5-2.8-1.5-4.6c0-1.4,0.3-2.6,0.8-3.6c0.6-1,1.3-1.8,2.3-2.5
	c1-0.6,2.1-1.1,3.4-1.4c1.3-0.3,2.6-0.5,4.1-0.5c1.4,0,2.6,0.1,3.7,0.3c1.1,0.2,2.1,0.4,3,0.8v5.6c-0.5-0.3-0.9-0.6-1.5-0.8
	c-0.5-0.2-1.1-0.4-1.6-0.6c-0.6-0.2-1.1-0.3-1.7-0.3c-0.6-0.1-1.1-0.1-1.6-0.1c-0.7,0-1.3,0.1-1.9,0.2c-0.6,0.1-1,0.3-1.4,0.6
	c-0.4,0.2-0.7,0.5-0.9,0.9c-0.2,0.3-0.3,0.7-0.3,1.1c0,0.5,0.1,0.9,0.4,1.2c0.2,0.4,0.6,0.7,1,1c0.4,0.3,1,0.6,1.6,0.9
	c0.6,0.3,1.3,0.6,2.1,0.9c1.1,0.4,2,0.9,2.9,1.4c0.9,0.5,1.6,1.1,2.2,1.7c0.6,0.6,1.1,1.4,1.4,2.2c0.3,0.8,0.5,1.8,0.5,2.9
	c0,1.5-0.3,2.8-0.9,3.8c-0.6,1-1.3,1.8-2.3,2.5c-1,0.6-2.1,1.1-3.4,1.4c-1.3,0.3-2.7,0.4-4.1,0.4c-1.5,0-2.9-0.1-4.2-0.4
	C2.2,48,1.1,47.6,0.1,47.1L0.1,47.1z M31.5,48.6c-3.2,0-5.7-0.9-7.6-2.7c-1.8-1.8-2.7-4.2-2.7-7.3c0-3.2,0.9-5.7,2.9-7.5
	c1.9-1.8,4.5-2.7,7.7-2.7c3.2,0,5.7,0.9,7.5,2.7c1.8,1.8,2.7,4.2,2.7,7.1c0,3.2-0.9,5.7-2.8,7.6C37.3,47.7,34.7,48.6,31.5,48.6
	L31.5,48.6z M31.6,33c-1.4,0-2.5,0.5-3.3,1.4c-0.8,1-1.2,2.3-1.2,4.1c0,3.7,1.5,5.5,4.5,5.5c2.8,0,4.3-1.9,4.3-5.7
	C35.9,34.8,34.5,33,31.6,33L31.6,33z M76.3,48.2h-5.9v-11c0-2.8-1-4.2-3.1-4.2c-1,0-1.8,0.4-2.4,1.3c-0.6,0.8-0.9,1.9-0.9,3.1v10.8
	h-5.9V37.1c0-2.7-1-4.1-3-4.1c-1,0-1.8,0.4-2.4,1.2c-0.6,0.8-0.9,1.9-0.9,3.3v10.7h-5.9V29h5.9v3h0.1c0.6-1,1.5-1.9,2.6-2.5
	c1.1-0.6,2.3-1,3.6-1c2.7,0,4.6,1.2,5.6,3.6c1.5-2.4,3.6-3.6,6.5-3.6c4.2,0,6.3,2.6,6.3,7.7V48.2L76.3,48.2z M90.2,48.6
	c-3.2,0-5.7-0.9-7.6-2.7c-1.8-1.8-2.7-4.2-2.7-7.3c0-3.2,0.9-5.7,2.9-7.5c1.9-1.8,4.5-2.7,7.7-2.7c3.2,0,5.7,0.9,7.5,2.7
	c1.8,1.8,2.7,4.2,2.7,7.1c0,3.2-0.9,5.7-2.8,7.6C96,47.7,93.5,48.6,90.2,48.6L90.2,48.6z M90.4,33c-1.4,0-2.5,0.5-3.3,1.4
	c-0.8,1-1.2,2.3-1.2,4.1c0,3.7,1.5,5.5,4.5,5.5c2.8,0,4.3-1.9,4.3-5.7C94.7,34.8,93.2,33,90.4,33L90.4,33z M103.3,47.7v-4.8
	c1,0.6,2,1,2.9,1.3c1,0.3,1.9,0.4,2.7,0.4c1.1,0,1.9-0.1,2.5-0.4c0.6-0.3,0.9-0.7,0.9-1.3c0-0.4-0.1-0.7-0.4-0.9
	c-0.3-0.3-0.6-0.5-1.1-0.7c-0.4-0.2-0.9-0.4-1.4-0.5c-0.5-0.2-1-0.3-1.5-0.5c-0.8-0.3-1.4-0.6-2-0.9c-0.6-0.3-1.1-0.7-1.5-1.2
	c-0.4-0.4-0.7-0.9-0.9-1.5c-0.2-0.6-0.3-1.3-0.3-2c0-1.1,0.2-2,0.7-2.8c0.5-0.8,1.1-1.4,1.9-1.9c0.8-0.5,1.7-0.9,2.7-1.1
	c1-0.2,2.1-0.3,3.1-0.3c0.9,0,1.7,0.1,2.6,0.2c0.9,0.1,1.7,0.3,2.6,0.6v4.6c-0.8-0.4-1.6-0.8-2.4-1c-0.9-0.2-1.7-0.3-2.5-0.3
	c-0.4,0-0.8,0-1.1,0.1c-0.3,0.1-0.7,0.2-0.9,0.3c-0.3,0.1-0.5,0.3-0.6,0.5c-0.2,0.2-0.2,0.4-0.2,0.7c0,0.3,0.1,0.6,0.3,0.9
	c0.2,0.2,0.5,0.5,0.9,0.6c0.4,0.2,0.8,0.3,1.2,0.5c0.4,0.1,0.9,0.3,1.3,0.4c0.8,0.3,1.5,0.6,2.1,0.9c0.6,0.3,1.2,0.7,1.6,1.1
	c0.5,0.4,0.8,0.9,1.1,1.5c0.2,0.6,0.4,1.3,0.4,2.1c0,1.1-0.2,2.1-0.7,2.9c-0.5,0.8-1.1,1.5-2,2c-0.8,0.5-1.8,0.9-2.8,1.1
	c-1.1,0.2-2.2,0.3-3.3,0.3C107,48.6,105.1,48.3,103.3,47.7L103.3,47.7z M123.9,40.4c-0.1-0.3-0.2-0.7-0.3-1.1
	c-0.1-0.4-0.1-0.8-0.1-1.2c0-0.6,0.1-1.1,0.2-1.6c0.1-0.5,0.3-0.9,0.5-1.3c0.2-0.4,0.5-0.8,0.8-1.2c0.3-0.4,0.7-0.8,1.2-1.1
	c0.5-0.4,0.9-0.8,1.2-1.1c0.4-0.3,0.7-0.7,0.9-1c0.3-0.3,0.4-0.7,0.6-1.1c0.1-0.4,0.2-0.8,0.2-1.2c0-0.4-0.1-0.7-0.2-1.1
	c-0.1-0.3-0.3-0.6-0.6-0.9c-0.3-0.2-0.6-0.4-0.9-0.6c-0.4-0.1-0.8-0.2-1.2-0.2c-1,0-2,0.2-3,0.6c-1.1,0.4-2,1-3,1.9v-5.7
	c1-0.6,2-1,3.2-1.3c1.1-0.3,2.3-0.4,3.5-0.4c1.2,0,2.2,0.1,3.2,0.4c1,0.3,1.9,0.7,2.6,1.2c0.7,0.5,1.3,1.3,1.7,2.1
	c0.4,0.9,0.6,1.9,0.6,3.1c0,0.8-0.1,1.5-0.3,2.1c-0.2,0.6-0.4,1.2-0.8,1.8c-0.3,0.6-0.8,1.1-1.3,1.6c-0.5,0.5-1.1,1-1.7,1.6
	c-0.4,0.4-0.8,0.7-1.2,1c-0.3,0.3-0.6,0.6-0.8,0.9c-0.2,0.3-0.4,0.6-0.5,1c-0.1,0.3-0.2,0.7-0.2,1.2c0,0.3,0,0.6,0.1,0.9
	c0.1,0.3,0.2,0.6,0.3,0.8H123.9L123.9,40.4z M126.6,48.6c-1,0-1.8-0.3-2.5-0.9c-0.7-0.6-1-1.4-1-2.2c0-0.9,0.3-1.6,1-2.2
	c0.7-0.6,1.5-0.9,2.5-0.9c1,0,1.8,0.3,2.5,0.9c0.7,0.6,1,1.3,1,2.2c0,0.9-0.3,1.6-1,2.2C128.5,48.3,127.6,48.6,126.6,48.6z"/>
</svg>
